<svg width="567" height="562" viewBox="0 0 567 562" fill="none" xmlns="http://www.w3.org/2000/svg">
<path d="M500.976 471.606C489.459 483.405 478.546 490.995 469.948 497.016C368.69 567.648 248.888 547.051 223.438 542.037C185.846 534.607 113.16 520.251 60.6082 460.189C-18.904 369.281 -6.52109 226.082 55.1517 131.57C66.4272 114.274 126.006 18.3116 247.117 2.92867C320.407 -6.39373 405.839 12.392 467.693 62.7893C597.542 168.557 588.3 382.248 500.976 471.606Z" fill="url(#paint0_linear)"/>
<path d="M215.143 500.297C182.222 506.801 140.261 470.82 126.811 431.577C112.979 391.207 138.55 374.354 138.49 318.38C138.409 254.794 105.348 245.129 83.6827 159.355C78.7899 140.006 50.4804 28.0162 85.9378 7.11634C118.717 -12.213 210.552 43.6811 226.499 114.958C237.875 165.778 202.297 187.041 215.727 246.237C227.505 298.185 258.795 299.01 270.674 349.126C285.131 410.154 258.372 491.76 215.143 500.297Z" fill="#BDD0FB"/>
<path d="M212.726 515.701C221.767 447.202 204.693 341.454 188.786 264.821C171.571 181.846 151.96 114.133 151.758 113.468L149.02 114.274C149.221 114.938 168.792 182.551 185.987 265.446C201.854 341.877 218.868 447.262 209.887 515.358L212.726 515.701Z" fill="#7D97F4"/>
<path d="M153.429 483.304C200.001 465.827 224.545 389.275 202.76 360.784C188.041 341.515 161.705 356.677 140.604 336.018C113.663 309.622 140.744 269.392 124.174 210.901C110.059 161.128 67.8365 110.529 38.8424 116.308C8.49931 122.368 -10.7093 192.357 8.96241 238.365C21.748 268.285 41.5405 272.211 43.7553 298.85C46.3325 329.757 14.4793 339.844 10.7544 369.06C4.06966 421.531 91.817 506.439 153.429 483.304Z" fill="#91B3FA"/>
<path d="M127.355 500.499C127.617 500.54 127.878 500.499 128.16 500.419C129.107 500.097 129.59 499.07 129.268 498.144C85.7766 371.415 85.6759 230.532 85.6759 229.123C85.6759 228.136 84.8705 227.331 83.8839 227.331C82.8973 227.331 82.0919 228.136 82.0718 229.123C82.0718 230.532 82.1725 372.019 125.845 499.311C126.107 499.976 126.69 500.419 127.355 500.499Z" fill="url(#paint1_linear)"/>
<path d="M35.8224 259.506C36.0036 259.526 36.205 259.486 36.366 259.385C36.7687 259.144 36.9097 258.62 36.6681 258.198C21.2046 232.445 5.19746 194.612 16.7548 160.725C23.6409 140.55 37.2117 131.228 37.3526 131.147C37.7553 130.885 37.856 130.342 37.5943 129.959C37.3325 129.556 36.7889 129.456 36.4063 129.718C35.8224 130.1 22.2113 139.443 15.144 160.181C8.66063 179.229 6.86864 211.847 35.2184 259.083C35.3392 259.345 35.5607 259.486 35.8224 259.506Z" fill="url(#paint2_linear)"/>
<path d="M158.645 473.337C158.926 473.378 159.208 473.277 159.39 473.055C192.572 435.383 206.042 404.778 199.438 382.127C193.578 361.972 173.303 355.891 173.101 355.831C172.638 355.71 172.175 355.952 172.034 356.415C171.893 356.878 172.155 357.341 172.618 357.482C172.819 357.542 192.209 363.381 197.787 382.63C204.189 404.678 190.84 434.719 158.081 471.928C157.759 472.29 157.799 472.834 158.161 473.136C158.322 473.257 158.483 473.317 158.645 473.337Z" fill="#F0F0F0"/>
<g opacity="0.3">
<path opacity="0.3" d="M426.538 133.784C425.128 133.724 424.021 132.536 424.081 131.127C424.202 128.368 424.182 125.589 424.061 122.811C424.001 121.422 425.068 120.234 426.457 120.133C426.477 120.133 426.497 120.133 426.497 120.133C427.907 120.073 429.115 121.16 429.175 122.589C429.296 125.489 429.316 128.449 429.196 131.328C429.135 132.657 428.088 133.704 426.799 133.784C426.719 133.804 426.618 133.804 426.538 133.784ZM422.531 109.421C422.028 106.703 421.424 103.985 420.699 101.327C420.336 99.9579 421.142 98.5485 422.491 98.186C423.86 97.8236 425.269 98.629 425.632 99.978C426.397 102.777 427.041 105.636 427.565 108.495C427.826 109.884 426.9 111.233 425.511 111.475C425.41 111.495 425.31 111.515 425.209 111.515C423.94 111.596 422.773 110.71 422.531 109.421ZM416.249 88.5818C415.162 86.0448 413.953 83.5279 412.645 81.0916C411.98 79.8433 412.443 78.2929 413.692 77.6284C414.94 76.964 416.491 77.4271 417.155 78.6755C418.524 81.2326 419.793 83.8904 420.94 86.5481C421.504 87.8569 420.9 89.3469 419.591 89.9107C419.309 90.0315 419.027 90.0919 418.746 90.112C417.719 90.1925 416.692 89.6086 416.249 88.5818ZM405.477 69.6752C403.846 67.4402 402.114 65.2657 400.302 63.1918C399.376 62.1247 399.477 60.5139 400.544 59.5675C401.611 58.6413 403.222 58.742 404.168 59.8092C406.081 62.0039 407.913 64.2992 409.625 66.6349C410.45 67.7825 410.208 69.3732 409.061 70.2188C408.658 70.5209 408.175 70.6819 407.712 70.7021C406.866 70.7826 406 70.4202 405.477 69.6752ZM390.738 53.6479C388.664 51.8358 386.469 50.1042 384.255 48.4733C383.107 47.6276 382.865 46.037 383.691 44.8893C384.537 43.7416 386.127 43.5 387.275 44.3255C389.631 46.037 391.926 47.8692 394.101 49.7821C395.168 50.7083 395.289 52.3392 394.362 53.4063C393.899 53.95 393.255 54.2318 392.591 54.2922C391.946 54.3124 391.282 54.111 390.738 53.6479ZM372.838 41.2852C370.402 39.9764 367.885 38.7683 365.368 37.6609C364.06 37.0971 363.476 35.587 364.039 34.2984C364.603 32.9897 366.113 32.4057 367.402 32.9695C370.06 34.1172 372.717 35.4058 375.275 36.775C376.523 37.4394 376.986 38.9898 376.322 40.2382C375.879 41.0436 375.073 41.5268 374.228 41.5872C373.744 41.6073 373.281 41.5067 372.838 41.2852ZM277.641 40.0771C276.977 38.8287 277.44 37.2784 278.688 36.6139C281.245 35.2447 283.903 33.9763 286.581 32.8286C287.89 32.2648 289.4 32.8688 289.943 34.1776C290.507 35.4864 289.903 36.9763 288.594 37.5401C286.057 38.6274 283.54 39.8355 281.104 41.1241C280.762 41.3053 280.42 41.406 280.057 41.4261C279.091 41.5067 278.124 41.0033 277.641 40.0771ZM352.643 33.191C349.985 32.4661 347.267 31.842 344.549 31.3386C343.16 31.0768 342.233 29.748 342.495 28.3587C342.757 26.9694 344.086 26.0432 345.475 26.3049C348.334 26.8284 351.193 27.4929 353.992 28.258C355.361 28.6405 356.167 30.05 355.784 31.4191C355.482 32.5064 354.536 33.2313 353.469 33.2917C353.207 33.2917 352.925 33.2715 352.643 33.191ZM298.199 31.3185C297.836 29.9493 298.642 28.5399 300.011 28.1774C302.809 27.4123 305.689 26.768 308.548 26.2646C309.937 26.0029 311.266 26.9291 311.528 28.3385C311.79 29.7278 310.863 31.0567 309.454 31.3185C306.736 31.8017 304.018 32.4259 301.34 33.1507C301.179 33.191 300.997 33.2313 300.836 33.2313C299.628 33.2917 298.521 32.5266 298.199 31.3185ZM331.159 29.8084C328.401 29.6876 325.622 29.6876 322.864 29.8084C321.454 29.8688 320.246 28.7613 320.186 27.3519C320.125 25.9626 321.193 24.7747 322.582 24.6941C322.602 24.6941 322.622 24.6941 322.642 24.6941C325.542 24.5733 328.481 24.5733 331.381 24.6941C332.79 24.7545 333.898 25.9425 333.837 27.3721C333.777 28.701 332.73 29.7479 331.441 29.8285C331.34 29.8285 331.26 29.8285 331.159 29.8084Z" fill="#91B3FA"/>
<path opacity="0.3" d="M264.996 51.3121C265.5 51.2718 266.003 51.0906 266.426 50.7685C267.453 49.9429 268.54 49.1375 269.607 48.3523C270.755 47.5268 270.996 45.916 270.171 44.7683C269.345 43.6206 267.735 43.379 266.587 44.2045C265.459 45.0301 264.332 45.8757 263.245 46.7415C262.137 47.6274 261.956 49.2382 262.822 50.3456C263.365 51.0302 264.191 51.3725 264.996 51.3121Z" fill="#91B3FA"/>
</g>
<g opacity="0.3">
<path opacity="0.3" d="M227.626 119.972C228.854 119.892 229.901 118.925 230.022 117.657C230.143 116.348 230.304 114.999 230.485 113.69C230.686 112.281 229.7 110.992 228.29 110.791C226.881 110.589 225.592 111.576 225.391 112.985C225.21 114.375 225.029 115.784 224.908 117.173C224.767 118.583 225.814 119.831 227.223 119.972C227.344 119.972 227.485 119.972 227.626 119.972Z" fill="#91B3FA"/>
<path opacity="0.3" d="M328.199 229.424C326.79 229.445 325.622 228.317 325.602 226.887C325.582 225.478 326.709 224.31 328.139 224.29C330.837 224.25 333.575 224.089 336.293 223.827C337.703 223.686 338.951 224.713 339.092 226.122C339.233 227.532 338.206 228.78 336.797 228.921C335.609 229.042 334.441 229.122 333.253 229.203C331.562 229.344 329.87 229.404 328.199 229.424ZM347.488 224.753C347.166 223.384 348.012 221.995 349.401 221.673C352.039 221.048 354.696 220.303 357.274 219.458C358.623 219.015 360.072 219.76 360.515 221.089C360.958 222.438 360.213 223.887 358.884 224.33C356.166 225.216 353.388 226.001 350.609 226.666C350.468 226.706 350.327 226.726 350.186 226.726C348.918 226.807 347.77 225.981 347.488 224.753ZM314.246 228.679C311.407 228.337 308.568 227.854 305.769 227.27C304.38 226.988 303.494 225.619 303.796 224.23C304.078 222.84 305.447 221.954 306.836 222.256C309.494 222.82 312.212 223.263 314.89 223.605C316.299 223.787 317.286 225.055 317.125 226.465C316.964 227.713 315.957 228.639 314.749 228.7C314.568 228.7 314.407 228.7 314.246 228.679ZM368.388 217.887C367.764 216.619 368.287 215.088 369.576 214.464C372.012 213.276 374.428 211.968 376.764 210.578C377.972 209.853 379.563 210.256 380.288 211.464C381.013 212.672 380.61 214.263 379.402 214.988C376.945 216.458 374.408 217.827 371.831 219.095C371.529 219.256 371.187 219.337 370.865 219.357C369.838 219.397 368.851 218.854 368.388 217.887ZM292.339 223.465C289.661 222.498 286.983 221.411 284.366 220.223C283.077 219.639 282.513 218.109 283.097 216.82C283.681 215.531 285.211 214.968 286.5 215.552C288.977 216.679 291.514 217.726 294.071 218.632C295.4 219.115 296.104 220.585 295.621 221.914C295.259 222.901 294.353 223.545 293.366 223.605C293.024 223.626 292.681 223.585 292.339 223.465ZM272.084 213.558C269.667 212.028 267.291 210.377 265.016 208.665C263.889 207.8 263.667 206.209 264.513 205.081C265.379 203.954 266.969 203.732 268.097 204.578C270.251 206.209 272.527 207.78 274.802 209.229C275.99 209.994 276.352 211.565 275.587 212.773C275.124 213.498 274.379 213.9 273.574 213.961C273.09 213.981 272.567 213.86 272.084 213.558ZM254.486 199.484C252.452 197.47 250.499 195.336 248.647 193.162C247.741 192.074 247.861 190.464 248.949 189.558C250.036 188.631 251.647 188.772 252.553 189.86C254.305 191.933 256.177 193.947 258.09 195.86C259.097 196.866 259.097 198.477 258.09 199.484C257.627 199.947 257.043 200.189 256.439 200.229C255.754 200.269 255.029 200.028 254.486 199.484ZM240.371 181.886C238.841 179.47 237.391 176.973 236.062 174.436C235.398 173.188 235.901 171.638 237.15 170.973C238.398 170.309 239.948 170.812 240.613 172.06C241.861 174.456 243.251 176.853 244.7 179.128C245.465 180.316 245.103 181.906 243.915 182.671C243.532 182.913 243.13 183.034 242.707 183.074C241.801 183.135 240.895 182.712 240.371 181.886ZM230.465 161.631C229.499 158.953 228.653 156.174 227.908 153.416C227.545 152.046 228.351 150.637 229.72 150.275C231.089 149.912 232.499 150.718 232.861 152.087C233.566 154.704 234.371 157.342 235.277 159.879C235.76 161.208 235.056 162.678 233.727 163.161C233.485 163.241 233.264 163.302 233.022 163.302C231.915 163.402 230.848 162.738 230.465 161.631ZM225.25 139.704C224.988 137.61 224.787 135.496 224.666 133.402C224.626 132.637 224.586 131.892 224.545 131.126C224.485 129.717 225.572 128.489 227.002 128.469C228.411 128.408 229.619 129.516 229.68 130.925C229.7 131.65 229.74 132.355 229.801 133.08C229.921 135.073 230.123 137.086 230.364 139.06C230.546 140.469 229.539 141.737 228.129 141.919C228.069 141.919 228.029 141.939 227.968 141.939C226.599 142.04 225.411 141.053 225.25 139.704Z" fill="#91B3FA"/>
<path opacity="0.3" d="M389.469 207.518C389.973 207.478 390.476 207.297 390.919 206.954C392.006 206.089 393.093 205.182 394.14 204.256C395.208 203.33 395.328 201.699 394.382 200.632C393.456 199.565 391.825 199.444 390.758 200.39C389.751 201.256 388.724 202.122 387.697 202.947C386.59 203.833 386.409 205.444 387.295 206.552C387.838 207.236 388.664 207.558 389.469 207.518Z" fill="#91B3FA"/>
</g>
<path d="M394.302 163.825C394.604 163.402 394.604 162.859 394.302 162.436L385.845 150.536C388.443 144.234 390.053 137.489 390.517 130.482L403.342 123.535C403.785 123.294 404.047 122.79 403.946 122.287L401.087 105.032C401.007 104.528 400.604 104.125 400.101 104.045L385.724 101.609C383.026 95.1454 379.322 89.266 374.832 84.1316L378.979 70.1581C379.12 69.6749 378.939 69.1312 378.536 68.8494L364.301 58.6612C363.878 58.3591 363.335 58.3591 362.912 58.6612L351.012 67.1178C344.71 64.5204 337.965 62.9096 330.958 62.4465L324.011 49.6206C323.77 49.1777 323.266 48.9159 322.763 49.0166L305.508 51.8757C305.004 51.9563 304.602 52.359 304.521 52.8623L302.085 67.2386C295.621 69.9366 289.742 73.6414 284.608 78.1315L270.634 73.9837C270.151 73.8428 269.607 74.024 269.325 74.4267L259.137 88.662C258.835 89.0848 258.835 89.6284 259.137 90.0513L267.594 101.951C264.996 108.253 263.386 114.998 262.923 122.005L250.097 128.952C249.654 129.193 249.392 129.697 249.493 130.2L252.352 147.456C252.432 147.959 252.835 148.362 253.338 148.442L267.715 150.878C270.413 157.342 274.117 163.221 278.608 168.355L274.46 182.329C274.319 182.812 274.5 183.356 274.903 183.638L289.138 193.826C289.561 194.128 290.105 194.128 290.527 193.826L302.427 185.369C308.729 187.967 315.474 189.577 322.481 190.041L329.428 202.866C329.669 203.309 330.173 203.571 330.676 203.47L347.932 200.611C348.435 200.531 348.838 200.128 348.918 199.625L351.354 185.248C357.818 182.55 363.697 178.846 368.831 174.356L382.805 178.503C383.288 178.644 383.832 178.463 384.114 178.06L394.302 163.825Z" fill="#91B3FA"/>
<path d="M325.28 143.771C315.615 142.966 308.407 134.449 309.212 124.784C309.595 120.093 311.79 115.844 315.374 112.824C318.957 109.784 323.508 108.334 328.199 108.716C337.864 109.522 345.072 118.039 344.267 127.704C343.542 136.502 336.414 143.248 327.877 143.791C327.031 143.852 326.166 143.831 325.28 143.771ZM318.031 115.945C315.273 118.28 313.602 121.522 313.3 125.126C312.675 132.536 318.212 139.06 325.622 139.684C333.032 140.308 339.555 134.771 340.179 127.361C340.804 119.952 335.267 113.428 327.857 112.804C327.193 112.743 326.508 112.743 325.864 112.784C322.984 112.965 320.266 114.052 318.031 115.945Z" fill="#BDD0FB"/>
<path d="M329.126 169.161C330.596 169.06 332.066 168.899 333.535 168.658C333.999 168.577 334.462 168.496 334.925 168.396C337.2 167.953 339.435 167.309 341.589 166.503C341.609 166.483 341.65 166.483 341.67 166.463C341.75 166.423 341.831 166.402 341.912 166.362C342.073 166.302 342.234 166.241 342.395 166.181C342.818 166.02 343.059 165.597 343.039 165.154C343.039 165.053 343.019 164.953 342.959 164.832C342.757 164.308 342.153 164.047 341.63 164.248C338.911 165.315 336.072 166.1 333.173 166.584C318.777 168.98 304.863 163.543 295.763 153.416C290.709 147.778 287.125 140.69 285.796 132.677C285.554 131.267 285.393 129.858 285.313 128.469C284.709 119.045 287.366 109.763 292.924 101.971C299.326 93.0313 308.83 87.1117 319.683 85.2995C342.093 81.5746 363.335 96.7965 367.06 119.186C367.281 120.576 367.442 121.965 367.543 123.334C367.926 129.354 366.979 135.375 364.764 140.992C364.704 141.133 364.684 141.294 364.704 141.435C364.724 141.818 364.966 142.18 365.348 142.321C365.872 142.523 366.476 142.281 366.677 141.737C368.993 135.838 369.979 129.516 369.597 123.193C369.496 121.744 369.335 120.274 369.093 118.824C365.187 95.3065 342.878 79.3397 319.361 83.2458C307.964 85.1385 297.998 91.34 291.272 100.743C285.413 108.918 282.655 118.663 283.279 128.549C283.38 130.019 283.541 131.489 283.782 132.979C285.675 144.375 291.877 154.342 301.279 161.067C309.474 167.007 319.22 169.785 329.126 169.161Z" fill="#BDD0FB"/>
<g opacity="0.3">
<path opacity="0.3" d="M518.412 195.679C519.097 195.638 519.701 195.155 519.862 194.45C520.164 193.141 520.426 191.792 520.627 190.464C520.768 189.598 520.184 188.792 519.318 188.651C518.453 188.51 517.647 189.094 517.506 189.96C517.305 191.229 517.043 192.497 516.761 193.746C516.56 194.591 517.104 195.437 517.949 195.638C518.11 195.678 518.251 195.699 518.412 195.679Z" fill="#91B3FA"/>
<path opacity="0.3" d="M519.822 183.598C518.956 183.557 518.271 182.833 518.292 181.947C518.372 179.732 518.352 177.497 518.211 175.302C518.191 174.839 518.151 174.376 518.11 173.913C518.03 173.047 518.674 172.282 519.56 172.201C520.386 172.161 521.191 172.765 521.272 173.651C521.312 174.134 521.352 174.618 521.372 175.121C521.513 177.436 521.553 179.772 521.453 182.088C521.412 182.913 520.768 183.557 519.963 183.598C519.943 183.598 519.882 183.598 519.822 183.598ZM516.943 165.96C516.399 163.342 515.674 160.725 514.808 158.208C514.526 157.382 514.969 156.476 515.795 156.194C516.62 155.912 517.526 156.355 517.808 157.181C518.714 159.819 519.459 162.557 520.043 165.315C520.225 166.181 519.681 167.007 518.815 167.188C518.735 167.208 518.654 167.208 518.594 167.208C517.828 167.268 517.104 166.745 516.943 165.96ZM511.748 150.778C510.58 148.382 509.251 146.026 507.781 143.791C507.298 143.066 507.519 142.08 508.244 141.597C508.989 141.113 509.956 141.315 510.439 142.06C511.969 144.415 513.379 146.872 514.607 149.389C514.989 150.174 514.667 151.12 513.882 151.503C513.681 151.604 513.479 151.644 513.298 151.664C512.654 151.704 512.05 151.362 511.748 150.778ZM502.989 137.328C501.258 135.274 499.385 133.321 497.432 131.509C496.788 130.905 496.747 129.918 497.351 129.274C497.935 128.63 498.942 128.589 499.586 129.194C501.64 131.086 503.593 133.14 505.405 135.294C505.969 135.959 505.889 136.966 505.224 137.529C504.962 137.751 504.64 137.872 504.298 137.892C503.815 137.912 503.311 137.731 502.989 137.328ZM491.19 126.435C489.016 124.865 486.72 123.435 484.385 122.146C483.619 121.724 483.338 120.757 483.76 119.992C484.183 119.227 485.15 118.945 485.915 119.368C488.371 120.717 490.767 122.227 493.043 123.858C493.747 124.361 493.908 125.368 493.405 126.073C493.123 126.475 492.68 126.697 492.217 126.737C491.875 126.737 491.512 126.657 491.19 126.435ZM477.116 118.723C474.639 117.737 472.062 116.891 469.485 116.227C468.639 116.005 468.136 115.139 468.357 114.294C468.579 113.448 469.445 112.945 470.29 113.166C473.008 113.871 475.686 114.757 478.304 115.784C479.109 116.106 479.512 117.032 479.19 117.838C478.948 118.421 478.405 118.804 477.821 118.844C477.579 118.844 477.337 118.804 477.116 118.723ZM461.592 114.696C458.954 114.354 456.256 114.173 453.578 114.153C452.713 114.153 452.008 113.428 452.008 112.562C452.008 111.696 452.733 110.992 453.599 110.992C456.417 111.012 459.236 111.193 462.015 111.555C462.881 111.676 463.485 112.462 463.384 113.327C463.283 114.092 462.659 114.656 461.914 114.696C461.793 114.717 461.693 114.696 461.592 114.696ZM435.719 114.858C435.518 114.012 436.041 113.146 436.887 112.945C439.242 112.361 441.659 111.918 444.095 111.596C444.457 111.535 444.82 111.495 445.202 111.455C446.068 111.334 446.853 111.978 446.954 112.844C447.055 113.71 446.431 114.495 445.565 114.596C445.222 114.636 444.88 114.676 444.518 114.737C442.202 115.039 439.887 115.482 437.652 116.025C437.551 116.046 437.471 116.066 437.37 116.066C436.605 116.106 435.9 115.603 435.719 114.858Z" fill="#91B3FA"/>
</g>
<g opacity="0.3">
<path opacity="0.3" d="M456.498 247.707C453.74 247.848 450.961 247.808 448.202 247.626C447.337 247.566 446.672 246.801 446.733 245.935C446.793 245.069 447.558 244.405 448.424 244.465C451.041 244.646 453.699 244.687 456.337 244.546C457.203 244.505 457.948 245.17 458.008 246.056C458.048 246.922 457.384 247.667 456.518 247.707H456.498ZM462.901 245.492C462.76 244.626 463.324 243.821 464.189 243.66C466.787 243.217 469.384 242.613 471.901 241.848C472.727 241.606 473.613 242.069 473.874 242.915C474.116 243.76 473.653 244.626 472.807 244.888C470.169 245.673 467.451 246.318 464.733 246.781C464.673 246.781 464.612 246.801 464.572 246.801C463.767 246.861 463.042 246.297 462.901 245.492ZM439.987 246.519C437.269 245.995 434.571 245.291 431.954 244.425C431.128 244.163 430.665 243.257 430.947 242.432C431.209 241.606 432.115 241.143 432.94 241.425C435.437 242.23 438.014 242.915 440.592 243.418C441.457 243.579 442.001 244.425 441.84 245.271C441.699 245.995 441.095 246.499 440.39 246.539C440.249 246.559 440.108 246.559 439.987 246.519ZM478.525 241.224C478.183 240.418 478.546 239.492 479.331 239.129C481.747 238.082 484.103 236.854 486.378 235.525C487.123 235.082 488.11 235.324 488.552 236.069C488.995 236.814 488.754 237.801 487.989 238.244C485.613 239.653 483.136 240.921 480.599 242.029C480.418 242.109 480.237 242.15 480.056 242.15C479.431 242.21 478.787 241.848 478.525 241.224ZM424.242 241.405C421.745 240.237 419.289 238.908 416.953 237.458C416.208 236.995 415.987 236.009 416.45 235.284C416.913 234.539 417.88 234.317 418.625 234.78C420.86 236.17 423.195 237.438 425.571 238.546C426.356 238.908 426.699 239.854 426.336 240.66C426.074 241.203 425.551 241.526 425.007 241.566C424.766 241.566 424.504 241.505 424.242 241.405ZM410.208 232.646C408.054 230.914 406 229.042 404.067 227.069C403.463 226.445 403.463 225.438 404.087 224.834C404.711 224.23 405.718 224.23 406.322 224.854C408.154 226.726 410.128 228.518 412.181 230.169C412.866 230.713 412.967 231.72 412.423 232.404C412.141 232.767 411.718 232.968 411.295 232.988C410.913 233.009 410.51 232.908 410.208 232.646ZM398.651 220.787C396.98 218.592 395.429 216.277 394.04 213.901C393.597 213.135 393.859 212.169 394.604 211.726C395.349 211.283 396.335 211.545 396.778 212.29C398.107 214.565 399.577 216.76 401.188 218.854C401.711 219.558 401.591 220.545 400.886 221.069C400.624 221.27 400.322 221.371 400.02 221.391C399.497 221.431 398.993 221.21 398.651 220.787Z" fill="#91B3FA"/>
<path opacity="0.3" d="M494.049 233.874C494.351 233.854 494.653 233.753 494.915 233.552C495.982 232.726 497.049 231.861 498.036 230.975C498.701 230.391 498.761 229.404 498.197 228.74C497.613 228.075 496.627 228.015 495.962 228.579C494.996 229.424 494.009 230.23 492.982 231.035C492.298 231.579 492.157 232.565 492.7 233.25C493.023 233.693 493.526 233.894 494.049 233.874Z" fill="#91B3FA"/>
</g>
<path d="M498.237 204.014C498.439 203.732 498.439 203.37 498.237 203.088L492.579 195.135C494.311 190.927 495.398 186.396 495.7 181.725L504.278 177.074C504.58 176.913 504.741 176.571 504.68 176.228L502.768 164.671C502.707 164.329 502.445 164.067 502.103 164.007L492.479 162.376C490.667 158.047 488.19 154.12 485.19 150.677L487.969 141.315C488.069 140.993 487.948 140.63 487.667 140.429L478.143 133.623C477.861 133.422 477.498 133.422 477.217 133.623L469.263 139.281C465.055 137.549 460.525 136.462 455.854 136.16L451.202 127.583C451.041 127.281 450.699 127.12 450.357 127.18L438.799 129.093C438.457 129.153 438.195 129.415 438.135 129.757L436.504 139.382C432.175 141.194 428.249 143.67 424.806 146.671L415.443 143.892C415.121 143.791 414.758 143.912 414.557 144.194L407.752 153.718C407.55 154 407.55 154.362 407.752 154.644L413.409 162.597C411.678 166.805 410.591 171.336 410.289 176.007L401.711 180.658C401.409 180.819 401.248 181.161 401.308 181.504L403.221 193.061C403.282 193.403 403.543 193.665 403.886 193.725L413.51 195.356C415.322 199.685 417.799 203.612 420.799 207.055L418.02 216.417C417.92 216.739 418.04 217.102 418.322 217.303L427.846 224.109C428.128 224.31 428.49 224.31 428.772 224.109L436.726 218.451C440.934 220.183 445.464 221.27 450.135 221.572L454.786 230.149C454.947 230.451 455.29 230.612 455.632 230.552L467.189 228.639C467.532 228.579 467.794 228.317 467.854 227.975L469.485 218.35C473.814 216.538 477.74 214.062 481.183 211.061L490.546 213.84C490.868 213.941 491.23 213.82 491.432 213.538L498.237 204.014Z" fill="#91B3FA"/>
<path d="M452.048 190.806C448.867 190.544 445.967 189.054 443.893 186.598C441.819 184.162 440.833 181.061 441.095 177.859C441.638 171.275 447.437 166.383 454.021 166.906C460.605 167.45 465.518 173.249 464.974 179.833C464.713 183.014 463.223 185.913 460.786 187.987C458.793 189.658 456.377 190.645 453.84 190.806C453.236 190.846 452.632 190.846 452.048 190.806ZM444.256 178.141C444.054 180.497 444.799 182.772 446.309 184.564C447.84 186.356 449.954 187.464 452.31 187.645C454.665 187.846 456.941 187.101 458.733 185.591C460.525 184.081 461.632 181.947 461.813 179.591C462.216 174.759 458.612 170.49 453.759 170.087C453.316 170.047 452.893 170.047 452.471 170.067C448.182 170.349 444.618 173.732 444.256 178.141Z" fill="#BDD0FB"/>
<path d="M454.706 208.484C455.712 208.424 456.719 208.303 457.726 208.142C459.739 207.82 461.692 207.276 463.585 206.551C463.666 206.511 463.746 206.491 463.847 206.45C464.511 206.189 464.894 205.544 464.854 204.88C464.834 204.719 464.813 204.558 464.753 204.397C464.431 203.591 463.505 203.189 462.699 203.511C460.948 204.216 459.095 204.719 457.223 205.021C457.122 205.041 457.021 205.061 456.921 205.061C452.491 205.746 448.041 205.323 443.913 203.833C441.679 203.028 439.544 201.92 437.531 200.531C437.511 200.511 437.49 200.511 437.49 200.491C437.45 200.45 437.39 200.43 437.35 200.39C431.551 196.242 427.725 190.101 426.557 183.074C426.396 182.168 426.296 181.262 426.235 180.356C425.853 174.255 427.564 168.255 431.168 163.201C435.316 157.402 441.457 153.577 448.484 152.409C455.511 151.241 462.578 152.892 468.357 157.02C474.156 161.167 477.982 167.309 479.149 174.336C479.29 175.221 479.391 176.128 479.451 177.034C479.693 180.92 479.089 184.826 477.659 188.47C477.579 188.692 477.539 188.933 477.559 189.155C477.599 189.739 477.961 190.302 478.565 190.524C479.371 190.846 480.297 190.443 480.619 189.638C482.23 185.571 482.894 181.201 482.633 176.852C482.572 175.846 482.451 174.839 482.29 173.832C480.982 165.98 476.693 159.094 470.21 154.442C463.726 149.811 455.833 147.959 447.961 149.268C440.108 150.577 433.222 154.865 428.571 161.349C424.524 166.986 422.611 173.711 423.054 180.537C423.114 181.544 423.235 182.571 423.396 183.577C425.933 198.799 439.625 209.43 454.706 208.484Z" fill="#BDD0FB"/>
<path d="M65.3191 487.653C65.3191 492.325 69.1447 496.15 73.816 496.15H533.835C538.506 496.15 542.332 492.325 542.332 487.653L546.158 223.304C546.158 218.633 540.641 209.512 530.553 210.196L81.0041 198.538C75.1247 198.377 69.4668 200.652 65.2989 204.78C61.1512 208.928 58.876 214.586 58.9968 220.445L65.3191 487.653Z" fill="url(#paint3_linear)"/>
<path d="M73.7154 479.499C73.7154 483.928 77.3397 487.553 81.7693 487.553H522.761C527.191 487.553 530.815 483.928 530.815 479.499L534.419 239.512C533.996 225.076 521.332 219.881 513.66 220.183L82.7761 208.626C78.6484 208.525 74.6617 210.095 71.7422 213.015C68.8227 215.935 67.2119 219.921 67.3126 224.049L73.7154 479.499Z" fill="url(#paint4_linear)"/>
<path opacity="0.32" d="M85.7559 474.284C85.7559 478.492 89.1989 481.915 93.3869 481.915H511.928C516.137 481.915 519.559 478.472 519.559 474.284L522.982 246.519C522.58 232.807 510.559 227.895 503.27 228.176L94.3132 217.203C90.407 217.102 86.6217 218.612 83.8431 221.371C81.0645 224.129 79.5544 227.915 79.6349 231.841L85.7559 474.284Z" fill="#91B3FA"/>
<path d="M526.043 332.515C526.023 332.515 526.023 332.515 526.043 332.515C525.379 332.515 524.855 332.092 524.855 331.589L525.137 316.568C525.137 316.065 525.68 315.662 526.325 315.662H526.345C526.989 315.662 527.513 316.085 527.513 316.588L527.231 331.609C527.211 332.112 526.687 332.515 526.043 332.515Z" fill="#91B3FA"/>
<path d="M526.748 295.709C526.728 295.709 526.728 295.709 526.748 295.709C526.083 295.709 525.56 295.286 525.56 294.782L526.647 237.257C526.627 233.835 525.278 231.116 522.66 229.163C517.748 225.539 509.955 225.72 509.633 225.74L371.911 222.881C371.267 222.861 370.744 222.458 370.764 221.955C370.784 221.452 371.287 221.029 371.972 221.069L509.613 223.928C510.479 223.888 518.774 223.787 524.291 227.875C527.392 230.17 528.983 233.351 529.023 237.298L527.936 294.843C527.916 295.306 527.372 295.709 526.748 295.709Z" fill="#91B3FA"/>
<path d="M42.9294 518.097H559.668C560.292 518.097 560.816 517.594 560.816 516.95V495.989C560.816 495.365 560.313 494.842 559.668 494.842H42.9294C42.3052 494.842 41.7817 495.345 41.7817 495.989V516.95C41.7817 517.594 42.2851 518.097 42.9294 518.097Z" fill="url(#paint5_linear)"/>
<path d="M220.015 245.15L100.897 244.324C100.616 244.324 100.394 244.103 100.394 243.821L100.454 234.217C100.454 233.935 100.676 233.713 100.958 233.713L220.075 234.539C220.357 234.539 220.578 234.76 220.578 235.042L220.518 244.647C220.518 244.928 220.297 245.15 220.015 245.15Z" fill="#91B3FA"/>
<path d="M295.218 245.895L254.022 245.613C253.761 245.613 253.539 245.391 253.539 245.13L253.599 235.485C253.599 235.223 253.821 235.002 254.083 235.002L295.278 235.284C295.54 235.284 295.762 235.505 295.762 235.767L295.701 245.412C295.681 245.694 295.48 245.915 295.218 245.895Z" fill="#91B3FA"/>
<path d="M386.63 246.539L305.326 245.975C304.802 245.975 304.359 245.532 304.38 245.009L304.44 236.351C304.44 235.827 304.883 235.384 305.406 235.404L386.711 235.968C387.234 235.968 387.677 236.411 387.657 236.935L387.596 245.593C387.596 246.116 387.174 246.539 386.63 246.539Z" fill="#91B3FA"/>
<path d="M131.341 263.131L101.038 262.909C100.515 262.909 100.092 262.486 100.092 261.943L100.152 253.265C100.152 252.741 100.575 252.318 101.119 252.318L131.422 252.54C131.945 252.54 132.368 252.963 132.368 253.506L132.307 262.184C132.287 262.728 131.865 263.151 131.341 263.131Z" fill="#91B3FA"/>
<path d="M220.115 263.775L133.757 263.171C133.475 263.171 133.254 262.949 133.254 262.667L133.314 253.063C133.314 252.781 133.536 252.56 133.818 252.56L220.176 253.164C220.458 253.164 220.679 253.385 220.679 253.667L220.619 263.271C220.619 263.553 220.397 263.775 220.115 263.775Z" fill="#91B3FA"/>
<path d="M295.419 264.54L254.223 264.258C253.962 264.258 253.74 264.037 253.74 263.775L253.801 254.13C253.801 253.868 254.022 253.647 254.284 253.647L295.48 253.929C295.741 253.929 295.963 254.15 295.963 254.412L295.902 264.057C295.902 264.318 295.681 264.54 295.419 264.54Z" fill="#91B3FA"/>
<path d="M454.645 265.647L334.642 264.801C334.118 264.801 333.675 264.358 333.695 263.835L333.756 255.177C333.756 254.653 334.199 254.211 334.722 254.231L454.725 255.076C455.249 255.076 455.692 255.519 455.672 256.043L455.611 264.701C455.611 265.224 455.189 265.647 454.645 265.647Z" fill="#91B3FA"/>
<path d="M131.18 281.735L100.877 281.513C100.353 281.513 99.9307 281.09 99.9307 280.547L99.9911 271.869C99.9911 271.345 100.414 270.922 100.958 270.922L131.26 271.144C131.784 271.144 132.207 271.567 132.207 272.11L132.146 280.788C132.146 281.332 131.703 281.755 131.18 281.735Z" fill="#91B3FA"/>
<path d="M219.954 282.379L133.596 281.775C133.314 281.775 133.093 281.554 133.093 281.272L133.153 271.667C133.153 271.386 133.375 271.164 133.657 271.164L220.015 271.768C220.296 271.768 220.518 271.99 220.518 272.271L220.458 281.876C220.437 282.158 220.216 282.379 219.954 282.379Z" fill="#91B3FA"/>
<path d="M295.258 283.144L254.062 282.862C253.801 282.862 253.579 282.641 253.579 282.379L253.639 272.735C253.639 272.473 253.861 272.251 254.123 272.251L295.318 272.533C295.58 272.533 295.802 272.755 295.802 273.017L295.741 282.661C295.741 282.923 295.52 283.144 295.258 283.144Z" fill="#91B3FA"/>
<path d="M506.392 284.614L349.441 283.506C348.918 283.506 348.475 283.063 348.495 282.54L348.555 273.882C348.555 273.359 348.998 272.916 349.522 272.936L506.472 274.043C506.996 274.043 507.439 274.486 507.419 275.01L507.358 283.668C507.358 284.191 506.915 284.614 506.392 284.614Z" fill="#91B3FA"/>
<path d="M131.321 300.38L101.018 300.158C100.495 300.158 100.072 299.736 100.072 299.192L100.132 290.514C100.132 289.99 100.555 289.567 101.099 289.567L131.401 289.789C131.925 289.789 132.348 290.212 132.348 290.755L132.287 299.434C132.267 299.957 131.844 300.38 131.321 300.38Z" fill="#91B3FA"/>
<path d="M220.276 301.024L133.918 300.42C133.637 300.42 133.415 300.199 133.415 299.917L133.475 290.312C133.475 290.031 133.697 289.809 133.979 289.809L220.337 290.413C220.619 290.413 220.84 290.635 220.84 290.916L220.78 300.521C220.78 300.803 220.558 301.024 220.276 301.024Z" fill="#91B3FA"/>
<path d="M295.459 301.769L254.264 301.487C254.002 301.487 253.78 301.266 253.78 301.004L253.841 291.359C253.841 291.097 254.062 290.876 254.324 290.876L295.52 291.158C295.781 291.158 296.003 291.379 296.003 291.641L295.942 301.286C295.942 301.568 295.721 301.769 295.459 301.769Z" fill="#91B3FA"/>
<path d="M507.096 303.259L350.146 302.151C349.622 302.151 349.179 301.708 349.199 301.185L349.26 292.527C349.26 292.004 349.703 291.561 350.226 291.581L507.177 292.688C507.7 292.688 508.143 293.131 508.123 293.655L508.063 302.312C508.063 302.836 507.62 303.259 507.096 303.259Z" fill="#91B3FA"/>
<path d="M131.079 319.709L100.776 319.488C100.253 319.488 99.8301 319.065 99.8301 318.521L99.8905 309.843C99.8905 309.32 100.313 308.897 100.857 308.897L131.16 309.118C131.683 309.118 132.106 309.541 132.106 310.085L132.046 318.763C132.026 319.286 131.603 319.709 131.079 319.709Z" fill="#91B3FA"/>
<path d="M219.974 320.353L133.616 319.749C133.334 319.749 133.113 319.528 133.113 319.246L133.173 309.642C133.173 309.36 133.395 309.138 133.677 309.138L220.035 309.742C220.317 309.742 220.538 309.964 220.538 310.246L220.478 319.85C220.457 320.132 220.236 320.353 219.974 320.353Z" fill="#91B3FA"/>
<path d="M295.198 321.099L254.002 320.817C253.741 320.817 253.519 320.595 253.519 320.333L253.579 310.689C253.579 310.427 253.801 310.206 254.063 310.206L295.258 310.487C295.52 310.487 295.742 310.709 295.742 310.971L295.681 320.615C295.681 320.897 295.46 321.119 295.198 321.099Z" fill="#91B3FA"/>
<path d="M506.653 322.588L349.703 321.481C349.179 321.481 348.736 321.038 348.757 320.514L348.817 311.856C348.817 311.333 349.26 310.89 349.783 310.91L506.734 312.017C507.257 312.017 507.7 312.46 507.68 312.984L507.62 321.642C507.62 322.165 507.177 322.588 506.653 322.588Z" fill="#91B3FA"/>
<path d="M131.2 338.334L100.897 338.112C100.374 338.112 99.9507 337.69 99.9507 337.146L100.011 328.468C100.011 327.944 100.434 327.521 100.978 327.521L131.28 327.743C131.804 327.743 132.227 328.166 132.227 328.709L132.166 337.388C132.166 337.931 131.743 338.354 131.2 338.334Z" fill="#91B3FA"/>
<path d="M220.296 338.978L133.938 338.374C133.657 338.374 133.435 338.153 133.435 337.871L133.495 328.267C133.495 327.985 133.717 327.763 133.999 327.763L220.357 328.367C220.639 328.367 220.86 328.589 220.86 328.871L220.8 338.475C220.8 338.757 220.578 338.978 220.296 338.978Z" fill="#91B3FA"/>
<path d="M295.419 339.743L254.223 339.461C253.962 339.461 253.74 339.24 253.74 338.978L253.801 329.333C253.801 329.072 254.022 328.85 254.284 328.85L295.48 329.132C295.741 329.132 295.963 329.353 295.963 329.615L295.902 339.26C295.882 339.521 295.681 339.743 295.419 339.743Z" fill="#91B3FA"/>
<path d="M400.1 340.468L304.681 339.804C304.158 339.804 303.715 339.361 303.735 338.837L303.795 330.179C303.795 329.656 304.238 329.213 304.762 329.233L400.181 329.897C400.704 329.897 401.147 330.34 401.127 330.864L401.066 339.522C401.066 340.046 400.624 340.468 400.1 340.468Z" fill="#91B3FA"/>
<path d="M220.196 357.583L100.434 356.737C100.152 356.737 99.9307 356.515 99.9307 356.234L99.9911 346.629C99.9911 346.347 100.213 346.126 100.494 346.126L220.256 346.972C220.538 346.972 220.759 347.193 220.759 347.475L220.699 357.079C220.679 357.361 220.457 357.583 220.196 357.583Z" fill="#91B3FA"/>
<path d="M295.258 358.348L254.062 358.066C253.801 358.066 253.579 357.845 253.579 357.583L253.639 347.938C253.639 347.677 253.861 347.455 254.123 347.455L295.318 347.737C295.58 347.737 295.802 347.958 295.802 348.22L295.741 357.865C295.721 358.126 295.52 358.348 295.258 358.348Z" fill="#91B3FA"/>
<path d="M445.907 359.395L326.467 358.55C325.944 358.55 325.501 358.107 325.521 357.583L325.582 348.925C325.582 348.402 326.025 347.959 326.548 347.979L445.988 348.824C446.511 348.824 446.954 349.267 446.934 349.791L446.873 358.449C446.873 358.972 446.451 359.395 445.907 359.395Z" fill="#91B3FA"/>
<path d="M129.972 375.563L100.958 375.362C100.434 375.362 100.011 374.939 100.011 374.395L100.072 365.717C100.072 365.194 100.494 364.771 101.038 364.771L130.052 364.972C130.576 364.972 130.999 365.395 130.999 365.939L130.938 374.617C130.918 375.161 130.495 375.583 129.972 375.563Z" fill="#91B3FA"/>
<path d="M220.458 376.227L134.1 375.623C133.818 375.623 133.596 375.402 133.596 375.12L133.657 365.516C133.657 365.234 133.878 365.012 134.16 365.012L220.518 365.616C220.8 365.616 221.021 365.838 221.021 366.12L220.961 375.724C220.961 376.006 220.719 376.227 220.458 376.227Z" fill="#91B3FA"/>
<path d="M295.459 376.972L254.264 376.691C254.002 376.691 253.78 376.469 253.78 376.207L253.841 366.563C253.841 366.301 254.062 366.08 254.324 366.08L295.52 366.361C295.781 366.361 296.003 366.583 296.003 366.845L295.942 376.489C295.942 376.771 295.721 376.972 295.459 376.972Z" fill="#91B3FA"/>
<path d="M507.298 378.463L344.951 377.335C344.427 377.335 343.984 376.892 344.005 376.369L344.065 367.711C344.065 367.187 344.508 366.744 345.031 366.764L507.378 367.892C507.902 367.892 508.345 368.335 508.325 368.858L508.264 377.516C508.264 378.04 507.841 378.463 507.298 378.463Z" fill="#91B3FA"/>
<path d="M130.133 431.176L99.8301 430.954C99.3066 430.954 98.8838 430.531 98.8838 429.988L98.9442 421.31C98.9442 420.786 99.367 420.363 99.9107 420.363L130.214 420.585C130.737 420.585 131.16 421.008 131.16 421.551L131.099 430.229C131.079 430.753 130.657 431.176 130.133 431.176Z" fill="#91B3FA"/>
<path d="M219.25 431.82L132.892 431.216C132.61 431.216 132.388 430.994 132.388 430.712L132.449 421.108C132.449 420.826 132.67 420.604 132.952 420.604L219.31 421.209C219.592 421.209 219.813 421.43 219.813 421.712L219.753 431.316C219.753 431.598 219.531 431.82 219.25 431.82Z" fill="#91B3FA"/>
<path d="M294.332 432.565L253.136 432.283C252.874 432.283 252.653 432.061 252.653 431.8L252.713 422.155C252.713 421.893 252.935 421.672 253.196 421.672L294.392 421.954C294.654 421.954 294.875 422.175 294.875 422.437L294.815 432.082C294.815 432.363 294.594 432.565 294.332 432.565Z" fill="#91B3FA"/>
<path d="M399.013 433.31L303.594 432.645C303.071 432.645 302.628 432.202 302.648 431.679L302.709 423.021C302.709 422.497 303.151 422.054 303.675 422.074L399.093 422.739C399.617 422.739 400.06 423.182 400.04 423.705L399.979 432.363C399.979 432.887 399.536 433.31 399.013 433.31Z" fill="#91B3FA"/>
<path d="M219.149 450.424L99.3872 449.579C99.1053 449.579 98.8838 449.357 98.8838 449.075L98.9442 439.471C98.9442 439.189 99.1657 438.968 99.4476 438.968L219.209 439.813C219.491 439.813 219.713 440.035 219.713 440.317L219.652 449.921C219.652 450.203 219.431 450.424 219.149 450.424Z" fill="#91B3FA"/>
<path d="M294.171 451.169L252.975 450.887C252.714 450.887 252.492 450.666 252.492 450.404L252.553 440.76C252.553 440.498 252.774 440.276 253.036 440.276L294.232 440.558C294.493 440.558 294.715 440.78 294.715 441.041L294.654 450.686C294.654 450.968 294.433 451.169 294.171 451.169Z" fill="#91B3FA"/>
<path d="M444.759 452.236L325.32 451.39C324.796 451.39 324.353 450.947 324.373 450.424L324.434 441.766C324.434 441.242 324.877 440.799 325.4 440.82L444.84 441.665C445.363 441.665 445.806 442.108 445.786 442.632L445.725 451.289C445.725 451.813 445.303 452.236 444.759 452.236Z" fill="#91B3FA"/>
<path d="M128.884 468.405L99.8702 468.203C99.3467 468.203 98.9238 467.78 98.9238 467.237L98.9842 458.559C98.9842 458.035 99.4071 457.612 99.9507 457.612L128.965 457.814C129.488 457.814 129.911 458.236 129.911 458.78L129.851 467.458C129.851 467.982 129.408 468.405 128.884 468.405Z" fill="#91B3FA"/>
<path d="M219.411 469.049L133.053 468.445C132.771 468.445 132.549 468.223 132.549 467.941L132.61 458.337C132.61 458.055 132.831 457.833 133.113 457.833L219.471 458.438C219.753 458.438 219.974 458.659 219.974 458.941L219.914 468.545C219.914 468.827 219.693 469.049 219.411 469.049Z" fill="#91B3FA"/>
<path d="M294.372 469.814L253.177 469.532C252.915 469.532 252.693 469.311 252.693 469.049L252.754 459.405C252.754 459.143 252.975 458.921 253.237 458.921L294.433 459.203C294.695 459.203 294.916 459.425 294.916 459.687L294.856 469.331C294.856 469.593 294.634 469.814 294.372 469.814Z" fill="#91B3FA"/>
<path d="M506.15 471.284L343.803 470.156C343.28 470.156 342.837 469.713 342.857 469.19L342.918 460.532C342.918 460.008 343.36 459.565 343.884 459.586L506.231 460.713C506.754 460.713 507.197 461.156 507.177 461.68L507.117 470.338C507.117 470.861 506.694 471.304 506.15 471.284Z" fill="#91B3FA"/>
<path d="M129.468 394.51L100.454 394.309C99.9306 394.309 99.5078 393.886 99.5078 393.342L99.5682 384.664C99.5682 384.141 99.991 383.718 100.535 383.718L129.549 383.919C130.072 383.919 130.495 384.342 130.495 384.886L130.435 393.564C130.435 394.107 130.012 394.53 129.468 394.51Z" fill="#91B3FA"/>
<path d="M219.652 395.175L133.294 394.571C133.012 394.571 132.791 394.349 132.791 394.067L132.851 384.463C132.851 384.181 133.073 383.959 133.355 383.959L219.713 384.564C219.995 384.564 220.216 384.785 220.216 385.067L220.156 394.671C220.156 394.953 219.934 395.175 219.652 395.175Z" fill="#91B3FA"/>
<path d="M294.835 395.92L253.639 395.638C253.378 395.638 253.156 395.416 253.156 395.155L253.217 385.51C253.217 385.248 253.438 385.027 253.7 385.027L294.896 385.309C295.157 385.309 295.379 385.53 295.379 385.792L295.318 395.437C295.318 395.718 295.097 395.92 294.835 395.92Z" fill="#91B3FA"/>
<path d="M505.908 397.409L343.562 396.282C343.038 396.282 342.595 395.839 342.615 395.315L342.676 386.657C342.676 386.134 343.119 385.691 343.642 385.711L505.989 386.839C506.512 386.839 506.955 387.282 506.935 387.805L506.875 396.463C506.875 396.987 506.452 397.409 505.908 397.409Z" fill="#91B3FA"/>
<path d="M129.589 413.155L100.575 412.953C100.052 412.953 99.6289 412.53 99.6289 411.987L99.6893 403.309C99.6893 402.785 100.112 402.362 100.656 402.362L129.67 402.564C130.193 402.564 130.616 402.986 130.616 403.53L130.556 412.208C130.556 412.732 130.113 413.155 129.589 413.155Z" fill="#91B3FA"/>
<path d="M219.974 413.799L133.616 413.195C133.334 413.195 133.113 412.974 133.113 412.692L133.173 403.087C133.173 402.805 133.395 402.584 133.677 402.584L220.035 403.188C220.317 403.188 220.538 403.41 220.538 403.691L220.478 413.296C220.478 413.578 220.256 413.799 219.974 413.799Z" fill="#91B3FA"/>
<path d="M295.037 414.564L253.841 414.282C253.579 414.282 253.358 414.06 253.358 413.799L253.418 404.154C253.418 403.892 253.64 403.671 253.902 403.671L295.097 403.953C295.359 403.953 295.581 404.174 295.581 404.436L295.52 414.081C295.52 414.342 295.299 414.564 295.037 414.564Z" fill="#91B3FA"/>
<path d="M506.654 416.034L344.307 414.906C343.783 414.906 343.34 414.463 343.361 413.94L343.421 405.282C343.421 404.758 343.864 404.315 344.387 404.336L506.734 405.463C507.258 405.463 507.701 405.906 507.68 406.43L507.62 415.088C507.62 415.611 507.177 416.034 506.654 416.034Z" fill="#91B3FA"/>
<path d="M237.512 481.734L234.753 481.713C234.431 481.713 234.189 481.452 234.189 481.15L236.002 221.29C236.002 220.968 236.263 220.727 236.565 220.727L239.324 220.747C239.646 220.747 239.888 221.008 239.888 221.31L238.075 481.17C238.096 481.472 237.834 481.734 237.512 481.734Z" fill="#91B3FA"/>
<path d="M480.862 513.869C480.862 513.869 513.319 438.887 488.755 359.878C488.593 359.355 487.687 359.455 487.607 359.999C481.687 407.779 479.915 459.525 480.862 513.869Z" fill="#BDD0FB"/>
<path d="M481.002 512.278C480.961 512.278 480.921 512.278 480.881 512.258C480.659 512.198 480.539 511.956 480.599 511.735C486.337 491.358 488.512 456.666 489.338 431.155C490.223 403.49 489.76 380.375 489.74 380.134C489.74 379.912 489.921 379.711 490.143 379.711C490.364 379.711 490.546 379.892 490.566 380.114C490.566 380.335 491.049 403.49 490.163 431.175C489.337 456.726 487.143 491.499 481.384 511.956C481.344 512.157 481.183 512.278 481.002 512.278Z" fill="white"/>
<path d="M473.431 501.647C473.431 501.647 493.485 409.651 455.592 316.548C455.35 315.944 454.444 316.125 454.464 316.77C456.518 374.415 463.384 436.571 473.431 501.647Z" fill="#BDD0FB"/>
<path d="M473.23 499.654C473.21 499.654 473.21 499.654 473.19 499.654C472.968 499.633 472.787 499.432 472.807 499.19C477.317 451.692 460.162 341.898 459.981 340.79C459.941 340.569 460.102 340.347 460.324 340.307C460.545 340.267 460.767 340.428 460.807 340.649C460.988 341.757 478.143 451.652 473.633 499.251C473.633 499.492 473.451 499.654 473.23 499.654Z" fill="white"/>
<path d="M470.25 526.594C470.25 526.594 479.854 446.337 432.135 374.114C431.833 373.65 430.947 373.932 431.047 374.476C439.464 422.518 453.135 473.559 470.25 526.594Z" fill="#BDD0FB"/>
<path d="M469.787 525.024C469.565 525.024 469.384 524.843 469.364 524.621C468.941 503.459 460.746 469.029 453.961 443.86C446.591 416.578 439.242 394.027 439.162 393.805C439.081 393.584 439.202 393.342 439.423 393.282C439.645 393.222 439.887 393.322 439.947 393.544C440.028 393.765 447.377 416.336 454.746 443.639C461.551 468.848 469.746 503.359 470.169 524.601C470.209 524.822 470.028 525.024 469.787 525.024Z" fill="white"/>
<path d="M450.498 482.358H494.613C497.512 482.358 499.647 485.056 499.002 487.875C496.184 500.097 492.801 512.52 485.875 525.105C484.606 527.44 482.17 528.89 479.512 528.89H465.116C462.498 528.89 460.102 527.46 458.854 525.145C453.316 514.836 447.981 502.554 445.343 488.62C444.739 485.379 447.196 482.358 450.498 482.358Z" fill="#91B3FA"/>
<path d="M181.477 288.54C148.557 289.507 140.785 297.218 140.785 297.218L159.248 320.192C159.248 320.192 191.222 315.944 212.183 295.648C207.37 291.5 203.807 286.728 201.431 282.963C195.813 286.104 189.148 288.319 181.477 288.54Z" fill="white"/>
<path d="M227.163 234.901C227.002 233.854 225.552 233.733 225.21 234.74L222.049 244.083C221.445 245.895 221.404 247.848 221.928 249.68L223.962 254.694C224.686 257.17 224.324 259.828 222.935 262.003C219.653 267.217 212.485 276.862 201.431 282.983C203.786 286.748 207.35 291.52 212.183 295.668C219.874 288.218 226.096 278.614 228.693 266.271C230.526 265.486 231.572 263.553 231.291 261.58L227.163 234.901Z" fill="url(#paint6_linear)"/>
<path d="M285.03 314.172C336.516 314.172 378.254 272.434 378.254 220.948C378.254 169.462 336.516 127.724 285.03 127.724C233.544 127.724 191.806 169.462 191.806 220.948C191.806 272.434 233.544 314.172 285.03 314.172Z" fill="url(#paint7_linear)"/>
<path d="M285.534 305.313C331.882 305.313 369.455 267.74 369.455 221.391C369.455 175.042 331.882 137.469 285.534 137.469C239.185 137.469 201.612 175.042 201.612 221.391C201.612 267.74 239.185 305.313 285.534 305.313Z" fill="white"/>
<path d="M250.599 169.262L240.15 164.148C239.203 163.685 238.056 163.846 237.27 164.551L236.143 165.578L234.31 167.229L233.143 168.296C232.357 169.001 232.076 170.128 232.438 171.115L236.445 182.048C237.049 183.699 238.438 184.968 240.15 185.33L247.217 186.88L293.064 237.801L295.701 235.425L297.534 233.774L300.03 231.519L254.183 180.598L253.438 173.37C253.237 171.598 252.17 170.028 250.599 169.262Z" fill="#91B3FA"/>
<path d="M249.875 169.886L240.411 165.215C239.545 164.792 238.478 164.873 237.754 165.517L236.727 166.443L235.076 167.933L234.008 168.88C233.304 169.524 233.102 170.591 233.445 171.477L237.069 181.343C237.613 182.833 238.881 183.981 240.452 184.303L246.834 185.692L288.191 231.6L290.547 229.485L292.198 227.995L294.775 225.66L253.418 179.753L252.573 173.39C252.432 171.819 251.304 170.571 249.875 169.886Z" fill="#7D97F4"/>
<path d="M330.535 248.694L297.937 219.599L281.466 234.479L306.554 269.131C308.93 272.393 312.152 274.95 315.877 276.52L325.884 280.789C327.575 281.493 329.649 281.292 330.998 280.064L337.844 273.903C339.092 272.795 339.535 270.983 339.213 269.332L337.521 260.936C336.595 256.224 334.099 251.895 330.535 248.694Z" fill="url(#paint8_linear)"/>
<path d="M299.547 217.726C300.554 218.834 300.453 220.565 299.346 221.572L282.856 236.432C281.748 237.438 280.017 237.338 279.01 236.23L278.808 236.009C277.802 234.901 277.902 233.17 279.01 232.163L295.5 217.304C296.608 216.297 298.339 216.398 299.346 217.505L299.547 217.726Z" fill="url(#paint9_linear)"/>
<path d="M324.051 269.855C324.917 270.802 324.837 272.271 323.87 273.137L323.83 273.177C322.884 274.043 321.414 273.963 320.548 272.996L289.48 238.485C288.614 237.539 288.695 236.069 289.661 235.203L289.701 235.163C290.648 234.297 292.118 234.378 292.983 235.344L324.051 269.855Z" fill="url(#paint10_linear)"/>
<path d="M332.186 262.526C333.052 263.472 332.971 264.942 332.005 265.808L331.964 265.848C331.018 266.714 329.548 266.634 328.682 265.667L297.615 231.156C296.749 230.21 296.829 228.74 297.796 227.874L297.836 227.834C298.782 226.968 300.252 227.049 301.118 228.015L332.186 262.526Z" fill="url(#paint11_linear)"/>
<path d="M228.391 247.022L226.196 249.076C222.431 252.6 221.283 257.513 223.659 260.05L226.478 263.07C228.854 265.607 233.827 264.822 237.612 261.318L239.807 259.264C239.948 259.123 240.089 258.983 240.23 258.842L302.809 195.256L296.668 188.672L228.834 246.64C228.693 246.741 228.532 246.882 228.391 247.022ZM231.431 249.922C234.27 247.264 237.854 246.499 239.425 248.19C240.995 249.882 239.968 253.385 237.129 256.043C234.29 258.701 230.706 259.466 229.136 257.774C227.545 256.083 228.572 252.56 231.431 249.922Z" fill="url(#paint12_linear)"/>
<path d="M315.856 164.571L303.091 176.47C302.185 177.316 301.722 178.544 301.843 179.772L302.447 186.115C302.608 187.927 303.977 189.397 305.769 189.699L312.051 190.746C313.279 190.947 314.527 190.565 315.433 189.719L328.199 177.819C330.132 176.027 333.313 177.316 333.373 179.954C333.555 186.256 331.038 192.679 325.964 197.41C316.782 205.968 303.796 204.699 295.581 195.86C287.346 187.041 287.003 173.994 296.165 165.436C301.239 160.705 307.823 158.651 314.084 159.275C316.722 159.517 317.769 162.779 315.856 164.571Z" fill="url(#paint13_linear)"/>
<path d="M316.963 165.779L304.198 177.678C303.292 178.524 302.829 179.752 302.95 180.98L303.554 187.323C303.715 189.135 305.084 190.605 306.876 190.907L313.158 191.954C314.386 192.155 315.635 191.773 316.541 190.927L329.306 179.027C331.239 177.235 334.42 178.524 334.481 181.162C334.662 187.464 332.145 193.887 327.071 198.618C317.89 207.176 304.903 205.907 296.688 197.068C288.473 188.229 288.11 175.202 297.272 166.644C302.346 161.913 308.93 159.859 315.192 160.483C317.829 160.705 318.896 163.987 316.963 165.779Z" fill="url(#paint14_linear)"/>
<path d="M229.297 247.969L227.102 250.022C223.337 253.546 222.189 258.459 224.565 260.996L227.384 264.016C229.76 266.553 234.733 265.768 238.519 262.264L240.713 260.211C240.854 260.07 240.995 259.929 241.136 259.788L303.715 196.202L297.574 189.618L229.74 247.586C229.579 247.707 229.438 247.848 229.297 247.969ZM232.317 250.888C235.156 248.231 238.74 247.465 240.311 249.157C241.881 250.848 240.854 254.351 238.015 257.009C235.176 259.667 231.592 260.432 230.022 258.741C228.451 257.05 229.478 253.526 232.317 250.888Z" fill="url(#paint15_linear)"/>
<path d="M193.84 301.668C180.954 290.594 158.464 287.473 145.537 286.608C139.879 286.225 134.765 289.93 133.396 295.427C129.429 311.394 119.785 352.75 117.55 359.938C115.717 365.838 115.154 371.858 113.905 375.462C113.16 377.617 114.57 380.979 116.724 381.724C127.959 385.651 137.966 388.349 145.98 389.758C147.752 390.06 153.49 388.711 153.289 386.939C153.128 385.429 152.665 383.114 153.289 381.724L180.491 329.978C201.129 348.24 217.398 348.301 229.237 342.461C226.439 336.28 224.365 330.018 222.975 323.656C204.411 322.568 193.84 301.668 193.84 301.668Z" fill="white"/>
<path d="M252.734 316.83L248.949 312.823C239.123 321.34 230.405 324.079 222.975 323.656C224.344 330.018 226.438 336.301 229.237 342.462C244.841 334.75 252.734 316.83 252.734 316.83Z" fill="url(#paint16_linear)"/>
<path d="M250.419 317.172L269.043 315.803L285.03 304.346C282.413 303.078 268.902 307.789 268.902 307.789C268.902 307.789 254.164 307.225 250.258 307.668C246.996 308.031 248.002 312.662 248.425 314.212C248.506 314.534 248.586 314.716 248.586 314.716L250.419 317.172Z" fill="url(#paint17_linear)"/>
<path d="M160.397 261.922L153.309 286.889C153.309 286.889 165.43 293.393 174.39 291.641L176.847 269.634L160.397 261.922Z" fill="url(#paint18_linear)"/>
<path d="M176.605 239.493C176.605 239.493 185.142 253.144 186.712 260.755C188.283 268.346 190.679 273.078 182.041 275.957C173.403 278.816 165.289 275.514 160.094 268.487C160.094 268.487 152 257.674 152.705 252.641C153.409 247.607 176.605 239.493 176.605 239.493Z" fill="url(#paint19_linear)"/>
<path d="M162.309 262.547L162.772 262.245C163.376 261.862 163.537 261.057 163.114 260.493C161.504 258.258 158.242 253.103 161.202 251.332C165.007 249.056 180.591 243.378 183.209 237.177C185.726 231.197 181.719 224.572 176.987 223.223C176.665 223.143 176.343 223.284 176.222 223.606L175.96 224.351C175.779 224.874 175.054 224.895 174.833 224.411C174.611 223.928 173.927 223.928 173.725 224.411C172.92 226.284 170.443 229.465 162.973 232.042C152.342 235.687 145.778 241.204 146.725 248.774C146.785 249.258 146.322 249.6 145.859 249.419C144.973 249.056 143.644 249.016 142.134 250.728C139.516 253.707 141.711 260.07 149.101 264.459C149.443 264.661 149.523 265.164 149.221 265.426C148.134 266.372 146.644 268.486 151.617 270.278C156.772 272.111 160.296 271.366 161.624 270.943C161.967 270.842 162.128 270.48 162.007 270.137L159.551 263.714C159.41 263.352 159.651 262.949 160.034 262.889L162.309 262.547Z" fill="url(#paint20_linear)"/>
<path d="M162.792 263.896C162.792 263.896 158.967 254.936 155.181 258.178C151.396 261.419 158.906 268.305 162.329 268.144L162.792 263.896Z" fill="url(#paint21_linear)"/>
<path d="M154.416 541.051C154.416 541.051 153.208 547.897 152.624 554.662C152.382 557.299 154.436 559.615 157.094 559.716C166.114 560.098 185.403 560.823 192.33 560.521C193.377 560.481 194.041 559.414 193.659 558.447C193.336 557.642 192.712 556.977 191.927 556.615L160.054 541.957L154.416 541.051Z" fill="url(#paint22_linear)"/>
<path d="M153.43 537.024L154.396 545.219C154.396 545.219 159.973 547.816 163.799 544.896L161.484 535.775L153.43 537.024Z" fill="url(#paint23_linear)"/>
<path d="M154.154 383.154C153.732 385.288 151.899 489.828 163.074 536.661C163.255 537.427 162.873 538.212 162.148 538.514C160.437 539.219 157.074 540.225 153.047 540.366C151.799 540.407 150.691 539.601 150.329 538.393C147.127 527.52 131.825 473.076 129.832 421.048C127.597 362.918 129.832 419.074 129.832 419.074L131.14 383.154H154.154Z" fill="url(#paint24_linear)"/>
<path d="M117.751 544.615C117.751 544.615 115.818 548.078 113.966 557.239C113.623 558.89 114.791 560.481 116.462 560.642C119.442 560.944 124.033 561.307 127.697 561.286C129.389 561.266 130.718 559.796 130.516 558.125C130.114 554.783 128.845 549.286 124.919 544.997L117.751 544.615Z" fill="url(#paint25_linear)"/>
<path d="M116.06 534.104L118.335 546.487C118.335 546.487 120.57 548.158 125.02 546.95L123.932 533.641L116.06 534.104Z" fill="url(#paint26_linear)"/>
<path d="M113.905 375.463C101.703 412.471 111.912 522.668 115.657 538.555C115.878 539.521 116.663 540.266 117.65 540.427C119.321 540.709 122.08 540.931 124.798 540.145C125.724 539.884 126.389 539.038 126.429 538.051C126.932 525.205 126.026 446.378 134.543 415.209C134.966 413.638 135.932 412.249 137.281 411.303L153.812 399.544L155.081 380.557L113.905 375.463Z" fill="url(#paint27_linear)"/>
<path d="M113.784 375.362L117.489 359.878C126.409 362.516 136.496 364.207 147.691 365.013C159.772 357.362 169.276 347.193 177.41 335.656L177.571 337.046C177.611 337.368 177.551 337.67 177.41 337.952L154.195 383.134L113.784 375.362Z" fill="url(#paint28_linear)"/>
<path d="M185.806 296.292L120.509 348.824C121.677 343.911 121.335 343.488 123.087 338.193L176.846 291.943C181.216 292.628 185.263 293.514 185.806 296.292Z" fill="url(#paint29_linear)"/>
<path d="M139.053 288.017L140.785 366.241H147.671L145.516 286.568C141.167 286.104 139.778 286.93 139.053 288.017Z" fill="url(#paint30_linear)"/>
<defs>
<linearGradient id="paint0_linear" x1="633.157" y1="715.633" x2="139.923" y2="103.067" gradientUnits="userSpaceOnUse">
<stop stop-color="#DAE3FE"/>
<stop offset="1" stop-color="#E9EFFD"/>
</linearGradient>
<linearGradient id="paint1_linear" x1="93.4252" y1="226.52" x2="116.018" y2="501.464" gradientUnits="userSpaceOnUse">
<stop stop-color="#09005D"/>
<stop offset="1" stop-color="#1A0F91"/>
</linearGradient>
<linearGradient id="paint2_linear" x1="11.1244" y1="194.558" x2="37.7194" y2="194.558" gradientUnits="userSpaceOnUse">
<stop stop-color="#DAE3FE"/>
<stop offset="1" stop-color="#E9EFFD"/>
</linearGradient>
<linearGradient id="paint3_linear" x1="192.966" y1="421.631" x2="645.611" y2="122.016" gradientUnits="userSpaceOnUse">
<stop stop-color="#09005D"/>
<stop offset="1" stop-color="#1A0F91"/>
</linearGradient>
<linearGradient id="paint4_linear" x1="67.3118" y1="348.084" x2="534.415" y2="348.084" gradientUnits="userSpaceOnUse">
<stop stop-color="#4F52FF"/>
<stop offset="1" stop-color="#4042E2"/>
</linearGradient>
<linearGradient id="paint5_linear" x1="296.52" y1="486.338" x2="211.362" y2="126.779" gradientUnits="userSpaceOnUse">
<stop stop-color="#09005D"/>
<stop offset="1" stop-color="#1A0F91"/>
</linearGradient>
<linearGradient id="paint6_linear" x1="199.662" y1="267.051" x2="231.518" y2="263.461" gradientUnits="userSpaceOnUse">
<stop stop-color="#FEBBBA"/>
<stop offset="1" stop-color="#FF928E"/>
</linearGradient>
<linearGradient id="paint7_linear" x1="191.816" y1="220.95" x2="378.262" y2="220.95" gradientUnits="userSpaceOnUse">
<stop stop-color="#4F52FF"/>
<stop offset="1" stop-color="#4042E2"/>
</linearGradient>
<linearGradient id="paint8_linear" x1="310.38" y1="212.265" x2="310.38" y2="339.246" gradientUnits="userSpaceOnUse">
<stop stop-color="#4F52FF"/>
<stop offset="1" stop-color="#4042E2"/>
</linearGradient>
<linearGradient id="paint9_linear" x1="323.708" y1="268.989" x2="274.438" y2="208.863" gradientUnits="userSpaceOnUse">
<stop stop-color="#4F52FF"/>
<stop offset="1" stop-color="#4042E2"/>
</linearGradient>
<linearGradient id="paint10_linear" x1="364.1" y1="87.1582" x2="332.98" y2="177.812" gradientUnits="userSpaceOnUse">
<stop stop-color="#4F52FF"/>
<stop offset="1" stop-color="#4042E2"/>
</linearGradient>
<linearGradient id="paint11_linear" x1="369.127" y1="88.8838" x2="338.007" y2="179.537" gradientUnits="userSpaceOnUse">
<stop stop-color="#4F52FF"/>
<stop offset="1" stop-color="#4042E2"/>
</linearGradient>
<linearGradient id="paint12_linear" x1="322.696" y1="251.553" x2="231.777" y2="213.66" gradientUnits="userSpaceOnUse">
<stop stop-color="#09005D"/>
<stop offset="1" stop-color="#1A0F91"/>
</linearGradient>
<linearGradient id="paint13_linear" x1="333.634" y1="172.93" x2="261.587" y2="199.818" gradientUnits="userSpaceOnUse">
<stop stop-color="#09005D"/>
<stop offset="1" stop-color="#1A0F91"/>
</linearGradient>
<linearGradient id="paint14_linear" x1="676.166" y1="-850.077" x2="651.175" y2="-779.159" gradientUnits="userSpaceOnUse">
<stop stop-color="#09005D"/>
<stop offset="1" stop-color="#1A0F91"/>
</linearGradient>
<linearGradient id="paint15_linear" x1="757.846" y1="-876.813" x2="736.392" y2="-791.2" gradientUnits="userSpaceOnUse">
<stop stop-color="#09005D"/>
<stop offset="1" stop-color="#1A0F91"/>
</linearGradient>
<linearGradient id="paint16_linear" x1="272.582" y1="265.865" x2="213.399" y2="359.261" gradientUnits="userSpaceOnUse">
<stop stop-color="#FEBBBA"/>
<stop offset="1" stop-color="#FF928E"/>
</linearGradient>
<linearGradient id="paint17_linear" x1="286.814" y1="274.883" x2="227.631" y2="368.28" gradientUnits="userSpaceOnUse">
<stop stop-color="#FEBBBA"/>
<stop offset="1" stop-color="#FF928E"/>
</linearGradient>
<linearGradient id="paint18_linear" x1="187.637" y1="205.521" x2="158.039" y2="309.627" gradientUnits="userSpaceOnUse">
<stop stop-color="#FEBBBA"/>
<stop offset="1" stop-color="#FF928E"/>
</linearGradient>
<linearGradient id="paint19_linear" x1="179.85" y1="252.156" x2="147.663" y2="285.382" gradientUnits="userSpaceOnUse">
<stop stop-color="#FEBBBA"/>
<stop offset="1" stop-color="#FF928E"/>
</linearGradient>
<linearGradient id="paint20_linear" x1="150.984" y1="233.959" x2="191.33" y2="272.482" gradientUnits="userSpaceOnUse">
<stop stop-color="#09005D"/>
<stop offset="1" stop-color="#1A0F91"/>
</linearGradient>
<linearGradient id="paint21_linear" x1="174.463" y1="246.939" x2="142.276" y2="280.164" gradientUnits="userSpaceOnUse">
<stop stop-color="#FEBBBA"/>
<stop offset="1" stop-color="#FF928E"/>
</linearGradient>
<linearGradient id="paint22_linear" x1="191.308" y1="531.596" x2="74.5892" y2="658.555" gradientUnits="userSpaceOnUse">
<stop stop-color="#09005D"/>
<stop offset="1" stop-color="#1A0F91"/>
</linearGradient>
<linearGradient id="paint23_linear" x1="153.423" y1="541.026" x2="163.791" y2="541.026" gradientUnits="userSpaceOnUse">
<stop stop-color="#FEBBBA"/>
<stop offset="1" stop-color="#FF928E"/>
</linearGradient>
<linearGradient id="paint24_linear" x1="200.499" y1="388.02" x2="101.181" y2="522.632" gradientUnits="userSpaceOnUse">
<stop stop-color="#09005D"/>
<stop offset="1" stop-color="#1A0F91"/>
</linearGradient>
<linearGradient id="paint25_linear" x1="165.124" y1="507.524" x2="48.404" y2="634.482" gradientUnits="userSpaceOnUse">
<stop stop-color="#09005D"/>
<stop offset="1" stop-color="#1A0F91"/>
</linearGradient>
<linearGradient id="paint26_linear" x1="116.058" y1="540.494" x2="125.01" y2="540.494" gradientUnits="userSpaceOnUse">
<stop stop-color="#FEBBBA"/>
<stop offset="1" stop-color="#FF928E"/>
</linearGradient>
<linearGradient id="paint27_linear" x1="181.484" y1="373.991" x2="82.1665" y2="508.603" gradientUnits="userSpaceOnUse">
<stop stop-color="#09005D"/>
<stop offset="1" stop-color="#1A0F91"/>
</linearGradient>
<linearGradient id="paint28_linear" x1="147.359" y1="340.344" x2="138.918" y2="420.288" gradientUnits="userSpaceOnUse">
<stop stop-color="#09005D"/>
<stop offset="1" stop-color="#1A0F91"/>
</linearGradient>
<linearGradient id="paint29_linear" x1="155.576" y1="299.568" x2="144.953" y2="400.169" gradientUnits="userSpaceOnUse">
<stop stop-color="#09005D"/>
<stop offset="1" stop-color="#1A0F91"/>
</linearGradient>
<linearGradient id="paint30_linear" x1="146.312" y1="299.26" x2="132.758" y2="427.631" gradientUnits="userSpaceOnUse">
<stop stop-color="#09005D"/>
<stop offset="1" stop-color="#1A0F91"/>
</linearGradient>
</defs>
</svg>
