<svg width="420" height="447" viewBox="0 0 420 447" fill="none" xmlns="http://www.w3.org/2000/svg">
<g clip-path="url(#clip0)">
<path d="M134.22 0L138.91 8.58L147.49 13.27L138.91 17.96L134.22 26.54L129.53 17.96L120.95 13.27L129.53 8.58L134.22 0Z" fill="#F5F5F5"/>
<path d="M329.87 232.39L333.39 238.82L339.82 242.34L333.39 245.86L329.87 252.29L326.35 245.86L319.92 242.34L326.35 238.82L329.87 232.39Z" fill="#EBEBEB"/>
<path d="M339.82 200.62L341.41 203.53L344.31 205.11L341.41 206.7L339.82 209.6L338.23 206.7L335.33 205.11L338.23 203.53L339.82 200.62Z" fill="#E0E0E0"/>
<path d="M100.71 3.22998L102.3 6.12998L105.2 7.71998L102.3 9.29998L100.71 12.21L99.1302 9.29998L96.2202 7.71998L99.1302 6.12998L100.71 3.22998Z" fill="#E0E0E0"/>
<path d="M21.13 272.87C22.9751 272.025 24.5323 270.658 25.6093 268.937C26.6862 267.217 27.2357 265.219 27.19 263.19C27.19 257.46 22.74 252.86 17.37 252.9C12 252.94 7.69001 257.63 7.74001 263.36C7.7255 265.406 8.31826 267.41 9.44328 269.119C10.5683 270.828 12.175 272.165 14.06 272.96C-0.87999 275.41 8.38097e-06 291.67 8.38097e-06 291.67L35.39 291.37C35.39 291.37 36 274.92 21.13 272.87Z" fill="#E0E0E0"/>
<path d="M360.64 380.05C360.391 378.767 359.693 377.615 358.673 376.799C357.652 375.982 356.375 375.555 355.069 375.594C353.763 375.632 352.513 376.134 351.542 377.008C350.571 377.883 349.943 379.075 349.77 380.37C349.588 379.077 348.953 377.89 347.978 377.022C347.003 376.153 345.751 375.659 344.445 375.628C343.14 375.597 341.865 376.03 340.85 376.851C339.834 377.672 339.143 378.827 338.9 380.11C338.638 382.006 339.118 383.929 340.24 385.48C341.35 387.009 342.655 388.387 344.12 389.58C346.12 391.35 347.93 393 349.91 394.76C351.91 392.98 353.54 391.31 355.5 389.53C356.959 388.325 358.254 386.933 359.35 385.39C360.444 383.839 360.906 381.929 360.64 380.05Z" fill="#EBEBEB"/>
<path d="M383.69 169.26L387.48 168.51L393.48 155.33L391.98 147.76C391.98 147.76 397.77 146.24 399.05 156.29C400.33 166.34 400.57 163.67 400.57 163.67C400.57 163.67 413.02 161.25 414.27 162.12C415.18 162.76 417.97 175.06 419.43 181.74C419.834 183.341 419.69 185.032 419.021 186.541C418.352 188.051 417.197 189.294 415.74 190.07C415.325 190.275 414.884 190.423 414.43 190.51C411.33 191.13 394.97 191.75 394.97 191.75L388.42 193.05L383.69 169.26Z" fill="#E0E0E0"/>
<path d="M372.42 169.34L379.89 194.82L386.39 193.53L381.35 168.11L372.42 169.34Z" fill="#E0E0E0"/>
<path d="M280.27 446.16L142.38 446.11C134.423 446.11 126.793 442.95 121.167 437.323C115.541 431.697 112.38 424.067 112.38 416.11L112.44 70.4302C112.44 66.4855 113.218 62.5795 114.729 58.9359C116.241 55.2922 118.456 51.9823 121.248 49.1958C124.04 46.4092 127.354 44.2007 131.001 42.6966C134.648 41.1925 138.555 40.4223 142.5 40.4302L280.38 40.5102C288.336 40.5102 295.967 43.6709 301.593 49.297C307.219 54.9231 310.38 62.5537 310.38 70.5102L310.32 416.11C310.326 420.058 309.554 423.969 308.046 427.618C306.538 431.266 304.325 434.582 301.533 437.373C298.741 440.165 295.426 442.378 291.777 443.886C288.129 445.394 284.218 446.167 280.27 446.16Z" fill="#263238"/>
<path d="M280.23 52.6301H253.49C251.735 52.6721 250.068 53.4064 248.852 54.6727C247.636 55.9391 246.97 57.6348 247 59.3901V64.2401C247.02 65.1117 246.867 65.9786 246.552 66.7913C246.236 67.6039 245.764 68.3464 245.161 68.9761C244.558 69.6059 243.837 70.1106 243.039 70.4613C242.241 70.8121 241.381 71.0019 240.51 71.0201H188.4C187.528 71.0006 186.668 70.8095 185.87 70.4577C185.072 70.1059 184.351 69.6003 183.748 68.9697C183.145 68.3392 182.673 67.5961 182.357 66.7828C182.042 65.9696 181.89 65.1022 181.91 64.2301V59.3501C181.945 57.5905 181.282 55.8885 180.066 54.6162C178.849 53.3439 177.179 52.6047 175.42 52.5601H166H142.61C139.848 52.5535 137.112 53.0919 134.558 54.1443C132.004 55.1967 129.683 56.7425 127.728 58.6932C125.773 60.6439 124.222 62.9611 123.163 65.5122C122.105 68.0633 121.56 70.7981 121.56 73.5601L121.49 410.97C121.49 416.54 123.702 421.881 127.641 425.819C131.579 429.758 136.92 431.97 142.49 431.97L280.11 432.05C282.867 432.05 285.598 431.507 288.146 430.452C290.694 429.396 293.009 427.849 294.959 425.899C296.909 423.949 298.456 421.634 299.511 419.086C300.567 416.539 301.11 413.808 301.11 411.05L301.18 73.6301C301.18 68.0692 298.974 62.7354 295.047 58.7985C291.119 54.8617 285.791 52.6434 280.23 52.6301Z" fill="white"/>
<path d="M282.24 80.04C282.24 80.13 278.76 80.23 274.48 80.26C270.2 80.29 266.71 80.26 266.71 80.17C266.71 80.08 270.18 79.97 274.47 79.94C278.76 79.91 282.24 79.95 282.24 80.04Z" fill="#263238"/>
<path d="M282.27 84.0104C282.27 84.1004 278.8 84.2004 274.51 84.2404C270.22 84.2804 266.74 84.2404 266.74 84.1404C266.74 84.0404 270.22 83.9504 274.51 83.9104C278.8 83.8704 282.27 83.9204 282.27 84.0104Z" fill="#263238"/>
<path d="M282.31 87.9802C282.31 88.0702 278.83 88.1802 274.54 88.2102C270.25 88.2402 266.78 88.2102 266.77 88.1102C266.76 88.0102 270.25 87.9202 274.54 87.8802C278.83 87.8402 282.31 87.8902 282.31 87.9802Z" fill="#263238"/>
<path d="M136 91.8601H136.41H137.54L141.72 91.7601L141.6 91.8701C141.6 90.9501 141.6 89.9401 141.55 88.8701C141.55 88.3101 141.55 87.7801 141.55 87.1301C141.616 86.7942 141.787 86.488 142.039 86.256C142.29 86.0241 142.61 85.8784 142.95 85.8401C143.63 85.8401 144.22 85.8401 144.95 85.8401C145.332 85.9019 145.68 86.0979 145.931 86.3929C146.182 86.6879 146.32 87.0627 146.32 87.4501C146.32 88.8701 146.32 90.3401 146.37 91.8701L146.18 91.6801H151.45L151.25 91.8801C151.25 89.7601 151.25 87.5601 151.19 85.3101C151.19 84.7501 151.19 84.2001 151.19 83.6401C151.167 83.3912 151.089 83.1506 150.961 82.936C150.833 82.7214 150.658 82.5383 150.45 82.4001L148.15 80.1201L145.92 77.9301L144.85 76.8701C144.48 76.5101 144.19 76.1401 143.76 76.0501C143.554 75.9959 143.338 75.9884 143.129 76.0282C142.919 76.068 142.722 76.154 142.55 76.2801C142.23 76.5501 141.89 76.9301 141.55 77.2801L139.65 79.1901C138.46 80.4201 137.22 81.5501 136.32 82.6201C136.053 83.2507 135.963 83.9422 136.06 84.6201C136.06 85.2701 136.06 85.8901 136.06 86.4701C136.06 87.6101 136.06 88.6101 136.06 89.4701C136.06 90.3301 136.06 90.8601 136.06 91.3801C136.074 91.6099 136.074 91.8403 136.06 92.0701C136.048 91.8603 136.048 91.65 136.06 91.4401C136.06 90.9301 136.06 90.3001 136.06 89.5501C136.06 88.8001 136.06 87.6801 135.99 86.5501C135.99 85.9501 135.99 85.3201 135.99 84.6501C135.99 84.3101 135.99 83.9701 135.99 83.6501C135.987 83.2642 136.087 82.8847 136.28 82.5501C137.28 81.3601 138.42 80.3001 139.62 79.0301L141.5 77.1001C141.84 76.7701 142.11 76.4401 142.5 76.1001C142.715 75.9362 142.964 75.8232 143.229 75.7695C143.494 75.7158 143.768 75.7229 144.03 75.7901C144.528 75.9729 144.967 76.2874 145.3 76.7001L146.38 77.7601L148.61 79.9501L150.92 82.2101C151.136 82.4044 151.334 82.6186 151.51 82.8501C151.683 83.1155 151.78 83.4234 151.79 83.7401C151.79 84.3001 151.79 84.8601 151.79 85.4201C151.79 87.6701 151.79 89.8701 151.84 91.9901V92.1901H151.64H146.37H146V92.0001C146 90.4701 146 89.0001 146 87.5801C146.006 87.275 145.903 86.9777 145.708 86.7427C145.514 86.5076 145.241 86.3505 144.94 86.3001C144.33 86.3001 143.61 86.3001 143.02 86.3001C142.75 86.3271 142.496 86.4382 142.293 86.6177C142.09 86.7971 141.949 87.0359 141.89 87.3001C141.89 87.8301 141.89 88.4401 141.89 88.9801C141.89 90.0701 141.89 91.0901 141.89 91.9801V92.1001H141.77H137.52H136.41C136.265 92.0345 136.128 91.9541 136 91.8601Z" fill="#263238"/>
<path d="M227 355.52C226.52 355.596 226.035 355.629 225.55 355.62L221.61 355.7C218.29 355.75 213.69 355.78 208.61 355.78C203.53 355.78 198.93 355.78 195.61 355.7L191.67 355.62C191.184 355.628 190.699 355.595 190.22 355.52C190.699 355.439 191.184 355.406 191.67 355.42L195.61 355.33C198.93 355.33 203.53 355.26 208.61 355.26C213.69 355.26 218.28 355.26 221.61 355.33L225.55 355.42C226.035 355.405 226.521 355.438 227 355.52Z" fill="#455A64"/>
<path d="M284.77 364.56C284.77 364.71 263.6 364.82 237.49 364.82C211.38 364.82 190.21 364.71 190.21 364.56C190.21 364.41 211.38 364.3 237.49 364.3C263.6 364.3 284.77 364.42 284.77 364.56Z" fill="#455A64"/>
<path d="M255.22 373.11C255.22 373.26 240.67 373.37 222.72 373.37C204.77 373.37 190.21 373.26 190.21 373.11C190.21 372.96 204.76 372.85 222.72 372.85C240.68 372.85 255.22 372.93 255.22 373.11Z" fill="#455A64"/>
<path d="M286.64 389.64L283.7 386.69L280.9 389.48V381.04H286.63L286.64 389.64ZM283.7 386.32L283.79 386.41L286.38 389.01V381.31H281.17V388.86L283.7 386.32Z" fill="#263238"/>
<path d="M208.41 388.54L207.41 388.08C206.813 388.361 206.133 388.409 205.502 388.215C204.871 388.021 204.336 387.598 204 387.03C203.665 386.462 203.553 385.789 203.687 385.143C203.822 384.497 204.192 383.924 204.726 383.537C205.261 383.15 205.92 382.976 206.576 383.049C207.232 383.122 207.837 383.437 208.272 383.933C208.708 384.429 208.943 385.069 208.931 385.729C208.92 386.389 208.663 387.02 208.21 387.5L208.41 388.54ZM206 382.92C205.316 382.968 204.677 383.275 204.211 383.778C203.746 384.282 203.491 384.944 203.497 385.629C203.504 386.314 203.771 386.971 204.246 387.466C204.72 387.961 205.366 388.255 206.05 388.29C206.507 388.259 206.949 388.118 207.34 387.88L208.11 388.22L207.93 387.47C208.283 387.085 208.515 386.606 208.599 386.091C208.683 385.575 208.614 385.047 208.402 384.57C208.189 384.093 207.842 383.688 207.403 383.406C206.964 383.124 206.452 382.976 205.93 382.98L206 382.92Z" fill="#263238"/>
<path d="M215.07 388.11L213.89 385.21L211.66 383.21H217.06L215.07 388.11ZM212.16 383.38L214.06 385.12L215.06 387.59L216.76 383.34L212.16 383.38Z" fill="#263238"/>
<path d="M216.947 383.155L213.997 385.075L214.106 385.242L217.056 383.323L216.947 383.155Z" fill="#263238"/>
<path d="M199.9 383.77C199.82 383.384 199.607 383.039 199.298 382.795C198.988 382.552 198.602 382.425 198.209 382.438C197.815 382.452 197.439 382.604 197.146 382.867C196.854 383.131 196.664 383.49 196.61 383.88C196.556 383.485 196.363 383.123 196.065 382.858C195.767 382.593 195.384 382.444 194.986 382.436C194.587 382.429 194.199 382.565 193.892 382.818C193.585 383.072 193.378 383.427 193.31 383.82C193.233 384.396 193.38 384.979 193.72 385.45C194.058 385.913 194.455 386.33 194.9 386.69C195.51 387.22 196.06 387.69 196.66 388.25C197.26 387.71 197.76 387.2 198.36 386.66C198.8 386.292 199.19 385.869 199.52 385.4C199.855 384.927 199.991 384.342 199.9 383.77Z" fill="#E8505B"/>
<path d="M292.66 397.11C292.66 397.11 292.66 396.78 292.66 396.17C292.66 395.56 292.66 394.63 292.66 393.43C292.66 391.02 292.66 387.43 292.61 382.87C292.61 373.68 292.56 360.31 292.52 343.54L292.69 343.71L132.78 343.8L133.04 343.54C133.04 362.16 133.04 380.21 133.04 397.11L132.79 396.86L247.22 396.97L280.62 397.04H289.62H291.94H292.74H291.97H289.68H280.77L247.42 397.11L132.82 397.23H132.56V397.11C132.56 380.21 132.56 362.16 132.56 343.54V343.28H132.84L292.75 343.37H292.92V343.54C292.92 360.35 292.85 373.76 292.83 382.98C292.83 387.56 292.83 391.09 292.83 393.5C292.83 394.68 292.83 395.58 292.83 396.2C292.83 396.82 292.66 397.11 292.66 397.11Z" fill="#263238"/>
<path d="M139.402 352.507L139.198 387.926L183.497 388.181L183.701 352.762L139.402 352.507Z" fill="#EBEBEB"/>
<path d="M183.69 352.73H182.84H180.42H171.33L139.33 352.66L139.57 352.43C139.52 362.98 139.46 375.06 139.4 387.84C139.45 387.91 138.91 387.35 139.14 387.58H142.19H145.19H151.19L162.69 387.65L183.43 387.8L183.22 388.02C183.32 377.38 183.41 368.56 183.48 362.36C183.48 359.28 183.55 356.86 183.57 355.17C183.57 354.36 183.57 353.73 183.57 353.27C183.57 352.81 183.57 352.6 183.57 352.6C183.57 352.6 183.57 352.8 183.57 353.22C183.57 353.64 183.57 354.29 183.57 355.09C183.57 356.76 183.57 359.17 183.57 362.23C183.57 368.46 183.57 377.33 183.57 388.02V388.23H183.35L162.61 388.15L151.11 388.09H145.11H142.11H139.06L138.79 387.82C138.88 375.03 138.95 362.95 139.02 352.41V352.17H139.26L171.36 352.46L180.36 352.58H182.73H183.33L183.69 352.73Z" fill="#263238"/>
<path d="M140.919 354.746L140.741 385.705L181.93 385.942L182.108 354.983L140.919 354.746Z" fill="#E0E0E0"/>
<path d="M140.72 385.68L155.22 366.52L164.06 378.61L170.14 372.2L181.91 385.91L140.72 385.68Z" fill="#F5F5F5"/>
<path d="M167.93 364.23C167.928 364.873 167.735 365.502 167.376 366.035C167.016 366.569 166.507 366.984 165.912 367.228C165.317 367.471 164.662 367.533 164.032 367.405C163.402 367.277 162.824 366.965 162.371 366.508C161.918 366.051 161.611 365.47 161.489 364.838C161.367 364.207 161.434 363.553 161.684 362.96C161.933 362.367 162.353 361.862 162.89 361.508C163.427 361.153 164.056 360.966 164.7 360.97C165.126 360.972 165.548 361.057 165.941 361.222C166.334 361.386 166.691 361.627 166.991 361.93C167.291 362.233 167.529 362.592 167.69 362.987C167.851 363.381 167.932 363.804 167.93 364.23Z" fill="#F5F5F5"/>
<path d="M214.09 122.98C213.931 123.007 213.769 123.007 213.61 122.98L212.26 123.03L207.26 123.12C203.05 123.12 197.26 123.19 190.8 123.19C184.34 123.19 178.55 123.19 174.34 123.12L169.34 123.03L167.98 122.98C167.824 123.008 167.665 123.008 167.51 122.98C167.663 122.942 167.822 122.925 167.98 122.93H169.34L174.34 122.85C178.55 122.8 184.34 122.77 190.8 122.77C197.26 122.77 203.05 122.77 207.26 122.85L212.26 122.93H213.61C213.771 122.926 213.933 122.943 214.09 122.98Z" fill="#263238"/>
<path d="M279.53 318.76L275.17 314.38L271 318.53V305.99H279.52L279.53 318.76ZM275.17 313.84L275.3 313.97L279.15 317.83V306.39H271.39V317.61L275.17 313.84Z" fill="#263238"/>
<path d="M168.67 317.44L166.67 316.53C165.505 317.072 164.18 317.159 162.954 316.776C161.728 316.393 160.69 315.566 160.041 314.458C159.392 313.349 159.18 312.039 159.446 310.782C159.712 309.526 160.437 308.414 161.48 307.663C162.522 306.913 163.807 306.578 165.083 306.725C166.359 306.872 167.534 307.489 168.38 308.456C169.225 309.423 169.679 310.671 169.653 311.955C169.627 313.239 169.123 314.468 168.24 315.4L168.67 317.44ZM163.9 306.39C163.206 306.396 162.521 306.538 161.883 306.809C161.244 307.08 160.666 307.474 160.179 307.968C159.693 308.463 159.309 309.048 159.049 309.691C158.79 310.334 158.659 311.022 158.665 311.715C158.671 312.408 158.813 313.094 159.084 313.732C159.355 314.371 159.749 314.949 160.243 315.435C160.738 315.922 161.323 316.305 161.966 316.565C162.609 316.825 163.296 316.956 163.99 316.95C164.889 316.896 165.762 316.621 166.53 316.15L166.62 316.1L168.12 316.77L167.78 315.29L167.85 315.22C168.544 314.462 169.002 313.517 169.167 312.502C169.331 311.487 169.195 310.446 168.775 309.508C168.355 308.569 167.67 307.774 166.804 307.22C165.937 306.666 164.928 306.377 163.9 306.39Z" fill="#263238"/>
<path d="M181.79 316.57L179.45 310.86L175.07 306.86L185.71 306.78L181.79 316.57ZM176.06 307.24L179.8 310.67L181.8 315.53L185.14 307.17L176.06 307.24Z" fill="#263238"/>
<path d="M185.498 306.763L179.698 310.537L179.91 310.864L185.711 307.09L185.498 306.763Z" fill="#263238"/>
<path d="M151.93 308.11C151.779 307.345 151.361 306.658 150.75 306.172C150.139 305.686 149.376 305.434 148.596 305.459C147.816 305.484 147.07 305.786 146.492 306.31C145.914 306.834 145.541 307.547 145.44 308.32C145.325 307.55 144.941 306.845 144.355 306.331C143.769 305.818 143.02 305.528 142.241 305.515C141.463 305.502 140.704 305.766 140.101 306.259C139.499 306.753 139.091 307.444 138.95 308.21C138.8 309.341 139.09 310.487 139.76 311.41C140.431 312.321 141.214 313.144 142.09 313.86C143.28 314.86 144.37 315.86 145.56 316.93C146.72 315.87 147.72 314.87 148.89 313.8C149.754 313.073 150.524 312.24 151.18 311.32C151.831 310.385 152.099 309.237 151.93 308.11Z" fill="#3D6DCC"/>
<path d="M150.96 130.21C154.947 130.21 158.18 126.978 158.18 122.99C158.18 119.003 154.947 115.77 150.96 115.77C146.972 115.77 143.74 119.003 143.74 122.99C143.74 126.978 146.972 130.21 150.96 130.21Z" fill="#EBEBEB"/>
<path d="M276.81 277.36C276.81 277.51 246.55 277.63 209.23 277.63C171.91 277.63 141.64 277.51 141.64 277.36C141.64 277.21 171.9 277.1 209.23 277.1C246.56 277.1 276.81 277.22 276.81 277.36Z" fill="#455A64"/>
<path d="M276.81 266.11C276.81 266.25 246.55 266.37 209.23 266.37C171.91 266.37 141.64 266.25 141.64 266.11C141.64 265.97 171.9 265.85 209.23 265.85C246.56 265.85 276.81 265.97 276.81 266.11Z" fill="#455A64"/>
<path d="M215.21 288.77C215.21 288.91 198.74 289.03 178.43 289.03C158.12 289.03 141.64 288.91 141.64 288.77C141.64 288.63 158.11 288.51 178.43 288.51C198.75 288.51 215.21 288.63 215.21 288.77Z" fill="#455A64"/>
<path d="M206.14 411.4C206.13 411.969 205.952 412.521 205.629 412.989C205.306 413.456 204.851 413.817 204.323 414.027C203.795 414.237 203.217 414.285 202.661 414.167C202.105 414.049 201.596 413.769 201.199 413.362C200.802 412.955 200.535 412.44 200.43 411.882C200.325 411.323 200.388 410.746 200.61 410.223C200.833 409.7 201.205 409.255 201.68 408.943C202.155 408.631 202.712 408.466 203.28 408.47C203.66 408.474 204.036 408.553 204.386 408.703C204.736 408.852 205.053 409.069 205.318 409.341C205.584 409.614 205.793 409.936 205.934 410.289C206.075 410.642 206.145 411.02 206.14 411.4Z" fill="#263238"/>
<path d="M215 411.44C214.988 412.006 214.81 412.555 214.487 413.019C214.164 413.483 213.711 413.842 213.185 414.05C212.659 414.257 212.084 414.305 211.531 414.187C210.978 414.069 210.472 413.79 210.077 413.385C209.682 412.98 209.415 412.468 209.31 411.912C209.206 411.357 209.267 410.782 209.488 410.262C209.708 409.741 210.077 409.297 210.549 408.985C211.021 408.674 211.575 408.508 212.14 408.51C212.521 408.513 212.897 408.591 213.248 408.74C213.598 408.889 213.916 409.106 214.181 409.378C214.447 409.651 214.657 409.974 214.797 410.327C214.938 410.681 215.007 411.06 215 411.44Z" fill="#263238"/>
<path d="M223.93 411.48C223.918 412.046 223.739 412.595 223.416 413.059C223.094 413.523 222.641 413.882 222.115 414.09C221.589 414.297 221.013 414.345 220.46 414.227C219.907 414.109 219.402 413.83 219.007 413.425C218.612 413.02 218.345 412.508 218.24 411.952C218.135 411.397 218.197 410.822 218.417 410.302C218.638 409.781 219.007 409.337 219.479 409.025C219.951 408.714 220.504 408.548 221.07 408.55C221.45 408.554 221.826 408.633 222.176 408.783C222.526 408.932 222.842 409.149 223.108 409.421C223.374 409.694 223.583 410.016 223.724 410.369C223.865 410.722 223.935 411.1 223.93 411.48Z" fill="#263238"/>
<path d="M293.62 137.27H133.69V235.07H293.62V137.27Z" fill="#E0E0E0"/>
<path d="M148.46 235.09L194.28 173.75L222.69 212.11L241.95 191.59L279.72 235.05L148.46 235.09Z" fill="#F5F5F5"/>
<path d="M234.74 166.22C234.742 168.266 234.137 170.266 233.002 171.967C231.867 173.669 230.253 174.996 228.364 175.78C226.475 176.564 224.395 176.771 222.389 176.373C220.383 175.975 218.539 174.991 217.092 173.545C215.645 172.099 214.659 170.257 214.259 168.251C213.86 166.245 214.064 164.165 214.846 162.275C215.628 160.386 216.954 158.77 218.654 157.633C220.355 156.497 222.355 155.89 224.4 155.89C227.141 155.89 229.769 156.978 231.708 158.915C233.647 160.852 234.737 163.48 234.74 166.22Z" fill="#F5F5F5"/>
<path d="M293.19 325.96C293.19 323.87 293.09 235.52 292.95 104.72L293.19 104.96H133.28L133.54 104.7C133.54 187.44 133.54 264.01 133.54 325.94L133.32 325.73L293.25 325.94L133.32 326.16H133.11V325.94C133.11 264.01 133.11 187.44 133.06 104.7V104.44H133.34H293.25H293.49V104.67C293.44 170.14 293.4 225.47 293.37 264.45C293.37 283.91 293.32 299.28 293.31 309.8C293.31 315.04 293.31 319.07 293.31 321.8C293.31 323.15 293.31 324.18 293.31 324.88C293.31 325.58 293.19 325.96 293.19 325.96Z" fill="#263238"/>
<path d="M218 353.41L221.54 341.52C222.16 338.94 222.98 335.9 224.08 332.43C225.08 329.31 227.62 326.03 229.94 323.67C233.55 320 235.27 319.98 237.69 318.03C237.91 317.89 238.16 317.68 238.37 317.57C238.828 317.321 239.229 316.981 239.55 316.57C241.64 314.31 239.63 310.8 235.38 311.14C232.19 311.39 226.97 312.3 218.49 321.05C218.38 321.19 218.27 321.3 218.17 321.43C213.72 327.22 209.54 310.7 208.78 304.55C208.633 303.597 208.273 302.689 207.727 301.894C207.181 301.099 206.463 300.437 205.627 299.957C204.79 299.476 203.857 299.191 202.895 299.12C201.933 299.05 200.967 299.197 200.07 299.55L179.41 309.21C177.439 308.638 175.338 308.708 173.41 309.41C171.964 309.917 170.76 310.946 170.031 312.294C169.302 313.641 169.102 315.213 169.47 316.7L177.86 350.11L153.25 432.01H206.3L218 353.41Z" fill="#FFBE9D"/>
<path d="M258.8 278.19L242.4 310.33L234.2 308.05L193 341.58C191.318 342.956 189.166 343.621 187.002 343.434C184.837 343.248 182.831 342.223 181.41 340.58L165.71 322.35C165.71 322.35 197.36 308.72 203.21 297.44C209.06 286.16 202.3 283.59 202.3 283.59L217.19 266.67L258.8 278.19Z" fill="#799BF8"/>
<path d="M237.53 212.55C237.53 212.55 213.53 207.24 179.74 174.76C145.95 142.28 130.09 99.1099 126 99.3499C121.91 99.5899 103.81 91.1799 69.4698 165.87C35.1298 240.56 48.6598 257.87 55.4698 257.77C62.2798 257.67 108.69 244.7 137.67 247.99C166.65 251.28 203.9 266.39 203.9 266.39L237.53 212.55Z" fill="#799BF8"/>
<path d="M288.52 253.26L280.33 268.83L276.66 275.83C274.237 280.438 270.139 283.94 265.21 285.615C260.281 287.289 254.898 287.009 250.17 284.83L198.72 266.9L228.72 198.5L280.12 225.89C284.848 228.42 288.385 232.717 289.959 237.844C291.532 242.971 291.015 248.513 288.52 253.26Z" fill="#799BF8"/>
<g opacity="0.4">
<path opacity="0.4" d="M288.52 253.26L280.33 268.83L276.66 275.83C274.237 280.438 270.139 283.94 265.21 285.615C260.281 287.289 254.898 287.009 250.17 284.83L198.72 266.9L228.72 198.5L280.12 225.89C284.848 228.42 288.385 232.717 289.959 237.844C291.532 242.971 291.015 248.513 288.52 253.26Z" fill="black"/>
</g>
<path d="M72.2098 167.23C53.9398 207.69 46.3298 243.75 55.2098 247.76C64.0898 251.77 86.1198 222.23 104.39 181.76C122.66 141.29 130.27 105.25 121.39 101.23C112.51 97.2097 90.4798 126.77 72.2098 167.23Z" fill="#799BF8"/>
<g opacity="0.5">
<path opacity="0.5" d="M72.2098 167.23C53.9398 207.69 46.3298 243.75 55.2098 247.76C64.0898 251.77 86.1198 222.23 104.39 181.76C122.66 141.29 130.27 105.25 121.39 101.23C112.51 97.2097 90.4798 126.77 72.2098 167.23Z" fill="black"/>
</g>
<path d="M292.94 275.77L278.99 271.39L287.62 254.98L298.08 261.48L292.94 275.77Z" fill="#799BF8"/>
<g opacity="0.6">
<path opacity="0.6" d="M287.62 254.98L278.99 271.39L281.86 272.29L288.87 255.76L287.62 254.98Z" fill="black"/>
</g>
<path d="M278 258.76C277.8 259.21 270.84 256.51 262.46 252.76C254.08 249.01 247.46 245.53 247.65 245.08C247.84 244.63 254.81 247.34 263.2 251.13C271.59 254.92 278.21 258.31 278 258.76Z" fill="#799BF8"/>
<path d="M282.3 248.99C282.08 249.43 275.78 246.78 268.23 243.06C260.68 239.34 254.74 235.97 254.96 235.52C255.18 235.07 261.47 237.73 269.02 241.45C276.57 245.17 282.52 248.54 282.3 248.99Z" fill="#799BF8"/>
<path d="M272.6 269.01C272.53 269.25 270.87 268.87 268.23 268.01C266.91 267.6 265.34 267.08 263.61 266.49C261.88 265.9 260.11 264.96 258.2 264.09C250.57 260.55 244.74 257.09 244.93 256.67C245.12 256.25 251.39 258.96 258.93 262.47C260.83 263.33 262.59 264.27 264.25 264.96C265.91 265.65 267.4 266.26 268.65 266.82C271.15 267.97 272.67 268.77 272.6 269.01Z" fill="#799BF8"/>
<path d="M109.46 158.24C109.46 158.24 88.5999 145.3 77.1899 173.49C65.7799 201.68 87.7199 206.31 87.7199 206.31C97.1943 191.39 104.513 175.207 109.46 158.24Z" fill="#799BF8"/>
<g opacity="0.5">
<path opacity="0.5" d="M131.65 124.64C131.78 124.64 131.48 126.58 130.84 130.03C130.2 133.48 129.24 138.47 127.9 144.61L125 154.48C124.473 156.247 123.93 158.077 123.37 159.97L122.52 162.84C122.21 163.84 121.8 164.75 121.44 165.72L116.73 177.88C116.32 178.94 115.9 180 115.49 181.07C115.08 182.14 114.49 183.16 114.02 184.22L110.92 190.62L107.81 197.01C107.28 198.01 106.81 199.13 106.24 200.11C105.67 201.09 105.07 202.11 104.5 203.06L97.8501 214.29C97.3101 215.17 96.8501 216.08 96.2501 216.92L94.5201 219.37L91.2001 224.05L85.2001 232.42C81.2001 237.25 77.8601 241.06 75.5601 243.71C74.4304 245.145 73.1827 246.483 71.8301 247.71C72.7702 246.149 73.8407 244.671 75.0301 243.29C77.2501 240.46 80.3801 236.5 84.2201 231.63L89.9701 223.2L93.1901 218.51C93.7501 217.71 94.3101 216.89 94.8801 216.06C95.4501 215.23 95.8801 214.32 96.4301 213.43L103 202.21L104.71 199.27C105.3 198.27 105.71 197.27 106.26 196.19L109.34 189.84C110.34 187.69 111.41 185.58 112.43 183.49C112.91 182.49 113.49 181.43 113.89 180.37L115.14 177.21L119.92 165.21C120.29 164.21 120.71 163.32 121.03 162.36C121.35 161.4 121.62 160.46 121.91 159.52L123.61 154.09L126.68 144.34L130.15 129.94C130.498 128.134 131 126.361 131.65 124.64Z" fill="black"/>
</g>
<g opacity="0.4">
<path opacity="0.4" d="M170.69 320.11C172.6 323.57 174.54 327.11 177.35 329.84C180.16 332.57 184 334.51 188 334.11C192 333.71 195.65 330.45 195.69 326.51C197.57 327.92 200.46 327.16 202.02 325.39C203.58 323.62 204.09 321.17 204.27 318.82C206.83 320.33 210.39 319.14 212.1 316.71C212.885 315.444 213.382 314.021 213.555 312.541C213.727 311.062 213.572 309.562 213.1 308.15C212.126 305.338 210.741 302.686 208.99 300.28C210.99 300.44 213.05 300.58 214.81 299.69C216.57 298.8 217.81 296.46 216.74 294.78C216.037 293.842 215.017 293.191 213.87 292.95C210.78 291.95 208.62 291.21 205.4 291.58C204.66 291.58 206.69 300.06 186.52 311.64C174.55 318.49 170.69 320.11 170.69 320.11Z" fill="black"/>
</g>
<path d="M216.11 332.31C216.11 332.4 214.76 332.14 212.58 332.2C209.747 332.268 206.961 332.936 204.406 334.162C201.851 335.388 199.585 337.143 197.76 339.31C196.35 340.97 195.76 342.18 195.63 342.13C195.713 341.818 195.845 341.521 196.02 341.25C196.448 340.488 196.933 339.759 197.47 339.07C199.268 336.789 201.564 334.95 204.184 333.695C206.803 332.439 209.675 331.802 212.58 331.83C213.452 331.835 214.322 331.916 215.18 332.07C215.502 332.094 215.816 332.176 216.11 332.31Z" fill="#EB996E"/>
<path d="M172 314.7C175.25 317.82 177.47 321.27 180.88 324.41C182.43 325.84 184.88 328.54 186.88 328.9C188.88 329.26 190.28 328.99 191.1 327.05C191.77 325.48 190.57 323.33 189.75 322.05C187.58 318.64 185.5 315.98 183.88 313.33C183.11 312.09 184.1 311.83 184.46 312.41C186.02 314.03 188.36 315.41 189.76 317.2C191.68 319.61 192.02 322.82 197.04 321.8C197.711 321.691 198.348 321.428 198.9 321.03C200.79 319.58 200.9 317.03 200.08 315.03C199.372 313.486 198.427 312.062 197.28 310.81C199.42 313.22 201.75 315.81 205.15 316.03C206.11 316.146 207.083 315.962 207.934 315.501C208.785 315.041 209.472 314.328 209.9 313.46C210.9 311.18 209.47 308.97 208.02 307.19C205.453 304.025 202.598 301.106 199.49 298.47C198.329 297.495 196.866 296.954 195.35 296.94C193.59 296.94 191.35 297.26 190.35 298.78C189.779 299.513 189.363 300.355 189.127 301.254C188.892 302.153 188.842 303.091 188.98 304.01C188.98 304.01 184.58 301.78 181.04 304.11C178.861 305.641 177.295 307.894 176.62 310.47L172 314.7Z" fill="#FFBE9D"/>
<path d="M195.45 295.98C194.746 295.163 194.31 294.15 194.199 293.077C194.088 292.005 194.308 290.924 194.83 289.98C195.58 288.51 196.52 287.08 197.48 286.76C201.67 285.35 219.99 288.52 219.82 292.58C219.65 296.64 218.31 298.58 208.38 297.15C206.63 296.9 203.89 296.56 203.89 296.56L201.49 300.16L195.45 295.98Z" fill="#FFBE9D"/>
<path d="M198.73 313C196.325 309.036 192.82 305.856 188.64 303.85C189.322 303.96 189.978 304.19 190.58 304.53C193.59 305.985 196.117 308.277 197.86 311.13C198.263 311.694 198.558 312.328 198.73 313Z" fill="#EB996E"/>
<path d="M201.81 300.51C201.72 300.59 200.51 299.61 198.86 298.6C198.17 298.163 197.455 297.765 196.72 297.41C196.15 297.15 195.77 297.08 195.78 297C195.79 296.92 196.21 296.88 196.84 297.07C197.651 297.33 198.425 297.697 199.14 298.16C200.83 299.19 201.94 300.4 201.81 300.51Z" fill="#EB996E"/>
<path d="M204.89 296.73C203.698 296.869 202.49 296.732 201.36 296.33C200.533 296.077 199.765 295.662 199.1 295.11C198.6 294.68 198.39 294.33 198.44 294.28C199.402 294.902 200.432 295.412 201.51 295.8C202.656 296.034 203.785 296.345 204.89 296.73Z" fill="#EB996E"/>
<path d="M187.09 318.03C186.459 317.368 185.899 316.64 185.42 315.86C184.278 314.013 182.835 312.37 181.15 311C179.404 309.723 177.239 309.151 175.09 309.4C174.208 309.558 173.351 309.83 172.54 310.21C172.54 310.21 172.72 310 173.13 309.75C173.714 309.396 174.358 309.152 175.03 309.03C176.149 308.849 177.294 308.893 178.396 309.159C179.498 309.426 180.536 309.909 181.45 310.58C183.19 311.979 184.643 313.7 185.73 315.65C186.249 316.404 186.704 317.2 187.09 318.03Z" fill="#EB996E"/>
<path d="M201.1 358.53C198.633 359.054 196.134 359.412 193.62 359.6C191.119 359.962 188.596 360.149 186.07 360.16C188.54 359.636 191.042 359.278 193.56 359.09C196.058 358.733 198.577 358.546 201.1 358.53Z" fill="#EB996E"/>
<path d="M358.63 25.96L359.76 28.02L361.82 29.15L359.76 30.28L358.63 32.34L357.5 30.28L355.44 29.15L357.5 28.02L358.63 25.96Z" fill="#3D6DCC"/>
<path d="M382.24 77.1299L383.37 79.1899L385.43 80.3199L383.37 81.4499L382.24 83.5099L381.11 81.4499L379.04 80.3199L381.11 79.1899L382.24 77.1299Z" fill="#3D6DCC"/>
<path d="M3.89996 213.65L5.02996 215.71L7.09996 216.84L5.02996 217.97L3.89996 220.03L2.76996 217.97L0.709961 216.84L2.76996 215.71L3.89996 213.65Z" fill="#3D6DCC"/>
<path d="M327.66 38.6802L330.27 43.4402L335.04 46.0502L330.27 48.6602L327.66 53.4202L325.06 48.6602L320.29 46.0502L325.06 43.4402L327.66 38.6802Z" fill="#3D6DCC"/>
<path d="M25.0602 181.21L27.6602 185.97L32.4202 188.57L27.6602 191.17L25.0602 195.93L22.4602 191.17L17.7002 188.57L22.4602 185.97L25.0602 181.21Z" fill="#3D6DCC"/>
<path d="M388.66 294.68L391.26 299.44L396.01 302.04L391.26 304.64L388.66 309.39L386.06 304.64L381.3 302.04L386.06 299.44L388.66 294.68Z" fill="#3D6DCC"/>
</g>
<defs>
<clipPath id="clip0">
<rect width="419.61" height="446.16" fill="white"/>
</clipPath>
</defs>
</svg>
