<svg width="506" height="337" viewBox="0 0 506 337" fill="none" xmlns="http://www.w3.org/2000/svg">
<path d="M126.972 48.2578H65.1055V137.9H126.972V48.2578Z" fill="#E0E0E0"/>
<path d="M123.869 48.2583H62.002V137.9H123.869V48.2583Z" fill="#F5F5F5"/>
<path d="M116.177 57.9634H69.6929V128.194H116.177V57.9634Z" fill="white"/>
<path d="M116.245 128.194C116.245 128.194 116.245 128.059 116.245 127.857C116.245 127.655 116.245 127.318 116.245 126.846C116.245 125.97 116.245 124.689 116.245 123.004C116.245 119.634 116.245 114.714 116.178 108.513C116.178 96.1118 116.11 78.5878 116.11 57.9634L116.245 58.0982C102.01 58.0982 86.2898 58.0982 69.7605 58.0982L69.8954 57.9634C69.8954 84.4516 69.8954 108.85 69.828 128.194L69.693 128.059C83.861 128.059 95.4653 128.127 103.561 128.127C107.609 128.127 110.78 128.127 112.939 128.194C114.019 128.194 114.828 128.194 115.368 128.194C115.908 128.194 116.245 128.194 116.245 128.194C116.245 128.194 115.975 128.194 115.435 128.194C114.896 128.194 114.086 128.194 113.007 128.194C110.848 128.194 107.744 128.194 103.696 128.262C95.6002 128.262 83.9285 128.329 69.7605 128.329H69.6256V128.194C69.6256 108.918 69.6256 84.4516 69.5581 57.9634V57.8286H69.693C86.2224 57.8286 102.01 57.8286 116.178 57.8286H116.313V57.9634C116.313 78.6552 116.245 96.2466 116.245 108.648C116.245 114.849 116.245 119.702 116.178 123.072C116.178 124.757 116.178 126.037 116.178 126.914C116.178 127.318 116.178 127.655 116.178 127.925C116.245 128.059 116.245 128.194 116.245 128.194Z" fill="#E0E0E0"/>
<path d="M124.071 48.258C124.139 48.258 123.667 48.932 122.992 49.8756C122.25 50.8192 121.238 52.1672 120.091 53.5826C118.944 54.998 117.865 56.2786 117.055 57.1548C116.245 58.031 115.706 58.5702 115.706 58.5702C115.638 58.5702 116.11 57.9636 116.92 57.02C117.73 56.009 118.742 54.7958 119.889 53.3804C121.035 52.0324 122.047 50.7518 122.857 49.7408C123.532 48.7972 124.071 48.1906 124.071 48.258Z" fill="#E0E0E0"/>
<path d="M116.448 127.925C118.742 131.564 121.508 135.002 124.544 138.035L116.448 127.925Z" fill="white"/>
<path d="M124.544 138.102C124.544 138.102 123.937 137.63 123.127 136.822C122.317 136.013 121.17 134.8 120.091 133.384C118.944 131.969 117.999 130.621 117.392 129.61C116.785 128.599 116.38 127.992 116.448 127.925C116.515 127.925 116.92 128.464 117.595 129.475C118.269 130.419 119.214 131.767 120.361 133.115C121.508 134.53 122.52 135.743 123.329 136.619C124.071 137.496 124.611 138.035 124.544 138.102Z" fill="#E0E0E0"/>
<path d="M62.002 137.833C64.7006 134.53 67.3993 131.16 70.098 127.857L62.002 137.833Z" fill="white"/>
<path d="M70.0979 127.79C70.1654 127.857 68.4112 130.149 66.1848 132.912C63.9584 135.676 62.0693 137.833 62.0019 137.833C61.9344 137.765 63.6885 135.474 65.9149 132.71C68.1413 129.947 70.0304 127.79 70.0979 127.79Z" fill="#E0E0E0"/>
<path d="M62.002 48.2589C62.0695 48.1915 63.8236 50.2809 65.9151 52.9769C68.0066 55.6055 69.6258 57.8297 69.5583 57.8971C69.4908 57.9645 67.7367 55.8751 65.6452 53.1791C63.5538 50.4831 61.9346 48.3263 62.002 48.2589Z" fill="#E0E0E0"/>
<path d="M101.74 72.1851H86.1553V116.332H101.74V72.1851Z" fill="#E0E0E0"/>
<path d="M210.429 35.1826V74.4094H154.027L152.003 35.4522L210.429 35.1826Z" fill="#E0E0E0"/>
<path d="M152.02 35.4994V74.3892H208.422V35.4994H152.02Z" fill="white"/>
<path d="M208.675 74.6116H151.733V35.1826H208.675V74.6116ZM152.273 74.0724H208.135V35.7218H152.273V74.0724Z" fill="#E0E0E0"/>
<path d="M202.265 40.3052H158.075V69.5568H202.265V40.3052Z" fill="white"/>
<path d="M202.333 40.3052C202.333 40.3052 202.266 40.3052 202.131 40.3052C201.996 40.3052 201.793 40.3052 201.523 40.3052C200.984 40.3052 200.174 40.3052 199.095 40.3052C197.003 40.3052 193.9 40.3052 189.987 40.3726C182.16 40.3726 171.163 40.44 158.142 40.44L158.277 40.3052C158.277 49.202 158.277 59.1098 158.277 69.5568L158.142 69.422C174.807 69.422 190.189 69.422 202.333 69.422L202.198 69.5568C202.198 60.66 202.266 53.3808 202.266 48.2584C202.266 45.6972 202.266 43.7426 202.266 42.3946C202.266 41.7206 202.266 41.1814 202.266 40.8444C202.266 40.5074 202.333 40.3052 202.333 40.3052C202.333 40.3052 202.333 40.5074 202.333 40.8444C202.333 41.1814 202.333 41.7206 202.333 42.3946C202.333 43.7426 202.333 45.6972 202.333 48.2584C202.333 53.3808 202.4 60.66 202.4 69.6242V69.759H202.266C190.122 69.759 174.739 69.759 158.075 69.759H157.94V69.6242C157.94 59.2446 157.94 49.3368 157.94 40.3726V40.2378H158.075C171.096 40.2378 182.16 40.3052 189.987 40.3052C193.9 40.3052 196.936 40.3052 199.095 40.3726C200.107 40.3726 200.916 40.3726 201.523 40.3726C201.793 40.3726 201.996 40.3726 202.131 40.3726C202.266 40.3052 202.333 40.3052 202.333 40.3052Z" fill="#E0E0E0"/>
<path d="M152.003 35.3848C152.003 35.3848 152.408 35.587 152.947 35.9914C153.555 36.3958 154.297 37.0024 155.174 37.6764C156.051 38.3504 156.793 39.0244 157.265 39.4962C157.805 39.968 158.075 40.305 158.075 40.305C158.007 40.3724 156.658 39.2266 154.971 37.8786C153.285 36.5306 151.935 35.4522 152.003 35.3848Z" fill="#E0E0E0"/>
<path d="M208.405 35.4522C208.473 35.5196 207.123 36.6654 205.437 37.946C203.75 39.294 202.333 40.305 202.266 40.2376C202.198 40.1702 203.547 39.0244 205.234 37.7438C206.988 36.4632 208.338 35.3848 208.405 35.4522Z" fill="#E0E0E0"/>
<path d="M208.337 74.3421C206.246 72.6571 204.154 70.9721 202.063 69.2197L208.337 74.3421Z" fill="white"/>
<path d="M202.063 69.2872C202.13 69.2198 203.547 70.2982 205.301 71.7136C207.056 73.129 208.405 74.3422 208.337 74.3422C208.27 74.4096 206.853 73.3312 205.099 71.9158C203.412 70.5004 202.063 69.3546 202.063 69.2872Z" fill="#E0E0E0"/>
<path d="M152.003 74.3418C151.935 74.2744 153.285 73.196 154.971 71.848C156.658 70.5 158.007 69.489 158.075 69.5564C158.142 69.6238 156.793 70.7022 155.106 72.0502C153.42 73.3982 152.003 74.4092 152.003 74.3418Z" fill="#E0E0E0"/>
<path d="M167.043 49.414V59.187H194.839V49.414H167.043Z" fill="#E0E0E0"/>
<path d="M440.355 211.097C440.355 211.097 435.295 208.738 431.315 220.6C427.334 232.463 426.187 239.135 426.187 239.135C426.187 239.135 425.04 241.696 423.219 240.416C421.397 239.135 418.564 235.159 416 236.372C413.301 237.585 412.896 240.82 414.111 245.336C415.325 249.852 417.619 259.827 417.821 260.703C418.024 261.579 417.686 262.995 416.337 262.321C414.988 261.647 406.622 254.772 403.518 258.883C400.482 263.062 405.947 275.059 406.487 276.34C407.027 277.688 406.892 278.295 406.285 278.699C405.677 279.171 403.114 276.542 400.617 274.655C398.189 272.768 394.95 271.083 393.398 273.577C391.847 276.138 392.656 285.641 403.923 299.526L409.59 305.659L417.754 303.974C435.025 299.256 441.3 292.044 441.502 289.079C441.772 286.113 438.129 285.641 435.025 285.709C431.922 285.776 428.346 286.383 428.076 285.641C427.874 284.9 428.076 284.293 429.291 283.552C430.505 282.81 441.974 276.34 441.974 271.15C441.974 266.028 431.112 266.702 429.628 266.432C428.144 266.163 428.684 264.882 429.358 264.275C430.033 263.669 437.792 256.929 441.435 254.031C445.078 251.065 446.63 248.167 445.145 245.606C443.729 243.112 439.141 244.662 436.914 244.662C434.688 244.595 435.295 241.899 435.295 241.899C435.295 241.899 438.264 235.833 442.042 223.835C445.82 211.906 440.153 210.827 440.153 210.827" fill="#EBEBEB"/>
<path d="M408.511 307.479C411.277 298.717 416.54 283.282 420.925 269.937C425.31 256.659 429.358 244.595 432.192 235.833C433.609 231.452 434.756 227.947 435.565 225.453C435.97 224.24 436.24 223.296 436.51 222.622C436.645 222.285 436.712 222.083 436.78 221.881C436.847 221.746 436.847 221.611 436.847 221.611C436.847 221.611 436.847 221.679 436.78 221.881C436.712 222.083 436.645 222.285 436.577 222.622C436.375 223.296 436.105 224.24 435.7 225.453C434.958 227.88 433.811 231.452 432.462 235.833C429.696 244.595 425.715 256.659 421.262 269.937C416.877 283.215 411.615 298.717 408.781 307.479" fill="#E0E0E0"/>
<path d="M419.71 242.033C419.71 242.033 419.845 242.235 419.98 242.572C420.183 242.909 420.385 243.449 420.655 244.055C421.195 245.336 421.937 247.088 422.746 249.043C423.489 250.997 424.231 252.75 424.703 254.03C424.973 254.637 425.175 255.109 425.31 255.513C425.445 255.85 425.513 256.052 425.513 256.052C425.513 256.052 425.378 255.85 425.243 255.513C425.04 255.176 424.838 254.637 424.568 254.03C424.028 252.75 423.286 250.997 422.477 249.043C421.667 247.088 420.992 245.403 420.453 244.055C420.183 243.449 419.98 242.977 419.845 242.572C419.778 242.235 419.71 242.033 419.71 242.033Z" fill="#E0E0E0"/>
<path d="M426.39 256.12C426.39 256.052 429.898 254.367 434.351 252.345C438.804 250.323 442.379 248.773 442.379 248.84C442.379 248.908 438.871 250.593 434.418 252.615C430.033 254.637 426.39 256.187 426.39 256.12Z" fill="#E0E0E0"/>
<path d="M418.631 276.273C418.631 276.273 418.833 276.205 419.238 276.138C419.71 276.071 420.25 276.003 420.857 275.868C422.274 275.666 424.163 275.397 426.255 274.992C428.346 274.588 430.235 274.183 431.652 273.846C432.327 273.712 432.866 273.577 433.271 273.442C433.676 273.375 433.878 273.307 433.878 273.307C433.878 273.307 433.676 273.375 433.271 273.509C432.866 273.644 432.327 273.779 431.652 273.981C430.303 274.318 428.414 274.79 426.255 275.194C424.163 275.599 422.207 275.868 420.79 276.003C420.115 276.071 419.508 276.138 419.103 276.138C418.901 276.273 418.631 276.273 418.631 276.273Z" fill="#E0E0E0"/>
<path d="M409.793 264.814C409.793 264.814 409.928 264.949 410.198 265.219C410.468 265.556 410.805 265.96 411.21 266.432C412.019 267.443 413.166 268.858 414.381 270.409C415.595 271.959 416.742 273.374 417.484 274.385C417.821 274.857 418.159 275.261 418.429 275.598C418.631 275.868 418.766 276.07 418.766 276.07C418.766 276.07 418.631 275.935 418.361 275.666C418.091 275.329 417.754 274.924 417.349 274.453C416.54 273.442 415.393 272.026 414.178 270.476C412.964 268.926 411.817 267.51 411.075 266.499C410.737 266.028 410.4 265.623 410.13 265.286C409.928 265.017 409.793 264.814 409.793 264.814Z" fill="#E0E0E0"/>
<path d="M400.752 281.732C400.752 281.732 400.955 281.934 401.225 282.271C401.562 282.676 401.967 283.147 402.507 283.754C403.586 285.035 405.07 286.787 406.622 288.809C408.241 290.764 409.658 292.583 410.67 293.931C411.142 294.538 411.547 295.077 411.884 295.482C412.154 295.886 412.289 296.088 412.289 296.088C412.289 296.088 412.087 295.886 411.817 295.549C411.48 295.145 411.075 294.673 410.535 294.066C409.456 292.786 407.971 291.033 406.42 289.011C404.8 287.057 403.384 285.237 402.372 283.889C401.899 283.282 401.495 282.743 401.157 282.339C400.887 281.934 400.752 281.732 400.752 281.732Z" fill="#E0E0E0"/>
<path d="M412.154 295.684C412.154 295.684 412.424 295.616 412.896 295.482C413.436 295.414 414.111 295.279 414.988 295.077C416.742 294.74 419.171 294.268 421.869 293.729C424.568 293.123 426.93 292.583 428.684 292.112C429.493 291.909 430.235 291.707 430.708 291.572C431.18 291.438 431.45 291.37 431.45 291.438C431.45 291.438 431.18 291.572 430.708 291.707C430.235 291.842 429.561 292.044 428.684 292.314C426.93 292.786 424.568 293.392 421.869 293.999C419.171 294.605 416.742 295.01 414.988 295.279C414.111 295.414 413.369 295.549 412.896 295.549C412.492 295.616 412.222 295.684 412.154 295.684Z" fill="#E0E0E0"/>
<path d="M455.4 307.209C455.4 307.276 362.701 307.411 248.412 307.411C134.056 307.411 41.3569 307.344 41.3569 307.209C41.3569 307.142 134.056 307.007 248.412 307.007C362.768 307.074 455.4 307.142 455.4 307.209Z" fill="#263238"/>
<path d="M328.299 71.8824L321.905 77.3755L330.483 87.3405L336.877 81.8474L328.299 71.8824Z" fill="#263238"/>
<path d="M334.365 71.9158L321.141 83.239L311.898 72.455C315.542 67.3326 319.86 63.4908 325.122 61.1318L334.365 71.9158Z" fill="#455A64"/>
<path d="M323.368 81.3519C323.3 81.4193 321.074 78.9929 318.375 75.8925C315.676 72.7921 313.585 70.2309 313.652 70.1635C313.72 70.0961 315.946 72.5225 318.645 75.6229C321.344 78.7233 323.435 81.2845 323.368 81.3519Z" fill="#263238"/>
<path d="M325.864 79.1951C325.797 79.1951 325.257 78.5885 324.38 77.5775C323.503 76.5665 322.288 75.0837 320.939 73.4661C319.657 71.9159 318.51 70.4331 317.566 69.2873C317.161 68.8155 316.824 68.4111 316.554 68.0067C316.284 67.6697 316.216 67.5349 316.216 67.5349C316.351 67.4001 318.578 69.9613 321.276 73.1965C322.626 74.8141 323.773 76.2969 324.65 77.3753C325.392 78.4537 325.931 79.1277 325.864 79.1951Z" fill="#263238"/>
<path d="M329.238 76.2967C329.17 76.2967 328.63 75.6901 327.753 74.6117C326.876 73.5333 325.662 72.0505 324.313 70.4329C323.031 68.8153 321.884 67.3999 320.939 66.1867C320.534 65.7149 320.197 65.2431 319.927 64.9061C319.657 64.5691 319.59 64.4343 319.59 64.4343C319.657 64.3669 320.265 65.0409 321.142 66.0519C322.019 67.1303 323.301 68.5457 324.582 70.2307C325.932 71.8483 327.079 73.3985 327.956 74.4769C328.765 75.5553 329.238 76.2967 329.238 76.2967Z" fill="#263238"/>
<path d="M332.273 73.601C332.206 73.6684 329.979 71.1746 327.348 68.0742C324.717 64.9738 322.558 62.3452 322.693 62.3452C322.828 62.3452 324.987 64.7716 327.618 67.872C330.249 70.9724 332.341 73.5336 332.273 73.601Z" fill="#263238"/>
<path d="M441.867 79.5151L436.04 73.4238L426.528 82.5043L432.355 88.5956L441.867 79.5151Z" fill="#263238"/>
<path d="M442.109 85.4632L430.1 72.9268L440.355 63.0864C445.617 66.4564 449.732 70.5678 452.364 75.6228L442.109 85.4632Z" fill="#455A64"/>
<path d="M432.123 75.0163C432.056 74.9489 434.417 72.5899 437.318 69.7591C440.287 66.9283 442.716 64.7041 442.783 64.7715C442.851 64.8389 440.489 67.1979 437.588 70.0287C434.62 72.8595 432.191 75.0837 432.123 75.0163Z" fill="#263238"/>
<path d="M434.417 77.4426C434.417 77.3752 434.957 76.836 435.969 75.8924C436.981 74.9488 438.331 73.6682 439.882 72.2528C441.367 70.9048 442.783 69.6242 443.863 68.6806C444.335 68.2762 444.74 67.9392 445.077 67.6022C445.347 67.3326 445.482 67.1978 445.549 67.1978C445.684 67.3326 443.256 69.6916 440.152 72.5224C438.6 73.9378 437.184 75.2184 436.172 76.0946C435.092 76.9034 434.417 77.4426 434.417 77.4426Z" fill="#263238"/>
<path d="M437.454 80.6105C437.454 80.5431 438.061 79.9365 439.073 78.9929C440.085 78.0493 441.502 76.7687 443.053 75.3533C444.605 74.0053 445.954 72.7247 447.101 71.7811C447.574 71.3767 447.978 71.0397 448.316 70.7027C448.586 70.4331 448.788 70.3657 448.788 70.2983C448.855 70.3657 448.248 70.9723 447.236 71.9159C446.224 72.8595 444.807 74.2075 443.256 75.6229C441.704 77.0383 440.22 78.3189 439.208 79.1951C438.128 80.1387 437.521 80.6779 437.454 80.6105Z" fill="#263238"/>
<path d="M440.287 83.5085C440.22 83.4411 442.581 81.0821 445.55 78.2513C448.518 75.4205 451.014 73.1963 451.082 73.2637C451.149 73.3311 448.788 75.6901 445.819 78.5209C442.851 81.3517 440.355 83.5759 440.287 83.5085Z" fill="#263238"/>
<path d="M388 50.3477H378.015V65.9171H388V50.3477Z" fill="#263238"/>
<path d="M393.33 54.998H372.753V38.2154C379.972 36.463 386.853 36.3282 393.33 38.2154V54.998Z" fill="#0F4C81"/>
<path d="M393.6 38.2828C393.6 38.2828 393.33 38.4176 392.858 38.6872C392.386 38.8894 391.644 39.2264 390.699 39.496C389.755 39.7656 388.608 40.0352 387.326 40.3048C386.044 40.507 384.627 40.6418 383.143 40.6418C381.659 40.6418 380.242 40.507 378.96 40.3048C377.678 40.1026 376.531 39.833 375.587 39.5634C374.642 39.2938 373.9 39.0242 373.428 38.7546C372.955 38.5524 372.686 38.4176 372.686 38.4176C372.686 38.3502 373.832 38.822 375.722 39.2938C376.666 39.5634 377.813 39.7656 379.027 39.9678C380.309 40.17 381.726 40.2374 383.143 40.2374C384.627 40.2374 386.044 40.1026 387.258 39.9004C388.54 39.6982 389.62 39.4286 390.564 39.159C392.453 38.6872 393.533 38.2154 393.6 38.2828Z" fill="#263238"/>
<path d="M379.567 54.9978C379.5 54.9978 379.365 51.7626 379.365 47.786C379.365 43.8094 379.432 40.5742 379.567 40.5742C379.702 40.5742 379.77 43.8094 379.77 47.786C379.702 51.7626 379.635 54.9978 379.567 54.9978Z" fill="#263238"/>
<path d="M383.48 55.0652C383.413 55.0652 383.278 51.83 383.278 47.8534C383.278 43.8768 383.345 40.6416 383.48 40.6416C383.548 40.6416 383.683 43.8768 383.683 47.8534C383.683 51.83 383.548 55.0652 383.48 55.0652Z" fill="#263238"/>
<path d="M387.393 54.9978C387.326 54.9978 387.191 51.7626 387.191 47.786C387.191 43.8094 387.258 40.5742 387.393 40.5742C387.528 40.5742 387.596 43.8094 387.596 47.786C387.596 51.7626 387.461 54.9978 387.393 54.9978Z" fill="#263238"/>
<path d="M390.632 54.9981C390.564 54.9981 390.429 51.4933 390.429 47.1797C390.429 42.8661 390.497 39.3613 390.632 39.3613C390.767 39.3613 390.834 42.8661 390.834 47.1797C390.834 51.4933 390.767 54.9981 390.632 54.9981Z" fill="#263238"/>
<path d="M375.857 54.9307C375.789 54.9307 375.654 51.4259 375.654 47.1123C375.654 42.7987 375.722 39.2939 375.857 39.2939C375.924 39.2939 376.059 42.7987 376.059 47.1123C376.059 51.4259 375.924 54.9307 375.857 54.9307Z" fill="#263238"/>
<path d="M433.196 185.162C461.598 156.787 461.598 110.784 433.196 82.4097C404.794 54.0356 358.745 54.0356 330.343 82.4097C301.941 110.784 301.941 156.787 330.343 185.162C358.745 213.536 404.794 213.536 433.196 185.162Z" fill="#0F4C81"/>
<path d="M381.794 194.314C415.552 194.314 442.919 166.975 442.919 133.25C442.919 99.525 415.552 72.1855 381.794 72.1855C348.035 72.1855 320.669 99.525 320.669 133.25C320.669 166.975 348.035 194.314 381.794 194.314Z" fill="#FAFAFA"/>
<path d="M442.851 133.25C442.851 133.25 442.851 132.913 442.784 132.239C442.716 131.565 442.784 130.621 442.649 129.341C442.514 126.779 442.042 123.005 440.895 118.354C440.288 115.995 439.545 113.434 438.399 110.671C437.319 107.907 435.902 105.009 434.148 102.111C430.64 96.2472 425.58 90.0464 418.631 84.7892C415.19 82.1606 411.277 79.8016 406.959 77.847C402.641 75.8924 397.986 74.3422 392.926 73.3986C387.933 72.455 382.604 72.118 377.206 72.5224C374.508 72.6572 371.741 73.129 369.043 73.6682C366.344 74.2748 363.578 75.0162 360.879 75.9598C350.152 79.869 339.897 87.0808 332.543 97.1908C330.654 99.6846 329.035 102.381 327.551 105.211C326.809 106.627 326.134 108.042 325.527 109.525C324.92 111.008 324.312 112.491 323.84 114.041C322.828 117.074 322.019 120.242 321.546 123.477C321.007 126.712 320.804 129.947 320.737 133.25C320.737 136.552 321.007 139.855 321.546 143.023C322.019 146.258 322.896 149.358 323.84 152.459C324.312 154.009 324.92 155.492 325.527 156.975C326.201 158.457 326.809 159.873 327.551 161.288C329.035 164.119 330.654 166.815 332.543 169.309C339.897 179.419 350.152 186.631 360.879 190.54C363.578 191.483 366.277 192.292 369.043 192.831C371.809 193.371 374.508 193.842 377.206 193.977C382.604 194.382 387.933 194.045 392.926 193.101C397.919 192.225 402.641 190.607 406.959 188.653C411.277 186.698 415.19 184.339 418.631 181.71C425.512 176.453 430.572 170.32 434.148 164.389C435.902 161.423 437.319 158.525 438.399 155.829C439.545 153.133 440.288 150.504 440.895 148.145C442.042 143.427 442.514 139.653 442.649 137.159C442.784 135.878 442.716 134.935 442.784 134.261C442.851 133.587 442.851 133.25 442.851 133.25C442.851 133.25 442.851 133.587 442.851 134.261C442.851 134.935 442.851 135.878 442.784 137.159C442.649 139.72 442.244 143.495 441.097 148.213C440.49 150.572 439.748 153.133 438.601 155.896C437.521 158.66 436.172 161.558 434.351 164.523C430.842 170.455 425.782 176.655 418.833 181.913C415.392 184.541 411.479 186.968 407.161 188.922C402.844 190.877 398.121 192.494 393.061 193.371C388.001 194.314 382.739 194.651 377.274 194.247C374.575 194.112 371.809 193.64 369.043 193.101C366.277 192.494 363.578 191.753 360.879 190.742C350.085 186.833 339.762 179.554 332.408 169.376C330.519 166.882 328.9 164.186 327.416 161.356C326.674 159.94 325.999 158.457 325.324 157.042C324.717 155.559 324.11 154.076 323.638 152.526C322.626 149.426 321.816 146.325 321.276 143.023C320.737 139.788 320.467 136.485 320.467 133.182C320.467 129.88 320.737 126.577 321.276 123.342C321.749 120.107 322.626 116.939 323.638 113.839C324.11 112.288 324.717 110.806 325.324 109.323C325.999 107.84 326.606 106.425 327.416 105.009C328.9 102.178 330.519 99.4824 332.408 96.9886C339.83 86.8786 350.085 79.532 360.879 75.6902C363.578 74.7466 366.344 73.9378 369.043 73.3312C371.809 72.792 374.508 72.3202 377.274 72.1854C382.739 71.781 388.068 72.118 393.061 73.0616C398.121 74.0052 402.844 75.5554 407.161 77.51C411.479 79.4646 415.392 81.891 418.833 84.5196C425.782 89.8442 430.842 95.9776 434.351 101.909C436.105 104.874 437.521 107.773 438.601 110.536C439.748 113.299 440.49 115.861 441.097 118.22C442.244 122.938 442.649 126.712 442.784 129.273C442.919 130.554 442.851 131.497 442.851 132.171C442.851 132.913 442.851 133.25 442.851 133.25Z" fill="#263238"/>
<path d="M433.945 131.025C431.989 131.093 430.437 131.025 430.437 130.891C430.437 130.688 431.989 130.486 433.945 130.351C435.902 130.217 437.454 130.284 437.454 130.486C437.386 130.688 435.834 130.958 433.945 131.025Z" fill="#263238"/>
<path d="M432.596 145.044C430.707 144.573 429.223 144.101 429.223 143.966C429.29 143.831 430.842 143.966 432.731 144.438C434.62 144.842 436.104 145.314 436.104 145.516C436.037 145.718 434.485 145.516 432.596 145.044Z" fill="#263238"/>
<path d="M427.536 158.255C425.85 157.311 424.5 156.435 424.635 156.3C424.703 156.165 426.187 156.772 427.874 157.648C429.56 158.524 430.91 159.468 430.775 159.603C430.707 159.805 429.29 159.198 427.536 158.255Z" fill="#263238"/>
<path d="M419.17 169.578C417.753 168.23 416.741 167.017 416.876 166.882C417.011 166.747 418.226 167.758 419.642 169.039C421.059 170.387 422.071 171.6 421.936 171.735C421.801 171.937 420.587 170.926 419.17 169.578Z" fill="#263238"/>
<path d="M408.038 178.273C407.094 176.588 406.419 175.172 406.554 175.105C406.689 175.038 407.633 176.318 408.645 177.936C409.657 179.621 410.332 181.036 410.13 181.104C409.927 181.238 408.983 179.958 408.038 178.273Z" fill="#263238"/>
<path d="M395.017 183.665C394.545 181.778 394.275 180.227 394.41 180.16C394.545 180.093 395.152 181.575 395.624 183.463C396.164 185.35 396.434 186.9 396.231 186.967C396.029 187.035 395.489 185.552 395.017 183.665Z" fill="#263238"/>
<path d="M380.984 185.35C380.984 183.395 381.186 181.845 381.321 181.845C381.524 181.845 381.659 183.395 381.659 185.35C381.659 187.304 381.524 188.854 381.321 188.854C381.051 188.854 380.917 187.304 380.984 185.35Z" fill="#263238"/>
<path d="M367.018 183.26C367.558 181.373 368.165 179.958 368.3 179.958C368.435 180.025 368.165 181.575 367.626 183.395C367.086 185.282 366.546 186.698 366.344 186.698C366.141 186.63 366.411 185.08 367.018 183.26Z" fill="#263238"/>
<path d="M354.132 177.464C355.145 175.846 356.089 174.566 356.291 174.633C356.426 174.7 355.752 176.116 354.74 177.801C353.728 179.486 352.783 180.699 352.581 180.632C352.378 180.497 353.053 179.081 354.132 177.464Z" fill="#263238"/>
<path d="M343.27 168.432C344.687 167.151 345.969 166.14 346.104 166.275C346.239 166.41 345.159 167.556 343.742 168.904C342.326 170.252 341.044 171.195 340.909 171.061C340.774 170.858 341.853 169.713 343.27 168.432Z" fill="#263238"/>
<path d="M335.241 156.772C336.996 155.896 338.412 155.289 338.547 155.491C338.615 155.626 337.265 156.502 335.579 157.378C333.892 158.255 332.408 158.861 332.273 158.659C332.138 158.524 333.487 157.648 335.241 156.772Z" fill="#263238"/>
<path d="M330.587 143.494C332.476 143.09 334.095 142.955 334.095 143.09C334.095 143.224 332.611 143.696 330.722 144.101C328.833 144.505 327.281 144.707 327.213 144.505C327.213 144.303 328.698 143.831 330.587 143.494Z" fill="#263238"/>
<path d="M329.709 129.408C331.666 129.542 333.218 129.812 333.218 129.947C333.218 130.149 331.599 130.149 329.709 130.082C327.753 129.947 326.201 129.745 326.201 129.542C326.201 129.273 327.82 129.205 329.709 129.408Z" fill="#263238"/>
<path d="M332.678 115.591C334.5 116.265 335.916 116.939 335.849 117.073C335.781 117.208 334.23 116.871 332.408 116.197C330.587 115.591 329.17 114.917 329.237 114.714C329.305 114.512 330.856 114.917 332.678 115.591Z" fill="#263238"/>
<path d="M339.222 103.054C340.774 104.2 341.989 105.211 341.921 105.346C341.854 105.481 340.437 104.739 338.818 103.593C337.199 102.515 336.052 101.437 336.119 101.302C336.254 101.167 337.603 101.976 339.222 103.054Z" fill="#263238"/>
<path d="M348.87 92.7419C350.084 94.2247 350.961 95.5727 350.826 95.6401C350.691 95.7749 349.545 94.6291 348.33 93.1463C347.116 91.6635 346.171 90.3829 346.374 90.2481C346.576 90.1133 347.655 91.2591 348.87 92.7419Z" fill="#263238"/>
<path d="M360.946 85.3953C361.689 87.1477 362.228 88.6979 362.093 88.7653C361.958 88.8327 361.149 87.4847 360.339 85.6649C359.53 83.9125 359.057 82.4297 359.192 82.2949C359.395 82.2949 360.137 83.6429 360.946 85.3953Z" fill="#263238"/>
<path d="M374.507 81.6212C374.777 83.5758 374.844 85.126 374.71 85.126C374.507 85.126 374.17 83.6432 373.9 81.6886C373.63 79.8014 373.495 78.1838 373.698 78.1838C373.9 78.1164 374.237 79.6666 374.507 81.6212Z" fill="#263238"/>
<path d="M388.675 81.5536C388.405 83.5082 388.068 84.991 387.933 84.991C387.731 84.991 387.798 83.3734 388.068 81.4862C388.27 79.5316 388.608 78.0488 388.81 78.0488C388.945 78.0488 388.945 79.599 388.675 81.5536Z" fill="#263238"/>
<path d="M402.303 85.2606C401.561 87.013 400.819 88.4284 400.617 88.361C400.482 88.2936 400.954 86.8108 401.696 84.991C402.438 83.1712 403.18 81.8232 403.383 81.8906C403.518 82.0254 403.046 83.5082 402.303 85.2606Z" fill="#263238"/>
<path d="M414.38 92.5399C413.166 94.0227 412.086 95.1685 411.951 95.1011C411.816 94.9663 412.693 93.6856 413.84 92.1355C415.055 90.5853 416.134 89.4395 416.269 89.5742C416.472 89.709 415.594 91.0571 414.38 92.5399Z" fill="#263238"/>
<path d="M424.163 102.785C422.611 103.931 421.262 104.739 421.127 104.605C420.992 104.47 422.206 103.391 423.758 102.246C425.31 101.1 426.659 100.291 426.794 100.426C426.862 100.561 425.715 101.639 424.163 102.785Z" fill="#263238"/>
<path d="M430.775 115.254C428.953 115.928 427.401 116.332 427.334 116.197C427.266 116.063 428.683 115.321 430.505 114.647C432.326 113.973 433.811 113.569 433.946 113.704C434.013 113.838 432.596 114.58 430.775 115.254Z" fill="#263238"/>
<path d="M433.811 129.003C431.854 129.138 430.302 129.138 430.302 129.003C430.302 128.801 431.854 128.532 433.743 128.397C435.7 128.195 437.251 128.195 437.251 128.397C437.251 128.599 435.7 128.869 433.811 129.003Z" fill="#263238"/>
<path d="M358.046 67.1978C358.046 67.1978 357.978 67.2652 357.843 67.2652C357.708 67.3326 357.506 67.4 357.236 67.5348C356.696 67.737 355.887 68.0066 354.875 68.4784C352.783 69.3546 349.882 70.7026 346.441 72.7246C344.687 73.7356 342.866 74.8814 340.977 76.2294C339.087 77.6448 337.064 79.1276 335.107 80.88C331.126 84.3848 327.213 88.6984 323.773 93.686C320.332 98.741 317.768 103.931 315.946 108.851C315.002 111.345 314.327 113.704 313.72 115.995C313.18 118.287 312.708 120.376 312.438 122.398C311.831 126.308 311.629 129.543 311.561 131.767C311.494 132.913 311.561 133.722 311.561 134.328C311.561 134.598 311.561 134.8 311.561 135.002C311.561 135.137 311.561 135.204 311.561 135.204C311.561 135.204 311.561 135.137 311.561 135.002C311.561 134.8 311.561 134.598 311.561 134.328C311.561 133.722 311.494 132.845 311.494 131.767C311.494 129.543 311.629 126.308 312.236 122.331C312.506 120.376 312.978 118.22 313.518 115.928C314.125 113.636 314.8 111.21 315.744 108.784C317.566 103.796 320.129 98.5388 323.57 93.4838C327.011 88.4288 330.991 84.1152 334.972 80.6104C336.929 78.858 338.953 77.3078 340.842 75.9598C342.798 74.6118 344.62 73.466 346.374 72.455C349.882 70.5004 352.783 69.1524 354.875 68.3436C355.887 67.9392 356.764 67.6696 357.303 67.4674C357.573 67.4 357.776 67.3326 357.911 67.2652C357.978 67.1978 358.046 67.1978 358.046 67.1978Z" fill="white"/>
<path d="M378.353 63.2884C378.353 63.3558 377.543 63.4232 376.261 63.558C374.979 63.6928 373.158 63.895 371.201 64.1646C369.245 64.4342 367.423 64.7038 366.141 64.906C364.859 65.1082 364.05 65.243 364.05 65.1756C364.05 65.1082 364.859 64.906 366.141 64.6364C367.423 64.3668 369.245 64.0972 371.201 63.8276C373.158 63.558 374.979 63.4232 376.329 63.3558C377.543 63.221 378.353 63.221 378.353 63.2884Z" fill="white"/>
<g opacity="0.4">
<path opacity="0.4" d="M332.948 169.915C332.948 169.915 364.59 219.859 413.705 194.247C464.98 167.556 436.644 106.357 436.644 106.357C436.644 106.357 460.797 155.087 410.804 186.9C398.323 194.786 384.83 194.853 374.44 193.775C348.06 191.214 332.948 169.915 332.948 169.915Z" fill="black"/>
</g>
<path d="M398.795 100.763C399.133 109.727 398.863 118.691 397.986 127.588C397.648 130.823 397.311 134.058 396.097 137.091C394.882 140.124 392.723 142.82 389.755 144.101C386.786 145.382 382.941 144.842 380.849 142.348L398.795 100.763Z" fill="#E0E0E0"/>
<path d="M380.444 128.397L402.641 91.0571L389.282 133.25L382.401 135.272L380.444 128.397Z" fill="#0F4C81"/>
<g opacity="0.4">
<path opacity="0.4" d="M402.641 91.0571L386.179 129.206L389.283 133.25L402.641 91.0571Z" fill="black"/>
</g>
<path d="M382.401 142.416C386.351 142.416 389.552 139.217 389.552 135.271C389.552 131.326 386.351 128.127 382.401 128.127C378.451 128.127 375.25 131.326 375.25 135.271C375.25 139.217 378.451 142.416 382.401 142.416Z" fill="#FAFAFA"/>
<path d="M389.553 135.271C389.485 135.271 389.553 134.665 389.283 133.519C389.013 132.441 388.271 130.89 386.651 129.677C385.842 129.071 384.83 128.599 383.683 128.397C382.536 128.194 381.254 128.262 380.04 128.734C379.433 128.936 378.825 129.273 378.286 129.677C377.746 130.082 377.206 130.553 376.801 131.16C375.924 132.306 375.452 133.789 375.452 135.271C375.452 136.754 375.924 138.237 376.801 139.383C377.206 139.989 377.746 140.461 378.286 140.866C378.825 141.27 379.433 141.607 380.04 141.809C381.254 142.281 382.536 142.348 383.683 142.146C384.83 141.944 385.842 141.472 386.651 140.866C388.271 139.652 389.013 138.102 389.283 137.024C389.553 135.945 389.485 135.271 389.553 135.271C389.553 135.271 389.62 135.878 389.418 137.024C389.148 138.102 388.473 139.787 386.854 141.068C386.044 141.674 385.032 142.214 383.818 142.483C382.603 142.685 381.254 142.685 379.972 142.214C379.298 142.011 378.69 141.674 378.151 141.203C377.543 140.798 377.004 140.259 376.599 139.652C375.722 138.439 375.182 136.889 375.182 135.339C375.182 133.721 375.722 132.238 376.599 131.025C377.004 130.419 377.543 129.879 378.151 129.475C378.758 129.071 379.365 128.734 379.972 128.464C381.254 127.992 382.603 127.925 383.818 128.194C385.032 128.397 386.044 128.936 386.854 129.61C388.473 130.89 389.215 132.508 389.418 133.654C389.62 134.665 389.553 135.271 389.553 135.271Z" fill="#263238"/>
<path d="M387.625 136.332C388.208 133.45 386.341 130.641 383.456 130.058C380.571 129.476 377.759 131.34 377.176 134.223C376.593 137.105 378.459 139.914 381.344 140.497C384.23 141.079 387.042 139.215 387.625 136.332Z" fill="#455A64"/>
<path d="M326.066 306.603H361.217L344.822 165.467L326.066 306.603Z" fill="#E0E0E0"/>
<path d="M153.149 165.467L130.21 308.288L325.526 310.782L344.822 165.467H153.149Z" fill="#FAFAFA"/>
<path d="M336.119 230.913H142.625L146.875 204.627H339.627L336.119 230.913Z" fill="#EBEBEB"/>
<path d="M336.186 230.913H142.625L146.875 204.627H339.695L336.186 230.913ZM142.625 230.913H336.119L339.627 204.627H146.875L142.625 230.913Z" fill="#263238"/>
<path d="M153.149 165.467L146.875 204.627H339.627L344.822 165.467H153.149Z" fill="#0F4C81"/>
<path d="M153.149 165.467C154.566 165.467 231.276 165.4 344.889 165.333H345.092V165.535C339.425 208.064 333.015 256.323 326.269 307.277V307.412H326.134C325.459 307.412 324.717 307.412 323.907 307.412C251.785 307.412 184.993 307.412 130.48 307.412H130.21V307.277C144.109 221.409 152.947 166.681 153.149 165.467C152.947 166.613 144.244 221.409 130.548 307.21L130.413 307.075C184.858 307.075 251.718 307.075 323.84 307.075C324.582 307.075 325.324 307.075 326.066 307.075L325.864 307.21C332.678 256.255 339.087 207.997 344.754 165.467L344.889 165.67C231.208 165.535 154.498 165.467 153.149 165.467Z" fill="#263238"/>
<path d="M339.627 204.627C339.627 204.694 296.448 204.829 243.217 204.829C189.986 204.829 146.807 204.761 146.807 204.627C146.807 204.492 189.986 204.424 243.217 204.424C296.448 204.424 339.627 204.492 339.627 204.627Z" fill="#263238"/>
<path d="M336.119 230.913C336.119 230.98 292.738 231.115 239.169 231.115C185.601 231.115 142.22 231.047 142.22 230.913C142.22 230.778 185.601 230.71 239.169 230.71C292.738 230.71 336.119 230.778 336.119 230.913Z" fill="#263238"/>
<path d="M332.206 255.109C332.206 255.177 288.825 255.312 235.256 255.312C181.688 255.312 138.307 255.244 138.307 255.109C138.307 254.975 181.688 254.907 235.256 254.907C288.825 254.907 332.206 254.975 332.206 255.109Z" fill="#263238"/>
<path d="M328.293 279.306C328.293 279.373 284.912 279.508 231.343 279.508C177.775 279.508 134.394 279.44 134.394 279.306C134.394 279.238 177.775 279.104 231.343 279.104C284.844 279.104 328.293 279.171 328.293 279.306Z" fill="#263238"/>
<path d="M157.669 307.412C157.602 307.412 161.11 284.361 165.563 255.985C170.016 227.61 173.726 204.559 173.794 204.627C173.861 204.627 170.353 227.677 165.9 256.053C161.448 284.428 157.737 307.479 157.669 307.412Z" fill="#263238"/>
<path d="M187.49 307.412C187.422 307.412 190.931 284.361 195.383 255.985C199.836 227.61 203.547 204.559 203.614 204.627C203.682 204.627 200.173 227.677 195.721 256.053C191.268 284.428 187.557 307.479 187.49 307.412Z" fill="#263238"/>
<path d="M215.218 306.401C215.151 306.401 218.659 283.552 223.044 255.447C227.497 227.341 231.14 204.56 231.208 204.56C231.275 204.56 227.767 227.341 223.382 255.514C218.996 283.62 215.286 306.401 215.218 306.401Z" fill="#263238"/>
<path d="M242.677 307.21C242.61 307.21 246.118 284.226 250.571 255.851C255.024 227.543 258.734 204.56 258.802 204.56C258.869 204.56 255.361 227.543 250.908 255.918C246.455 284.294 242.745 307.21 242.677 307.21Z" fill="#263238"/>
<path d="M270.204 307.21C270.136 307.21 273.644 284.226 278.097 255.851C282.55 227.543 286.261 204.56 286.328 204.56C286.396 204.56 282.887 227.543 278.435 255.918C273.982 284.294 270.271 307.21 270.204 307.21Z" fill="#263238"/>
<path d="M297.73 307.345C297.662 307.345 301.171 284.294 305.624 255.918C310.076 227.543 313.787 204.56 313.855 204.56C313.922 204.56 310.414 227.61 305.961 255.986C301.508 284.361 297.865 307.412 297.73 307.345Z" fill="#263238"/>
<g opacity="0.2">
<g opacity="0.2">
<path opacity="0.2" d="M280.391 206.446C283.697 204.964 285.789 201.526 286.666 198.021C287.543 194.517 287.408 190.81 287.543 187.17C287.678 183.53 288.083 179.823 289.972 176.656C291.051 174.836 292.603 173.286 293.817 171.533C295.032 169.781 295.909 167.624 295.504 165.535L274.724 165.669L280.391 206.446Z" fill="black"/>
</g>
</g>
<path d="M194.304 232.867C194.304 232.867 194.236 232.935 194.101 233.137C193.899 233.339 193.697 233.541 193.494 233.811C192.954 234.35 192.145 235.159 191.133 236.17C189.109 238.124 186.275 240.753 183.104 243.584C179.933 246.415 176.897 248.908 174.738 250.661C173.659 251.537 172.782 252.211 172.107 252.683C171.837 252.885 171.567 253.087 171.365 253.222C171.23 253.357 171.095 253.424 171.095 253.424C171.095 253.424 171.163 253.357 171.298 253.222C171.5 253.087 171.702 252.885 171.972 252.615C172.647 252.076 173.457 251.335 174.536 250.459C176.695 248.639 179.596 246.145 182.834 243.314C186.005 240.483 188.906 237.855 190.93 235.968C191.942 235.024 192.752 234.283 193.359 233.743C193.629 233.474 193.831 233.339 194.034 233.137C194.169 232.935 194.236 232.867 194.304 232.867Z" fill="#263238"/>
<path d="M192.752 253.559C192.752 253.559 192.415 253.289 191.943 252.75C191.403 252.144 190.661 251.402 189.851 250.526C188.029 248.571 185.601 246.01 182.902 243.112C180.203 240.281 177.707 237.653 175.885 235.765C175.008 234.889 174.334 234.08 173.727 233.541C173.254 233.002 172.984 232.732 172.984 232.665C172.984 232.665 173.322 232.935 173.861 233.406C174.401 233.878 175.143 234.62 176.088 235.563C177.909 237.383 180.473 239.944 183.172 242.842C185.871 245.741 188.299 248.369 190.053 250.324C190.931 251.267 191.605 252.076 192.077 252.615C192.482 253.222 192.752 253.559 192.752 253.559Z" fill="#263238"/>
<path d="M199.971 239.068C199.971 239.068 200.039 238.866 200.174 238.529C200.308 238.192 200.578 237.72 200.983 237.113C201.793 235.967 203.344 234.35 205.976 233.406C206.65 233.204 207.325 233.002 208.067 232.867C208.809 232.732 209.619 232.732 210.496 232.8C212.183 232.934 213.937 233.541 215.623 234.552C217.31 235.563 218.862 237.046 220.009 238.933C221.156 240.82 222.033 243.112 221.83 245.606C221.763 246.819 221.358 248.099 220.683 249.178C220.009 250.256 219.064 251.267 217.917 252.009C215.623 253.491 212.79 254.233 209.889 254.098C208.404 254.031 206.988 253.694 205.571 253.154C204.154 252.615 202.872 251.739 201.793 250.593C201.253 249.987 200.848 249.38 200.511 248.639C200.174 247.897 199.971 247.156 199.836 246.347C199.566 244.729 199.769 243.112 200.241 241.562C201.186 238.461 203.479 235.63 206.515 234.013C209.484 232.328 213.397 232.126 216.635 233.541C218.255 234.215 219.739 235.361 220.886 236.776C222.033 238.192 222.707 240.011 222.91 241.831C223.112 243.651 222.842 245.606 222.033 247.291C221.628 248.167 221.088 248.908 220.414 249.582C219.739 250.256 218.997 250.863 218.187 251.335C214.881 253.222 210.833 253.491 207.325 252.346C205.571 251.806 203.952 250.863 202.602 249.65C201.253 248.436 200.308 246.751 199.971 244.999C199.634 243.247 199.836 241.359 200.713 239.809C201.118 239 201.725 238.326 202.4 237.787C203.075 237.248 203.884 236.844 204.694 236.574C206.313 236.035 208.067 235.9 209.686 235.9C211.373 235.967 212.992 236.102 214.611 236.574C216.163 237.046 217.715 237.72 218.862 238.866C220.076 239.944 220.818 241.427 221.156 242.977C221.493 244.527 221.358 246.077 220.886 247.493C220.414 248.908 219.536 250.189 218.524 251.2C216.433 253.222 213.667 254.368 210.968 254.502C209.619 254.57 208.27 254.368 207.055 253.963C205.841 253.491 204.761 252.817 203.884 251.874C203.007 250.998 202.4 249.852 202.063 248.773C201.658 247.628 201.523 246.482 201.59 245.403C201.658 243.179 202.67 241.157 203.952 239.742C205.301 238.259 206.92 237.315 208.472 236.776C210.091 236.237 211.643 236.17 212.992 236.372C215.758 236.709 217.647 237.855 218.794 238.731C219.402 239.135 219.806 239.54 220.076 239.809C220.346 240.079 220.481 240.214 220.481 240.214C220.481 240.214 220.346 240.079 220.076 239.809C219.806 239.54 219.402 239.203 218.794 238.798C217.647 237.989 215.758 236.844 212.992 236.574C211.643 236.439 210.091 236.507 208.539 237.046C206.988 237.585 205.368 238.529 204.087 239.944C202.805 241.359 201.86 243.314 201.793 245.538C201.725 246.617 201.928 247.762 202.265 248.841C202.602 249.919 203.21 250.998 204.087 251.874C204.896 252.75 205.976 253.424 207.123 253.896C208.337 254.3 209.619 254.502 210.901 254.435C213.532 254.3 216.231 253.222 218.255 251.2C219.267 250.189 220.076 248.976 220.548 247.56C221.021 246.145 221.088 244.662 220.818 243.179C220.548 241.696 219.739 240.281 218.592 239.27C217.445 238.192 216.028 237.518 214.476 237.046C212.925 236.574 211.306 236.439 209.686 236.372C208.067 236.372 206.38 236.507 204.761 237.046C203.21 237.585 201.725 238.596 200.916 240.079C200.106 241.562 199.904 243.381 200.241 245.066C200.578 246.751 201.455 248.302 202.805 249.515C204.087 250.728 205.706 251.604 207.392 252.143C210.833 253.222 214.746 253.02 217.985 251.132C218.794 250.661 219.536 250.121 220.144 249.447C220.751 248.773 221.291 248.032 221.695 247.223C222.505 245.606 222.775 243.718 222.572 241.966C222.37 240.214 221.695 238.461 220.616 237.113C219.536 235.698 218.12 234.619 216.5 233.945C213.33 232.53 209.551 232.732 206.65 234.417C203.682 236.035 201.523 238.731 200.578 241.831C200.106 243.381 199.904 244.932 200.174 246.482C200.308 247.223 200.511 247.965 200.848 248.706C201.186 249.38 201.59 250.054 202.13 250.593C203.142 251.739 204.424 252.548 205.773 253.087C207.123 253.626 208.607 253.963 210.024 254.031C212.857 254.165 215.691 253.491 217.85 252.009C220.076 250.593 221.56 248.234 221.695 245.808C221.83 243.381 221.021 241.09 219.874 239.27C218.727 237.383 217.175 235.967 215.556 234.956C213.937 233.945 212.183 233.339 210.496 233.204C209.686 233.137 208.877 233.137 208.135 233.271C207.392 233.339 206.718 233.541 206.043 233.743C203.479 234.619 201.86 236.237 201.051 237.383C200.646 237.989 200.376 238.461 200.241 238.798C200.039 238.866 199.971 239.068 199.971 239.068Z" fill="#0F4C81"/>
<path d="M218.254 257.67C218.322 257.738 212.992 262.321 206.313 267.848C199.633 273.442 194.169 277.89 194.101 277.755C194.034 277.688 199.364 273.105 206.043 267.578C212.722 262.051 218.187 257.603 218.254 257.67Z" fill="#263238"/>
<path d="M219.402 277.216C219.402 277.216 219.064 277.014 218.525 276.542C217.917 276.071 217.108 275.464 216.163 274.723C214.139 273.172 211.441 270.948 208.405 268.522C205.369 266.095 202.67 263.871 200.713 262.254C199.769 261.445 199.027 260.838 198.419 260.299C197.88 259.827 197.61 259.558 197.61 259.558C197.61 259.558 197.947 259.76 198.487 260.232C199.094 260.703 199.904 261.31 200.848 262.051C202.872 263.602 205.571 265.826 208.607 268.252C211.643 270.679 214.342 272.903 216.298 274.52C217.243 275.329 217.985 275.936 218.592 276.475C219.132 276.947 219.402 277.149 219.402 277.216Z" fill="#263238"/>
<path d="M274.521 257.94C274.589 258.007 269.461 261.917 263.12 266.702C256.778 271.487 251.515 275.262 251.448 275.194C251.38 275.127 256.508 271.218 262.85 266.432C269.259 261.647 274.521 257.805 274.521 257.94Z" fill="#263238"/>
<path d="M276.546 274.521C276.478 274.588 271.081 271.218 264.402 266.972C257.722 262.726 252.393 259.221 252.46 259.153C252.528 259.086 257.925 262.456 264.604 266.702C271.216 270.881 276.613 274.386 276.546 274.521Z" fill="#263238"/>
<path d="M219.131 307.21C219.064 307.142 224.394 301.548 231.006 294.808C237.617 288.001 243.082 282.541 243.15 282.609C243.217 282.676 237.887 288.27 231.275 295.01C224.596 301.818 219.199 307.277 219.131 307.21Z" fill="#0F4C81"/>
<path d="M241.598 307.209C241.598 307.209 241.53 307.142 241.395 307.007C241.261 306.805 241.058 306.603 240.856 306.333C240.316 305.659 239.641 304.783 238.764 303.705C237.01 301.48 234.514 298.515 231.613 295.347C228.712 292.179 225.946 289.416 223.922 287.461C222.91 286.518 222.1 285.709 221.493 285.17C221.223 284.9 221.021 284.698 220.818 284.563C220.683 284.428 220.616 284.361 220.616 284.293C220.616 284.293 220.683 284.361 220.886 284.496C221.088 284.63 221.29 284.833 221.56 285.102C222.167 285.641 222.977 286.383 224.057 287.326C226.148 289.214 228.914 291.977 231.815 295.145C234.716 298.313 237.213 301.346 238.899 303.57C239.776 304.716 240.451 305.592 240.923 306.266C241.126 306.535 241.328 306.805 241.463 307.007C241.53 307.142 241.598 307.209 241.598 307.209Z" fill="#0F4C81"/>
<path d="M186.343 278.901C186.343 278.901 186.545 295.482 182.362 305.39L156.86 301.076C156.86 301.076 164.551 285.372 162.46 276.677L186.343 278.901Z" fill="#EBEBEB"/>
<path d="M186.343 278.228C186.343 278.228 183.172 298.515 181.215 304.581L155.848 299.593C155.848 299.593 161.043 279.913 160.975 274.453L186.343 278.228Z" fill="#0F4C81"/>
<path d="M163.539 283.619C163.539 283.687 167.317 284.563 171.972 285.574C176.695 286.585 180.473 287.259 180.473 287.192C180.473 287.124 176.695 286.248 172.04 285.237C167.385 284.226 163.607 283.485 163.539 283.619Z" fill="white"/>
<path d="M162.932 287.933C162.932 288.001 166.71 288.877 171.365 289.888C176.088 290.899 179.866 291.573 179.866 291.505C179.866 291.438 176.088 290.562 171.432 289.551C166.777 288.54 162.932 287.799 162.932 287.933Z" fill="white"/>
<path d="M166.643 292.786C166.643 292.853 167.182 292.988 168.059 293.19C168.936 293.393 170.151 293.662 171.5 293.932C172.85 294.201 174.064 294.471 174.941 294.606C175.818 294.741 176.358 294.808 176.358 294.808C176.358 294.741 175.818 294.606 174.941 294.404C174.064 294.201 172.85 293.932 171.5 293.662C170.151 293.393 168.936 293.123 168.059 292.988C167.182 292.786 166.643 292.719 166.643 292.786Z" fill="white"/>
<path d="M306.973 232.396C306.973 232.396 309.604 248.504 306.906 258.816L281.403 258.277C281.403 258.277 286.598 241.832 283.292 233.609L306.973 232.396Z" fill="#EBEBEB"/>
<path d="M306.838 231.789C306.838 231.789 306.636 252.076 305.624 258.277L280.122 257.064C280.122 257.064 282.348 237.114 281.471 231.789H306.838Z" fill="#455A64"/>
<path d="M285.114 240.821C285.114 240.888 288.96 241.023 293.682 241.023C298.405 241.023 302.251 240.956 302.251 240.888C302.251 240.821 298.405 240.686 293.682 240.686C288.96 240.619 285.114 240.686 285.114 240.821Z" fill="white"/>
<path d="M285.384 245.067C285.384 245.134 289.229 245.269 293.952 245.269C298.675 245.269 302.52 245.202 302.52 245.134C302.52 245.067 298.675 244.932 293.952 244.932C289.229 244.932 285.384 245 285.384 245.067Z" fill="white"/>
<path d="M289.972 249.043C289.972 249.111 290.511 249.111 291.388 249.178C292.266 249.178 293.48 249.246 294.829 249.246C296.179 249.246 297.393 249.246 298.27 249.178C299.147 249.178 299.687 249.111 299.687 249.043C299.687 248.976 299.147 248.976 298.27 248.909C297.393 248.909 296.179 248.841 294.829 248.841C293.48 248.841 292.266 248.841 291.388 248.909C290.511 248.976 289.972 248.976 289.972 249.043Z" fill="white"/>
<path d="M312.371 185.822C307.58 185.822 302.79 182.856 300.294 178.138C297.865 173.623 297.056 168.028 298.135 162.906C299.552 156.166 304.005 150.639 309.537 148.887C314.26 147.404 322.626 148.213 326.539 154.818C329.642 159.94 329.305 165.265 329.305 165.467C329.237 166.613 328.293 167.422 327.146 167.354C326.066 167.287 325.189 166.343 325.257 165.198C325.257 165.13 325.459 160.884 323.098 156.907C320.062 151.785 313.383 151.92 310.751 152.729C306.029 154.211 302.993 159.334 302.116 163.715C301.239 167.961 301.913 172.477 303.87 176.251C305.894 179.958 309.874 182.25 313.45 181.711C314.53 181.508 315.609 182.317 315.744 183.396C315.946 184.474 315.137 185.552 314.057 185.687C313.518 185.822 312.978 185.822 312.371 185.822Z" fill="#263238"/>
<path d="M181.687 185.822C176.897 185.822 172.107 182.856 169.611 178.138C167.182 173.623 166.373 168.028 167.452 162.906C168.599 157.244 172.647 150.639 178.921 148.887C181.755 148.078 185.196 148.213 188.097 149.359L186.613 153.133C184.116 152.189 181.553 152.324 180.001 152.796C175.346 154.144 172.31 159.266 171.433 163.782C170.556 168.028 171.23 172.544 173.187 176.319C175.211 180.026 179.191 182.317 182.767 181.778L183.374 185.755C182.834 185.822 182.295 185.822 181.687 185.822Z" fill="#263238"/>
<path d="M310.684 165.602L308.862 175.779H336.254L338.683 165.737L310.684 165.602Z" fill="#0F4C81"/>
<path d="M188.636 184.272C188.636 186.698 186.68 188.653 184.251 188.653C181.822 188.653 179.866 186.698 179.866 184.272C179.866 181.845 181.822 179.891 184.251 179.891C186.68 179.891 188.636 181.845 188.636 184.272Z" fill="#263238"/>
<path d="M319.185 184.272C319.185 186.698 317.228 188.653 314.799 188.653C312.371 188.653 310.414 186.698 310.414 184.272C310.414 181.845 312.371 179.891 314.799 179.891C317.228 179.891 319.185 181.845 319.185 184.272Z" fill="#263238"/>
<path d="M247.265 99.9546L240.114 127.117L215.421 129.745V134.126L250.166 135.407L256.71 104.942L247.265 99.9546Z" fill="#FFBE9D"/>
<path d="M257.723 136.081C257.723 136.081 219.064 134.261 208.067 142.821C197.07 151.448 202.333 165.467 202.333 165.467L264.537 165.332L270.002 133.856L257.723 136.081Z" fill="#263238"/>
<path d="M264.267 156.84C264.267 156.84 264.065 156.84 263.727 156.772C263.39 156.705 262.85 156.705 262.176 156.57C260.826 156.368 258.802 156.098 256.374 155.694C251.516 154.885 244.769 153.47 237.483 151.313C233.84 150.235 230.399 149.156 227.228 148.347C224.057 147.606 221.156 147.067 218.66 146.999C216.163 146.865 214.207 147.067 212.858 147.336C212.183 147.404 211.643 147.606 211.306 147.673C210.969 147.741 210.766 147.808 210.766 147.741C210.766 147.741 210.969 147.673 211.306 147.539C211.643 147.471 212.183 147.269 212.858 147.134C214.207 146.797 216.231 146.595 218.727 146.662C221.223 146.73 224.125 147.202 227.363 147.943C230.534 148.684 233.975 149.763 237.618 150.841C244.837 152.998 251.583 154.413 256.441 155.29C258.87 155.761 260.826 156.031 262.243 156.233C262.918 156.368 263.458 156.435 263.795 156.503C264.132 156.84 264.267 156.84 264.267 156.84Z" fill="#455A64"/>
<path d="M228.375 148.28C228.307 148.347 227.026 146.932 224.934 145.921C222.91 144.842 221.021 144.573 221.021 144.438C221.021 144.371 221.493 144.438 222.235 144.573C222.978 144.708 223.99 145.045 225.069 145.584C226.148 146.123 226.958 146.797 227.498 147.336C228.105 147.875 228.442 148.28 228.375 148.28Z" fill="#455A64"/>
<path d="M261.838 219.994L262.378 236.237L259.072 249.178C258.802 250.121 259.41 251.065 260.354 251.2C260.894 251.267 261.434 251.132 261.838 250.728C264.267 248.302 273.308 239.472 273.173 238.259C273.038 236.911 273.78 221.072 273.78 221.072L261.838 219.994Z" fill="#0F4C81"/>
<g opacity="0.6">
<path opacity="0.6" d="M260.354 251.267L273.173 237.248V237.922C273.173 238.529 272.97 239.068 272.565 239.54C271.553 240.753 268.652 244.055 261.838 250.795C261.501 251.2 260.894 251.335 260.354 251.267Z" fill="white"/>
</g>
<g opacity="0.6">
<g opacity="0.6">
<path opacity="0.6" d="M269.799 232.058C269.395 232.328 269.26 232.934 269.53 233.406C269.799 233.81 270.407 233.945 270.811 233.676C271.216 233.406 271.419 232.665 271.081 232.26C270.744 231.856 270.002 231.788 269.665 232.125" fill="white"/>
</g>
</g>
<path d="M263.997 244.123C263.93 244.19 263.525 243.314 262.58 242.842C261.636 242.371 260.759 242.573 260.691 242.505C260.691 242.438 260.894 242.371 261.231 242.303C261.636 242.236 262.176 242.303 262.715 242.573C263.255 242.842 263.66 243.247 263.795 243.584C263.997 243.853 264.065 244.123 263.997 244.123Z" fill="#263238"/>
<path d="M262.85 246.28C262.783 246.347 262.243 245.808 261.434 245.606C260.624 245.336 259.882 245.538 259.814 245.403C259.747 245.336 260.557 244.999 261.501 245.269C262.513 245.538 262.985 246.28 262.85 246.28Z" fill="#263238"/>
<path d="M266.156 241.292C266.089 241.359 265.279 240.551 263.997 240.079C262.715 239.607 261.568 239.674 261.568 239.54C261.568 239.472 262.715 239.203 264.132 239.742C265.481 240.281 266.224 241.292 266.156 241.292Z" fill="#263238"/>
<path d="M266.359 236.372C266.291 236.439 265.414 236.102 264.267 236.102C263.12 236.035 262.176 236.372 262.108 236.237C262.041 236.17 262.985 235.698 264.267 235.698C265.549 235.765 266.426 236.304 266.359 236.372Z" fill="#263238"/>
<path d="M266.358 231.587C266.291 231.654 265.414 231.115 264.199 231.182C262.985 231.25 262.108 231.856 262.041 231.721C262.041 231.654 262.175 231.452 262.58 231.25C262.918 231.047 263.525 230.845 264.199 230.778C264.874 230.778 265.481 230.913 265.819 231.115C266.223 231.384 266.358 231.587 266.358 231.587Z" fill="#263238"/>
<path d="M264.2 230.306C264.2 230.306 264.132 230.104 264.2 229.699C264.2 229.295 264.335 228.756 264.672 228.082C264.874 227.812 265.009 227.408 265.482 227.138C265.684 227.003 266.021 227.071 266.224 227.273C266.426 227.475 266.494 227.745 266.494 228.014C266.494 229.025 265.616 230.036 264.47 230.238C263.323 230.373 262.243 229.699 261.771 228.823C261.636 228.621 261.568 228.284 261.703 228.014C261.838 227.745 262.176 227.61 262.378 227.677C262.85 227.745 263.188 228.014 263.458 228.216C263.997 228.688 264.402 229.16 264.605 229.497C264.807 229.834 264.874 230.036 264.874 230.036C264.807 230.104 264.47 229.227 263.323 228.419C263.053 228.216 262.715 228.014 262.378 227.947C262.176 227.947 262.041 228.014 261.973 228.149C261.906 228.284 261.973 228.486 262.041 228.688C262.446 229.43 263.39 230.036 264.402 229.901C265.347 229.767 266.156 228.89 266.156 228.082C266.156 227.879 266.089 227.677 266.021 227.542C265.886 227.408 265.751 227.408 265.617 227.475C265.279 227.61 265.077 227.947 264.942 228.216C264.2 229.43 264.267 230.306 264.2 230.306Z" fill="#263238"/>
<path d="M270.069 133.856C270.069 133.856 253.337 165.4 253.135 170.926C252.932 176.386 253.135 227.205 253.135 227.205H278.975C279.649 227.205 283.495 204.357 282.753 199.1C281.943 193.842 279.177 165.534 279.177 165.534H294.087C294.087 165.534 298.135 161.153 298 155.627C297.933 152.594 295.909 146.325 293.952 143.023C292.67 140.933 284.507 129.812 284.507 129.812L270.069 133.856Z" fill="#263238"/>
<path d="M268.922 135.946C268.922 135.946 268.922 136.013 268.855 136.148C268.787 136.283 268.72 136.485 268.585 136.687C268.382 137.159 268.045 137.833 267.64 138.642C267.235 139.518 266.696 140.529 266.089 141.742C265.751 142.349 265.481 143.023 265.144 143.697C264.807 144.371 264.469 145.112 264.132 145.921C262.715 149.021 260.961 152.661 259.072 156.772C258.127 158.794 257.115 160.951 256.103 163.175C255.564 164.254 255.091 165.4 254.552 166.545C254.079 167.691 253.675 168.904 253.405 170.185C253.135 171.466 253 172.679 253 173.959C252.933 175.24 252.933 176.453 252.933 177.666C252.933 180.093 252.865 182.452 252.865 184.743C252.865 189.259 252.933 193.303 252.933 196.673C253 200.043 253 202.807 253.067 204.761C253.067 205.705 253.067 206.446 253.067 206.985C253.067 207.188 253.067 207.39 253.067 207.525C253.067 207.659 253.067 207.727 253.067 207.727C253.067 207.727 253.067 207.659 253.067 207.525C253.067 207.39 253.067 207.188 253.067 206.985C253.067 206.446 253 205.705 253 204.761C252.933 202.874 252.865 200.111 252.798 196.673C252.73 193.236 252.663 189.192 252.595 184.743C252.595 182.519 252.595 180.16 252.595 177.666C252.595 176.453 252.663 175.173 252.663 173.959C252.663 172.679 252.798 171.398 253.067 170.118C253.337 168.837 253.742 167.624 254.214 166.411C254.754 165.265 255.294 164.119 255.766 163.041C256.778 160.816 257.79 158.66 258.802 156.638C260.691 152.594 262.445 148.887 263.93 145.854C264.267 145.112 264.672 144.371 264.942 143.629C265.279 142.955 265.616 142.281 265.954 141.675C266.561 140.462 267.101 139.451 267.573 138.574C268.045 137.766 268.382 137.092 268.585 136.62C268.72 136.418 268.787 136.283 268.855 136.148C268.855 136.013 268.922 135.946 268.922 135.946Z" fill="#455A64"/>
<path d="M263.525 146.73C263.457 146.73 262.85 144.978 262.176 142.821C261.501 140.597 260.961 138.844 261.029 138.844C261.096 138.844 261.838 140.529 262.513 142.753C263.188 144.91 263.592 146.73 263.525 146.73Z" fill="#455A64"/>
<path d="M282.821 198.021C282.821 198.021 282.753 197.886 282.753 197.684C282.686 197.415 282.686 197.078 282.618 196.673C282.483 195.73 282.348 194.449 282.146 192.831C281.809 189.596 281.269 185.148 280.729 180.228C280.189 175.307 279.717 170.859 279.447 167.624C279.312 166.074 279.177 164.726 279.11 163.782C279.11 163.378 279.042 163.041 279.042 162.771C279.042 162.501 279.042 162.434 279.042 162.434C279.042 162.434 279.11 162.569 279.11 162.771C279.177 163.041 279.177 163.378 279.245 163.782C279.38 164.726 279.515 166.006 279.65 167.624C279.987 170.859 280.459 175.307 280.999 180.228C281.539 185.148 282.011 189.529 282.348 192.831C282.483 194.382 282.618 195.73 282.686 196.673C282.686 197.078 282.753 197.415 282.753 197.684C282.821 197.954 282.821 198.021 282.821 198.021Z" fill="#455A64"/>
<path d="M276.208 49.3369C275.803 46.6409 278.097 44.0798 280.796 43.7428C283.495 43.4058 286.126 45.1582 287.408 47.5172C288.622 49.9436 288.555 52.8418 287.61 55.3356C287.003 57.0206 285.721 58.773 283.899 58.9078C282.145 59.0426 280.728 57.6272 279.514 56.414" fill="#263238"/>
<path d="M257.25 62.6824C251.853 50.8874 264.672 44.9562 271.621 46.9108C278.165 48.7306 280.998 52.0332 282.078 56.4142C283.157 60.7952 283.09 65.5132 281.403 69.692C280.526 71.7814 279.042 73.8708 276.816 74.073" fill="#263238"/>
<path d="M275.804 53.4487C276.951 53.5835 277.828 54.5271 277.828 55.7403L276.546 85.8007C276.478 89.3729 271.283 91.3275 267.505 91.2601C263.66 91.1927 263.525 89.3055 263.457 85.9355C263.39 80.2739 263.39 78.1845 263.39 78.1845C263.39 78.1845 258.532 77.3757 257.52 71.0401C257.048 67.8723 257.183 62.7499 257.453 58.5037C257.723 54.7293 260.219 50.0787 263.997 50.4157L275.804 53.4487Z" fill="#FFBE9D"/>
<path d="M259.882 62.1435C259.882 62.5479 260.219 62.9523 260.691 62.9523C261.164 62.9523 261.501 62.6827 261.501 62.2109C261.501 61.8065 261.164 61.4021 260.691 61.4021C260.287 61.3347 259.882 61.6717 259.882 62.1435Z" fill="#263238"/>
<path d="M258.532 61.1999C258.6 61.3347 259.274 60.8629 260.151 60.8629C261.028 60.8629 261.636 61.3347 261.771 61.1999C261.838 61.1325 261.703 60.9303 261.433 60.7281C261.163 60.5259 260.691 60.3237 260.151 60.3237C259.612 60.3237 259.139 60.5259 258.87 60.7281C258.6 60.9977 258.532 61.1325 258.532 61.1999Z" fill="#263238"/>
<path d="M268.45 62.1435C268.45 62.5479 268.787 62.9523 269.259 62.9523C269.732 62.9523 270.069 62.6827 270.069 62.2109C270.069 61.8065 269.732 61.4021 269.259 61.4021C268.855 61.3347 268.45 61.6717 268.45 62.1435Z" fill="#263238"/>
<path d="M267.168 61.4021C267.236 61.5369 267.91 61.0651 268.787 61.0651C269.664 61.0651 270.272 61.5369 270.406 61.4021C270.474 61.3347 270.339 61.1325 270.069 60.9303C269.799 60.7281 269.327 60.5259 268.787 60.5259C268.248 60.5259 267.775 60.7281 267.505 60.9303C267.168 61.1325 267.101 61.3347 267.168 61.4021Z" fill="#263238"/>
<path d="M263.997 67.8722C263.997 67.8048 263.457 67.7374 262.58 67.6026C262.377 67.6026 262.175 67.5352 262.108 67.4004C262.04 67.2656 262.175 66.996 262.243 66.7264C262.445 66.1872 262.647 65.648 262.917 65.0414C263.862 62.615 264.469 60.6604 264.401 60.593C264.334 60.5256 263.457 62.4802 262.58 64.9066C262.377 65.5132 262.175 66.0524 261.973 66.5916C261.905 66.8612 261.77 67.1308 261.838 67.4678C261.905 67.6026 262.04 67.7374 262.175 67.8048C262.31 67.8722 262.445 67.8722 262.58 67.8722C263.389 67.8722 263.997 67.8722 263.997 67.8722Z" fill="#263238"/>
<path d="M263.39 78.1847C263.39 78.1847 267.64 78.4543 271.89 75.8931C271.89 75.8931 269.799 80.2741 263.457 79.6675L263.39 78.1847Z" fill="#EB996E"/>
<path d="M264.334 69.9616C264.672 69.5572 265.211 69.2876 265.751 69.355C266.156 69.4224 266.493 69.5572 266.763 69.8942C266.966 70.2312 267.033 70.6356 266.831 70.9052C266.628 71.2422 266.088 71.3096 265.684 71.1748C265.279 71.04 264.874 70.7704 264.537 70.5008C264.469 70.4334 264.334 70.366 264.267 70.2312C264.267 70.2312 264.199 70.0964 264.334 69.9616Z" fill="#EB996E"/>
<path d="M266.561 68.479C266.426 68.479 266.426 69.4226 265.616 70.0966C264.806 70.7706 263.794 70.6358 263.794 70.7706C263.794 70.838 263.997 70.9728 264.469 70.9728C264.874 70.9728 265.481 70.838 266.021 70.4336C266.493 70.0292 266.763 69.49 266.763 69.0856C266.695 68.6812 266.628 68.479 266.561 68.479Z" fill="#263238"/>
<path d="M266.763 59.8516C266.83 60.1212 267.707 59.9864 268.719 60.1212C269.731 60.256 270.608 60.5256 270.743 60.3234C270.811 60.1886 270.676 59.9864 270.339 59.7842C270.001 59.582 269.461 59.3124 268.854 59.245C268.247 59.1776 267.707 59.245 267.303 59.4472C266.898 59.5146 266.695 59.7168 266.763 59.8516Z" fill="#263238"/>
<path d="M258.87 58.7058C259.004 58.908 259.612 58.7058 260.354 58.7058C261.096 58.6384 261.703 58.8406 261.838 58.6384C261.906 58.571 261.771 58.3688 261.568 58.1666C261.298 57.9644 260.894 57.8296 260.354 57.8296C259.882 57.8296 259.409 58.0318 259.139 58.234C258.87 58.3688 258.802 58.571 258.87 58.7058Z" fill="#263238"/>
<path d="M267.1 48.3262C264.806 48.3936 263.052 49.135 261.028 50.2134C259.004 51.2918 257.318 53.179 256.71 55.4032C256.575 55.875 256.508 56.4142 256.778 56.8186C257.115 57.3578 257.925 57.4926 258.532 57.223C259.139 56.9534 259.544 56.4142 259.949 55.9424C260.219 57.0882 261.433 57.9644 262.58 57.9644C263.794 57.9644 264.941 57.0208 265.211 55.875C265.211 57.0882 266.426 58.0992 267.64 58.0318C268.854 57.9644 269.934 57.0208 270.339 55.875C270.541 56.9534 270.811 58.0992 271.486 58.9754C272.16 59.8516 273.307 60.4582 274.387 60.1212C274.252 61.0648 274.117 62.0758 274.454 62.952C274.791 63.8282 276.141 79.0606 277.018 78.791C277.895 78.5214 277.895 62.952 278.097 62.0758C278.502 60.3234 278.839 58.571 278.772 56.7512C278.705 54.9314 278.232 53.179 277.153 51.7636C276.006 50.2808 274.319 49.4046 272.498 48.9328C270.676 48.461 268.854 48.3936 266.965 48.461" fill="#263238"/>
<path d="M279.851 76.095C279.851 76.095 279.784 76.1624 279.649 76.1624C279.514 76.2298 279.312 76.2972 279.042 76.2972C278.502 76.3646 277.692 76.3646 276.815 76.095C275.938 75.8254 274.859 75.1514 274.184 74.073C273.509 72.9946 273.24 71.5792 273.375 70.0964C273.509 68.681 273.847 67.333 273.982 66.1198C274.184 64.9066 274.252 63.8282 274.252 62.8846C274.252 61.941 274.252 61.1996 274.252 60.6604C274.252 60.1212 274.252 59.8516 274.252 59.8516C274.252 59.8516 274.319 60.1212 274.387 60.6604C274.454 61.1996 274.521 61.941 274.521 62.8846C274.521 63.8282 274.454 64.9066 274.319 66.1872C274.184 67.4004 273.847 68.7484 273.779 70.1638C273.644 71.5792 273.914 72.9272 274.521 73.9382C275.129 74.9492 276.073 75.6232 276.95 75.8928C277.827 76.2298 278.569 76.2298 279.109 76.2298C279.514 76.1624 279.784 76.0276 279.851 76.095Z" fill="#263238"/>
<path d="M264.874 47.5171C264.874 47.5171 265.211 48.0563 265.211 48.9999C265.211 49.9435 264.874 51.3589 263.862 52.4373C262.782 53.5157 261.433 53.9201 260.488 53.9201C259.544 53.9201 258.937 53.6505 259.004 53.6505C259.004 53.5831 259.611 53.7853 260.488 53.6505C261.365 53.5831 262.647 53.1787 263.659 52.1677C264.604 51.1567 265.009 49.8761 265.009 48.9325C265.009 48.1237 264.806 47.5845 264.874 47.5171Z" fill="#455A64"/>
<path d="M265.819 54.9985C265.886 54.9985 265.751 55.4029 265.279 55.8747C264.807 56.3465 263.93 56.7509 262.918 56.6835C261.906 56.6161 261.096 56.2117 260.556 55.8747C260.016 55.5377 259.747 55.2681 259.747 55.2007C259.747 55.1333 260.151 55.3355 260.691 55.6051C261.231 55.8747 262.04 56.2117 262.985 56.2791C263.93 56.3465 264.739 56.0095 265.211 55.6051C265.616 55.3355 265.751 54.9985 265.819 54.9985Z" fill="#455A64"/>
<path d="M281.066 53.0439C281.133 53.0439 281.133 53.7179 280.931 54.7963C280.729 55.8747 280.391 57.3575 279.379 58.7055C278.367 60.0535 276.815 60.7275 275.736 60.7949C275.196 60.8623 274.724 60.7949 274.454 60.6601C274.184 60.5927 274.049 60.4579 274.049 60.4579C274.049 60.3905 274.724 60.6601 275.736 60.5253C276.748 60.3905 278.165 59.7839 279.109 58.5033C280.054 57.2227 280.459 55.8073 280.729 54.7963C280.931 53.7179 281.066 53.0439 281.066 53.0439Z" fill="#455A64"/>
<path d="M282.28 56.1445C282.28 56.1445 282.348 56.3467 282.348 56.6837C282.415 57.0207 282.415 57.5599 282.415 58.1665C282.348 59.3797 282.01 61.1995 280.728 62.6823C280.121 63.4237 279.312 63.9629 278.502 64.2325C277.692 64.5021 276.883 64.5021 276.276 64.3673C275.668 64.2325 275.196 63.9629 274.926 63.7607C274.656 63.5585 274.521 63.4237 274.521 63.3563C274.589 63.2889 275.129 63.8955 276.343 64.0977C276.95 64.1651 277.692 64.1651 278.435 63.8955C279.177 63.6259 279.919 63.1541 280.526 62.4127C281.74 60.9973 282.145 59.3123 282.213 58.0991C282.28 56.8859 282.213 56.1445 282.28 56.1445Z" fill="#455A64"/>
<path d="M193.36 137.631L181.081 165.602H197.947L209.956 137.361L193.36 137.631Z" fill="#455A64"/>
<path d="M184.454 107.84L198.285 135.003H241.868L240.114 131.43L227.498 131.026L217.243 108.177C216.635 106.762 215.219 105.818 213.599 105.818H185.736C184.656 105.886 183.982 106.964 184.454 107.84Z" fill="#E0E0E0"/>
<path d="M206.245 119.973C206.245 120.916 205.503 121.658 204.559 121.658C203.614 121.658 202.872 120.916 202.872 119.973C202.872 119.029 203.614 118.288 204.559 118.288C205.503 118.355 206.245 119.096 206.245 119.973Z" fill="#263238"/>
<path d="M246.456 135.002H193.225V137.564H246.456V135.002Z" fill="#455A64"/>
<path d="M230.062 136.351L246.254 165.602H254.012L255.631 162.232L257.251 158.727L246.456 137.631L230.062 136.351Z" fill="#455A64"/>
<path d="M258.195 86.1372C258.195 86.1372 248.817 89.4398 246.793 99.9542L256.711 104.874L258.195 86.1372Z" fill="#0F4C81"/>
<path d="M258.195 86.1371C258.195 86.1371 251.583 100.898 251.853 108.918C251.92 111.749 253.809 119.028 253.809 119.028L257.25 137.159C257.25 137.159 283.427 133.587 284.034 133.587C284.642 133.587 283.157 118.759 283.157 118.759L287.408 90.1811C287.408 90.1811 285.451 86.2719 276.613 84.9239C271.283 84.1151 258.195 86.1371 258.195 86.1371Z" fill="#0F4C81"/>
<path d="M255.699 94.6973C255.766 94.7647 255.091 95.8431 254.214 97.7303C253.81 98.6739 253.405 99.8197 253 101.168C252.663 102.516 252.325 103.931 252.123 105.549C251.921 107.099 251.921 108.649 251.988 109.997C252.055 111.345 252.19 112.558 252.393 113.637C252.798 115.659 253.202 116.872 253.135 116.939C253.135 116.939 253 116.67 252.798 116.063C252.73 115.793 252.595 115.456 252.46 115.052C252.325 114.648 252.19 114.176 252.123 113.704C251.921 112.693 251.718 111.412 251.651 110.064C251.583 108.649 251.583 107.166 251.786 105.549C251.988 103.931 252.325 102.448 252.663 101.168C253.067 99.8197 253.54 98.6739 253.945 97.7303C254.147 97.2585 254.417 96.8541 254.552 96.4497C254.754 96.1127 254.957 95.7757 255.091 95.5061C255.496 94.9669 255.699 94.6973 255.699 94.6973Z" fill="#263238"/>
<path d="M261.366 86.0025L261.771 81.9585C261.838 81.0823 262.58 80.4083 263.457 80.4083L276.343 80.2061C277.153 80.2061 277.828 80.8127 277.895 81.6215L278.232 86.0025C278.232 86.0025 276.816 89.4398 273.037 91.2596C269.259 93.0794 263.322 93.1469 263.322 93.1469L261.366 86.0025Z" fill="#0F4C81"/>
<path d="M264.739 80.4759C264.807 80.5433 264.604 80.7455 264.537 81.1499C264.469 81.6217 264.537 82.2283 264.537 82.9697C264.604 84.3851 264.604 85.5983 264.537 85.5983C264.469 85.5983 264.267 84.4525 264.2 83.0371C264.132 82.2957 264.132 81.6217 264.267 81.1499C264.469 80.6107 264.739 80.4085 264.739 80.4759Z" fill="#263238"/>
<path d="M267.842 85.4632C267.775 85.4632 267.573 84.3174 267.505 82.902C267.505 82.228 267.438 81.554 267.505 81.0822C267.573 80.6104 267.775 80.3408 267.842 80.3408C267.91 80.3408 267.775 80.6104 267.775 81.0822C267.775 81.554 267.842 82.1606 267.91 82.8346C267.977 84.3174 267.91 85.4632 267.842 85.4632Z" fill="#263238"/>
<path d="M271.688 85.3284C271.621 85.3284 271.351 84.25 271.216 82.8346C271.013 81.4866 270.946 80.3408 271.081 80.3408C271.148 80.3408 271.418 81.4192 271.553 82.8346C271.756 84.1826 271.823 85.3284 271.688 85.3284Z" fill="#263238"/>
<path d="M275.062 85.5981C274.994 85.5981 274.657 84.3849 274.589 82.9021C274.455 81.3519 274.589 80.1387 274.657 80.1387C274.724 80.1387 274.792 81.3519 274.927 82.9021C275.062 84.3849 275.197 85.5981 275.062 85.5981Z" fill="#263238"/>
<g opacity="0.3">
<g opacity="0.3">
<path opacity="0.3" d="M277.625 101.033C277.085 105.549 277.423 113.367 279.042 117.681L286.598 105.212L277.625 101.033Z" fill="black"/>
</g>
</g>
<path d="M286.666 89.2378C288.825 91.5294 290.376 94.2254 291.253 97.191L292.67 103.527L277.828 105.818C277.828 105.818 276.546 102.313 277.288 97.528C278.03 92.7426 286.666 89.2378 286.666 89.2378Z" fill="#0F4C81"/>
<path d="M292.671 103.527C292.671 103.527 292.603 103.594 292.401 103.594C292.198 103.661 291.861 103.661 291.524 103.729C290.714 103.864 289.635 104.066 288.353 104.268C285.587 104.672 281.876 105.279 277.625 105.886H277.423V105.683C277.356 104.807 277.356 103.864 277.356 102.92C277.288 100.426 277.356 98.0672 277.49 95.9104C277.625 93.7536 278.3 91.799 279.245 90.451C280.122 89.0356 281.201 88.1594 282.011 87.755C282.416 87.5528 282.753 87.3506 282.955 87.2832C283.158 87.2158 283.293 87.1484 283.293 87.1484C283.293 87.2158 282.82 87.3506 282.078 87.8224C281.336 88.2942 280.324 89.1704 279.447 90.5184C278.637 91.8664 277.963 93.7536 277.828 95.9104C277.693 98.0672 277.693 100.426 277.693 102.92C277.693 103.864 277.76 104.807 277.76 105.683L277.558 105.549C281.808 104.942 285.587 104.403 288.353 103.998C289.702 103.796 290.714 103.661 291.524 103.594C291.861 103.527 292.131 103.527 292.401 103.527C292.536 103.527 292.671 103.527 292.671 103.527Z" fill="#263238"/>
<path d="M261.298 94.2927C261.231 94.3601 260.286 93.6188 259.207 92.6752C258.127 91.7316 257.318 90.8553 257.385 90.7879C257.453 90.7205 258.397 91.462 259.477 92.4056C260.556 93.3492 261.366 94.2253 261.298 94.2927Z" fill="#FAFAFA"/>
<path d="M259.274 102.044C259.342 102.111 258.532 102.718 257.453 103.392C256.373 104.066 255.496 104.537 255.429 104.403C255.361 104.335 256.171 103.729 257.25 103.055C258.33 102.448 259.207 101.976 259.274 102.044Z" fill="#FAFAFA"/>
<path d="M267.573 103.998C267.505 103.998 267.505 102.718 267.573 101.1C267.64 99.4823 267.842 98.2017 267.91 98.2691C267.977 98.2691 267.977 99.5497 267.91 101.167C267.842 102.718 267.64 103.998 267.573 103.998Z" fill="#FAFAFA"/>
<path d="M275.601 111.817C275.534 111.884 274.724 110.873 273.712 109.795C272.7 108.649 271.823 107.84 271.823 107.773C271.891 107.705 272.903 108.447 273.915 109.593C275.062 110.671 275.669 111.749 275.601 111.817Z" fill="#FAFAFA"/>
<path d="M276.748 95.5057C276.815 95.5731 275.938 96.2471 274.791 97.0559C273.645 97.7973 272.7 98.4039 272.633 98.2691C272.565 98.1343 273.442 97.5277 274.589 96.7189C275.736 95.9775 276.681 95.3709 276.748 95.5057Z" fill="#FAFAFA"/>
<path d="M269.462 89.5745C269.529 89.6419 268.585 90.3833 267.303 91.1921C266.088 92.0009 265.009 92.5401 264.941 92.4727C264.874 92.4053 265.818 91.6639 267.1 90.8551C268.382 90.0463 269.394 89.5071 269.462 89.5745Z" fill="#FAFAFA"/>
<path d="M276.006 91.9335C275.939 92.0009 275.466 90.9899 274.994 89.8441C274.522 88.6309 274.185 87.6199 274.32 87.6199C274.387 87.5525 274.859 88.5635 275.332 89.7093C275.804 90.8551 276.141 91.8661 276.006 91.9335Z" fill="#FAFAFA"/>
<path d="M285.047 94.8995C284.979 94.9669 284.305 94.4277 283.562 93.6189C282.82 92.8774 282.213 92.2034 282.281 92.136C282.348 92.0686 283.023 92.6079 283.765 93.4167C284.574 94.1581 285.114 94.8321 285.047 94.8995Z" fill="#FAFAFA"/>
<path d="M281.336 101.437C281.268 101.437 281.133 100.493 281.066 99.3477C280.998 98.2019 280.998 97.2583 281.133 97.2583C281.201 97.2583 281.336 98.2019 281.403 99.3477C281.471 100.493 281.471 101.437 281.336 101.437Z" fill="#FAFAFA"/>
<path d="M288.825 100.089C288.825 100.156 287.745 100.224 286.463 100.022C285.181 99.8194 284.169 99.4824 284.169 99.415C284.169 99.3476 285.249 99.4824 286.531 99.6846C287.813 99.8868 288.825 100.022 288.825 100.089Z" fill="#FAFAFA"/>
<path d="M258.6 113.704C258.532 113.771 257.925 112.625 257.25 111.277C256.576 109.862 256.103 108.716 256.238 108.649C256.373 108.581 256.913 109.727 257.588 111.075C258.262 112.491 258.667 113.636 258.6 113.704Z" fill="#FAFAFA"/>
<path d="M268.45 124.285C268.382 124.353 267.64 123.477 266.831 122.331C266.021 121.185 265.414 120.241 265.481 120.174C265.549 120.107 266.291 120.983 267.1 122.129C267.977 123.274 268.585 124.285 268.45 124.285Z" fill="#FAFAFA"/>
<path d="M276.681 119.837C276.748 119.905 275.736 120.376 274.454 120.916C273.173 121.387 272.093 121.724 272.093 121.657C272.026 121.59 273.038 121.118 274.319 120.579C275.601 120.107 276.681 119.77 276.681 119.837Z" fill="#FAFAFA"/>
<path d="M256.508 128.465C256.441 128.397 256.711 127.588 257.183 126.645C257.655 125.634 258.06 124.892 258.127 124.96C258.195 125.027 257.925 125.836 257.453 126.78C257.048 127.723 256.643 128.532 256.508 128.465Z" fill="#FAFAFA"/>
<path d="M250.166 97.9994C250.099 98.0668 249.694 97.3254 249.492 96.247C249.357 95.236 249.492 94.4272 249.559 94.4272C249.694 94.4272 249.694 95.236 249.829 96.1796C250.032 97.1906 250.301 97.9994 250.166 97.9994Z" fill="#FAFAFA"/>
<path d="M261.434 121.657C261.366 121.725 260.489 121.32 259.41 120.781C258.33 120.174 257.52 119.635 257.588 119.568C257.655 119.5 258.532 119.905 259.612 120.511C260.691 121.051 261.501 121.59 261.434 121.657Z" fill="#FAFAFA"/>
<path d="M267.977 110.401C268.045 110.469 267.235 111.277 266.156 112.288C265.076 113.232 264.199 113.973 264.132 113.906C264.064 113.839 264.874 113.03 265.953 112.019C266.965 111.075 267.91 110.334 267.977 110.401Z" fill="#FAFAFA"/>
<g opacity="0.3">
<g opacity="0.3">
<path opacity="0.3" d="M263.997 110.199C264.402 112.491 265.279 114.85 267.033 116.467C268.787 118.085 271.351 118.961 273.51 118.085C273.982 117.883 274.454 117.613 274.589 117.141C274.724 116.602 274.252 116.063 273.712 115.793C273.173 115.591 272.565 115.591 272.026 115.524C268.787 115.322 265.684 113.367 264.132 110.469" fill="black"/>
</g>
</g>
<path d="M272.767 115.658C272.767 115.658 272.633 115.726 272.295 115.726C272.025 115.793 271.553 115.726 271.013 115.726C270.474 115.658 269.866 115.523 269.192 115.321C268.517 115.052 267.842 114.715 267.168 114.243C266.493 113.771 265.953 113.232 265.481 112.693C265.009 112.153 264.671 111.614 264.469 111.142C264.199 110.671 264.064 110.266 263.997 109.997C263.929 109.727 263.862 109.525 263.929 109.525C263.997 109.525 264.199 110.131 264.671 111.008C264.941 111.479 265.279 111.951 265.751 112.49C266.223 112.962 266.763 113.502 267.37 113.973C268.045 114.445 268.719 114.782 269.327 114.984C269.934 115.254 270.541 115.389 271.081 115.456C272.093 115.591 272.767 115.591 272.767 115.658Z" fill="#263238"/>
<path d="M235.594 126.51L245.376 125.364L252.258 129.88L278.57 123.545L279.177 105.549L290.849 103.999V125.836C290.714 131.363 286.126 135.744 280.594 135.609L242.003 134.531L240.384 131.228L232.085 130.959L235.594 126.51Z" fill="#FFBE9D"/>
<path d="M278.233 123.544C278.233 123.544 278.098 123.612 277.76 123.679C277.423 123.747 276.951 123.881 276.343 124.084C275.062 124.421 273.24 124.825 271.081 125.432C266.561 126.51 260.421 127.993 253.607 129.678C253.067 129.813 252.528 129.947 251.988 130.082H251.92L251.853 130.015C249.424 128.397 247.13 126.914 244.971 125.499H245.039C241.193 125.971 237.82 126.308 235.256 126.645L235.324 126.577C234.244 127.993 233.367 129.071 232.76 129.88C232.49 130.217 232.22 130.554 232.085 130.756C231.95 130.958 231.815 131.026 231.815 131.026C231.815 131.026 231.883 130.891 232.018 130.689C232.153 130.487 232.423 130.15 232.692 129.813C233.3 129.004 234.109 127.925 235.189 126.51H235.256C237.82 126.173 241.193 125.769 245.039 125.297H245.106H245.174C247.333 126.712 249.627 128.195 252.055 129.813H251.92C252.46 129.678 253 129.543 253.54 129.408C260.354 127.791 266.493 126.308 271.014 125.297C273.24 124.758 275.062 124.353 276.343 124.084C276.951 123.949 277.423 123.814 277.76 123.747C278.098 123.544 278.233 123.544 278.233 123.544Z" fill="#EB996E"/>
<path d="M240.923 129.273C240.923 129.341 239.237 129.408 237.145 129.408C236.875 129.408 236.673 129.408 236.47 129.408L236.538 129.341C235.189 130.487 234.109 131.295 234.109 131.228C234.042 131.161 235.054 130.284 236.403 129.139L236.47 129.071H236.538C236.74 129.071 237.01 129.071 237.213 129.071C239.237 129.139 240.923 129.206 240.923 129.273Z" fill="#EB996E"/>
<path d="M283.09 126.443C283.023 126.51 282.483 125.23 281.201 124.421C279.919 123.545 278.57 123.679 278.57 123.545C278.57 123.477 278.907 123.41 279.447 123.477C279.987 123.545 280.729 123.747 281.403 124.151C282.078 124.556 282.618 125.162 282.82 125.634C283.09 126.106 283.158 126.443 283.09 126.443Z" fill="#EB996E"/>
<path d="M114.423 270.477H70.3677V276.543H114.423V270.477Z" fill="#263238"/>
<path d="M114.491 276.61H70.3003V270.409H114.491V276.61ZM70.4352 276.408H114.356V270.544H70.4352V276.408Z" fill="#263238"/>
<path d="M74.4155 274.521L80.7574 305.727H104.236L110.375 276.475L74.4155 274.521Z" fill="#263238"/>
<path d="M74.4155 302.761L77.7889 307.411H106.327L110.375 302.761H74.4155Z" fill="#455A64"/>
<path d="M90.6752 275.396C90.6078 275.396 90.4729 260.905 90.4054 243.044C90.3379 225.183 90.4054 210.692 90.4729 210.692C90.5403 210.692 90.6753 225.183 90.7427 243.044C90.8102 260.905 90.8102 275.396 90.6752 275.396Z" fill="#263238"/>
<path d="M100.525 239.203C100.525 239.203 100.525 239.338 100.39 239.54C100.255 239.809 100.188 240.079 99.9853 240.483C99.9178 240.686 99.7829 240.888 99.7154 241.157C99.648 241.427 99.513 241.697 99.4456 241.966C99.3106 242.236 99.2432 242.573 99.1082 242.91C98.9733 243.247 98.9058 243.584 98.7709 243.988C98.2986 245.471 97.8938 247.358 97.5565 249.38C97.2192 251.47 97.0168 253.694 96.8818 256.12C96.6794 260.906 96.9493 265.287 97.2192 268.454C97.3541 270.005 97.489 271.285 97.624 272.161C97.6914 272.566 97.6914 272.903 97.7589 273.172C97.7589 273.375 97.7589 273.509 97.7589 273.509C97.7589 273.509 97.6914 273.375 97.6914 273.172C97.624 272.903 97.624 272.566 97.489 272.161C97.3541 271.285 97.1517 270.005 97.0168 268.454C96.6794 265.287 96.3421 260.906 96.5445 256.12C96.6794 253.694 96.9493 251.402 97.2866 249.38C97.6914 247.291 98.0962 245.471 98.5685 243.988C98.7034 243.584 98.7709 243.247 98.9058 242.91C99.0408 242.573 99.1757 242.236 99.2432 241.966C99.3781 241.697 99.4456 241.427 99.5805 241.157C99.7154 240.888 99.7829 240.686 99.9178 240.483C100.12 240.079 100.255 239.809 100.39 239.54C100.458 239.27 100.525 239.135 100.525 239.203Z" fill="#263238"/>
<path d="M99.3782 227.475C99.3782 227.475 99.3108 227.61 99.2433 227.947C99.1084 228.284 98.9734 228.756 98.771 229.295C98.6361 229.565 98.5686 229.902 98.4337 230.239C98.2988 230.576 98.2313 230.98 98.0964 231.384C97.8265 232.193 97.5566 233.204 97.2868 234.215C97.1518 234.754 97.0169 235.293 96.8145 235.9C96.6796 236.507 96.5446 237.113 96.4097 237.72C96.0724 239.001 95.87 240.349 95.6001 241.764C95.1278 244.662 94.6555 247.83 94.3857 251.2C94.1158 254.57 93.9809 257.738 93.9134 260.703C93.9134 263.601 93.9134 266.23 94.0483 268.454C94.1158 269.533 94.1833 270.544 94.1833 271.42C94.2508 272.296 94.3182 273.037 94.3182 273.644C94.3857 274.251 94.3857 274.722 94.4532 275.059C94.4532 275.396 94.4532 275.531 94.4532 275.531C94.4532 275.531 94.3857 275.396 94.3857 275.059C94.3182 274.722 94.3182 274.251 94.2508 273.644C94.1833 273.037 94.1158 272.296 94.0483 271.42C93.9809 270.544 93.9134 269.533 93.846 268.454C93.711 266.23 93.6436 263.601 93.6436 260.703C93.6436 257.805 93.7785 254.57 94.0483 251.2C94.3182 247.83 94.7905 244.662 95.2628 241.764C95.5326 240.349 95.8025 238.933 96.1398 237.72C96.2748 237.113 96.4097 236.507 96.5446 235.9C96.6796 235.293 96.882 234.754 97.0169 234.215C97.2868 233.137 97.6241 232.193 97.894 231.384C98.0289 230.98 98.1638 230.576 98.2988 230.239C98.4337 229.902 98.5686 229.565 98.6361 229.295C98.8385 228.756 99.0409 228.284 99.1758 227.947C99.3108 227.61 99.3782 227.475 99.3782 227.475Z" fill="#263238"/>
<path d="M87.909 277.958C87.909 277.958 87.909 277.89 87.909 277.755C87.909 277.621 87.909 277.486 87.8415 277.284C87.8415 276.812 87.7741 276.205 87.7066 275.396C87.5717 273.711 87.4367 271.285 87.2343 268.319C86.8295 262.388 86.2898 254.165 85.2778 245.066C84.7381 240.551 84.1983 236.237 83.5237 232.328C83.1863 230.373 82.9165 228.553 82.5791 226.801C82.2418 225.049 81.9045 223.498 81.6346 222.016C81.3647 220.533 81.0274 219.252 80.7575 218.106C80.4877 216.961 80.2853 215.95 80.0154 215.141C79.813 214.332 79.6781 213.725 79.5431 213.254C79.4757 213.051 79.4757 212.917 79.4082 212.782C79.4082 212.647 79.4082 212.647 79.4082 212.58C79.4082 212.58 79.4082 212.647 79.4757 212.714C79.5431 212.849 79.5431 212.984 79.6106 213.186C79.7455 213.658 79.8805 214.265 80.1503 215.006C80.3527 215.815 80.6226 216.826 80.8925 217.972C81.1623 219.117 81.4997 220.465 81.837 221.881C82.1743 223.364 82.5117 224.914 82.849 226.666C83.1863 228.419 83.5237 230.238 83.861 232.193C84.4682 236.102 85.0754 240.416 85.6151 244.932C86.6271 253.963 87.1669 262.253 87.4367 268.185C87.5717 271.15 87.7066 273.577 87.7741 275.262C87.7741 276.07 87.8415 276.744 87.8415 277.149C87.8415 277.351 87.8415 277.486 87.8415 277.621C87.909 277.89 87.909 277.958 87.909 277.958Z" fill="#263238"/>
<path d="M90.3377 217.702C90.1353 215.68 88.0438 214.13 86.0198 214.062C83.9284 214.062 82.0393 215.276 80.7574 216.893C79.4756 218.511 78.8009 220.533 78.2612 222.488C76.8444 227.34 76.1022 232.395 76.7094 237.383C77.3166 242.371 79.3406 247.291 82.9164 250.796C83.5236 251.402 84.2657 251.941 85.0753 251.739C85.4801 251.672 85.8849 251.335 86.2222 251.065C93.2388 244.729 97.3542 235.159 97.0844 225.723C97.0169 223.835 96.747 221.881 95.735 220.263C94.5881 218.713 92.1593 217.028 90.3377 217.702Z" fill="#0F4C81"/>
<path d="M74.9553 201.257C74.0108 203.009 72.9988 204.762 72.0543 206.514C71.9868 206.649 71.9193 206.784 71.7844 206.784C71.6495 206.784 71.5145 206.649 71.4471 206.514C68.8833 202.605 66.3196 198.696 63.7559 194.719L65.51 193.708L74.9553 201.257Z" fill="#0F4C81"/>
<g opacity="0.2">
<g opacity="0.2">
<g opacity="0.2">
<path opacity="0.2" d="M74.9553 201.257C74.0108 203.009 72.9988 204.762 72.0543 206.514C71.9868 206.649 71.9193 206.784 71.7844 206.784C71.6495 206.784 71.5145 206.649 71.4471 206.514C68.8833 202.605 66.3196 198.696 63.7559 194.719L65.51 193.708L74.9553 201.257Z" fill="black"/>
</g>
</g>
</g>
<path d="M90.5401 210.76C81.8369 205.638 73.0662 200.448 64.363 195.325C64.0932 195.191 63.8233 194.988 63.7558 194.651C63.6209 194.247 63.9582 193.91 64.2281 193.573C67.8038 189.866 73.0662 187.709 78.1937 188.046C83.3886 188.451 88.3137 191.416 90.8774 195.932C93.3737 200.448 93.4411 206.446 90.5401 210.76Z" fill="#0F4C81"/>
<path d="M68.1411 190.338C68.1411 190.338 68.276 190.338 68.4784 190.271C68.6808 190.271 69.0182 190.203 69.4904 190.203C70.3675 190.203 71.5819 190.271 73.1336 190.473C74.6854 190.742 76.4395 191.214 78.3286 192.023C80.2176 192.832 82.1067 194.045 83.8609 195.595C85.615 197.213 86.9643 198.965 87.9763 200.785C88.9883 202.537 89.663 204.29 90.0678 205.773C90.4726 207.255 90.675 208.469 90.7425 209.345C90.8099 209.749 90.8099 210.086 90.8099 210.356C90.8099 210.558 90.8099 210.693 90.8099 210.693C90.8099 210.693 90.7424 210.221 90.675 209.345C90.54 208.469 90.3377 207.255 89.9329 205.84C89.1233 202.942 87.1667 198.965 83.7259 195.865C80.2851 192.764 76.1696 191.214 73.1336 190.675C71.6494 190.405 70.3675 190.338 69.5579 190.271C68.6134 190.338 68.1411 190.405 68.1411 190.338Z" fill="#263238"/>
<path d="M86.9644 200.043C86.9644 200.111 86.4921 200.313 85.615 200.65C84.8054 200.987 83.591 201.391 82.3092 201.796C81.0273 202.2 79.8129 202.537 78.9358 202.739C78.0588 202.942 77.519 203.076 77.519 203.009C77.519 202.942 78.0588 202.807 78.8684 202.537C79.8129 202.268 80.9598 201.863 82.1742 201.526C83.3886 201.122 84.5356 200.785 85.4801 200.448C86.4246 200.178 86.9644 200.043 86.9644 200.043Z" fill="#263238"/>
<path d="M82.849 188.99C82.9165 188.99 83.1189 190.27 83.1863 191.888C83.2538 193.506 83.1189 194.854 83.0514 194.786C82.9839 194.786 82.9165 193.506 82.9165 191.888C82.7815 190.338 82.7815 188.99 82.849 188.99Z" fill="#263238"/>
<path d="M64.0933 194.989C64.0933 194.921 64.8354 194.719 65.9823 194.315C67.1967 193.978 68.8159 193.506 70.705 193.034C72.5266 192.562 74.2133 192.225 75.4951 192.023C76.7095 191.821 77.5191 191.686 77.5191 191.753C77.5191 191.821 76.777 191.956 75.5626 192.225C74.3482 192.495 72.6615 192.899 70.8399 193.304C69.0183 193.775 67.3317 194.18 66.1173 194.517C64.8354 194.854 64.0933 195.056 64.0933 194.989Z" fill="#263238"/>
<path d="M78.4636 212.849C76.2372 211.164 73.8084 210.827 70.9748 210.895C68.1412 211.029 65.3751 211.838 62.8114 212.984C58.426 214.939 54.2431 217.769 51.6119 221.813C48.9807 225.857 48.0362 231.182 50.0602 235.563C50.2626 235.967 50.5324 236.439 50.9372 236.641C51.4095 236.844 51.9492 236.709 52.4215 236.507C57.414 234.889 62.474 233.204 67.1292 230.643C71.717 228.082 75.9674 224.509 78.4636 219.859C79.0708 218.713 79.5431 217.567 79.678 216.287C79.678 215.073 79.3407 213.725 78.4636 212.849Z" fill="#0F4C81"/>
<path d="M78.4637 212.31C78.4637 212.31 78.3287 212.377 78.1263 212.445C77.8565 212.512 77.5191 212.647 77.0469 212.782C76.8445 212.849 76.5746 212.917 76.3047 213.051C76.0349 213.119 75.765 213.254 75.4277 213.388C74.8205 213.658 74.0783 213.928 73.2687 214.265C72.8639 214.467 72.4591 214.602 72.0543 214.804C71.6495 215.006 71.1773 215.276 70.7725 215.478C69.8954 215.95 68.9509 216.489 67.9389 217.095C65.9823 218.309 63.9583 219.791 62.0018 221.476C60.0453 223.229 58.2911 225.049 56.8743 226.801C56.1997 227.677 55.4575 228.553 54.9178 229.362C54.6479 229.767 54.3106 230.171 54.1082 230.575C53.8383 230.98 53.6359 231.384 53.3661 231.721C52.8938 232.463 52.5565 233.137 52.2191 233.743C52.0842 234.013 51.8818 234.35 51.7469 234.552C51.6119 234.822 51.477 235.024 51.4095 235.293C51.2071 235.698 51.0722 236.035 50.9373 236.304C50.8023 236.507 50.7349 236.641 50.7349 236.641C50.7349 236.641 50.8023 236.507 50.8698 236.304C51.0047 236.035 51.1397 235.698 51.3421 235.293C51.4095 235.091 51.5445 234.822 51.6794 234.552C51.8143 234.282 51.9493 234.013 52.0842 233.676C52.4215 233.069 52.7589 232.328 53.2311 231.654C53.4335 231.249 53.7034 230.912 53.9058 230.508C54.1757 230.104 54.4455 229.699 54.7154 229.295C55.2551 228.419 55.9298 227.61 56.6719 226.666C58.0887 224.914 59.8429 223.027 61.7994 221.274C63.8234 219.522 65.8474 218.039 67.8039 216.826C68.8159 216.219 69.7605 215.68 70.6375 215.276C71.1098 215.073 71.5146 214.804 71.9869 214.602C72.3917 214.399 72.8639 214.197 73.2013 214.062C74.0109 213.725 74.753 213.456 75.3602 213.186C75.6975 213.051 75.9674 212.984 76.2373 212.849C76.5071 212.782 76.777 212.714 76.9794 212.647C77.4517 212.512 77.789 212.445 78.0589 212.31C78.3287 212.31 78.4637 212.31 78.4637 212.31Z" fill="#263238"/>
<path d="M60.9224 221.813C60.9224 221.881 58.4936 222.689 55.4576 223.566C52.4216 224.442 49.9254 225.116 49.8579 225.048C49.8579 224.981 52.2867 224.172 55.3227 223.296C58.3587 222.42 60.855 221.746 60.9224 221.813Z" fill="#263238"/>
<path d="M60.6525 233.878C60.585 233.878 60.585 233.204 60.5176 232.193C60.5176 231.115 60.5176 229.699 60.5176 228.082C60.585 226.464 60.6525 225.049 60.72 223.97C60.7875 222.892 60.9224 222.285 60.9224 222.285C60.9899 222.285 60.9899 222.959 60.9224 223.97C60.8549 225.116 60.8549 226.531 60.7874 228.082C60.72 229.632 60.72 231.047 60.6525 232.193C60.72 233.271 60.72 233.878 60.6525 233.878Z" fill="#263238"/>
<path d="M71.0423 228.621C70.9749 228.621 70.705 225.655 70.4351 222.016C70.1652 218.376 70.0303 215.411 70.1652 215.411C70.2327 215.411 70.5026 218.376 70.7724 222.016C70.9748 225.655 71.1098 228.621 71.0423 228.621Z" fill="#263238"/>
<path d="M58.1562 215.073C58.1562 215.006 58.8309 215.006 59.9104 215.006C60.9899 215.006 62.4741 215.073 64.1608 215.073C65.78 215.141 67.3317 215.208 68.4112 215.275C69.4907 215.343 70.1653 215.41 70.1653 215.478C70.1653 215.545 69.4907 215.545 68.4112 215.545C67.3317 215.545 65.8475 215.478 64.1608 215.478C62.5416 215.41 60.9899 215.343 59.9104 215.275C58.8309 215.208 58.1562 215.141 58.1562 215.073Z" fill="#263238"/>
<path d="M83.9961 252.278C83.9961 252.278 83.9961 252.144 83.9286 251.941C83.9286 251.672 83.9286 251.335 83.8611 250.93C83.7937 250.054 83.7937 248.774 83.8611 247.156C83.8611 245.538 83.9961 243.651 84.1985 241.562C84.4009 239.472 84.6707 237.181 85.143 234.754C85.5478 232.328 86.0875 230.104 86.6273 228.014C87.167 225.992 87.7067 224.173 88.2465 222.622C88.7862 221.14 89.191 219.926 89.5958 219.05C89.7307 218.646 89.8657 218.376 90.0006 218.107C90.0681 217.904 90.1355 217.77 90.1355 217.77C90.1355 217.77 90.1355 217.904 90.0681 218.107C90.0006 218.376 89.8657 218.713 89.7307 219.05C89.3934 219.859 88.9886 221.14 88.5163 222.622C88.0441 224.105 87.5043 225.992 86.9646 228.014C86.4249 230.036 85.9526 232.328 85.4803 234.687C85.0755 237.113 84.7382 239.405 84.5358 241.494C84.3334 243.584 84.1985 245.471 84.131 247.089C84.0635 248.706 84.0635 249.987 84.0635 250.863C84.0635 251.267 84.0635 251.604 84.0635 251.874C84.0635 252.144 84.0635 252.278 83.9961 252.278Z" fill="#263238"/>
<path d="M85.4127 234.417C85.4127 234.417 85.0754 234.889 84.4007 235.563C83.7261 236.237 82.7815 237.113 81.6346 238.124C80.5551 239.068 79.5431 239.944 78.7335 240.483C77.9914 241.09 77.5191 241.427 77.4517 241.36C77.4517 241.292 77.8565 240.955 78.5986 240.281C79.4082 239.607 80.3527 238.731 81.4322 237.855C82.5117 236.911 83.4562 236.102 84.1983 235.361C84.9405 234.754 85.3453 234.35 85.4127 234.417Z" fill="#263238"/>
<path d="M93.7113 241.09C93.6438 241.09 93.239 240.551 92.6318 239.54C91.8897 238.529 91.0126 237.181 90.0681 235.765C89.0561 234.35 88.179 233.069 87.4369 232.058C86.7622 231.115 86.3574 230.508 86.3574 230.508C86.3574 230.508 86.8972 231.048 87.5718 231.924C88.314 232.867 89.2585 234.148 90.2705 235.631C91.2825 237.114 92.1596 238.461 92.7668 239.472C93.374 240.416 93.7113 241.09 93.7113 241.09Z" fill="#263238"/>
<path d="M89.3258 220.128C89.3933 220.196 86.6271 222.083 83.1863 224.24C79.7455 226.464 76.9119 228.216 76.8445 228.082C76.777 228.014 79.5431 226.127 82.9839 223.97C86.4922 221.746 89.3258 219.994 89.3258 220.128Z" fill="#263238"/>
<path d="M97.1521 228.486C97.0846 228.554 95.1955 226.801 92.9691 224.645C90.7427 222.488 88.9886 220.668 89.0561 220.601C89.1235 220.533 91.0126 222.286 93.239 224.442C95.3979 226.599 97.1521 228.419 97.1521 228.486Z" fill="#263238"/>
<path d="M99.041 228.284L101.402 228.082C103.089 227.947 104.708 227.475 106.192 226.599C106.935 226.195 107.677 225.79 108.419 225.453C111.32 224.308 114.626 224.51 117.729 224.308C122.857 224.038 127.917 222.757 132.572 220.533C132.842 220.398 133.044 220.196 133.247 219.927C133.719 219.05 132.842 218.242 132.032 217.77C128.052 215.343 124.004 212.85 119.483 211.636C114.963 210.423 109.836 210.625 105.99 213.254C101.47 216.489 99.8506 222.892 99.041 228.284Z" fill="#0F4C81"/>
<path d="M133.314 219.724C133.314 219.724 133.179 219.657 132.909 219.522C132.639 219.387 132.234 219.185 131.762 218.915C130.818 218.376 129.401 217.635 127.647 216.826C125.892 216.017 123.734 215.073 121.237 214.332C118.741 213.658 115.907 213.254 112.939 213.658C109.97 214.062 107.272 215.208 105.383 216.893C103.426 218.578 102.279 220.668 101.47 222.42C100.66 224.172 100.12 225.723 99.7829 226.734C99.5805 227.205 99.4456 227.61 99.3781 227.947C99.3106 228.216 99.2432 228.351 99.2432 228.351C99.2432 228.351 99.2432 228.216 99.3781 227.947C99.4456 227.61 99.5805 227.205 99.7154 226.734C100.053 225.723 100.525 224.172 101.335 222.353C102.144 220.6 103.291 218.443 105.315 216.691C107.272 214.939 110.038 213.725 113.006 213.321C116.042 212.917 118.943 213.321 121.44 213.995C123.936 214.669 126.095 215.68 127.849 216.556C129.603 217.432 131.02 218.241 131.965 218.78C132.437 219.05 132.774 219.252 133.044 219.387C133.179 219.657 133.314 219.724 133.314 219.724Z" fill="#263238"/>
<path d="M127.647 222.757C127.579 222.824 124.476 220.802 120.765 218.309C116.987 215.747 114.019 213.658 114.019 213.591C114.086 213.523 117.189 215.545 120.9 218.039C124.678 220.6 127.714 222.69 127.647 222.757Z" fill="#263238"/>
<path d="M124.678 213.321C124.678 213.389 123.599 213.658 122.25 213.793C120.9 213.928 119.753 213.86 119.821 213.726C119.821 213.658 120.9 213.591 122.25 213.456C123.531 213.389 124.678 213.254 124.678 213.321Z" fill="#263238"/>
<path d="M110.78 210.827C110.848 210.895 110.375 211.771 109.768 212.849C109.161 213.928 108.554 214.737 108.486 214.737C108.419 214.669 108.891 213.793 109.498 212.715C110.173 211.636 110.713 210.76 110.78 210.827Z" fill="#263238"/>
<path d="M113.546 224.577C113.546 224.644 112.939 224.307 112.062 223.768C111.185 223.229 109.971 222.42 108.689 221.477C107.407 220.533 106.26 219.657 105.45 218.983C104.641 218.309 104.168 217.904 104.168 217.904C104.168 217.837 104.708 218.241 105.585 218.848C106.53 219.522 107.609 220.331 108.891 221.207C110.173 222.151 111.387 222.959 112.197 223.566C113.074 224.173 113.614 224.577 113.546 224.577Z" fill="#263238"/>
<path d="M102.549 238.327C100.323 237.72 97.6242 239.944 97.1519 242.236C96.6796 244.528 97.5567 246.887 98.5687 248.976C100.795 253.627 103.831 257.94 107.879 261.175C111.927 264.411 116.987 266.433 122.115 266.433C121.17 261.984 122.384 257.401 121.845 252.885C121.372 248.976 119.551 245.202 116.717 242.438C113.884 239.675 110.106 237.855 106.192 237.451C104.776 237.248 103.156 236.979 102.549 238.327Z" fill="#0F4C81"/>
<path d="M122.115 266.365C122.115 266.365 121.98 266.298 121.777 266.23C121.575 266.095 121.305 265.961 120.9 265.691C120.226 265.152 119.349 264.141 118.674 262.725C118.337 262.051 117.932 261.243 117.527 260.434C117.122 259.625 116.717 258.681 116.313 257.738C115.908 256.794 115.435 255.851 114.828 254.907C114.221 253.963 113.546 253.02 112.804 252.144C111.253 250.324 109.633 248.774 108.149 247.291C106.732 245.808 105.518 244.393 104.641 243.045C103.764 241.764 103.224 240.551 102.887 239.742C102.752 239.338 102.617 239.001 102.617 238.798C102.549 238.596 102.549 238.461 102.549 238.461C102.549 238.461 102.684 238.933 103.022 239.742C103.359 240.551 103.899 241.697 104.843 242.977C105.72 244.258 106.935 245.673 108.419 247.156C109.836 248.639 111.522 250.189 113.074 252.009C113.884 252.952 114.558 253.896 115.166 254.84C115.773 255.783 116.245 256.794 116.65 257.738C117.055 258.681 117.459 259.558 117.864 260.434C118.269 261.243 118.606 262.051 119.011 262.725C119.686 264.141 120.428 265.152 121.103 265.691C121.71 266.163 122.115 266.365 122.115 266.365Z" fill="#263238"/>
<path d="M110.443 262.726C110.375 262.726 110.443 262.119 110.645 261.176C110.848 260.232 111.117 258.951 111.522 257.603C111.927 256.188 112.332 254.975 112.669 254.099C113.007 253.222 113.276 252.683 113.276 252.683C113.344 252.683 113.141 253.29 112.872 254.166C112.602 255.042 112.197 256.323 111.792 257.671C111.387 259.019 111.05 260.299 110.848 261.243C110.645 262.119 110.51 262.726 110.443 262.726Z" fill="#263238"/>
<path d="M121.71 251.807C121.71 251.874 121.103 251.672 120.091 251.47C119.146 251.2 117.797 250.863 116.312 250.526C114.828 250.189 113.479 249.92 112.467 249.717C111.455 249.515 110.848 249.38 110.848 249.38C110.848 249.313 111.455 249.38 112.467 249.515C113.479 249.65 114.828 249.852 116.312 250.189C117.797 250.526 119.146 250.931 120.091 251.2C121.103 251.537 121.71 251.807 121.71 251.807Z" fill="#263238"/>
<path d="M102.077 254.974C102.01 254.974 102.145 254.3 102.347 253.222C102.549 252.144 102.887 250.661 103.292 249.043C103.696 247.426 104.169 246.01 104.506 244.932C104.843 243.921 105.113 243.247 105.181 243.314C105.248 243.314 105.046 243.988 104.776 244.999C104.506 246.078 104.034 247.493 103.629 249.111C103.224 250.728 102.887 252.211 102.617 253.222C102.28 254.368 102.145 254.974 102.077 254.974Z" fill="#263238"/>
<path d="M116.515 242.371C116.515 242.438 113.681 242.236 110.24 241.832C106.799 241.495 103.966 241.09 103.966 241.023C103.966 240.956 106.799 241.158 110.24 241.562C113.748 241.899 116.515 242.304 116.515 242.371Z" fill="#263238"/>
<path d="M114.491 276.475C114.491 276.543 104.573 276.61 92.362 276.61C80.1505 276.61 70.2329 276.543 70.2329 276.475C70.2329 276.408 80.1505 276.34 92.362 276.34C104.573 276.34 114.491 276.408 114.491 276.475Z" fill="#455A64"/>
<path d="M107.609 289.213C107.609 289.281 100.93 289.348 92.6992 289.348C84.4683 289.348 77.7891 289.281 77.7891 289.213C77.7891 289.146 84.4683 289.079 92.6992 289.079C100.93 289.079 107.609 289.146 107.609 289.213Z" fill="#455A64"/>
<path d="M107.811 291.034C107.811 291.101 101.132 291.168 92.9013 291.168C84.6704 291.168 77.9912 291.101 77.9912 291.034C77.9912 290.966 84.6704 290.899 92.9013 290.899C101.2 290.831 107.811 290.966 107.811 291.034Z" fill="#455A64"/>
<path d="M107.812 287.731C107.812 287.798 100.93 287.865 92.4293 287.865C83.9285 287.865 77.0469 287.798 77.0469 287.731C77.0469 287.663 83.9285 287.596 92.4293 287.596C100.93 287.528 107.812 287.596 107.812 287.731Z" fill="#455A64"/>
</svg>
