<svg width="724" height="571" viewBox="0 0 724 571" fill="none" xmlns="http://www.w3.org/2000/svg">
<path d="M482.247 104.845L493.473 97.6598C493.473 97.6598 493.697 97.4353 493.473 97.4353L479.329 80.3698C479.329 80.1453 479.104 80.3698 478.88 80.3698L476.635 90.6989L476.186 97.8843C476.186 97.8843 476.186 97.8843 476.186 98.1089L482.023 104.845H482.247Z" fill="#150035"/>
<path d="M482.247 105.968C481.798 105.968 481.573 105.744 481.349 105.519L475.287 98.3336V97.6599L475.736 90.4745L478.206 79.2472L479.104 79.0227C479.553 78.7981 480.002 79.0227 480.451 79.4718L494.82 96.9863V97.6599C494.82 98.109 494.595 98.3336 494.146 98.5581L482.92 105.744C482.696 105.744 482.471 105.968 482.247 105.968ZM477.308 97.6599L482.471 103.498L492.125 97.2109L479.777 82.1663L477.757 90.9236L477.308 97.6599Z" fill="#150035"/>
<path d="M524.455 52.9752L471.246 22.2125C469.899 21.5389 468.777 21.3143 467.879 21.7634L457.551 28.0507C457.327 28.0507 457.327 28.2752 457.551 28.4998L469.899 41.5234V41.748V63.5289C469.899 66.8971 472.369 71.1634 475.287 72.9598L483.145 77.4507C483.37 77.6752 483.594 77.8998 483.594 78.1243C484.043 80.3698 486.064 90.0252 495.942 96.5371C496.391 96.7616 496.616 96.3125 496.391 95.8634C495.044 93.3934 492.799 88.2289 493.473 83.9625C493.922 83.738 493.922 83.738 494.371 83.5134L510.76 92.9443C510.76 92.9443 510.76 92.9443 510.985 93.1689L517.72 111.357C517.72 111.582 517.944 111.582 518.169 111.582L528.496 105.294C529.394 104.621 529.843 103.498 529.843 101.926V62.4062C529.843 59.038 527.374 54.7716 524.455 52.9752Z" fill="white"/>
<path d="M517.944 113.154C517.72 113.154 517.72 113.154 517.495 113.154C517.046 112.929 516.822 112.705 516.597 112.255L509.862 94.2918L494.371 85.31C494.146 89.1273 496.391 93.8427 497.289 95.8636C497.738 96.5373 497.514 97.4354 497.065 97.8845C496.616 98.3336 495.942 98.3336 495.269 97.8845C485.615 91.3727 483.145 81.9418 482.472 79.0227L482.247 78.5736L474.614 74.0827C471.246 72.0618 468.552 67.5709 468.552 63.7536V42.4218L456.429 29.6227C456.204 29.3982 455.979 28.9491 455.979 28.5C455.979 28.0509 456.204 27.8264 456.653 27.6018L466.981 21.3145C468.328 20.6409 469.899 20.8654 471.471 21.7636L524.904 52.0773C528.272 54.0982 530.966 58.5891 530.966 62.4064V102.375C530.966 104.172 530.292 105.744 529.17 106.642L518.842 112.929C518.618 112.929 518.169 113.154 517.944 113.154ZM494.595 82.84L511.883 92.72L512.107 93.1691L518.618 110.459L528.047 104.845C528.496 104.396 528.945 103.498 528.945 102.375V62.4064C528.945 59.2627 526.7 55.4454 524.006 53.8736L470.797 23.1109C469.899 22.6618 469.001 22.4373 468.328 22.6618L458.898 28.2754L471.022 41.0745V41.7482V63.5291C471.022 66.6727 473.267 70.49 475.961 72.0618L484.268 77.0018L484.941 78.1245C485.166 79.6964 486.962 87.78 494.371 94.0673C493.248 91.1482 491.901 87.3309 492.575 84.1873V83.5136L494.595 82.84Z" fill="#150035"/>
<path d="M513.904 59.4872L460.695 28.7244C457.776 26.9281 455.307 28.4999 455.307 31.8681V72.0617C455.307 75.4299 457.776 79.4717 460.695 81.2681L468.777 85.9835C469.002 86.2081 469.226 86.4326 469.226 86.6572C469.675 88.9026 471.696 98.5581 481.574 105.294C482.023 105.519 482.248 105.07 482.023 104.621C480.676 102.151 478.207 96.5372 479.105 92.2708C479.105 92.0463 479.329 92.0463 479.554 92.0463L513.904 111.806C516.822 113.603 519.292 112.031 519.292 108.663V68.6935C519.292 65.3254 516.822 61.059 513.904 59.4872Z" fill="#799BF8"/>
<path d="M516.373 113.603C515.475 113.603 514.577 113.378 513.454 112.704L480.002 93.6181C479.778 97.4354 481.798 102.151 482.921 103.947C483.37 104.621 483.145 105.519 482.696 105.968C482.247 106.417 481.574 106.417 480.9 105.968C470.573 99.0072 468.552 88.6781 468.103 86.6572L460.021 81.9417C456.653 80.1454 454.184 75.6545 454.184 71.8372V31.6436C454.184 29.6227 454.857 28.0508 456.204 27.3772C457.551 26.7036 459.347 26.7036 460.919 27.8263L514.128 58.589C517.495 60.3854 519.965 64.8763 519.965 68.6936V108.887C519.965 110.908 519.291 112.48 517.944 113.154C517.72 113.603 517.046 113.603 516.373 113.603ZM479.553 90.9236C479.778 90.9236 480.002 90.9236 480.227 91.1481L514.577 110.908C515.699 111.582 516.597 111.582 517.271 111.357C517.944 110.908 518.393 110.01 518.393 108.887V68.6936C518.393 65.7745 516.148 61.9572 513.679 60.3854L460.47 29.6227C459.347 28.949 458.449 28.949 457.776 29.1736C457.102 29.6227 456.653 30.5208 456.653 31.6436V71.8372C456.653 74.7563 458.898 78.5736 461.368 80.1454L469.45 84.8608C469.899 85.0854 470.348 85.759 470.348 86.2081C470.573 87.7799 472.369 95.8636 479.778 102.151C478.431 99.0072 477.308 95.1899 477.982 91.8218C477.982 91.3727 478.431 91.1481 478.655 90.9236C479.104 90.9236 479.329 90.9236 479.553 90.9236Z" fill="#150035"/>
<path d="M525.149 53.4458L515.94 59.045L517.107 60.9638L526.315 55.3645L525.149 53.4458Z" fill="#150035"/>
<path d="M475.283 25.0815L466.074 30.6797L467.24 32.5984L476.449 27.0003L475.283 25.0815Z" fill="#150035"/>
<path d="M529.043 63.5982L518.801 70.0865L520.002 71.9835L530.244 65.4952L529.043 63.5982Z" fill="#150035"/>
<path d="M529.843 70.041L519.291 76.3283V111.357L529.618 105.744L529.843 103.274V70.041Z" fill="#150035"/>
<path d="M471.875 9.54633e-05L470.917 11.6367L473.154 11.8209L474.112 0.184282L471.875 9.54633e-05Z" fill="#150035"/>
<path d="M459.883 0.0988165L457.827 1.00037L463.236 13.3387L465.292 12.4371L459.883 0.0988165Z" fill="#150035"/>
<path d="M448.249 10.4167L447.145 12.3713L456.916 17.8963L458.021 15.9416L448.249 10.4167Z" fill="#150035"/>
<path d="M491.227 89.8007C490.554 89.8007 489.88 89.5762 488.982 89.1271C487.635 88.4534 486.737 87.5553 486.064 86.4325C485.39 85.3098 484.941 83.9625 484.941 82.6153C484.941 81.0435 485.39 80.1453 486.288 79.6962C487.186 79.2471 488.084 79.4716 489.656 80.3698C491.003 81.0435 491.901 81.9416 492.575 83.2889C493.248 84.4116 493.697 85.7589 493.697 87.1062C493.697 88.678 493.248 89.5762 492.35 90.0253C491.901 89.5762 491.452 89.8007 491.227 89.8007ZM486.962 80.3698C486.737 80.3698 486.737 80.3698 486.513 80.3698C486.064 80.5944 485.839 81.4925 485.839 82.1662C485.839 83.2889 486.064 84.4116 486.737 85.3098C487.411 86.208 488.309 87.1062 489.431 87.7798C490.105 88.2289 491.003 88.678 491.676 88.2289C492.126 88.0044 492.35 87.3307 492.35 86.4325C492.35 85.3098 492.125 84.1871 491.452 83.2889C490.778 82.3907 490.105 81.4925 488.982 80.8189C488.084 80.5944 487.411 80.3698 486.962 80.3698ZM492.125 79.6962L485.615 75.8789V73.858C485.615 72.2862 485.839 71.388 486.513 70.4898C487.186 69.8162 488.084 69.1425 489.431 68.918C490.554 68.6934 491.003 68.4689 491.227 68.2444C491.452 68.0198 491.676 67.5707 491.676 67.1216C491.676 66.6725 491.452 66.2235 491.003 65.7744C490.554 65.3253 490.105 64.8762 489.431 64.4271C487.635 63.5289 485.615 63.0798 483.37 63.0798H482.921L480.002 54.9962H480.675C483.819 54.7716 486.962 55.6698 490.329 57.4662C493.024 59.038 495.269 61.0589 496.84 63.3044C498.412 65.5498 499.31 68.0198 499.31 70.4898C499.31 72.2862 498.861 73.6334 498.187 74.5316C497.514 75.4298 496.167 76.1034 494.595 76.328C493.024 76.5525 492.575 76.7771 492.575 77.0016C492.35 77.2262 492.35 77.4507 492.35 77.8998V79.6962H492.125ZM486.737 75.2053L491.227 77.6753V77.4507C491.227 76.7771 491.452 76.1034 491.901 75.6544C492.125 75.4298 492.799 75.2053 494.595 74.7562C495.942 74.5316 496.84 74.0825 497.514 73.4089C498.187 72.7353 498.412 71.6125 498.412 70.0407C498.412 67.7953 497.738 65.5498 496.167 63.5289C494.82 61.2835 492.575 59.4871 490.105 58.1398C487.186 56.568 484.492 55.6698 481.798 55.6698L483.819 61.7325C483.819 61.7325 483.819 61.7325 484.043 61.7325C486.288 61.7325 488.309 62.1816 490.105 63.3044C491.003 63.7535 491.452 64.4271 492.125 64.8762C492.574 65.5498 493.023 66.2235 493.023 66.8971C493.023 67.7953 492.799 68.4689 492.125 68.918C491.676 69.3671 490.778 69.5916 489.88 69.8162C488.758 70.0407 488.084 70.2653 487.635 70.9389C487.186 71.388 486.962 72.2862 486.962 73.6335V75.2053H486.737Z" fill="white"/>
<path d="M483.145 72.7352V70.9389C483.145 69.5916 483.37 68.6934 483.819 68.0198C484.268 67.3462 485.166 66.8971 486.288 66.6725C487.186 66.448 487.86 66.2234 488.309 65.9989C488.758 65.7743 488.982 65.1007 488.982 64.4271C488.982 63.7534 488.758 63.3043 488.309 62.6307C487.86 61.9571 487.186 61.508 486.513 61.0589C484.717 59.9362 482.696 59.4871 480.226 59.7116L477.757 52.7507C480.675 52.5262 483.819 53.4243 486.962 55.2207C489.656 56.7925 491.676 58.5889 493.248 60.8343C494.82 63.0798 495.493 65.3252 495.493 67.5707C495.493 69.1425 495.269 70.4898 494.595 71.388C493.922 72.2862 492.799 72.7352 491.452 72.9598C490.105 73.1843 489.431 73.4089 489.207 73.6334C488.982 73.858 488.758 74.3071 488.758 74.9807V76.1034L483.145 72.7352ZM482.247 79.4716C482.247 78.1243 482.472 77.4507 483.145 77.0016C483.819 76.7771 484.717 76.7771 486.064 77.6752C487.186 78.3489 488.084 79.2471 488.758 80.3698C489.431 81.4925 489.656 82.6152 489.656 83.738C489.656 84.8607 489.431 85.7589 488.758 85.9834C488.084 86.208 487.186 86.208 486.064 85.5343C484.941 84.8607 484.043 83.9625 483.37 82.8398C482.696 81.9416 482.247 80.8189 482.247 79.4716Z" fill="#150035"/>
<path d="M384.585 349.824C384.585 349.824 382.34 352.968 383.238 359.48C385.259 360.827 387.729 361.725 390.423 361.725L408.608 362.623C410.18 362.623 411.751 362.399 413.323 361.725C414.894 361.051 416.241 359.704 416.69 358.132C417.139 356.785 416.69 354.989 415.119 354.315L396.26 344.66L384.585 349.824Z" fill="#150035"/>
<path d="M362.584 370.482L361.91 384.18C361.91 386.65 362.359 389.344 363.706 391.589L364.38 392.488C365.951 395.182 368.645 396.979 371.789 397.428L375.156 397.877C376.279 398.101 377.401 397.877 378.299 397.203C379.871 396.08 380.544 394.284 379.871 392.488L376.728 382.832C375.83 379.913 374.932 376.994 374.483 373.85L373.585 368.012L362.584 370.482Z" fill="#150035"/>
<path d="M375.921 379.02L367.834 380.916L368.295 382.884L376.383 380.988L375.921 379.02Z" fill="#638AF2"/>
<path d="M377.512 383.094L369.425 384.991L369.886 386.958L377.974 385.062L377.512 383.094Z" fill="#638AF2"/>
<path d="M404.669 347.534L401.521 351.34L403.077 352.628L406.226 348.822L404.669 347.534Z" fill="#638AF2"/>
<path d="M408.042 350.253L404.894 354.059L406.45 355.348L409.599 351.541L408.042 350.253Z" fill="#638AF2"/>
<path d="M381.442 302.445C381.442 302.445 384.36 328.717 385.707 348.926C385.707 349.824 386.156 350.498 387.055 350.722C389.3 351.845 394.239 353.417 400.076 349.824C401.199 349.15 401.872 347.803 401.872 346.68C401.648 339.046 401.199 310.079 402.995 291.667C405.24 270.335 392.667 271.458 392.667 271.458L377.85 287.849L381.442 302.445Z" fill="#638AF2"/>
<path d="M392.668 353.192C389.974 353.192 387.729 352.294 386.606 351.845C385.483 351.396 384.81 350.273 384.81 349.15C383.463 329.615 380.769 304.241 380.544 302.669L376.952 287.625L392.443 270.559H392.892C393.117 270.559 397.158 270.11 400.526 273.479C404.118 277.071 405.24 283.134 404.342 291.667C402.322 309.855 402.995 338.372 403.22 346.68C403.22 348.252 402.322 349.824 400.975 350.722C397.831 352.519 394.913 353.192 392.668 353.192ZM378.973 288.074L382.34 302.22C382.34 302.445 385.259 328.717 386.606 348.926C386.606 349.375 386.831 349.824 387.28 349.824C389.525 350.947 394.015 352.294 399.403 348.926C400.301 348.477 400.75 347.579 400.75 346.68C400.526 338.372 400.077 309.855 401.873 291.442C402.771 283.583 401.648 277.969 398.505 274.826C396.484 272.805 394.015 272.356 393.117 272.356L378.973 288.074Z" fill="#150035"/>
<path d="M363.033 310.304C363.033 310.304 359.89 328.043 361.462 345.558C362.584 358.357 361.911 367.339 361.462 371.156C361.237 372.503 362.135 373.401 363.482 373.626C365.952 373.85 370.217 374.075 373.585 372.279C376.279 370.931 377.851 368.237 377.626 365.542C377.402 356.336 381.443 327.145 388.627 303.343C397.383 274.377 370.442 304.241 370.442 304.241L363.033 310.304Z" fill="#638AF2"/>
<path d="M366.4 375.198C365.278 375.198 364.155 375.198 363.257 374.973C361.461 374.748 360.114 373.177 360.339 371.38C360.788 367.338 361.461 358.581 360.339 346.007C358.992 328.492 361.91 310.528 361.91 310.304V309.855L369.543 303.792C371.789 301.098 384.361 287.625 389.3 290.319C391.77 291.667 391.77 295.933 389.3 304.017C382.341 327.369 378.075 356.785 378.299 365.991C378.299 369.359 376.503 372.278 373.585 373.85C371.34 374.748 368.645 375.198 366.4 375.198ZM363.931 310.978C363.482 313.672 361.012 329.839 362.359 345.782C363.482 358.581 362.808 367.563 362.359 371.605C362.359 372.278 362.808 372.952 363.482 372.952C365.727 373.177 369.768 373.401 372.911 371.829C375.156 370.707 376.503 368.461 376.503 365.991C376.279 356.56 380.32 327.369 387.729 303.343C390.423 294.137 389.076 292.34 388.627 292.116C386.382 290.768 377.85 297.954 371.34 305.139L363.931 310.978Z" fill="#150035"/>
<path d="M385.932 169.739C385.932 169.739 393.34 165.248 401.872 169.739C407.934 172.882 408.383 209.259 408.383 209.259C408.383 209.259 406.137 220.037 409.954 245.859C413.546 271.682 407.709 304.017 407.709 304.017C407.709 304.017 397.831 293.463 396.035 259.108C394.238 224.752 389.973 178.496 389.973 178.496L385.932 169.739Z" fill="white"/>
<path d="M408.158 306.038L406.811 304.466C406.362 304.017 396.708 293.239 394.912 258.883C393.341 226.1 389.075 181.639 388.851 178.496L384.585 169.29L385.258 168.84C385.483 168.616 393.341 164.125 402.097 168.84C408.383 172.209 409.056 202.971 409.056 209.259V209.483C409.056 209.483 407.036 220.261 410.628 245.635C414.22 271.233 408.383 303.792 408.383 304.017L408.158 306.038ZM387.279 170.188L390.871 178.047C390.871 178.496 395.361 224.752 396.933 258.659C398.28 284.257 404.117 296.607 406.811 301.098C408.158 293.014 411.751 266.967 408.607 245.859C405.015 221.384 406.811 210.381 407.036 209.034C406.811 195.337 405.015 172.658 401.199 170.637C394.912 167.269 389.3 169.29 387.279 170.188Z" fill="#150035"/>
<path d="M402.771 193.765V177.598C402.771 175.577 403.894 173.781 405.69 172.658L437.346 154.47C438.468 153.796 439.816 154.694 439.816 155.817V194.663C439.816 196.684 438.693 198.481 436.897 199.603L405.241 217.792C404.119 218.465 402.771 217.567 402.771 216.444V193.765Z" fill="#150035"/>
<path d="M404.567 219.139C404.118 219.139 403.669 218.914 403.22 218.69C402.322 218.241 401.873 217.342 401.873 216.444V177.598C401.873 175.128 403.22 172.882 405.241 171.76L436.897 153.571C437.795 153.122 438.693 153.122 439.591 153.571C440.489 154.021 440.938 154.919 440.938 155.817V194.663C440.938 197.133 439.591 199.379 437.57 200.501L405.914 218.69C405.465 218.914 405.016 219.139 404.567 219.139ZM438.244 155.368H438.019L406.363 173.556C404.792 174.454 403.894 176.026 403.894 177.598V216.444C403.894 216.669 404.118 216.893 404.118 216.893C404.118 216.893 404.567 217.118 404.792 216.893L436.448 198.705C437.795 197.807 438.693 196.235 438.693 194.663V155.817C438.693 155.592 438.468 155.368 438.468 155.368H438.244Z" fill="#150035"/>
<path d="M406.811 195.337V179.17C406.811 177.149 407.933 175.353 409.729 174.23L441.385 156.042C442.508 155.368 443.855 156.266 443.855 157.389V196.235C443.855 198.256 442.732 200.053 440.936 201.175L409.28 219.363C408.158 220.037 406.811 219.139 406.811 218.016V195.337Z" fill="#638AF2"/>
<path d="M408.607 220.71C408.158 220.71 407.709 220.486 407.26 220.261C406.362 219.812 405.913 218.914 405.913 218.016V179.17C405.913 176.7 407.26 174.454 409.281 173.331L440.937 155.143C441.835 154.694 442.733 154.694 443.631 155.143C444.529 155.592 444.978 156.49 444.978 157.389V196.235C444.978 198.705 443.631 200.95 441.61 202.073L409.954 220.261C409.505 220.71 409.056 220.71 408.607 220.71ZM442.284 156.94H442.059L410.403 175.128C408.832 176.026 407.934 177.598 407.934 179.17V218.016C407.934 218.24 408.158 218.465 408.158 218.465C408.158 218.465 408.607 218.69 408.832 218.465L440.488 200.277C441.835 199.379 442.733 197.807 442.733 196.235V157.389C442.733 157.164 442.508 156.94 442.508 156.94C442.508 156.94 442.508 156.94 442.284 156.94Z" fill="#150035"/>
<path d="M362.358 224.303C362.358 224.303 360.787 292.565 355.847 317.489C355.847 317.489 383.911 325.349 393.116 293.912C402.321 262.251 396.933 226.549 396.933 226.549L393.116 207.013L374.706 170.861L360.562 179.843L354.949 184.783L362.358 224.303Z" fill="white"/>
<path d="M363.256 319.286C358.766 319.286 355.623 318.388 355.399 318.388L354.5 318.163L354.725 317.265C359.44 293.014 361.236 227.447 361.236 224.303L353.378 184.334L359.44 178.945L374.706 169.29L393.79 206.789L397.606 226.324C397.606 226.773 402.995 262.7 393.79 294.137C387.728 315.693 372.686 319.286 363.256 319.286ZM356.97 316.591C361.909 317.714 384.136 320.858 391.994 293.463C400.974 262.476 395.81 226.998 395.81 226.549L391.994 207.238L374.033 172.209L360.787 180.517L355.848 185.008L363.481 224.079V224.303C363.481 224.977 361.909 290.993 356.97 316.591Z" fill="#150035"/>
<path d="M368.196 165.697C368.196 165.697 370.666 167.718 369.094 173.781L368.196 177.149C368.196 177.149 376.054 191.071 389.525 191.52C389.525 191.52 385.034 179.17 386.831 172.882C388.627 166.595 375.605 165.697 375.605 165.697H368.196Z" fill="white"/>
<path d="M391.096 192.642H389.525C375.605 191.969 367.523 178.271 367.298 177.598L367.074 177.149L367.972 173.331C369.319 168.167 367.523 166.146 367.523 166.146L365.727 164.35H375.83C376.279 164.35 384.585 165.023 387.28 168.841C388.178 169.963 388.402 171.535 387.953 172.882C386.381 178.945 390.647 190.846 390.647 190.846L391.096 192.642ZM369.319 176.924C370.666 178.945 377.401 189.05 388.178 190.397C387.055 186.804 384.361 178.047 385.932 172.658C386.157 171.76 386.157 171.086 385.483 170.188C383.687 167.718 377.85 166.82 375.605 166.595H369.992C370.441 167.942 370.89 170.412 369.992 174.005L369.319 176.924Z" fill="#150035"/>
<path d="M384.811 186.13C384.811 186.13 386.607 182.538 385.484 173.78L391.321 174.005C391.321 174.005 393.791 179.619 391.77 187.927C389.75 196.235 392.893 207.013 392.893 207.013C392.893 207.013 387.729 191.519 384.811 186.13Z" fill="#638AF2"/>
<path d="M391.994 207.238C391.994 207.013 386.831 191.969 383.912 186.58L383.688 186.13L383.912 185.681C383.912 185.681 385.484 182.089 384.586 174.005L384.361 172.882L391.994 173.107L392.219 173.781C392.219 174.005 394.913 179.843 392.668 188.376C390.647 196.235 393.791 206.789 393.791 207.013L391.994 207.238ZM385.933 185.906C387.28 188.376 388.851 192.193 390.198 196.011C389.974 193.316 390.198 190.172 390.872 187.478C392.443 181.191 391.321 176.475 390.647 174.903L386.606 174.679C387.28 181.191 386.382 184.783 385.933 185.906Z" fill="#150035"/>
<path d="M369.768 173.331C369.768 173.331 368.196 181.864 384.81 186.13C384.81 186.13 391.545 197.133 393.117 207.013C393.117 207.238 392.892 207.462 392.668 207.238C391.321 204.319 387.728 198.031 381.218 193.54C380.544 193.091 380.095 192.418 379.871 191.744L378.748 188.376C378.523 187.927 378.299 187.927 377.85 187.927L374.258 189.274C373.809 189.499 373.135 189.499 372.686 189.274C370.441 188.376 364.604 185.232 363.481 180.517C362.359 174.679 364.828 170.637 369.543 169.963L369.768 173.331Z" fill="#638AF2"/>
<path d="M392.892 208.36C392.443 208.36 391.994 208.136 391.77 207.687C390.647 205.217 387.055 198.705 380.769 194.439C379.87 193.765 379.421 193.091 378.972 192.193L377.85 189.274L374.482 190.397C373.809 190.621 372.911 190.621 372.237 190.397C369.543 189.274 363.481 186.13 362.359 180.966C361.685 177.598 362.134 174.679 363.706 172.433C365.053 170.637 367.073 169.29 369.543 169.065L370.666 168.84L370.89 173.556V173.78C370.89 174.23 369.768 181.64 385.034 185.457H385.483L385.708 185.906C385.932 186.355 392.668 197.133 394.015 207.238C394.015 207.911 393.79 208.36 393.117 208.585C393.117 208.36 392.892 208.36 392.892 208.36ZM378.074 186.804C378.299 186.804 378.523 186.804 378.748 187.029C379.197 187.253 379.421 187.478 379.646 187.927L380.769 191.295C380.993 191.744 381.218 192.193 381.667 192.642C385.708 195.337 388.626 198.93 390.647 202.073C388.626 195.112 384.81 188.6 383.912 187.029C367.972 182.987 368.42 174.454 368.645 173.331L368.42 171.31C367.073 171.76 365.951 172.433 365.277 173.556C364.155 175.352 363.706 177.598 364.379 180.292C365.277 184.783 371.115 187.478 372.911 188.376C373.135 188.376 373.36 188.376 373.584 188.376L377.176 187.029C377.625 186.804 377.85 186.804 378.074 186.804Z" fill="#150035"/>
<path d="M370.665 167.269C371.787 170.188 375.604 175.352 388.85 175.352C389.973 175.352 391.095 174.679 391.32 173.556C392.442 169.514 394.687 159.409 390.646 148.856L389.748 145.039L369.542 149.08L367.971 158.062C367.971 158.062 363.256 157.613 364.828 162.553C365.501 164.799 366.624 165.472 367.746 165.472C369.318 165.697 370.44 166.37 370.665 167.269Z" fill="white"/>
<path d="M388.626 176.475C375.155 176.475 371.114 171.086 369.767 167.718C369.543 167.044 368.869 166.595 368.196 166.595C367.073 166.595 365.277 165.921 364.379 162.778C363.93 160.981 363.93 159.41 364.828 158.287C365.726 157.389 366.849 156.94 367.747 156.94L369.094 147.958L390.871 143.467L391.994 148.182C396.035 158.96 393.79 169.514 392.667 173.556C392.218 175.128 390.871 176.25 389.075 176.25C388.85 176.475 388.85 176.475 388.626 176.475ZM371.788 167.044C372.91 169.739 376.502 174.454 389.075 174.454C389.749 174.454 390.422 174.005 390.647 173.331C391.769 169.514 394.014 159.634 389.973 149.305L389.3 146.386L370.89 150.203L369.318 159.634H368.42C367.971 159.634 366.849 159.634 366.399 160.308C365.95 160.981 366.175 161.88 366.399 162.778C367.073 164.799 368.196 165.023 368.42 165.023C369.992 164.799 371.339 165.697 371.788 167.044Z" fill="#150035"/>
<path d="M366.624 150.428C364.828 149.53 363.257 147.958 362.583 146.161C361.685 143.691 361.461 140.548 364.155 137.853C365.726 136.281 367.298 135.383 368.645 135.159C374.482 133.811 379.421 140.099 385.259 137.18C392.668 133.587 385.034 130.219 382.565 132.689C382.565 132.689 386.83 127.524 391.77 131.79C398.056 137.18 394.239 148.407 384.81 148.631C379.871 148.856 376.278 149.979 374.033 150.877C372.013 151.775 369.768 151.775 367.522 150.877L366.624 150.428Z" fill="#150035"/>
<path d="M361.236 158.511C361.236 158.511 358.093 153.571 359.44 148.856C360.563 145.488 366.624 147.284 369.992 148.631C371.115 149.081 371.788 150.428 371.339 151.551L369.543 157.164C369.094 158.287 368.196 158.961 367.073 158.961L362.808 159.185L361.236 158.511Z" fill="#150035"/>
<path d="M395.811 199.828C395.811 199.828 395.137 193.091 398.505 190.397L400.077 189.723V195.337C400.077 196.46 401.199 196.909 402.097 196.46C404.118 194.888 407.485 192.418 408.608 189.723C410.404 185.681 413.098 189.05 412.425 194.663C411.751 200.277 401.648 204.992 401.648 204.992L395.811 199.828Z" fill="white"/>
<path d="M401.648 206.564L394.913 200.501V200.052C394.913 199.828 394.239 192.642 398.056 189.723L398.281 189.499L402.097 187.927V195.112C402.322 195.337 402.322 195.337 402.546 195.337C404.342 193.99 406.588 191.744 407.71 189.274C408.833 186.58 410.404 186.804 411.078 187.029C413.098 187.478 413.996 190.846 413.547 194.888C412.874 201.175 402.546 205.89 402.097 206.115L401.648 206.564ZM396.934 199.379L402.097 204.094C405.016 202.522 411.302 198.705 411.751 194.888C412.2 191.295 411.078 189.274 410.629 189.274C410.629 189.274 410.18 189.499 409.731 190.397C408.384 193.091 405.24 195.786 402.771 197.582C402.097 198.031 401.199 198.256 400.301 197.807C399.628 197.358 398.954 196.684 398.954 195.786V191.744C396.934 193.54 396.934 198.031 396.934 199.379Z" fill="#150035"/>
<path d="M360.338 179.843L354.95 184.559C353.603 185.906 352.705 187.478 352.481 189.274C352.032 196.684 351.583 216.444 362.584 231.264C363.706 232.836 365.727 233.959 367.747 234.183C370.89 234.408 374.033 233.285 376.279 231.264C381.218 226.773 390.198 218.016 398.281 209.932C398.954 209.259 398.954 208.136 398.281 207.238L393.341 202.073C392.668 201.399 391.545 201.175 390.872 201.849L372.013 218.689C372.013 218.689 370.89 205.217 365.278 190.397L360.338 179.843Z" fill="white"/>
<path d="M368.645 235.306C368.421 235.306 367.972 235.306 367.747 235.306C365.277 235.081 363.257 233.959 361.91 231.938C350.909 216.893 351.133 197.133 351.582 189.274C351.807 187.253 352.705 185.232 354.276 183.661L359.665 178.945L361.012 180.517L355.624 185.232C354.501 186.355 353.603 187.702 353.603 189.274C352.929 196.909 352.929 215.995 363.481 230.591C364.604 231.938 366.175 232.836 367.972 233.061C370.89 233.285 373.584 232.387 375.605 230.366C380.32 225.875 389.525 217.342 397.382 209.034C397.607 208.81 397.607 208.136 397.382 207.911L392.443 202.747C392.219 202.522 391.545 202.298 391.321 202.747L370.89 220.935L370.666 218.914C370.666 218.69 369.543 205.441 364.155 191.071L366.175 190.397C370.441 201.849 372.237 212.627 372.686 216.893L390.198 201.4C391.545 200.501 393.117 200.726 394.239 201.624L399.178 206.789C400.301 207.911 400.301 209.708 399.178 210.831C391.096 219.139 381.891 227.671 377.176 232.162C374.707 234.183 371.788 235.306 368.645 235.306Z" fill="#150035"/>
<path d="M401.423 206.339L398.953 208.136L393.116 202.073L395.361 200.052C395.81 199.603 396.484 199.828 396.708 200.052L401.423 204.768C401.872 205.217 401.872 205.89 401.423 206.339Z" fill="#638AF2"/>
<path d="M398.729 209.483L391.545 201.849L394.688 199.154C395.586 198.48 396.709 198.48 397.607 199.379L402.321 204.094C402.77 204.543 402.995 205.217 402.995 205.666C402.995 206.34 402.546 206.789 402.097 207.238L398.729 209.483ZM394.688 202.073L399.178 206.564L400.974 205.217L401.648 206.115L400.974 205.217L396.26 200.726L394.688 202.073Z" fill="#150035"/>
<path d="M374.033 204.768L374.482 206.34C374.707 207.013 375.38 207.238 376.054 207.013L380.32 204.319C381.218 203.87 381.442 202.971 381.442 202.073L381.218 200.277C380.993 199.603 380.32 199.154 379.646 199.603L375.156 202.298C374.033 202.747 373.809 203.87 374.033 204.768Z" fill="#150035"/>
<path d="M375.38 208.136C375.156 208.136 374.931 208.136 374.482 207.911C373.809 207.687 373.36 207.238 373.36 206.564L372.911 204.992C372.686 203.645 373.135 202.073 374.482 201.4L378.972 198.705C379.646 198.256 380.319 198.256 380.993 198.705C381.666 198.93 382.116 199.603 382.116 200.277L382.34 202.073C382.565 203.42 381.891 204.768 380.768 205.441L376.503 208.136C376.054 208.136 375.605 208.136 375.38 208.136ZM374.931 204.543L375.38 206.115L379.646 203.42C380.095 203.196 380.319 202.747 380.319 202.073L380.095 200.277L375.829 202.971C375.156 203.42 374.931 203.87 374.931 204.543Z" fill="#150035"/>
<path d="M385.483 165.921L384.81 163.9L387.279 163.227C387.504 163.227 387.504 163.002 387.728 163.002C387.728 162.778 387.728 162.778 387.728 162.553L386.381 158.062L388.402 157.389L389.749 161.879C389.973 162.553 389.973 163.227 389.524 163.9C389.075 164.574 388.626 165.023 387.953 165.248L385.483 165.921Z" fill="#150035"/>
<path d="M369.468 161.233L368.86 163.161L371.43 163.971L372.037 162.043L369.468 161.233Z" fill="#150035"/>
<path d="M382.116 261.802C379.87 261.802 377.85 260.23 377.625 257.985L375.829 247.656C375.605 246.982 375.829 246.084 376.278 245.41C376.727 244.737 377.401 244.512 378.074 244.288L387.055 243.39C387.728 243.39 388.626 243.614 389.075 244.063C389.749 244.512 389.973 245.41 389.973 246.084V256.638C389.973 259.108 388.177 261.129 385.932 261.353L382.565 261.578C382.34 261.802 382.116 261.802 382.116 261.802ZM387.279 245.635L378.299 246.533C378.074 246.533 378.074 246.758 377.85 246.758C377.85 246.758 377.625 246.982 377.625 247.207L379.421 257.536C379.646 258.883 380.768 259.781 382.116 259.781L385.483 259.557C386.83 259.332 387.728 258.434 387.728 257.087V246.533C387.728 246.309 387.728 246.084 387.504 246.084C387.728 245.635 387.504 245.635 387.279 245.635Z" fill="#150035"/>
<path d="M380.068 234.146L378.063 234.405L379.472 245.318L381.476 245.059L380.068 234.146Z" fill="#150035"/>
<path d="M385.708 238H383.688V244.512H385.708V238Z" fill="#150035"/>
<path d="M381.442 157.389C381.891 158.96 381.666 160.308 380.768 160.757C379.87 160.981 378.748 160.083 378.299 158.511C377.85 156.939 378.074 155.592 378.972 155.143C379.87 154.694 380.993 155.817 381.442 157.389Z" fill="#150035"/>
<path d="M392.219 154.245C392.443 155.817 391.994 157.164 390.872 157.389C389.974 157.613 389.075 156.266 388.626 154.694C388.402 153.122 388.851 151.775 389.974 151.55C391.096 151.326 391.994 152.673 392.219 154.245Z" fill="#150035"/>
<path d="M388.567 168.432L383.646 168.847L383.815 170.861L388.737 170.445L388.567 168.432Z" fill="#150035"/>
<path d="M404.202 173.733L403.222 175.5L406.952 177.57L407.932 175.803L404.202 173.733Z" fill="#638AF2"/>
<path d="M435.161 155.052L434.181 156.819L437.911 158.889L438.891 157.122L435.161 155.052Z" fill="#638AF2"/>
<path d="M406.139 215.995L402.322 213.749L403.445 211.953L407.262 214.199L406.139 215.995Z" fill="#638AF2"/>
<path d="M415.792 187.029L424.997 200.501L438.019 169.963C438.243 169.514 437.794 169.514 437.57 169.739L425.222 191.744L416.017 186.13C416.017 186.355 415.568 186.804 415.792 187.029Z" fill="#150035"/>
<path d="M150.423 435.825H105.521C105.072 435.825 104.623 436.274 104.623 436.723V450.645C104.623 451.993 105.746 453.34 107.766 454.463L121.237 462.322C125.053 464.567 130.666 464.792 133.809 462.771L149.076 454.013C150.648 453.115 151.321 451.993 151.321 450.645V436.723C151.546 436.274 151.097 435.825 150.423 435.825Z" fill="#638AF2"/>
<path d="M128.421 465.69C125.726 465.69 122.808 465.016 120.563 463.669L107.092 455.81C105.296 454.687 104.174 453.564 103.725 451.992H103.5V450.645V436.723C103.5 435.376 104.623 434.478 105.745 434.478H150.647C151.321 434.478 151.77 434.702 152.219 435.152C152.668 435.601 152.892 436.274 152.892 436.723V451.992H152.668C152.219 453.34 151.321 454.462 149.974 455.136L134.707 463.893C132.911 465.016 130.666 465.69 128.421 465.69ZM106.194 450.421C106.194 451.543 107.092 452.442 108.664 453.34L122.134 461.199C125.502 462.995 130.666 463.444 133.36 461.648L148.626 452.891C149.3 452.442 150.198 451.768 150.198 450.87V449.298H150.423V437.172H106.419L106.194 450.421Z" fill="#150035"/>
<path d="M150.422 435.825H129.768V464.118C131.339 463.893 132.686 463.669 133.809 462.995L149.075 454.238C150.647 453.34 151.321 452.217 151.321 450.869V436.948C151.545 436.274 151.096 435.825 150.422 435.825Z" fill="#150035"/>
<path d="M149.3 439.418L134.033 448.175C130.89 449.972 125.053 449.747 121.461 447.726L107.99 439.867C104.173 437.622 103.949 434.478 107.092 432.682L122.359 423.924C125.502 422.128 131.339 422.353 134.931 424.373L148.402 432.233C152.218 434.253 152.443 437.397 149.3 439.418Z" fill="white"/>
<path d="M128.42 450.87C125.726 450.87 122.808 450.196 120.563 448.849L107.092 440.99C104.622 439.642 103.275 437.622 103.275 435.601C103.275 433.804 104.398 432.232 106.194 431.334L121.461 422.577C125.053 420.556 131.339 420.781 135.38 423.026L148.851 430.885C151.321 432.232 152.668 434.253 152.668 436.274C152.668 438.071 151.545 439.642 149.749 440.541L134.482 449.298C132.911 450.421 130.666 450.87 128.42 450.87ZM127.747 423.924C125.951 423.924 124.155 424.373 123.032 425.047L107.766 433.804C107.092 434.253 106.194 434.927 106.194 435.825C106.194 436.723 107.092 437.846 108.664 438.744L122.134 446.603C125.502 448.4 130.666 448.849 133.36 447.052L148.626 438.295C149.3 437.846 150.198 437.172 150.198 436.274C150.198 435.376 149.3 434.253 147.728 433.355L134.258 425.496C132.462 424.373 129.992 423.924 127.747 423.924Z" fill="#150035"/>
<path d="M124.155 448.4H121.461V462.995H124.155V448.4Z" fill="#150035"/>
<path d="M147.055 444.583H145.034V451.768H147.055V444.583Z" fill="#638AF2"/>
<path d="M47.1473 328.043H2.24519C1.79617 328.043 1.34717 328.492 1.34717 328.941V342.863C1.34717 344.21 2.46971 345.558 4.4903 346.68L17.9609 354.54C21.7776 356.785 27.3903 357.01 30.5335 354.989L45.8002 346.231C47.3718 345.333 48.0453 344.21 48.0453 342.863V328.941C48.0453 328.492 47.5963 328.043 47.1473 328.043Z" fill="#638AF2"/>
<path d="M25.1452 357.683C22.4511 357.683 19.5325 357.01 17.2874 355.662L3.81675 347.803C2.02067 346.681 0.898119 345.558 0.449099 343.986H0.224609V342.639V328.717C0.224609 327.37 1.34716 326.471 2.46971 326.471H47.3717C48.0452 326.471 48.4943 326.696 48.9433 327.145C49.3923 327.594 49.6168 328.268 49.6168 328.717V343.986H49.3924C48.9433 345.333 48.0453 346.456 46.6982 347.13L31.4316 355.887C29.6355 357.234 27.3903 357.683 25.1452 357.683ZM2.6942 342.639C2.6942 343.761 3.59226 344.66 5.16383 345.558L18.6344 353.417C22.0021 355.213 27.1658 355.662 29.86 353.866L45.1266 345.109C45.8001 344.66 46.6982 343.986 46.6982 343.088V341.516H46.9227V329.391H2.91873L2.6942 342.639Z" fill="#150035"/>
<path d="M47.1471 328.043H26.4922V356.336C28.0638 356.111 29.4108 355.887 30.5333 355.213L45.8 346.456C47.3716 345.558 48.0451 344.435 48.0451 343.088V328.941C48.0451 328.492 47.5961 328.043 47.1471 328.043Z" fill="#150035"/>
<path d="M45.7998 331.411L30.5331 340.169C27.39 341.965 21.5527 341.741 17.9606 339.72L4.48999 331.861C0.673323 329.615 0.448827 326.471 3.59196 324.675L18.8586 315.918C22.0018 314.121 27.839 314.346 31.4312 316.367L44.9018 324.226C48.7184 326.471 49.1675 329.615 45.7998 331.411Z" fill="white"/>
<path d="M25.1451 343.088C22.451 343.088 19.5324 342.414 17.2873 341.067L3.81666 333.208C1.34705 331.861 0 329.84 0 327.819C0 326.022 1.12256 324.451 2.91864 323.552L18.1853 314.795C21.7775 312.774 28.0637 312.999 32.1049 315.244L45.5755 323.103C48.0451 324.451 49.3922 326.471 49.3922 328.492C49.3922 330.289 48.2696 331.861 46.4735 332.759L31.2069 341.516C29.6353 342.639 27.3902 343.088 25.1451 343.088ZM24.2471 315.918C22.451 315.918 20.6549 316.367 19.5324 317.041L4.26571 325.798C3.59218 326.247 2.69411 326.921 2.69411 327.819C2.69411 328.717 3.59217 329.84 5.16373 330.738L18.6343 338.597C22.002 340.393 27.1657 340.842 29.8598 339.046L45.1265 330.289C45.8 329.84 46.6981 329.166 46.6981 328.268C46.6981 327.37 45.8 326.247 44.2284 325.349L30.7579 317.49C28.9618 316.591 26.4922 315.918 24.2471 315.918Z" fill="#150035"/>
<path d="M20.655 340.618H17.9609V355.213H20.655V340.618Z" fill="#150035"/>
<path d="M43.7794 336.801H41.7588V343.986H43.7794V336.801Z" fill="#638AF2"/>
<path d="M41.5347 275.949C41.3102 275.724 41.0857 275.724 40.8612 276.174L20.4308 312.774L18.6347 312.999L13.2465 309.631L12.1239 308.284L4.49058 304.466C4.04156 304.242 3.59253 305.14 3.81704 305.589L19.5327 328.493L26.7171 332.31H26.9416L28.2886 321.083L46.923 285.38L49.3926 280.44C49.3926 280.215 49.3926 279.991 49.1681 279.991L41.5347 275.949Z" fill="#638AF2"/>
<path d="M26.4924 333.208L25.8189 332.983L18.41 328.942L18.1855 328.717L2.46986 305.813C2.02084 305.14 2.24533 304.242 2.69435 303.568C3.14337 303.119 4.04141 302.894 4.49043 303.119L12.3483 307.161L13.4708 308.508L18.41 311.427H19.0836L39.065 275.5C39.2895 274.826 39.963 274.602 40.412 274.602C40.6366 274.602 41.0856 274.602 41.3101 274.826L48.4943 278.419C48.9434 278.643 49.1679 278.868 49.1679 279.317C49.3924 279.766 49.1679 279.991 49.1679 280.44L46.6983 285.38L28.2885 320.858L26.9415 332.31L26.4924 333.208ZM20.2061 327.37L25.8189 330.513L27.1659 320.409L47.8208 280.44L41.5346 277.296L21.1042 313.897L18.41 314.122L12.3483 310.304L11.2257 308.957L5.38849 306.038L20.2061 327.37Z" fill="#150035"/>
<path d="M11.4506 309.182L27.1662 332.085C27.1662 332.085 27.3907 332.085 27.3907 331.861L49.3927 280.44C49.6172 279.766 49.1682 279.542 48.7192 280.215L28.0643 317.49L27.8398 317.714L12.3486 308.508C11.6751 308.059 11.0015 308.957 11.4506 309.182Z" fill="#150035"/>
<path d="M26.4925 333.208L26.0434 332.759L10.3278 309.855C9.87875 309.182 10.1032 308.283 10.5523 307.61C11.0013 307.161 11.8993 306.936 12.3483 307.161L26.9415 315.918L47.1474 279.542C47.5964 278.643 48.4944 278.419 49.168 278.643C49.8415 278.868 50.066 279.766 49.8415 280.664L27.8395 332.085C27.615 332.534 27.166 332.759 26.717 332.983L26.4925 333.208ZM13.4709 310.304L26.9415 330.064L42.8816 292.341L28.2885 318.388L27.615 318.612C27.3905 318.612 26.9415 318.612 26.717 318.388L13.4709 310.304Z" fill="#150035"/>
<path d="M647.487 231.938H602.585C602.136 231.938 601.688 232.387 601.688 232.836V246.758C601.688 248.105 602.81 249.453 604.831 250.575L618.301 258.434C622.118 260.68 627.731 260.904 630.874 258.883L646.14 250.126C647.712 249.228 648.385 248.105 648.385 246.758V232.836C648.385 232.163 647.936 231.938 647.487 231.938Z" fill="#39A1FF"/>
<path d="M625.485 261.578C622.791 261.578 619.872 260.904 617.627 259.557L604.157 251.698C602.36 250.575 601.238 249.453 600.789 247.881H600.564V246.533V232.612C600.564 231.938 600.789 231.489 601.238 231.04C601.687 230.591 602.361 230.366 602.81 230.366H647.712C648.385 230.366 648.834 230.591 649.283 231.04C649.732 231.489 649.957 232.163 649.957 232.612V247.881H649.732C649.283 249.228 648.385 250.351 647.038 251.024L631.771 259.782C629.975 261.129 627.73 261.578 625.485 261.578ZM603.034 246.533C603.034 247.656 603.932 248.554 605.504 249.453L618.974 257.312C622.342 259.108 627.506 259.557 630.2 257.761L645.467 249.003C646.14 248.554 647.038 247.881 647.038 246.983V245.411H647.263V233.285H603.259L603.034 246.533Z" fill="#150035"/>
<path d="M647.487 231.938H626.832V260.231C628.404 260.006 629.751 259.782 630.873 259.108L646.14 250.351C647.711 249.453 648.385 248.33 648.385 246.983V233.061C648.385 232.387 647.936 231.938 647.487 231.938Z" fill="#150035"/>
<path d="M646.364 235.306L631.098 244.064C627.954 245.86 622.117 245.635 618.525 243.614L605.054 235.755C601.238 233.51 601.013 230.366 604.156 228.57L619.423 219.813C622.566 218.016 628.403 218.241 631.996 220.262L645.466 228.121C649.058 230.142 649.507 233.51 646.364 235.306Z" fill="white"/>
<path d="M625.485 246.758C622.791 246.758 619.872 246.084 617.627 244.737L604.156 236.878C601.687 235.531 600.34 233.51 600.34 231.489C600.34 229.693 601.462 228.121 603.259 227.223L618.525 218.465C622.117 216.444 628.404 216.669 632.445 218.914L645.915 226.773C648.385 228.121 649.732 230.142 649.732 232.163C649.732 233.959 648.609 235.531 646.813 236.429L631.547 245.186C629.975 246.309 627.73 246.758 625.485 246.758ZM624.811 219.813C623.015 219.813 621.219 220.262 620.097 220.935L604.83 229.693C604.156 230.142 603.259 230.815 603.259 231.713C603.259 232.612 604.156 233.734 605.728 234.633L619.199 242.492C622.566 244.288 627.73 244.737 630.424 242.941L645.691 234.183C646.364 233.734 647.262 233.061 647.262 232.163C647.262 231.264 646.364 230.142 644.793 229.243L631.322 221.384C629.302 220.262 627.056 219.813 624.811 219.813Z" fill="#150035"/>
<path d="M620.995 244.288H618.301V258.884H620.995V244.288Z" fill="#150035"/>
<path d="M644.119 240.695H642.099V247.881H644.119V240.695Z" fill="#39A1FF"/>
<path d="M641.874 177.598C641.649 177.374 641.425 177.374 641.2 177.823L620.77 214.424H619.199L613.81 211.055L612.688 209.708L605.055 205.891C604.605 205.666 604.156 206.564 604.381 207.014L620.097 229.917L627.281 233.734H627.505L628.852 222.507L647.487 186.804L649.956 181.864C649.956 181.64 649.956 181.415 649.732 181.415L641.874 177.598Z" fill="#39A1FF"/>
<path d="M627.056 234.857L626.383 234.633L618.974 230.591L603.258 207.463C602.809 206.789 603.034 205.891 603.483 205.217C603.932 204.768 604.83 204.544 605.279 204.768L613.137 208.81L614.259 210.157L619.199 213.301H619.872L639.853 177.374C640.078 176.7 640.751 176.475 641.2 176.475C641.649 176.475 641.874 176.475 642.099 176.7L649.283 180.293C649.507 180.517 649.956 180.742 649.956 181.191C650.181 181.64 649.956 181.864 649.956 182.314L647.487 187.254L629.077 222.732L627.73 234.184L627.056 234.857ZM620.546 228.794L626.158 231.938L627.505 221.834L648.16 181.864L641.874 178.721L621.444 215.322L618.75 215.546L612.688 211.729L611.565 210.382L605.728 207.463L620.546 228.794Z" fill="#150035"/>
<path d="M611.789 210.831L627.505 233.734C627.505 233.734 627.729 233.734 627.729 233.51L649.731 182.089C649.956 181.415 649.507 181.191 649.058 181.864L628.178 218.914L627.954 219.139L612.463 209.933C612.238 209.484 611.565 210.382 611.789 210.831Z" fill="#150035"/>
<path d="M627.056 234.857L626.607 234.183L610.891 211.28C610.442 210.606 610.667 209.708 611.116 209.034C611.565 208.585 612.463 208.361 612.912 208.585L627.505 217.343L647.711 180.966C648.16 180.068 649.058 179.844 649.731 180.068C650.405 180.293 650.629 181.191 650.405 182.089L628.403 233.51C628.178 233.959 627.729 234.183 627.28 234.408L627.056 234.857ZM613.81 211.729L627.28 231.489L643.221 193.765L628.628 219.813L627.954 220.037C627.73 220.037 627.28 220.037 627.056 219.813L613.81 211.729Z" fill="#150035"/>
<path d="M494.371 498.698H449.469C449.02 498.698 448.571 499.147 448.571 499.596V539.116C448.571 540.463 449.694 541.81 451.714 542.933L465.185 550.792C469.002 553.038 474.614 553.262 477.758 551.241L493.024 542.484C494.596 541.586 495.269 540.463 495.269 539.116V499.596C495.269 499.147 494.82 498.698 494.371 498.698Z" fill="#638AF2"/>
<path d="M472.144 553.936C469.45 553.936 466.532 553.262 464.286 551.915L450.816 544.056C449.02 542.933 447.897 541.81 447.448 540.239H447.224V538.891V499.371C447.224 498.024 448.346 497.126 449.469 497.126H494.371C495.718 497.126 496.616 498.249 496.616 499.371V540.239H496.391C495.942 541.586 495.044 542.709 493.697 543.382L478.431 552.14C476.634 553.487 474.389 553.936 472.144 553.936ZM449.918 538.891C449.918 540.014 450.816 540.912 452.387 541.81L465.858 549.67C469.226 551.466 474.389 551.915 477.084 550.119L492.35 541.361C493.024 540.912 493.922 540.239 493.922 539.34V537.769H494.146V500.045H450.142L449.918 538.891Z" fill="#150035"/>
<path d="M494.371 498.698H473.716V552.589C475.287 552.364 476.634 552.14 477.757 551.466L493.024 542.709C494.595 541.81 495.269 540.688 495.269 539.34V499.596C495.269 499.147 494.82 498.698 494.371 498.698Z" fill="#150035"/>
<path d="M493.023 502.066L477.757 510.823C474.614 512.619 468.776 512.395 465.184 510.374L451.714 502.515C447.897 500.269 447.672 497.126 450.816 495.329L466.082 486.572C469.225 484.776 475.063 485 478.655 487.021L492.125 494.88C495.942 497.126 496.167 500.269 493.023 502.066Z" fill="white"/>
<path d="M472.144 513.742C469.45 513.742 466.531 513.069 464.286 511.721L450.816 503.862C448.346 502.515 446.999 500.494 446.999 498.473C446.999 496.677 448.122 495.105 449.918 494.207L465.184 485.45C468.776 483.429 475.063 483.653 479.104 485.899L492.574 493.758C495.044 495.105 496.391 497.126 496.391 499.147C496.391 500.943 495.269 502.515 493.473 503.413L478.206 512.17C476.634 513.293 474.389 513.742 472.144 513.742ZM471.471 486.572C469.675 486.572 467.878 487.021 466.756 487.695L451.489 496.452C450.816 496.901 449.918 497.575 449.918 498.473C449.918 499.371 450.816 500.494 452.387 501.392L465.858 509.251C469.226 511.048 474.389 511.497 477.083 509.7L492.35 500.943C493.023 500.494 493.922 499.82 493.922 498.922C493.922 498.024 493.024 496.901 491.452 496.003L477.981 488.144C476.185 487.246 473.716 486.572 471.471 486.572Z" fill="#150035"/>
<path d="M467.879 511.272H465.185V551.466H467.879V511.272Z" fill="#150035"/>
<path d="M490.778 507.455H488.758V540.239H490.778V507.455Z" fill="#638AF2"/>
<path d="M525.353 540.688H480.451C480.002 540.688 479.553 541.137 479.553 541.586V555.508C479.553 556.855 480.675 558.203 482.696 559.325L496.166 567.184C499.983 569.43 505.596 569.654 508.739 567.633L524.006 558.876C525.577 557.978 526.251 556.855 526.251 555.508V541.586C526.251 540.913 525.802 540.688 525.353 540.688Z" fill="#638AF2"/>
<path d="M503.351 570.328C500.657 570.328 497.738 569.654 495.493 568.307L482.023 560.448C480.227 559.325 479.104 558.203 478.655 556.631H478.431V555.283V541.362C478.431 540.014 479.553 539.116 480.676 539.116H525.578C526.925 539.116 527.823 540.239 527.823 541.362V556.631H527.598C527.149 557.978 526.251 559.101 524.904 559.774L509.638 568.532C507.841 569.879 505.596 570.328 503.351 570.328ZM480.9 555.283C480.9 556.406 481.798 557.304 483.37 558.203L496.84 566.062C500.208 567.858 505.372 568.307 508.066 566.511L523.333 557.753C524.006 557.304 524.904 556.631 524.904 555.733V554.161H525.129V542.035H481.125L480.9 555.283Z" fill="#150035"/>
<path d="M525.353 540.688H504.698V568.981C506.27 568.756 507.617 568.532 508.739 567.858L524.006 559.101C525.578 558.203 526.251 557.08 526.251 555.733V541.811C526.251 541.137 525.802 540.688 525.353 540.688Z" fill="#150035"/>
<path d="M524.006 544.056L508.739 552.814C505.596 554.61 499.759 554.385 496.167 552.364L482.696 544.505C478.879 542.26 478.655 539.116 481.798 537.32L497.065 528.563C500.208 526.766 506.045 526.991 509.637 529.012L523.108 536.871C526.925 538.892 527.374 542.26 524.006 544.056Z" fill="white"/>
<path d="M503.351 555.508C500.657 555.508 497.738 554.834 495.493 553.487L482.023 545.628C479.553 544.281 478.206 542.26 478.206 540.239C478.206 538.442 479.329 536.871 481.125 535.972L496.391 527.215C499.983 525.194 506.27 525.419 510.311 527.664L523.781 535.523C526.251 536.871 527.598 538.891 527.598 540.912C527.598 542.709 526.476 544.281 524.679 545.179L509.413 553.936C507.841 555.059 505.596 555.508 503.351 555.508ZM502.453 528.562C500.657 528.562 498.861 529.011 497.738 529.685L482.472 538.442C481.798 538.891 480.9 539.565 480.9 540.463C480.9 541.362 481.798 542.484 483.37 543.382L496.84 551.241C500.208 553.038 505.372 553.487 508.066 551.691L523.332 542.933C524.006 542.484 524.904 541.811 524.904 540.912C524.904 540.014 524.006 538.892 522.434 537.993L508.964 530.134C507.168 529.012 504.698 528.562 502.453 528.562Z" fill="#150035"/>
<path d="M498.861 553.038H496.167V567.633H498.861V553.038Z" fill="#150035"/>
<path d="M521.985 549.445H519.965V556.631H521.985V549.445Z" fill="#638AF2"/>
<path d="M487.187 445.48C486.962 445.256 486.738 445.256 486.513 445.705L466.083 482.306L464.287 482.53L458.898 479.162L457.776 477.815L450.142 473.998C449.693 473.773 449.244 474.671 449.469 475.12L465.185 498.024L472.369 501.841H472.593L473.94 490.614L492.575 454.911L495.044 449.971C495.044 449.747 495.044 449.522 494.82 449.522L487.187 445.48Z" fill="#638AF2"/>
<path d="M472.369 502.739L471.695 502.515L464.287 498.473L464.062 498.248L448.346 475.345C447.897 474.671 448.122 473.773 448.571 473.099C449.02 472.65 449.918 472.426 450.367 472.65L458.225 476.692L459.347 478.039L464.287 481.183H464.96L484.941 445.256C485.166 444.582 485.839 444.358 486.288 444.358C486.513 444.358 486.962 444.582 487.187 444.582L494.371 448.175C494.595 448.4 495.044 448.624 495.044 449.073C495.269 449.522 495.044 449.747 495.044 450.196L492.575 455.136L474.165 490.614L472.818 502.066L472.369 502.739ZM465.634 496.677L471.246 499.82L472.593 489.716L493.248 449.747L486.962 446.603L466.532 483.204L463.837 483.428L457.776 479.611L456.653 478.264L450.816 475.345L465.634 496.677Z" fill="#150035"/>
<path d="M457.101 478.713L472.817 501.617C472.817 501.617 473.042 501.617 473.042 501.392L495.044 449.971C495.268 449.298 494.819 449.073 494.37 449.747L473.715 487.021L473.491 487.246L458 478.04C457.326 477.366 456.652 478.264 457.101 478.713Z" fill="#150035"/>
<path d="M472.144 502.74L471.695 502.066L455.979 479.162C455.53 478.489 455.755 477.59 456.204 476.917C456.653 476.468 457.551 476.243 458 476.468L472.593 485.225L492.799 448.849C493.248 447.95 494.146 447.726 494.819 447.95C495.493 448.175 495.717 449.073 495.493 449.971L473.491 501.392C473.266 501.841 472.817 502.066 472.368 502.29L472.144 502.74ZM459.122 479.611L472.593 499.371L488.533 461.648L473.94 487.695L473.266 487.919C473.042 487.919 472.593 487.92 472.368 487.695L459.122 479.611Z" fill="#150035"/>
<path d="M260.208 299.751H215.306C214.857 299.751 214.408 300.2 214.408 300.649V393.386C214.408 394.733 215.531 396.081 217.551 397.203L231.022 405.063C234.839 407.308 240.451 407.533 243.594 405.512L258.861 396.754C260.433 395.856 261.106 394.733 261.106 393.386V300.649C261.106 300.2 260.657 299.751 260.208 299.751Z" fill="#638AF2"/>
<path d="M238.206 408.431C235.512 408.431 232.593 407.757 230.348 406.41L216.877 398.551C215.081 397.428 213.959 396.305 213.51 394.733H213.285V393.386V300.649C213.285 299.302 214.408 298.403 215.53 298.403H260.432C261.779 298.403 262.677 299.526 262.677 300.649V394.733H262.228C261.779 396.081 260.881 397.203 259.534 397.877L244.267 406.634C242.696 407.757 240.451 408.431 238.206 408.431ZM215.755 393.162C215.755 394.284 216.653 395.182 218.224 396.081L231.695 403.94C235.063 405.736 240.226 406.185 242.92 404.389L258.187 395.632C258.861 395.182 259.759 394.509 259.759 393.611V392.039H259.983V301.098H215.979L215.755 393.162Z" fill="#150035"/>
<path d="M260.208 299.75H239.553V406.859C241.124 406.634 242.471 406.41 243.594 405.736L258.861 396.979C260.432 396.08 261.106 394.958 261.106 393.61V300.873C261.106 300.2 260.657 299.75 260.208 299.75Z" fill="#150035"/>
<path d="M258.86 303.343L243.594 312.101C240.451 313.897 234.613 313.673 231.021 311.652L217.551 303.793C213.734 301.547 213.509 298.403 216.653 296.607L231.919 287.85C235.062 286.053 240.9 286.278 244.492 288.299L257.962 296.158C261.779 298.179 262.228 301.323 258.86 303.343Z" fill="white"/>
<path d="M238.206 314.795C235.511 314.795 232.593 314.121 230.348 312.774L216.877 304.915C214.408 303.568 213.061 301.547 213.061 299.526C213.061 297.73 214.183 296.158 215.979 295.26L231.246 286.502C234.838 284.481 241.124 284.706 245.165 286.951L258.636 294.811C261.106 296.158 262.453 298.179 262.453 300.2C262.453 301.996 261.33 303.568 259.534 304.466L244.267 313.223C242.696 314.346 240.451 314.795 238.206 314.795ZM237.308 287.85C235.511 287.85 233.715 288.299 232.593 288.972L217.326 297.73C216.653 298.179 215.755 298.852 215.755 299.751C215.755 300.649 216.653 301.771 218.224 302.67L231.695 310.529C235.062 312.325 240.226 312.774 242.92 310.978L258.187 302.221C258.861 301.771 259.758 301.098 259.758 300.2C259.758 299.301 258.86 298.179 257.289 297.281L243.818 289.421C242.022 288.299 239.553 287.85 237.308 287.85Z" fill="#150035"/>
<path d="M233.716 312.325H231.021V405.736H233.716V312.325Z" fill="#150035"/>
<path d="M256.84 308.508H254.819V394.509H256.84V308.508Z" fill="#638AF2"/>
<path d="M228.777 379.689H183.875C183.426 379.689 182.977 380.138 182.977 380.587V426.395C182.977 427.742 184.099 429.089 186.12 430.212L199.59 438.071C203.407 440.316 209.02 440.541 212.163 438.52L227.43 429.763C229.001 428.865 229.675 427.742 229.675 426.395V380.587C229.675 380.138 229.226 379.689 228.777 379.689Z" fill="#638AF2"/>
<path d="M206.774 441.439C204.08 441.439 201.161 440.765 198.916 439.418L185.446 431.559C183.65 430.436 182.527 429.314 182.078 427.742H181.854V426.394V380.587C181.854 379.24 182.976 378.342 184.099 378.342H229.001C229.674 378.342 230.123 378.566 230.572 379.015C231.021 379.464 231.246 380.138 231.246 380.587V427.742H231.021C230.572 429.089 229.674 430.212 228.327 430.885L213.06 439.643C211.264 440.99 209.019 441.439 206.774 441.439ZM184.323 426.394C184.323 427.517 185.221 428.415 186.793 429.314L200.263 437.173C203.631 438.969 208.795 439.418 211.489 437.622L226.756 428.864C227.429 428.415 228.327 427.742 228.327 426.844V425.272H228.552V381.261H184.548L184.323 426.394Z" fill="#150035"/>
<path d="M228.776 379.689H208.121V439.867C209.693 439.642 211.04 439.418 212.162 438.744L227.429 429.987C229 429.089 229.674 427.966 229.674 426.619V380.587C229.674 380.138 229.225 379.689 228.776 379.689Z" fill="#150035"/>
<path d="M227.429 383.057L212.162 391.814C209.019 393.611 203.182 393.386 199.589 391.365L186.119 383.506C182.302 381.261 182.078 378.117 185.221 376.321L200.487 367.563C203.631 365.767 209.468 365.992 213.06 368.012L226.531 375.872C230.347 378.117 230.796 381.261 227.429 383.057Z" fill="white"/>
<path d="M206.774 394.733C204.08 394.733 201.161 394.06 198.916 392.713L185.446 384.853C182.976 383.506 181.629 381.485 181.629 379.464C181.629 377.668 182.751 376.096 184.548 375.198L199.814 366.441C203.406 364.42 209.693 364.644 213.734 366.89L227.204 374.749C229.674 376.096 231.021 378.117 231.021 380.138C231.021 381.934 229.899 383.506 228.102 384.404L212.836 393.162C211.264 394.284 209.019 394.733 206.774 394.733ZM205.876 367.563C204.08 367.563 202.284 368.013 201.161 368.686L185.895 377.443C185.221 377.893 184.323 378.566 184.323 379.464C184.323 380.363 185.221 381.485 186.793 382.383L200.263 390.243C203.631 392.039 208.795 392.488 211.489 390.692L226.755 381.934C227.429 381.485 228.327 380.812 228.327 379.913C228.327 379.015 227.429 377.893 225.857 376.994L212.387 369.135C210.591 368.237 208.121 367.563 205.876 367.563Z" fill="#150035"/>
<path d="M202.284 392.263H199.59V438.969H202.284V392.263Z" fill="#150035"/>
<path d="M225.408 388.446H223.388V427.517H225.408V388.446Z" fill="#638AF2"/>
<path d="M253.023 245.635C252.799 245.411 252.574 245.411 252.35 245.86L231.92 282.461L230.123 282.685L224.735 279.317L223.613 277.97L215.979 274.153C215.53 273.928 215.081 274.826 215.306 275.275L231.021 298.179L238.206 301.996H238.43L239.777 290.769L258.412 255.066L260.881 250.126C260.881 249.902 260.881 249.677 260.657 249.677L253.023 245.635Z" fill="#638AF2"/>
<path d="M238.206 302.894L237.532 302.67L230.123 298.628L229.899 298.403L214.183 275.5C213.734 274.826 213.959 273.928 214.408 273.254C214.857 272.581 215.755 272.581 216.204 272.805L224.062 276.847L225.184 278.194L230.123 281.113H230.797L250.778 245.186C251.003 244.512 251.676 244.288 252.125 244.288C252.35 244.288 252.799 244.288 253.023 244.512L260.208 248.105C260.432 248.33 260.881 248.554 260.881 249.003C261.106 249.452 260.881 249.677 260.881 250.126L258.412 255.066L240.002 290.544L238.655 301.996L238.206 302.894ZM231.695 296.831L237.308 299.975L238.655 289.871L259.31 249.901L253.023 246.758L232.593 283.359L229.899 283.583L223.837 279.766L222.715 278.419L216.877 275.5L231.695 296.831Z" fill="#150035"/>
<path d="M222.938 278.643L238.654 301.547C238.654 301.547 238.879 301.547 238.879 301.322L260.88 249.901C261.105 249.228 260.656 249.003 260.207 249.677L239.552 286.951L239.327 287.176L223.836 277.97C223.163 277.52 222.714 278.419 222.938 278.643Z" fill="#150035"/>
<path d="M238.205 302.669L237.756 302.22L222.041 279.317C221.592 278.643 221.816 277.745 222.265 277.071C222.714 276.398 223.612 276.398 224.061 276.622L238.654 285.379L258.86 249.003C259.309 248.105 260.207 247.88 260.881 248.105C261.554 248.329 261.779 249.228 261.554 250.126L239.777 301.996C239.552 302.445 239.103 302.669 238.654 302.894L238.205 302.669ZM224.959 279.766L238.43 299.526L254.37 261.802L239.777 287.849L239.103 288.074C238.879 288.074 238.43 288.074 238.205 288.074L224.959 279.766Z" fill="#150035"/>
<path d="M253.049 265.236L246.819 279.912L248.886 280.789L255.115 266.114L253.049 265.236Z" fill="#638AF2"/>
<path d="M614.708 430.885C614.708 431.11 614.483 431.334 614.259 431.334C611.789 432.906 594.502 444.807 607.299 462.097C615.831 473.549 614.259 479.387 611.789 481.857C611.116 482.531 611.789 483.429 612.687 483.204C618.525 481.632 628.403 476.243 623.015 459.178C616.055 437.172 632.669 445.256 631.995 454.911C631.995 455.81 632.893 456.034 633.342 455.585C636.934 451.543 643.221 442.112 631.995 431.11C618.525 418.086 615.157 428.864 614.708 430.885Z" fill="white"/>
<path d="M612.462 484.327C611.789 484.327 611.115 483.878 610.891 483.429C610.442 482.755 610.442 481.632 611.115 481.183C614.259 477.591 612.687 471.079 606.401 462.771C602.359 457.382 600.788 451.768 601.91 446.379C603.482 437.397 611.789 431.783 613.809 430.436C614.258 429.089 615.606 425.047 619.198 423.924C622.79 422.802 627.505 425.047 633.117 430.436C645.241 442.112 638.281 452.666 634.689 456.483C634.015 457.157 633.342 457.382 632.444 456.932C631.77 456.708 631.097 455.81 631.321 454.912C631.546 451.319 629.076 447.951 626.607 446.828C625.933 446.603 624.586 445.93 623.912 446.828C623.239 447.277 621.667 449.747 624.586 458.953C626.831 466.139 626.831 471.977 624.361 476.468C621.667 481.183 616.953 483.429 613.585 484.327C612.911 484.327 612.687 484.327 612.462 484.327ZM620.994 425.945C620.545 425.945 620.096 425.945 619.647 426.17C616.953 426.843 616.055 430.212 615.83 431.11C615.606 431.559 615.381 432.008 614.932 432.232C613.36 433.131 605.503 438.52 603.931 446.828C603.033 451.543 604.38 456.483 608.197 461.423C616.504 472.426 615.606 478.713 613.361 481.857C616.279 480.959 619.871 479.162 621.892 475.345C624.137 471.303 624.137 466.139 622.116 459.402C619.198 449.972 620.545 446.379 622.116 444.807C623.463 443.684 625.259 443.684 627.28 444.582C630.199 445.93 633.117 449.747 633.117 454.013C636.934 449.522 641.2 441.214 631.321 431.783C627.28 427.966 623.688 425.945 620.994 425.945Z" fill="#150035"/>
<path d="M632.444 441.663C630.648 437.621 631.097 435.376 631.995 434.253C632.669 433.355 632.444 432.008 631.546 431.334C627.954 428.864 622.341 424.822 620.77 424.822C623.239 436.274 614.932 437.397 613.585 444.582C612.014 452.217 623.239 460.974 623.464 461.199C623.239 460.525 623.015 459.851 622.79 459.178C617.177 441.439 626.831 443.235 630.648 449.747C631.546 447.501 634.24 445.481 632.444 441.663Z" fill="#150035"/>
<path d="M625.035 463.444L622.79 462.322C622.565 462.322 610.666 453.115 612.238 444.358C612.911 441.214 614.483 439.193 616.054 437.397C618.524 434.478 620.769 431.559 619.422 425.047L619.197 423.7H620.544C621.667 423.7 623.912 424.822 631.77 430.212C632.443 430.661 632.893 431.559 633.117 432.232C633.342 433.131 633.117 434.029 632.444 434.702C631.546 436.05 631.77 438.071 633.117 440.99C634.689 444.582 633.342 446.828 632.219 448.624C631.994 449.073 631.545 449.522 631.545 449.972L630.647 451.992L629.525 449.972C627.953 447.052 625.035 445.481 623.688 446.154C622.116 446.828 621.218 450.421 623.912 458.504C624.137 459.178 624.137 459.627 624.361 460.301L625.035 463.444ZM622.116 426.394C623.014 432.682 620.32 435.825 617.85 438.744C616.279 440.541 614.932 442.337 614.483 444.807C613.585 449.522 618.075 454.912 621.218 458.055C618.299 448.175 620.993 445.256 622.79 444.358C625.035 443.46 628.178 444.807 630.423 447.502C631.545 445.93 632.443 444.582 631.096 442.112C629.3 438.52 629.3 435.601 630.647 433.58C630.872 433.355 630.872 433.131 630.872 432.682C630.872 432.457 630.647 432.232 630.423 432.008C626.157 428.864 623.463 427.292 622.116 426.394Z" fill="#150035"/>
<path d="M563.968 196.909C563.968 196.909 538.599 187.029 528.72 205.442C518.842 223.854 540.844 239.797 540.844 239.797C543.987 242.492 548.926 242.492 554.539 239.348C563.968 233.51 571.377 219.813 571.153 208.81C570.704 202.073 568.01 198.032 563.968 196.909Z" fill="#638AF2"/>
<path d="M546.456 242.716C544.211 242.716 541.966 242.042 540.17 240.695H539.946C539.721 240.471 517.27 224.079 527.598 204.992C537.925 185.906 563.968 195.786 564.193 196.011H564.417C564.642 196.011 565.091 196.235 565.315 196.46H565.54C569.581 198.256 571.826 202.747 572.05 208.81C572.275 220.262 564.642 234.408 554.988 240.246C552.069 241.818 549.15 242.716 546.456 242.716ZM540.395 238.001L541.517 238.899C544.436 241.369 548.926 241.144 553.865 238.225C563.07 232.612 570.03 219.363 569.805 208.81C569.581 203.196 567.336 199.379 563.744 198.032L562.397 197.582C557.233 196.011 537.925 191.071 529.843 206.115C521.536 220.935 536.353 234.632 540.395 238.001Z" fill="#150035"/>
<path d="M644.792 418.759C644.792 418.759 641.649 393.161 621.667 393.161C601.911 393.161 598.543 418.759 598.543 418.759C597.645 422.801 599.89 426.843 605.278 429.762C614.259 434.927 629.076 434.927 638.281 429.762C643.445 426.843 645.69 422.577 644.792 418.759Z" fill="#638AF2"/>
<path d="M621.667 434.927C615.605 434.927 609.319 433.579 604.605 430.885C599.216 427.741 596.522 423.475 597.42 418.759V418.535C597.42 418.31 601.012 392.039 621.667 392.039C642.322 392.039 645.914 418.31 645.914 418.535V418.759C645.914 418.984 645.914 419.433 645.914 419.658V419.882C646.139 423.924 643.445 427.966 638.505 430.885C634.015 433.579 627.953 434.927 621.667 434.927ZM599.89 417.637L599.665 418.984C598.992 422.577 601.237 426.169 605.727 428.864C614.483 434.029 628.627 434.029 637.607 428.864C642.322 426.169 644.343 422.577 643.669 418.984L643.445 417.637C642.547 412.697 637.832 394.284 621.667 394.284C605.503 394.284 601.012 412.472 599.89 417.637Z" fill="#150035"/>
<path d="M611.115 354.764V394.06C611.115 395.632 612.013 397.203 614.258 398.551C618.524 401.021 625.259 401.021 629.3 398.551C631.321 397.428 632.444 395.856 632.444 394.284V354.764H611.115Z" fill="#150035"/>
<path d="M621.667 401.47C618.749 401.47 615.83 400.796 613.585 399.449C611.115 398.101 609.768 396.081 609.993 394.06V353.641L633.567 353.417V394.06C633.567 396.081 632.22 398.101 629.974 399.449C627.505 401.021 624.586 401.47 621.667 401.47ZM612.238 355.887V394.06C612.238 395.407 613.136 396.53 614.708 397.428C618.524 399.673 624.811 399.673 628.627 397.428C630.199 396.53 631.097 395.182 631.097 394.06V355.887H612.238Z" fill="#150035"/>
<path d="M566.887 329.391C566.887 329.391 574.745 390.242 621.667 390.018C668.815 390.018 676.448 329.166 676.448 329.166C678.469 319.735 673.08 310.08 660.732 302.894C639.179 290.544 604.156 290.544 582.603 303.119C570.255 310.304 564.867 319.96 566.887 329.391Z" fill="white"/>
<path d="M621.667 391.14C574.295 391.14 565.764 330.064 565.764 329.39V328.941C563.968 318.837 569.805 308.957 582.153 301.996C603.931 289.421 639.403 289.197 661.405 301.771C673.753 308.957 679.591 318.837 677.794 328.941V329.166C677.57 330.064 669.263 391.14 621.667 391.14C621.892 391.14 621.667 391.14 621.667 391.14ZM568.234 330.513C569.581 338.821 579.908 389.12 621.667 389.12C663.426 389.12 673.529 339.046 675.1 330.513L675.325 329.166C677.346 319.96 671.733 310.753 660.058 304.017C638.73 291.891 604.38 291.891 583.051 304.241C571.377 310.978 565.989 320.184 568.009 329.39L568.234 330.513Z" fill="#150035"/>
<path d="M660.732 302.894C682.285 315.244 682.285 335.453 660.732 348.028C639.179 360.378 604.155 360.378 582.602 348.028C561.049 335.678 561.049 315.469 582.602 302.894C604.155 290.32 639.179 290.544 660.732 302.894Z" fill="#150035"/>
<path d="M621.667 358.581C607.299 358.581 592.93 355.437 582.154 349.15C571.377 342.862 565.315 334.554 565.315 325.572C565.315 316.591 571.153 308.282 582.154 301.995C603.931 289.421 639.628 289.421 661.406 301.995C672.182 308.282 678.244 316.591 678.244 325.572C678.244 334.554 672.407 342.862 661.406 349.15C650.405 355.437 636.036 358.581 621.667 358.581ZM621.667 294.81C607.748 294.81 593.828 297.953 583.276 304.016C573.173 309.854 567.561 317.489 567.561 325.572C567.561 333.656 573.173 341.291 583.276 347.129C604.605 359.479 638.955 359.479 660.283 347.129C670.386 341.291 675.999 333.656 675.999 325.572C675.999 317.489 670.386 309.854 660.283 304.016C649.507 297.729 635.587 294.81 621.667 294.81Z" fill="#150035"/>
<path d="M711.695 294.137C711.695 291.892 711.47 289.646 711.021 287.401C708.776 271.233 700.918 228.121 675.773 186.131L621.666 190.622L567.56 186.131C542.414 228.121 534.557 271.233 532.312 287.401C528.944 302.894 537.251 319.062 557.906 330.962C593.154 351.172 650.179 351.172 685.427 330.962C702.939 320.633 711.695 307.385 711.695 294.137Z" fill="white"/>
<path d="M621.667 347.13C598.318 347.13 575.193 341.965 557.457 331.861C537.026 320.184 527.597 303.792 531.414 287.176C533.659 270.784 541.517 227.671 566.662 185.681L567.111 185.008L621.891 189.723L676.447 185.008L676.896 185.681C702.041 227.896 709.899 270.784 712.144 287.401C712.593 289.646 713.042 292.116 713.042 294.361C713.042 308.732 703.388 321.981 686.101 332.085C668.14 342.19 645.016 347.13 621.667 347.13ZM568.233 187.253C543.537 228.794 535.679 271.233 533.434 287.401C529.842 303.119 539.047 318.612 558.579 329.84C593.378 350.049 649.955 350.049 684.978 329.84C701.592 320.184 710.797 307.61 710.797 293.912C710.797 291.891 710.572 289.646 710.123 287.401C707.878 271.009 700.02 228.57 675.324 187.029L621.891 191.52L568.233 187.253Z" fill="#150035"/>
<path d="M660.732 169.963C682.285 182.313 682.285 202.522 660.732 215.097C639.179 227.447 604.155 227.447 582.602 215.097C561.049 202.747 561.049 182.538 582.602 169.963C604.155 157.389 639.179 157.389 660.732 169.963Z" fill="#638AF2"/>
<path d="M621.666 225.426C607.298 225.426 592.929 222.283 582.153 215.995C571.376 209.708 565.314 201.4 565.314 192.418C565.314 183.436 571.152 175.128 582.153 168.841C603.93 156.266 639.627 156.266 661.405 168.841C672.181 175.128 678.243 183.436 678.243 192.418C678.243 201.4 672.406 209.708 661.405 215.995C650.404 222.283 636.035 225.426 621.666 225.426ZM621.666 161.655C607.747 161.655 593.827 164.799 583.275 170.862C573.172 176.7 567.56 184.334 567.56 192.418C567.56 200.502 573.172 208.136 583.275 213.974C604.604 226.324 638.954 226.324 660.282 213.974C670.385 208.136 675.998 200.502 675.998 192.418C675.998 184.334 670.385 176.7 660.282 170.862C649.506 164.799 635.586 161.655 621.666 161.655Z" fill="#150035"/>
<path d="M676.448 180.068C676.448 180.068 668.815 119.216 621.667 119.216C574.52 119.216 566.887 180.068 566.887 180.068C564.867 189.499 570.255 199.154 582.603 206.34C604.156 218.69 639.179 218.69 660.732 206.34C673.305 199.154 678.469 189.499 676.448 180.068Z" fill="white"/>
<path d="M621.667 216.893C607.298 216.893 592.93 213.75 582.153 207.462C569.805 200.277 563.968 190.397 565.764 180.292V180.068C565.764 179.394 574.071 118.318 621.667 118.318C669.263 118.318 677.57 179.394 677.57 180.068V180.517C679.366 190.622 673.529 200.502 661.181 207.462C650.404 213.75 636.036 216.893 621.667 216.893ZM568.234 178.945L568.009 180.292C565.989 189.499 571.601 198.705 583.276 205.442C604.604 217.792 638.954 217.792 660.283 205.442C671.957 198.705 677.345 189.499 675.549 180.292L675.325 178.945C673.978 170.412 663.65 120.339 621.892 120.339C579.908 120.339 569.581 170.188 568.234 178.945Z" fill="#150035"/>
<path d="M628.852 125.503C632.893 127.749 632.893 131.566 628.852 133.811C624.81 136.057 618.524 136.057 614.483 133.811C610.442 131.566 610.442 127.749 614.483 125.503C618.524 123.258 624.81 123.258 628.852 125.503Z" fill="#638AF2"/>
<path d="M621.667 136.506C618.973 136.506 616.054 135.832 614.034 134.71C611.789 133.362 610.441 131.566 610.441 129.545C610.441 127.524 611.789 125.728 614.034 124.381C618.299 121.911 625.259 121.911 629.525 124.381C631.77 125.728 633.117 127.524 633.117 129.545C633.117 131.566 631.77 133.362 629.525 134.71C627.28 135.832 624.586 136.506 621.667 136.506ZM621.667 124.83C619.197 124.83 616.952 125.279 615.156 126.401C613.585 127.3 612.687 128.422 612.687 129.545C612.687 130.668 613.585 131.791 615.156 132.689C618.748 134.71 624.81 134.71 628.402 132.689C629.974 131.791 630.872 130.668 630.872 129.545C630.872 128.422 629.974 127.3 628.402 126.401C626.606 125.279 624.136 124.83 621.667 124.83Z" fill="#150035"/>
<path d="M695.081 262.476C695.081 262.476 724.268 256.189 722.247 233.285C720.226 210.381 690.367 209.259 690.367 209.259C685.652 208.81 681.162 211.729 678.243 218.016C673.079 229.019 674.651 246.084 681.611 255.964C685.652 261.802 690.591 263.823 695.081 262.476Z" fill="#638AF2"/>
<path d="M692.387 264.048C688.122 264.048 684.081 261.578 680.713 256.638C673.529 246.309 671.957 229.019 677.345 217.567C680.264 211.055 685.203 207.687 690.367 208.136H690.591C690.816 208.136 721.349 209.708 723.594 233.285C725.615 256.862 695.755 263.599 695.531 263.599H695.306C694.857 263.599 694.633 263.823 694.184 263.823C693.51 264.048 692.836 264.048 692.387 264.048ZM689.244 210.381C685.203 210.381 681.611 213.301 679.141 218.465C674.202 229.019 675.549 245.635 682.284 255.29C685.877 260.455 690.367 262.7 694.408 261.353L695.755 260.904C701.368 259.332 722.247 252.147 720.676 233.285C719.104 214.199 696.429 210.83 691.04 210.381L689.693 210.157C689.918 210.381 689.693 210.381 689.244 210.381Z" fill="#150035"/>
<path d="M594.052 160.757C584.623 155.368 580.806 147.509 583.051 140.323C583.051 139.874 582.602 139.649 582.378 140.099C576.091 148.631 572.275 158.511 570.03 166.146C568.009 175.128 573.173 184.559 584.847 191.295C594.726 196.909 607.523 199.828 620.544 200.052C625.708 200.052 630.198 197.358 632.668 192.867L632.892 192.642C636.26 186.355 636.035 178.945 632.219 172.882C629.974 169.514 626.157 167.269 622.116 167.269C612.013 167.493 601.685 165.248 594.052 160.757Z" fill="#638AF2"/>
<path d="M620.769 201.175C620.544 201.175 620.544 201.175 620.769 201.175C607.074 200.951 594.052 197.807 584.398 192.418C572.499 185.457 566.662 175.801 568.907 165.921C570.927 158.736 574.969 148.631 581.479 139.425C581.928 138.751 582.602 138.751 583.276 138.976C583.949 139.201 584.174 140.099 583.949 140.772C581.928 147.733 585.745 154.919 594.276 159.859C601.461 164.125 611.115 166.371 621.442 166.371C621.667 166.371 621.891 166.371 622.116 166.371C626.381 166.371 630.647 168.616 633.117 172.433C637.158 178.721 637.382 186.804 633.79 193.316L633.566 193.541C631.096 198.256 626.157 201.175 620.769 201.175ZM581.255 143.691C576.091 151.775 572.948 160.308 571.152 166.371C569.131 174.903 574.52 183.885 585.521 190.172C594.95 195.561 607.298 198.705 620.544 198.705C625.259 198.705 629.525 196.235 631.77 192.193L631.994 191.969C635.137 186.131 634.913 178.945 631.321 173.331C629.3 170.188 625.932 168.391 622.34 168.391C622.116 168.391 621.891 168.391 621.667 168.391C611.115 168.391 601.012 165.921 593.378 161.655C585.296 156.94 581.03 150.428 581.255 143.691Z" fill="#150035"/>
<path d="M621.218 194.663C608.196 194.439 600.563 193.541 590.011 187.702C577.888 181.191 571.826 173.556 575.193 162.553C576.765 157.164 579.235 150.877 582.602 144.59C582.602 143.018 582.827 141.671 583.276 140.099C583.276 139.65 582.827 139.425 582.602 139.874C576.316 148.407 572.499 158.287 570.254 165.921C568.234 174.903 573.397 184.334 585.072 191.071C594.95 196.684 607.747 199.828 620.769 199.828C625.933 199.828 629.749 196.235 632.219 193.541C632.443 193.316 632.219 193.091 631.994 193.091C627.504 194.663 622.789 194.888 621.218 194.663Z" fill="#150035"/>
<path d="M620.544 201.175C607.074 201.175 594.277 198.031 584.398 192.418C572.499 185.457 566.662 175.801 568.907 165.921C570.927 158.736 574.969 148.631 581.479 139.425C581.928 138.751 582.602 138.751 583.276 138.976C583.949 139.201 584.174 140.099 583.949 140.772C583.5 142.12 583.276 143.467 583.5 144.814V145.039L583.276 145.263C580.357 150.652 577.887 156.715 576.091 163.002C573.173 172.658 577.663 180.068 590.46 186.804C601.012 192.418 608.645 193.316 621.218 193.541C623.014 193.541 627.28 193.541 631.321 191.969C631.994 191.744 632.668 191.969 632.892 192.418C633.117 192.867 633.117 193.541 632.668 193.99C629.525 197.807 625.708 201.175 620.544 201.175ZM581.255 143.691C576.091 151.775 572.948 160.308 570.927 166.371C568.907 174.903 574.295 183.885 585.296 190.172C594.95 195.786 607.298 198.705 620.32 198.705C623.463 198.705 626.157 197.133 628.627 195.112C625.483 195.786 622.34 195.786 620.993 195.786C608.196 195.561 600.114 194.663 589.113 188.825C575.418 181.415 570.478 173.107 573.622 162.329C575.418 156.041 578.112 149.979 581.03 144.365C581.255 144.365 581.255 143.916 581.255 143.691Z" fill="#150035"/>
<path d="M586.194 167.493C585.97 171.311 584.174 174.454 582.153 174.23C580.357 174.005 579.01 170.862 579.234 166.82C579.459 163.002 581.255 159.859 583.276 160.083C585.296 160.083 586.643 163.452 586.194 167.493Z" fill="white"/>
<path d="M582.378 175.352H582.153C579.684 175.128 577.888 171.535 578.337 166.82C578.786 162.104 581.031 158.736 583.5 158.961C585.97 159.185 587.766 162.778 587.317 167.493C587.092 169.514 586.643 171.535 585.745 172.882C584.847 174.454 583.725 175.352 582.378 175.352ZM583.276 161.206C582.378 161.206 580.806 163.451 580.582 167.044C580.357 170.637 581.48 173.107 582.378 173.107C582.827 173.107 583.5 172.658 583.949 171.76C584.623 170.637 585.072 169.065 585.296 167.269C585.521 163.676 584.174 161.206 583.276 161.206Z" fill="#150035"/>
<path d="M620.993 180.966C620.993 185.457 617.401 189.05 612.911 189.05C608.42 189.05 604.828 185.457 604.828 180.966C604.828 176.475 608.42 172.882 612.911 172.882C617.401 172.882 620.993 176.475 620.993 180.966Z" fill="white"/>
<path d="M612.911 190.172C607.747 190.172 603.706 185.906 603.706 180.966C603.706 178.496 604.604 176.251 606.4 174.454C608.196 172.658 610.441 171.76 612.911 171.76C617.85 171.76 622.116 176.026 621.891 180.966C621.891 183.436 620.993 185.682 619.197 187.478C617.626 189.05 615.381 190.172 612.911 190.172ZM612.911 173.781C611.115 173.781 609.319 174.454 607.972 175.802C606.625 177.149 605.951 178.945 605.951 180.742C605.951 184.559 609.094 187.703 612.911 187.703C614.932 187.703 616.503 187.029 617.85 185.682C619.197 184.334 619.871 182.538 619.871 180.742H620.993H619.871C619.871 177.149 616.728 174.005 612.911 173.781Z" fill="#150035"/>
<path d="M634.688 278.868L629.3 261.802C628.627 259.781 626.606 258.434 624.585 258.434C595.848 258.883 575.418 248.33 567.784 243.39C565.764 242.042 563.07 242.491 561.498 244.288L554.763 252.147C550.497 257.087 547.354 262.925 545.558 269.437C536.129 305.364 544.435 320.409 544.66 320.633C548.252 324.226 552.742 327.37 557.906 330.513C578.561 342.414 606.849 347.354 633.79 345.333C640.301 327.37 639.179 305.589 637.831 293.688C637.382 288.748 636.26 283.808 634.688 278.868Z" fill="#638AF2"/>
<path d="M621.218 346.905C597.195 346.905 574.52 341.516 557.233 331.412C552.069 328.492 547.579 325.124 543.762 321.532L543.538 321.307C543.089 320.633 535.006 305.364 544.436 269.437C546.007 263.15 549.375 256.862 553.865 251.698L560.6 243.839C562.621 241.593 565.764 241.144 568.458 242.716C575.867 247.207 596.073 257.985 624.81 257.536C627.504 257.536 629.749 259.108 630.647 261.578L636.036 278.643C637.607 283.583 638.73 288.748 639.179 293.688C640.526 305.364 641.648 327.594 634.913 345.782L634.689 346.456H634.015C629.749 346.905 625.484 346.905 621.218 346.905ZM545.334 320.184C548.926 323.552 553.416 326.921 558.355 329.615C578.112 341.067 605.278 346.232 632.892 344.211C639.179 326.472 638.056 304.915 636.709 293.688C636.26 288.748 635.138 284.032 633.566 279.092L628.178 262.027C627.729 260.455 626.157 259.557 624.586 259.557C595.399 260.006 574.744 249.228 567.111 244.512C565.54 243.614 563.519 243.839 562.172 245.186L555.437 253.045C551.171 257.985 548.028 263.823 546.456 269.886C537.925 303.343 544.66 318.612 545.334 320.184Z" fill="#150035"/>
<path d="M550.497 317.714C551.861 317.714 552.967 316.106 552.967 314.122C552.967 312.137 551.861 310.529 550.497 310.529C549.133 310.529 548.027 312.137 548.027 314.122C548.027 316.106 549.133 317.714 550.497 317.714Z" fill="white"/>
<path d="M550.497 318.837C548.477 318.837 546.905 316.816 546.905 314.122C546.905 311.427 548.477 309.406 550.497 309.406C552.518 309.406 554.09 311.427 554.09 314.122C554.09 316.816 552.518 318.837 550.497 318.837ZM550.497 311.652C549.824 311.652 549.15 312.774 549.15 314.122C549.15 315.469 549.824 316.592 550.497 316.592C551.171 316.592 551.845 315.469 551.845 314.122C551.845 312.774 551.171 311.652 550.497 311.652Z" fill="#150035"/>
<path d="M566.663 255.291C565.765 257.087 563.968 257.985 562.846 257.312C561.723 256.638 561.499 254.842 562.397 253.045C563.295 251.249 565.091 250.351 566.214 251.024C567.336 251.698 567.561 253.494 566.663 255.291Z" fill="white"/>
<path d="M563.519 258.659C563.07 258.659 562.621 258.659 562.172 258.434C561.274 257.985 560.601 257.087 560.601 255.74C560.376 254.617 560.825 253.494 561.274 252.596C561.723 251.473 562.621 250.8 563.519 250.126C564.642 249.677 565.764 249.452 566.662 250.126C568.459 251.024 568.908 253.719 567.561 255.964C567.111 257.087 566.213 257.761 565.315 258.434C564.642 258.434 564.193 258.659 563.519 258.659ZM565.315 251.922C565.091 251.922 564.866 252.147 564.642 252.147C564.193 252.372 563.519 253.045 563.295 253.494C562.846 254.168 562.846 254.842 562.846 255.515C562.846 255.74 563.07 256.189 563.295 256.413C563.744 256.638 564.193 256.413 564.193 256.189C564.642 255.964 565.315 255.291 565.54 254.842C566.213 253.494 565.989 252.372 565.54 252.147C565.54 251.922 565.315 251.922 565.315 251.922Z" fill="#150035"/>
<path d="M628.403 335.453C628.403 337.474 626.831 339.046 624.811 339.046C622.79 339.046 621.219 337.474 621.219 335.453C621.219 333.433 622.79 331.861 624.811 331.861C626.831 331.861 628.403 333.433 628.403 335.453Z" fill="white"/>
<path d="M624.81 340.169C622.116 340.169 620.096 338.148 620.096 335.453C620.096 332.759 622.116 330.738 624.81 330.738C627.504 330.738 629.525 332.759 629.525 335.453C629.525 337.923 627.504 340.169 624.81 340.169ZM624.81 332.983C623.463 332.983 622.341 334.106 622.341 335.453C622.341 336.801 623.463 337.923 624.81 337.923C626.157 337.923 627.28 336.801 627.28 335.453C627.28 334.106 626.157 332.983 624.81 332.983Z" fill="#150035"/>
<path d="M623.913 270.56C623.913 272.58 622.341 274.152 620.321 274.152C618.3 274.152 616.729 272.58 616.729 270.56C616.729 268.539 618.3 266.967 620.321 266.967C622.341 266.967 623.913 268.539 623.913 270.56Z" fill="white"/>
<path d="M620.32 275.275C617.626 275.275 615.605 273.254 615.605 270.56C615.605 267.865 617.626 265.844 620.32 265.844C623.014 265.844 625.035 267.865 625.035 270.56C625.035 273.03 623.014 275.275 620.32 275.275ZM620.32 268.09C618.973 268.09 617.851 269.212 617.851 270.56C617.851 271.907 618.973 273.03 620.32 273.03C621.667 273.03 622.79 271.907 622.79 270.56C622.79 269.212 621.667 268.09 620.32 268.09Z" fill="#150035"/>
<path d="M697.327 262.7C682.51 255.29 682.51 233.959 682.51 233.06H684.755C684.755 233.285 684.755 253.943 698.225 260.68L697.327 262.7Z" fill="#150035"/>
<path d="M684.755 228.345L682.51 228.121C682.51 227.896 683.183 220.262 687 214.872L688.796 216.22C685.428 221.16 684.755 228.345 684.755 228.345Z" fill="#150035"/>
<path d="M530.516 218.016C530.516 217.567 528.72 206.789 540.395 198.93L541.517 200.726C530.965 207.687 532.537 217.342 532.537 217.567L530.516 218.016Z" fill="#150035"/>
<path d="M622.341 141.895C608.421 141.895 605.054 132.689 604.829 132.464L606.85 131.791C607.074 132.24 610.442 140.997 625.259 139.65L625.484 141.895C624.361 141.895 623.239 141.895 622.341 141.895Z" fill="#150035"/>
<path d="M643.894 337.923L643.67 335.678C643.894 335.678 666.121 332.759 683.633 322.205L684.755 324.226C667.019 335.004 644.119 337.923 643.894 337.923Z" fill="#150035"/>
<path d="M702.267 306.711L700.92 304.915C700.92 304.915 704.512 301.996 706.084 295.484L708.329 295.933C706.533 303.568 702.491 306.711 702.267 306.711Z" fill="#150035"/>
<path d="M619.198 385.302C597.196 384.853 589.338 370.931 588.889 370.258L590.909 369.135C590.909 369.36 598.543 382.383 619.198 383.057V385.302Z" fill="#150035"/>
<path d="M620.545 429.762C608.87 429.762 602.584 422.128 602.359 421.903L604.155 420.556C604.38 421.005 610.891 428.864 623.688 427.517L623.912 429.762C622.565 429.538 621.443 429.762 620.545 429.762Z" fill="#150035"/>
<path d="M584.623 129.096L583.052 127.524C583.501 127.075 596.522 114.276 617.851 112.031L618.075 114.276C597.42 116.521 584.848 129.096 584.623 129.096Z" fill="#150035"/>
<path d="M649.732 390.916L648.609 388.895C648.834 388.895 663.652 379.689 670.162 364.869L672.183 365.767C665.448 381.261 650.405 390.467 649.732 390.916Z" fill="#150035"/>
<path d="M617.626 504.087C616.952 504.087 616.503 504.087 615.83 503.862C613.36 502.964 611.34 500.494 611.115 497.8C610.891 496.003 611.339 492.411 616.503 489.491C626.831 483.878 630.423 474.222 630.423 474.222L632.443 474.896C632.219 475.345 628.627 485.225 617.626 491.512C614.707 493.084 613.136 495.33 613.36 497.575C613.585 499.372 614.932 501.168 616.728 501.617C617.626 501.842 618.973 502.066 620.095 500.719L621.891 502.291C620.544 503.413 618.973 504.087 617.626 504.087Z" fill="#150035"/>
<path d="M625.259 502.515C624.586 500.719 623.688 499.371 622.341 498.922C620.545 498.024 618.749 498.698 618.749 498.698L618.075 496.677C618.075 496.677 620.769 495.779 623.463 496.901C625.259 497.8 626.606 499.371 627.505 501.841L625.259 502.515Z" fill="#150035"/>
<path d="M525.802 291.891L523.557 291.442C523.557 291.218 527.373 267.191 532.088 253.27L534.109 253.943C529.618 267.64 526.026 291.667 525.802 291.891Z" fill="#150035"/>
<path d="M638.506 116.072C634.241 114.501 624.138 114.276 623.913 114.276V112.031C624.362 112.031 634.465 112.255 639.18 114.051L638.506 116.072Z" fill="#150035"/>
<path d="M637.607 395.182L636.934 392.937C636.934 392.937 641.199 391.814 645.689 389.569L646.588 391.59C642.097 394.06 637.832 395.182 637.607 395.182Z" fill="#150035"/>
<path d="M591.807 315.469L591.583 312.774C591.358 311.202 590.236 309.855 588.664 309.631L580.357 308.059C578.786 307.834 577.214 308.508 576.765 309.855L575.643 312.325C574.969 313.672 573.622 314.346 572.051 314.121L567.111 312.999C564.866 312.55 563.519 310.08 564.642 308.059L580.582 275.949C581.255 274.601 582.827 273.928 584.174 274.152L594.726 275.724C596.298 275.949 597.42 277.072 597.869 278.643L604.604 316.142C605.053 318.388 603.033 320.409 600.563 319.96L595.4 318.837C593.379 318.388 592.032 317.041 591.807 315.469ZM585.746 299.751C587.991 300.2 590.011 298.403 589.787 296.158L589.562 293.463C589.338 291.891 589.113 289.871 588.889 287.176C588.664 284.706 587.542 284.257 586.644 286.278C585.97 287.85 584.848 290.769 583.051 294.586C581.929 296.831 583.501 299.302 585.746 299.751Z" fill="#150035"/>
</svg>
