<svg width="252" height="333" viewBox="0 0 252 333" fill="none" xmlns="http://www.w3.org/2000/svg">
<path d="M170.962 254.237L174.502 242.347C175.122 239.767 175.942 236.727 177.042 233.257C178.042 230.137 180.582 226.857 182.902 224.497C186.512 220.827 188.232 220.807 190.652 218.857C190.872 218.717 191.122 218.507 191.332 218.397C191.789 218.148 192.191 217.808 192.512 217.397C194.602 215.137 192.592 211.627 188.342 211.967C185.152 212.217 179.932 213.127 171.452 221.877C171.342 222.017 171.232 222.127 171.132 222.257C166.682 228.047 162.502 211.527 161.742 205.377C161.594 204.424 161.235 203.516 160.689 202.721C160.143 201.926 159.425 201.264 158.589 200.784C157.752 200.304 156.819 200.018 155.857 199.947C154.895 199.877 153.929 200.024 153.032 200.377L132.372 210.037C130.401 209.466 128.3 209.536 126.372 210.237C124.926 210.745 123.721 211.773 122.993 213.121C122.264 214.469 122.064 216.04 122.432 217.527L130.822 250.937L106.212 332.837H159.262L170.962 254.237Z" fill="#FFBE9D"/>
<path d="M211.762 179.017L195.362 211.157L187.162 208.877L145.962 242.407C144.28 243.783 142.128 244.448 139.964 244.261C137.799 244.075 135.793 243.051 134.372 241.407L118.672 223.177C118.672 223.177 150.322 209.547 156.172 198.267C162.022 186.987 155.262 184.417 155.262 184.417L170.152 167.497L211.762 179.017Z" fill="#799BF8"/>
<path d="M190.492 113.377C190.492 113.377 166.492 108.067 132.702 75.587C98.9118 43.107 83.0518 -0.0629526 78.9618 0.177047C74.8717 0.417047 56.7718 -7.99296 22.4318 66.697C-11.9082 141.387 1.62175 158.697 8.43175 158.597C15.2418 158.497 61.6518 145.527 90.6318 148.817C119.612 152.107 156.862 167.217 156.862 167.217L190.492 113.377Z" fill="#799BF8"/>
<path d="M241.482 154.087L233.292 169.657L229.622 176.657C227.199 181.265 223.101 184.767 218.172 186.442C213.243 188.117 207.86 187.836 203.132 185.657L151.682 167.727L181.682 99.3271L233.082 126.717C237.81 129.247 241.347 133.545 242.92 138.672C244.494 143.799 243.977 149.34 241.482 154.087Z" fill="#799BF8"/>
<g opacity="0.4">
<path opacity="0.4" d="M241.482 154.087L233.292 169.657L229.622 176.657C227.199 181.265 223.101 184.767 218.172 186.442C213.243 188.117 207.86 187.836 203.132 185.657L151.682 167.727L181.682 99.3271L233.082 126.717C237.81 129.247 241.347 133.545 242.92 138.672C244.494 143.799 243.977 149.34 241.482 154.087Z" fill="black"/>
</g>
<path d="M25.1717 68.0569C6.90167 108.517 -0.708333 144.577 8.17167 148.587C17.0517 152.597 39.0817 123.057 57.3517 82.5869C75.6217 42.1169 83.2317 6.07687 74.3517 2.05687C65.4717 -1.96313 43.4417 27.5969 25.1717 68.0569Z" fill="#799BF8"/>
<g opacity="0.5">
<path opacity="0.5" d="M25.1717 68.0569C6.90167 108.517 -0.708333 144.577 8.17167 148.587C17.0517 152.597 39.0817 123.057 57.3517 82.5869C75.6217 42.1169 83.2317 6.07687 74.3517 2.05687C65.4717 -1.96313 43.4417 27.5969 25.1717 68.0569Z" fill="black"/>
</g>
<path d="M245.902 176.597L231.952 172.217L240.582 155.807L251.042 162.307L245.902 176.597Z" fill="#799BF8"/>
<g opacity="0.6">
<path opacity="0.6" d="M240.582 155.807L231.952 172.217L234.822 173.117L241.832 156.587L240.582 155.807Z" fill="black"/>
</g>
<path d="M230.962 159.587C230.762 160.037 223.802 157.337 215.422 153.587C207.042 149.837 200.422 146.357 200.612 145.907C200.802 145.457 207.772 148.167 216.162 151.957C224.552 155.747 231.172 159.137 230.962 159.587Z" fill="#799BF8"/>
<path d="M235.262 149.817C235.042 150.257 228.742 147.607 221.192 143.887C213.642 140.167 207.702 136.797 207.922 136.347C208.142 135.897 214.432 138.557 221.982 142.277C229.532 145.997 235.482 149.367 235.262 149.817Z" fill="#799BF8"/>
<path d="M225.562 169.837C225.492 170.077 223.832 169.697 221.192 168.837C219.872 168.427 218.302 167.907 216.572 167.317C214.842 166.727 213.072 165.787 211.162 164.917C203.532 161.377 197.702 157.917 197.892 157.497C198.082 157.077 204.352 159.787 211.892 163.297C213.792 164.157 215.552 165.097 217.212 165.787C218.872 166.477 220.362 167.087 221.612 167.647C224.112 168.797 225.632 169.597 225.562 169.837Z" fill="#799BF8"/>
<path d="M62.4218 59.067C62.4218 59.067 41.5618 46.127 30.1518 74.317C18.7418 102.507 40.6818 107.137 40.6818 107.137C50.1562 92.2175 57.4752 76.0343 62.4218 59.067Z" fill="#799BF8"/>
<g opacity="0.5">
<path opacity="0.5" d="M84.612 25.4673C84.742 25.4673 84.442 27.4073 83.802 30.8573C83.162 34.3073 82.202 39.2973 80.862 45.4373L77.962 55.3073C77.4353 57.0739 76.892 58.904 76.332 60.7973L75.482 63.6673C75.172 64.6673 74.762 65.5773 74.402 66.5473L69.692 78.7073C69.282 79.7673 68.862 80.8273 68.452 81.8973C68.042 82.9673 67.452 83.9873 66.982 85.0473L63.882 91.4473L60.772 97.8373C60.242 98.8373 59.772 99.9573 59.202 100.937C58.632 101.917 58.032 102.937 57.462 103.887L50.812 115.117C50.272 115.997 49.812 116.907 49.212 117.747L47.482 120.197L44.162 124.877L38.162 133.247C34.162 138.077 30.822 141.887 28.522 144.537C27.3923 145.972 26.1446 147.31 24.792 148.537C25.7321 146.976 26.8026 145.498 27.992 144.117C30.212 141.287 33.342 137.327 37.182 132.457L42.932 124.027L46.152 119.337C46.712 118.537 47.272 117.717 47.842 116.887C48.412 116.057 48.842 115.147 49.392 114.257L55.962 103.037L57.672 100.097C58.262 99.0973 58.672 98.0973 59.222 97.0173L62.302 90.6673C63.302 88.5173 64.372 86.4073 65.392 84.3173C65.872 83.3173 66.452 82.2573 66.852 81.1973L68.102 78.0373L72.882 66.0373C73.252 65.0373 73.672 64.1473 73.992 63.1873C74.312 62.2273 74.582 61.2873 74.872 60.3473L76.572 54.9173L79.642 45.1673L83.112 30.7673C83.4601 28.9611 83.9619 27.188 84.612 25.4673Z" fill="black"/>
</g>
<g opacity="0.4">
<path opacity="0.4" d="M123.652 220.937C125.562 224.397 127.502 227.937 130.312 230.667C133.122 233.397 136.962 235.337 140.962 234.937C144.962 234.537 148.612 231.277 148.652 227.337C150.532 228.747 153.422 227.987 154.982 226.217C156.542 224.447 157.052 221.997 157.232 219.647C159.792 221.157 163.352 219.967 165.062 217.537C165.847 216.271 166.344 214.848 166.517 213.368C166.689 211.889 166.534 210.39 166.062 208.977C165.087 206.165 163.702 203.513 161.952 201.107C163.952 201.267 166.012 201.407 167.772 200.517C169.532 199.627 170.772 197.287 169.702 195.607C168.999 194.669 167.979 194.018 166.832 193.777C163.742 192.777 161.582 192.037 158.362 192.407C157.622 192.407 159.652 200.887 139.482 212.467C127.512 219.317 123.652 220.937 123.652 220.937Z" fill="black"/>
</g>
<path d="M169.072 233.137C169.072 233.227 167.722 232.967 165.542 233.027C162.709 233.095 159.923 233.764 157.368 234.989C154.813 236.215 152.547 237.97 150.722 240.137C149.312 241.797 148.722 243.007 148.592 242.957C148.675 242.645 148.806 242.348 148.982 242.077C149.41 241.315 149.895 240.587 150.432 239.897C152.229 237.616 154.526 235.777 157.146 234.522C159.765 233.267 162.637 232.629 165.542 232.657C166.414 232.663 167.284 232.743 168.142 232.897C168.464 232.922 168.778 233.003 169.072 233.137Z" fill="#EB996E"/>
<path d="M124.962 215.527C128.212 218.647 130.432 222.097 133.842 225.237C135.392 226.667 137.842 229.367 139.842 229.727C141.842 230.087 143.242 229.817 144.062 227.877C144.732 226.307 143.532 224.157 142.712 222.877C140.542 219.467 138.462 216.807 136.842 214.157C136.072 212.917 137.062 212.657 137.422 213.237C138.982 214.857 141.322 216.237 142.722 218.027C144.642 220.437 144.982 223.647 150.002 222.627C150.673 222.518 151.31 222.255 151.862 221.857C153.752 220.407 153.862 217.857 153.042 215.857C152.334 214.313 151.389 212.89 150.242 211.637C152.382 214.047 154.712 216.637 158.112 216.857C159.072 216.974 160.045 216.789 160.896 216.328C161.747 215.868 162.434 215.155 162.862 214.287C163.862 212.007 162.432 209.797 160.982 208.017C158.415 204.852 155.56 201.933 152.452 199.297C151.291 198.322 149.828 197.781 148.312 197.767C146.552 197.767 144.312 198.087 143.312 199.607C142.741 200.34 142.325 201.182 142.089 202.081C141.854 202.98 141.803 203.918 141.942 204.837C141.942 204.837 137.542 202.607 134.002 204.937C131.823 206.468 130.257 208.721 129.582 211.297L124.962 215.527Z" fill="#FFBE9D"/>
<path d="M148.412 196.807C147.708 195.99 147.272 194.977 147.161 193.904C147.05 192.832 147.27 191.751 147.792 190.807C148.542 189.337 149.482 187.907 150.442 187.587C154.632 186.177 172.952 189.347 172.782 193.407C172.612 197.467 171.272 199.407 161.342 197.977C159.592 197.727 156.852 197.387 156.852 197.387L154.452 200.987L148.412 196.807Z" fill="#FFBE9D"/>
<path d="M151.692 213.827C149.287 209.863 145.782 206.684 141.602 204.677C142.283 204.787 142.94 205.017 143.542 205.357C146.552 206.813 149.079 209.104 150.822 211.957C151.225 212.521 151.52 213.155 151.692 213.827Z" fill="#EB996E"/>
<path d="M154.772 201.337C154.682 201.417 153.472 200.437 151.822 199.427C151.132 198.99 150.417 198.592 149.682 198.237C149.112 197.977 148.732 197.907 148.742 197.827C148.752 197.747 149.172 197.707 149.802 197.897C150.613 198.158 151.386 198.524 152.102 198.987C153.792 200.017 154.902 201.227 154.772 201.337Z" fill="#EB996E"/>
<path d="M157.852 197.557C156.66 197.696 155.452 197.559 154.322 197.157C153.495 196.904 152.727 196.489 152.062 195.937C151.562 195.507 151.352 195.157 151.402 195.107C152.364 195.729 153.394 196.239 154.472 196.627C155.618 196.861 156.747 197.172 157.852 197.557Z" fill="#EB996E"/>
<path d="M140.052 218.857C139.42 218.195 138.861 217.467 138.382 216.687C137.24 214.84 135.797 213.197 134.112 211.827C132.366 210.55 130.201 209.978 128.052 210.227C127.17 210.385 126.313 210.657 125.502 211.037C125.502 211.037 125.682 210.827 126.092 210.577C126.676 210.223 127.32 209.979 127.992 209.857C129.111 209.677 130.256 209.72 131.358 209.987C132.46 210.253 133.498 210.736 134.412 211.407C136.152 212.806 137.605 214.527 138.692 216.477C139.211 217.231 139.666 218.027 140.052 218.857Z" fill="#EB996E"/>
<path d="M154.062 259.357C151.595 259.882 149.096 260.239 146.582 260.427C144.081 260.789 141.558 260.976 139.032 260.987C141.502 260.463 144.004 260.105 146.522 259.917C149.02 259.561 151.539 259.374 154.062 259.357Z" fill="#EB996E"/>
</svg>
