<svg width="683" height="503" viewBox="0 0 683 503" fill="none" xmlns="http://www.w3.org/2000/svg">
<path d="M151.616 187.445L24.2217 272.616L149.71 460.117L277.104 374.946L151.616 187.445Z" fill="#F5F5F5"/>
<path d="M254.246 417.599L252.77 426.45L189.534 417.372L190.897 408.408L254.246 417.599Z" fill="#E0E0E0"/>
<path d="M222.344 385.601L231.427 386.962L221.436 449.258L212.354 448.01L222.344 385.601Z" fill="#E0E0E0"/>
<path d="M121.136 254.895C121.25 255.009 108.421 263.746 92.6401 274.299C76.7459 284.851 63.917 293.362 63.8035 293.248C63.69 293.135 76.5188 284.398 92.2995 273.845C108.08 263.292 121.023 254.782 121.136 254.895Z" fill="#E0E0E0"/>
<path d="M167.91 243.208C168.024 243.321 146.794 257.732 120.455 275.207C94.2293 292.794 72.7722 306.865 72.6587 306.751C72.5451 306.638 93.7752 292.227 120.114 274.753C146.453 257.165 167.797 243.094 167.91 243.208Z" fill="#E0E0E0"/>
<path d="M177.334 257.278C177.448 257.392 156.218 271.802 129.879 289.277C103.653 306.865 82.196 320.935 82.0825 320.822C81.969 320.708 103.199 306.298 129.538 288.823C155.877 271.235 177.221 257.051 177.334 257.278Z" fill="#E0E0E0"/>
<path d="M186.757 271.235C186.871 271.348 165.64 285.759 139.301 303.234C113.076 320.822 91.6189 334.892 91.5053 334.778C91.3918 334.665 112.622 320.254 138.961 302.78C165.3 285.305 186.643 271.121 186.757 271.235Z" fill="#E0E0E0"/>
<path d="M196.067 285.305C196.18 285.419 174.95 299.83 148.611 317.304C122.386 334.892 100.928 348.963 100.815 348.849C100.701 348.736 121.931 334.325 148.27 316.85C174.609 299.262 195.953 285.192 196.067 285.305Z" fill="#E0E0E0"/>
<path d="M577.648 264.297L470.637 335.841L575.988 493.255L683 421.712L577.648 264.297Z" fill="#F5F5F5"/>
<path d="M627.707 414.394L626.458 421.883L573.326 414.167L574.575 406.678L627.707 414.394Z" fill="#E0E0E0"/>
<path d="M600.914 387.615L608.52 388.636L600.119 441.06L592.513 439.925L600.914 387.615Z" fill="#E0E0E0"/>
<path d="M551.983 321.009C552.096 321.122 541.311 328.498 528.028 337.349C514.745 346.199 503.846 353.348 503.732 353.234C503.619 353.121 514.404 345.745 527.687 336.895C540.97 328.044 551.869 320.895 551.983 321.009Z" fill="#E0E0E0"/>
<path d="M591.264 311.136C591.378 311.25 573.554 323.391 551.529 338.142C529.504 352.894 511.453 364.695 511.453 364.581C511.339 364.468 529.163 352.326 551.302 337.575C573.213 322.937 591.151 311.023 591.264 311.136Z" fill="#E0E0E0"/>
<path d="M599.211 322.938C599.324 323.051 581.5 335.193 559.475 349.944C537.45 364.695 519.399 376.496 519.399 376.382C519.285 376.269 537.11 364.128 559.248 349.376C581.159 334.739 599.097 322.824 599.211 322.938Z" fill="#E0E0E0"/>
<path d="M607.044 334.738C607.158 334.852 589.334 346.993 567.309 361.744C545.284 376.495 527.233 388.296 527.233 388.183C527.119 388.069 544.944 375.928 567.082 361.177C588.993 346.426 606.931 334.625 607.044 334.738Z" fill="#E0E0E0"/>
<path d="M614.992 346.54C615.105 346.653 597.281 358.794 575.256 373.546C553.231 388.297 535.18 400.098 535.18 399.984C535.067 399.871 552.891 387.729 575.029 372.978C596.941 358.227 614.878 346.426 614.992 346.54Z" fill="#E0E0E0"/>
<path d="M408.352 145.624L291.623 83.2283L199.694 255.029L316.423 317.424L408.352 145.624Z" fill="#F5F5F5"/>
<path d="M296.427 263.706L289.047 266.202L270.201 214.232L277.694 211.736L296.427 263.706Z" fill="#E0E0E0"/>
<path d="M307.78 226.374L310.505 233.863L258.848 251.564L256.237 244.075L307.78 226.374Z" fill="#E0E0E0"/>
<path d="M344.45 149.781C344.336 150.008 332.529 143.767 317.997 136.051C303.466 128.335 291.772 121.867 291.886 121.64C291.999 121.413 303.806 127.654 318.338 135.37C332.87 143.2 344.564 149.554 344.45 149.781Z" fill="#E0E0E0"/>
<path d="M372.492 180.645C372.378 180.872 352.851 170.546 328.783 157.611C304.714 144.788 285.301 134.122 285.301 134.009C285.414 133.782 304.941 144.108 329.01 157.043C353.078 169.979 372.605 180.532 372.492 180.645Z" fill="#E0E0E0"/>
<path d="M365.566 193.581C365.453 193.808 345.925 183.482 321.857 170.546C297.789 157.724 278.375 147.058 278.375 146.944C278.489 146.717 298.016 157.043 322.084 169.979C346.266 182.801 365.68 193.354 365.566 193.581Z" fill="#E0E0E0"/>
<path d="M358.755 206.403C358.641 206.63 339.114 196.304 315.045 183.368C290.977 170.546 271.563 159.88 271.563 159.766C271.677 159.54 291.204 169.865 315.273 182.801C339.341 195.623 358.868 206.176 358.755 206.403Z" fill="#E0E0E0"/>
<path d="M351.83 219.225C351.716 219.452 332.189 209.126 308.121 196.191C284.052 183.368 264.639 172.702 264.639 172.589C264.752 172.362 284.279 182.688 308.348 195.623C332.53 208.559 351.943 219.112 351.83 219.225Z" fill="#E0E0E0"/>
<path opacity="0.2" d="M352.51 0.00012207H349.559V49.9272H352.51V0.00012207Z" fill="black"/>
<path d="M282.576 110.293H419.38C419.38 110.293 406.778 49.9271 350.013 49.9271C299.492 49.9271 282.576 110.293 282.576 110.293Z" fill="#638AF2"/>
<path d="M352.51 0.00012207H349.559V49.9272H352.51V0.00012207Z" fill="#638AF2"/>
<path d="M655.522 499.044C655.522 499.157 508.728 499.384 327.761 499.384C146.681 499.384 0 499.271 0 499.044C0 498.93 146.681 498.703 327.761 498.703C508.728 498.817 655.522 498.93 655.522 499.044Z" fill="#263238"/>
<path d="M36.3291 428.011C40.1891 428.124 43.8221 430.28 46.3197 433.117C48.8174 435.954 50.4068 439.585 51.4286 443.329C53.3586 450.478 52.2233 458.988 50.0662 466.137C42.3462 463.413 37.4644 455.13 35.3073 450.705C31.9014 443.783 29.8579 429.259 36.3291 428.011Z" fill="#3D6DCC"/>
<path d="M61.1923 474.874C58.6946 471.356 58.6946 466.477 60.6246 462.619C62.5546 458.761 66.3011 456.038 70.3882 454.789C72.3182 454.222 74.4753 453.995 76.1782 455.016C77.7676 456.038 78.3353 458.08 78.2217 459.896C77.9947 461.711 77.0864 463.413 75.9511 464.888C72.2047 469.995 67.5499 474.306 61.1923 474.874Z" fill="#3D6DCC"/>
<path d="M62.1003 498.816C62.1003 498.816 61.9868 498.249 61.7597 497.341C61.5327 496.32 61.3056 494.958 60.965 493.256C60.3974 489.852 59.3756 484.973 60.1703 479.526C60.8515 474.193 63.0086 469.541 65.2792 466.818C66.4145 465.456 67.4362 464.435 68.2309 463.867C68.5715 463.527 68.9121 463.3 69.1392 463.187C69.3662 463.073 69.4798 462.96 69.4798 462.96C69.5933 463.073 67.6633 464.208 65.5062 467.045C63.3492 469.768 61.3056 474.307 60.6244 479.64C59.9432 484.973 60.8515 489.739 61.3056 493.256C61.5327 494.958 61.7597 496.434 61.9868 497.341C62.1003 498.249 62.1003 498.816 62.1003 498.816Z" fill="#263238"/>
<path d="M38.8271 438.904C38.8271 438.904 38.9407 439.131 39.1677 439.472C39.3948 439.925 39.6219 440.493 39.9624 441.174C40.6436 442.649 41.6654 444.918 42.8007 447.641C45.1848 453.088 48.2501 460.577 51.5425 469.087C54.8349 477.484 57.5596 485.2 59.4896 490.76C60.5114 493.597 61.1925 495.866 61.7602 497.455C61.9873 498.249 62.2143 498.817 62.3278 499.271C62.4414 499.724 62.5549 499.951 62.4414 499.951C62.4414 499.951 62.3279 499.724 62.2143 499.384C61.9873 498.93 61.8737 498.363 61.5331 497.569C60.9655 495.98 60.1708 493.711 59.149 490.987C57.1055 485.427 54.2672 477.825 50.9748 469.314C47.6825 460.918 44.6172 453.315 42.3466 447.868C41.2113 445.145 40.303 442.989 39.7354 441.401C39.3948 440.72 39.1677 440.039 39.0542 439.585C38.8271 439.131 38.8271 438.904 38.8271 438.904Z" fill="#263238"/>
<path d="M52.9047 482.931C48.3635 475.101 39.7352 469.768 30.7664 469.201C28.4958 469.087 25.6575 469.428 24.6357 471.47C23.614 473.513 24.9763 476.009 26.5658 477.711C33.037 484.746 44.0494 487.243 53.0182 483.612" fill="#3D6DCC"/>
<path d="M34.1729 475.328C34.1729 475.328 34.7405 475.328 35.6487 475.328C36.1029 475.328 36.6705 475.442 37.3517 475.555C38.0329 475.669 38.714 475.782 39.5088 476.009C40.3035 476.236 41.2117 476.349 42.1199 476.69C43.0282 476.917 44.05 477.371 45.0717 477.824C47.1153 478.732 49.1588 479.867 51.2023 481.456C53.2459 483.044 54.9488 484.746 56.3112 486.448C56.9924 487.356 57.56 488.15 58.1277 489.058C58.6953 489.852 59.0359 490.647 59.49 491.441C59.9441 492.122 60.1712 492.916 60.3983 493.483C60.6253 494.051 60.8524 494.618 60.9659 495.072C61.193 495.98 61.42 496.434 61.3065 496.434C61.193 496.434 60.6253 494.505 59.1494 491.554C58.6953 490.874 58.3547 490.079 57.7871 489.285C57.333 488.491 56.6518 487.696 55.9706 486.789C54.6082 485.087 52.9053 483.385 50.9753 481.909C48.9317 480.434 46.8882 479.186 44.9582 478.278C43.9364 477.824 43.0282 477.484 42.1199 477.144C41.2117 476.803 40.3035 476.576 39.5088 476.349C36.2164 475.555 34.1729 475.442 34.1729 475.328Z" fill="#263238"/>
<path d="M549.599 119.711C546.306 120.506 544.603 124.364 544.263 127.768C543.922 131.172 544.376 134.803 542.9 137.867C541.311 141.384 537.451 143.994 537.337 147.852C537.224 150.235 538.7 152.391 538.586 154.774C538.473 158.632 534.499 161.582 534.386 165.44C534.272 168.163 536.088 170.887 535.634 173.61C535.294 175.766 533.591 177.468 532.91 179.51C531.547 183.595 534.272 188.021 537.905 190.404C541.992 193.013 547.214 193.581 551.756 192.106C556.297 190.631 560.157 187.113 561.973 182.688C564.017 177.808 563.563 172.248 563.109 167.029C561.746 150.575 560.724 134.122 560.043 117.556" fill="#263238"/>
<path d="M539.835 177.809C539.721 177.695 540.743 177.468 541.311 175.993C541.651 175.312 541.765 174.291 541.651 173.27C541.651 172.135 541.197 171 540.857 169.639C540.516 168.277 539.948 166.689 540.289 164.987C540.63 163.171 541.878 161.809 543.014 160.334C543.581 159.653 544.149 158.859 544.603 157.951C544.944 157.157 545.057 156.136 544.83 155.228C544.263 153.413 542.446 152.051 541.538 149.895C541.084 148.874 541.084 147.626 541.311 146.604C541.538 145.583 541.992 144.562 542.446 143.654C543.354 141.839 544.263 140.136 544.717 138.321C545.511 134.69 545.171 131.286 545.738 128.449C546.193 125.612 547.441 123.456 548.577 122.435C549.144 121.868 549.712 121.527 550.053 121.414C550.393 121.3 550.62 121.187 550.62 121.187C550.62 121.3 549.825 121.527 548.69 122.662C547.555 123.797 546.533 125.839 546.079 128.562C545.852 129.924 545.852 131.513 545.738 133.101C545.625 134.803 545.625 136.619 545.171 138.434C544.83 140.363 543.808 142.065 542.9 143.881C541.992 145.697 541.311 147.739 541.992 149.668C542.673 151.597 544.49 152.959 545.284 155.115C545.625 156.136 545.511 157.271 545.057 158.178C544.603 159.086 544.036 159.88 543.468 160.675C542.333 162.15 541.084 163.511 540.857 165.1C540.516 166.689 540.97 168.164 541.424 169.525C541.765 170.887 542.219 172.135 542.219 173.27C542.219 174.405 542.106 175.426 541.765 176.107C541.424 176.901 540.97 177.355 540.63 177.582C540.062 177.695 539.835 177.809 539.835 177.809Z" fill="#455A64"/>
<path d="M530.979 204.701L520.761 234.203L478.074 236.472L470.922 252.358L515.539 256.897C524.394 260.528 534.612 256.103 537.904 247.025L549.825 213.778L530.979 204.701Z" fill="#B78876"/>
<path d="M619.306 483.044C619.306 483.044 587.972 383.644 587.29 380.354C586.723 377.403 598.643 305.917 600.119 287.421L557.773 289.01C557.773 289.01 557.773 289.123 557.773 289.35L539.835 290.371L556.07 493.597H575.597L573.667 426.082C585.701 458.308 602.844 491.101 602.844 491.101L619.306 483.044Z" fill="#B78876"/>
<path d="M574.348 450.365C574.348 449.797 574.121 427.784 574.121 427.784C573.894 429.146 566.628 408.721 566.855 407.473C566.968 406.792 574.348 450.365 574.348 450.365Z" fill="#A36957"/>
<path d="M565.947 397.714C565.947 397.714 565.834 398.168 565.834 398.962C565.834 399.757 565.834 400.891 565.834 402.366C565.834 403.047 565.948 403.842 566.061 404.636C566.175 405.43 566.288 406.338 566.515 407.246C566.856 409.061 567.423 411.104 568.105 413.146C569.467 417.231 571.056 420.862 572.192 423.472C572.759 424.607 573.213 425.741 573.554 426.536C573.895 427.216 574.122 427.67 574.122 427.67C574.122 427.67 574.008 427.216 573.781 426.536C573.554 425.741 573.1 424.72 572.646 423.358C571.624 420.749 570.148 417.118 568.786 413.033C568.105 410.99 567.537 409.061 567.196 407.246C566.969 406.338 566.856 405.43 566.742 404.636C566.629 403.842 566.515 403.047 566.515 402.366C566.402 401.005 566.288 399.87 566.288 399.076C566.061 398.168 566.061 397.714 565.947 397.714Z" fill="#A36957"/>
<path d="M555.616 494.618V492.803L575.597 491.895V499.384L574.348 499.497C568.899 499.838 546.533 500.745 542.787 499.611C538.813 498.476 555.616 494.618 555.616 494.618Z" fill="#455A64"/>
<path d="M575.937 499.043C575.937 499.043 575.824 499.043 575.597 499.043C575.256 499.043 575.029 499.043 574.575 499.157C573.553 499.157 572.418 499.27 570.942 499.27C567.877 499.384 563.676 499.497 559.021 499.497C554.367 499.497 550.166 499.497 547.101 499.384C545.625 499.384 544.49 499.27 543.468 499.27C543.127 499.27 542.787 499.27 542.446 499.27C542.219 499.27 542.105 499.27 542.105 499.27C542.105 499.27 542.219 499.27 542.446 499.27C542.787 499.27 543.014 499.27 543.468 499.27C544.49 499.27 545.625 499.27 547.101 499.384C550.166 499.384 554.367 499.497 559.021 499.497C563.676 499.497 567.877 499.384 570.942 499.27C572.418 499.27 573.553 499.157 574.575 499.157C574.916 499.157 575.256 499.157 575.597 499.157C575.824 499.043 575.937 499.043 575.937 499.043Z" fill="#263238"/>
<path d="M549.144 499.611C549.03 499.611 549.03 498.703 548.463 497.909C547.895 497.001 547.214 496.547 547.214 496.547C547.214 496.433 548.122 496.887 548.69 497.795C549.257 498.703 549.257 499.724 549.144 499.611Z" fill="#263238"/>
<path d="M555.048 496.661C555.048 496.661 554.708 496.32 554.367 495.866C554.027 495.412 553.913 494.958 553.913 494.958C553.913 494.958 554.254 495.299 554.594 495.753C554.935 496.207 555.048 496.661 555.048 496.661Z" fill="#263238"/>
<path d="M556.637 495.866C556.637 495.866 556.297 495.752 555.956 495.412C555.616 495.072 555.389 494.845 555.389 494.731C555.389 494.731 555.729 494.845 556.07 495.185C556.41 495.525 556.637 495.752 556.637 495.866Z" fill="#263238"/>
<path d="M557.659 493.937C557.659 494.05 557.205 494.05 556.637 494.05C556.069 494.05 555.615 494.05 555.615 493.937C555.615 493.823 556.069 493.823 556.637 493.823C557.205 493.823 557.659 493.823 557.659 493.937Z" fill="#263238"/>
<path d="M557.999 492.575C557.999 492.689 557.545 492.916 556.864 492.916C556.183 492.916 555.615 492.802 555.615 492.802C555.615 492.689 556.183 492.802 556.751 492.689C557.432 492.689 557.999 492.575 557.999 492.575Z" fill="#263238"/>
<path d="M554.367 494.958C554.367 494.958 553.913 495.072 553.118 494.958C552.777 494.958 552.21 494.845 551.755 494.618C551.528 494.504 551.301 494.504 550.961 494.277C550.847 494.164 550.734 494.051 550.62 493.937C550.62 493.71 550.62 493.483 550.847 493.483C552.096 492.802 553.231 493.483 553.685 494.164C553.913 494.504 554.026 494.845 554.14 494.958C554.14 495.185 554.14 495.299 554.14 495.299C554.14 495.299 554.026 494.845 553.572 494.164C553.345 493.824 553.004 493.597 552.437 493.483C551.983 493.37 551.301 493.37 550.961 493.597C550.734 493.71 550.847 493.937 551.074 494.164C551.301 494.277 551.528 494.391 551.755 494.504C552.21 494.618 552.664 494.731 553.118 494.845C553.913 494.958 554.367 494.845 554.367 494.958Z" fill="#263238"/>
<path d="M554.026 494.958C554.026 494.958 553.799 494.618 553.913 494.051C553.913 493.824 554.026 493.483 554.253 493.143C554.48 492.916 554.821 492.462 555.275 492.462C555.616 492.462 555.729 492.802 555.616 493.029C555.616 493.256 555.502 493.483 555.388 493.597C555.161 493.937 554.934 494.164 554.821 494.391C554.48 494.845 554.14 494.958 554.026 494.958C554.14 494.958 554.367 494.731 554.707 494.278C554.934 494.051 555.048 493.824 555.275 493.483C555.502 493.256 555.616 492.689 555.275 492.689C554.934 492.689 554.594 493.029 554.48 493.256C554.253 493.483 554.14 493.824 554.14 494.051C553.913 494.618 554.026 494.958 554.026 494.958Z" fill="#263238"/>
<path d="M575.483 493.596C575.483 493.596 574.916 493.596 574.007 493.71C573.099 493.823 571.85 494.164 570.828 495.072C569.807 495.979 569.126 497.114 568.785 497.908C568.444 498.816 568.444 499.383 568.444 499.27C568.444 499.27 568.444 499.156 568.444 498.816C568.444 498.589 568.558 498.135 568.671 497.795C568.898 496.887 569.58 495.752 570.715 494.845C571.85 493.937 573.099 493.596 574.007 493.483C574.461 493.483 574.802 493.483 575.143 493.483C575.37 493.483 575.483 493.596 575.483 493.596Z" fill="#263238"/>
<path d="M565.947 497.455C565.947 497.568 564.698 497.682 562.995 497.682C561.405 497.682 560.043 497.455 560.043 497.455C560.043 497.341 561.292 497.455 562.995 497.455C564.584 497.455 565.947 497.341 565.947 497.455Z" fill="#263238"/>
<path d="M569.807 497.341C569.807 497.341 569.693 497.568 569.58 497.909C569.466 498.249 569.353 498.476 569.353 498.476C569.239 498.476 569.239 498.136 569.353 497.795C569.58 497.568 569.807 497.341 569.807 497.341Z" fill="#263238"/>
<path d="M571.283 495.526C571.283 495.526 571.169 495.753 570.942 495.979C570.715 496.206 570.488 496.32 570.488 496.32C570.488 496.32 570.602 496.093 570.829 495.866C571.056 495.639 571.283 495.526 571.283 495.526Z" fill="#263238"/>
<path d="M573.44 494.732C573.44 494.845 573.213 494.845 572.872 494.845C572.532 494.959 572.418 495.072 572.305 495.072C572.305 495.072 572.418 494.732 572.759 494.618C573.099 494.505 573.44 494.618 573.44 494.732Z" fill="#263238"/>
<path d="M574.915 494.277C574.915 494.391 574.802 494.391 574.688 494.504C574.575 494.618 574.348 494.618 574.348 494.504C574.348 494.391 574.461 494.391 574.575 494.277C574.688 494.277 574.802 494.277 574.915 494.277Z" fill="#263238"/>
<path d="M602.39 492.916L601.595 491.214L619.419 482.25L622.598 489.058L621.463 489.625C616.581 492.121 596.6 502.22 592.74 502.674C588.539 503.242 602.39 492.916 602.39 492.916Z" fill="#455A64"/>
<path d="M622.712 488.604C622.712 488.604 622.598 488.717 622.371 488.83C622.144 488.944 621.803 489.171 621.463 489.284C620.555 489.738 619.533 490.306 618.284 490.873C615.559 492.235 611.813 494.05 607.499 495.979C603.298 497.908 599.438 499.61 596.6 500.745C595.237 501.312 594.216 501.766 593.307 502.106C592.967 502.22 592.626 502.333 592.399 502.447C592.172 502.56 592.059 502.56 592.059 502.56C592.059 502.56 592.172 502.447 592.399 502.447C592.626 502.333 592.967 502.22 593.307 502.106C594.216 501.766 595.351 501.199 596.6 500.631C599.438 499.383 603.298 497.795 607.499 495.866C611.699 493.937 615.559 492.121 618.284 490.873C619.533 490.306 620.668 489.738 621.576 489.284C621.917 489.171 622.144 488.944 622.485 488.83C622.598 488.603 622.712 488.604 622.712 488.604Z" fill="#263238"/>
<path d="M598.529 500.064C598.416 500.064 598.075 499.384 597.167 498.816C596.372 498.249 595.464 498.135 595.464 498.022C595.464 497.908 596.372 497.908 597.28 498.589C598.302 499.27 598.643 500.064 598.529 500.064Z" fill="#263238"/>
<path d="M602.616 494.958C602.616 494.958 602.162 494.844 601.708 494.504C601.254 494.164 600.913 493.937 600.913 493.823C600.913 493.823 601.367 493.937 601.821 494.277C602.389 494.618 602.73 494.958 602.616 494.958Z" fill="#263238"/>
<path d="M603.751 493.596C603.751 493.71 603.411 493.596 602.957 493.483C602.503 493.369 602.162 493.142 602.162 493.142C602.162 493.029 602.503 493.142 602.957 493.256C603.411 493.369 603.751 493.483 603.751 493.596Z" fill="#263238"/>
<path d="M603.866 491.44C603.866 491.554 603.525 491.781 602.957 492.008C602.39 492.235 602.049 492.348 601.936 492.348C601.936 492.235 602.276 492.008 602.844 491.781C603.411 491.554 603.866 491.327 603.866 491.44Z" fill="#263238"/>
<path d="M603.638 490.078C603.638 490.078 603.298 490.532 602.73 490.873C602.162 491.213 601.595 491.327 601.595 491.213C601.595 491.1 602.049 490.986 602.616 490.646C603.184 490.305 603.638 490.078 603.638 490.078Z" fill="#263238"/>
<path d="M601.368 493.71C601.368 493.71 600.914 493.936 600.232 494.277C599.892 494.39 599.438 494.504 598.87 494.617C598.643 494.617 598.302 494.731 598.075 494.617C597.962 494.617 597.735 494.504 597.621 494.39C597.508 494.277 597.508 494.05 597.621 493.823C598.416 492.688 599.892 492.915 600.573 493.256C600.914 493.483 601.141 493.71 601.254 493.823C601.368 494.05 601.481 494.163 601.481 494.163C601.481 494.163 601.141 493.71 600.46 493.369C600.119 493.256 599.665 493.142 599.211 493.142C598.757 493.256 598.189 493.483 597.848 493.823C597.735 494.05 597.848 494.277 598.189 494.277C598.416 494.277 598.757 494.277 598.984 494.277C599.438 494.277 599.892 494.163 600.346 494.05C600.914 493.823 601.254 493.596 601.368 493.71Z" fill="#263238"/>
<path d="M601.028 493.823C601.028 493.823 600.687 493.596 600.573 493.028C600.46 492.802 600.46 492.461 600.46 492.007C600.573 491.667 600.687 491.213 601.141 490.986C601.482 490.873 602.049 491.44 602.163 491.667C602.277 491.894 601.822 491.78 601.822 491.894C601.822 492.234 601.709 492.575 601.595 492.801C601.368 493.596 601.141 493.823 601.028 493.823C601.028 493.709 601.255 493.482 601.368 492.915C601.482 492.688 601.482 492.348 601.595 492.007C601.595 491.667 601.595 491.213 601.255 491.326C600.914 491.44 600.801 491.894 600.687 492.121C600.574 492.461 600.687 492.802 600.687 493.028C600.801 493.596 601.141 493.823 601.028 493.823Z" fill="#263238"/>
<path d="M620.1 483.838C620.1 483.838 619.533 484.065 618.738 484.519C617.943 484.973 617.035 485.767 616.354 487.016C615.786 488.264 615.673 489.512 615.673 490.42C615.786 491.327 616.013 491.895 615.9 491.895C615.9 491.895 615.786 491.781 615.786 491.554C615.673 491.327 615.559 490.987 615.559 490.533C615.446 489.625 615.559 488.264 616.127 487.016C616.808 485.767 617.83 484.86 618.624 484.406C619.079 484.179 619.419 484.065 619.646 483.952C619.873 483.838 620.1 483.838 620.1 483.838Z" fill="#263238"/>
<path d="M612.948 491.214C612.948 491.214 611.926 492.008 610.45 492.689C608.974 493.37 607.726 493.71 607.726 493.71C607.726 493.597 608.974 493.143 610.337 492.575C611.699 491.781 612.834 491.1 612.948 491.214Z" fill="#263238"/>
<path d="M616.467 489.625C616.581 489.625 616.467 489.965 616.467 490.192C616.467 490.533 616.467 490.76 616.467 490.76C616.354 490.76 616.24 490.533 616.24 490.192C616.24 489.852 616.354 489.511 616.467 489.625Z" fill="#263238"/>
<path d="M617.034 487.355C617.148 487.355 617.034 487.582 616.921 487.922C616.807 488.149 616.694 488.376 616.58 488.376C616.467 488.376 616.58 488.149 616.694 487.809C616.807 487.468 616.921 487.241 617.034 487.355Z" fill="#263238"/>
<path d="M618.625 485.653C618.625 485.767 618.398 485.88 618.17 485.993C617.943 486.22 617.83 486.447 617.716 486.447C617.603 486.447 617.716 486.107 617.943 485.88C618.284 485.653 618.625 485.653 618.625 485.653Z" fill="#263238"/>
<path d="M619.76 484.746C619.76 484.746 619.76 484.972 619.646 485.086C619.533 485.199 619.419 485.313 619.306 485.199C619.306 485.199 619.306 484.972 619.419 484.859C619.646 484.745 619.76 484.632 619.76 484.746Z" fill="#263238"/>
<path d="M597.508 253.72L594.216 213.211L611.245 213.551C611.245 213.551 612.04 207.538 609.542 194.488C607.953 186.432 602.617 181.553 596.6 178.603V178.489L596.032 178.376C588.426 174.858 580.365 174.291 580.365 174.291L559.476 174.518C559.476 174.518 543.468 172.475 534.613 183.936C531.207 188.361 520.648 218.431 520.648 218.431L545.739 230.572L543.354 213.892C543.354 213.892 543.809 225.92 545.398 229.778C546.306 231.934 548.69 238.515 548.69 238.515L548.35 258.486L597.508 253.72Z" fill="#638AF2"/>
<path d="M585.928 207.424L582.749 220.587H612.153L610.223 198.46L585.928 207.424Z" fill="#638AF2"/>
<path d="M612.154 220.587C612.154 220.473 610.678 220.36 608.294 220.246C605.91 220.133 602.617 220.019 598.871 220.019C595.238 220.019 591.832 220.246 589.448 220.36C587.064 220.587 585.588 220.7 585.588 220.814C585.588 220.927 587.064 220.814 589.448 220.814C591.832 220.7 595.124 220.7 598.871 220.587C602.504 220.587 605.796 220.587 608.294 220.587C610.678 220.7 612.154 220.7 612.154 220.587Z" fill="#263238"/>
<path d="M584.679 198.347C584.565 198.347 584.565 199.595 584.565 201.751C584.565 203.793 584.679 206.743 584.792 209.807C584.906 212.984 585.019 215.821 585.247 217.863C585.36 219.906 585.474 221.268 585.587 221.268C585.701 221.268 585.701 220.019 585.701 217.863C585.701 215.821 585.587 212.871 585.474 209.807C585.36 206.63 585.247 203.793 585.019 201.751C584.906 199.595 584.792 198.347 584.679 198.347Z" fill="#263238"/>
<g opacity="0.3">
<path opacity="0.3" d="M558 209.807C558 209.807 564.471 258.145 582.863 256.784C582.863 256.784 591.151 256.67 593.762 251.224V249.068L558 209.807Z" fill="black"/>
</g>
<g opacity="0.3">
<path opacity="0.3" d="M584.68 201.183L581.16 224.785L583.431 228.984L587.177 220.814H585.588L584.68 201.183Z" fill="black"/>
</g>
<path d="M548.804 238.515C548.804 238.515 548.577 238.175 548.35 237.381C548.009 236.586 547.669 235.565 547.215 234.203C546.306 231.48 545.285 227.736 544.376 223.537C543.582 219.339 543.127 215.367 543.014 212.53C542.9 211.169 542.9 209.921 542.9 209.126C542.9 208.332 542.9 207.878 543.014 207.878C543.127 207.878 543.127 209.58 543.468 212.417C543.695 215.254 544.149 219.112 545.058 223.31C545.852 227.509 546.874 231.253 547.669 233.976C548.009 235.225 548.35 236.359 548.577 237.154C548.69 238.061 548.804 238.402 548.804 238.515Z" fill="#263238"/>
<path d="M556.184 252.358C556.07 252.358 555.616 251.337 555.162 249.976C554.708 248.614 554.594 247.479 554.708 247.479C554.821 247.479 555.276 248.5 555.73 249.862C556.184 251.224 556.297 252.358 556.184 252.358Z" fill="#263238"/>
<path d="M558.681 252.132C558.568 252.132 558 250.657 558 248.614C558 246.572 558.454 244.983 558.568 245.097C558.681 245.097 558.568 246.685 558.568 248.614C558.681 250.543 558.908 252.132 558.681 252.132Z" fill="#263238"/>
<path d="M546.307 231.026C546.193 231.139 540.403 228.416 533.251 224.785C526.098 221.268 520.422 218.204 520.422 218.09C520.535 217.977 526.325 220.7 533.478 224.331C540.63 227.849 546.42 230.913 546.307 231.026Z" fill="#263238"/>
<path d="M556.638 178.489C556.751 172.702 556.751 166.688 556.751 166.688C556.751 166.688 549.372 165.213 548.123 155.568C546.874 146.377 550.28 124.704 550.28 124.704C561.065 120.619 572.191 124.364 579.571 132.988L577.754 179.624C577.527 185.071 572.759 189.156 566.969 188.929C561.179 188.588 556.524 183.936 556.638 178.489Z" fill="#B78876"/>
<path d="M549.826 141.951C549.826 142.632 550.28 143.199 550.961 143.199C551.643 143.199 552.21 142.746 552.21 142.065C552.21 141.384 551.756 140.817 551.075 140.817C550.394 140.817 549.826 141.27 549.826 141.951Z" fill="#263238"/>
<path d="M549.372 140.363C549.486 140.476 550.507 139.909 551.756 139.909C553.119 139.909 554.027 140.59 554.14 140.476C554.254 140.363 554.027 140.136 553.686 139.796C553.232 139.455 552.551 139.115 551.756 139.115C550.961 139.115 550.167 139.342 549.826 139.682C549.372 139.909 549.258 140.249 549.372 140.363Z" fill="#263238"/>
<path d="M563.336 142.746C563.336 143.427 563.79 143.995 564.471 143.995C565.152 143.995 565.72 143.541 565.72 142.86C565.72 142.179 565.266 141.612 564.585 141.612C563.904 141.612 563.336 142.179 563.336 142.746Z" fill="#263238"/>
<path d="M563.222 141.157C563.335 141.271 564.357 140.703 565.606 140.703C566.968 140.703 567.877 141.384 567.99 141.271C568.104 141.157 567.877 140.93 567.536 140.59C567.082 140.25 566.401 139.909 565.606 139.909C564.811 139.909 564.017 140.136 563.676 140.477C563.335 140.817 563.108 141.044 563.222 141.157Z" fill="#263238"/>
<path d="M558.114 150.916C558.114 150.802 557.319 150.689 555.957 150.462C555.616 150.462 555.275 150.349 555.275 150.122C555.162 149.895 555.389 149.554 555.502 149.1C555.843 148.306 556.184 147.398 556.524 146.491C558 142.859 559.135 139.796 558.908 139.796C558.795 139.682 557.432 142.633 555.957 146.264C555.616 147.171 555.275 147.966 554.935 148.873C554.821 149.214 554.594 149.668 554.708 150.235C554.821 150.462 555.048 150.689 555.275 150.802C555.502 150.916 555.729 150.916 555.843 150.916C557.319 150.916 558.114 151.029 558.114 150.916Z" fill="#263238"/>
<path d="M556.751 166.688C556.751 166.688 563.222 167.256 569.807 163.625C569.807 163.625 566.515 170.206 556.864 169.071L556.751 166.688Z" fill="#A36957"/>
<path d="M567.423 137.299C567.196 137.753 566.174 137.526 565.039 137.299C563.904 137.072 562.882 136.845 562.769 136.392C562.655 135.938 563.79 135.257 565.38 135.597C566.856 135.938 567.764 136.959 567.423 137.299Z" fill="#263238"/>
<path d="M554.254 135.37C554.14 135.824 553.118 136.051 551.87 136.051C550.621 136.051 549.485 136.051 549.372 135.597C549.258 135.143 550.28 134.349 551.756 134.349C553.232 134.235 554.367 134.916 554.254 135.37Z" fill="#263238"/>
<path d="M558.113 154.093C557.886 153.979 557.546 154.206 557.432 154.433C557.319 154.774 557.319 155.114 557.659 155.341C557.886 155.568 558.34 155.568 558.567 155.341C558.795 155.114 558.908 154.66 558.795 154.433C558.681 154.093 558.227 153.979 557.886 154.093" fill="#A36957"/>
<path d="M558.454 154.206C558.568 154.206 558.227 153.866 557.66 153.979C557.433 154.093 557.092 154.32 556.978 154.66C556.865 155.001 556.978 155.568 557.433 155.908C557.887 156.249 558.341 156.135 558.681 155.908C559.022 155.681 559.136 155.228 559.136 155.001C559.022 154.433 558.568 154.32 558.568 154.433C558.568 154.547 558.681 154.66 558.681 155.114C558.681 155.341 558.568 155.454 558.454 155.568C558.341 155.681 558 155.681 557.887 155.568C557.773 155.454 557.66 155.228 557.66 155.001C557.66 154.774 557.773 154.66 558 154.547C558.114 154.206 558.454 154.32 558.454 154.206Z" fill="#263238"/>
<path d="M575.143 144.334C574.008 146.944 571.17 149.1 571.624 151.937C571.851 153.752 573.1 155.568 572.873 157.384C572.532 159.766 570.148 161.355 569.807 163.624C569.353 166.461 572.192 168.731 573.213 171.34C574.803 175.198 572.759 179.624 572.759 183.709C572.646 190.177 578.209 196.19 584.566 196.644C587.177 196.871 590.129 196.077 591.378 193.808C592.513 191.992 592.286 189.609 592.967 187.567C593.989 184.503 596.827 182.347 597.509 179.17C598.644 173.496 591.719 168.731 592.173 162.944C592.4 160.447 593.876 158.291 594.557 155.908C595.465 152.731 594.67 149.214 592.513 146.717C590.81 144.675 588.313 143.313 586.837 141.157C585.134 138.661 585.134 135.484 584.566 132.533C583.09 125.385 577.641 119.144 570.829 116.648C563.904 114.151 555.843 115.399 550.053 119.825C550.053 119.825 548.35 127.314 556.07 128.562C563.79 129.81 567.31 128.335 568.218 131.399C568.218 131.399 567.31 135.03 570.489 138.434C573.554 141.952 576.506 141.271 575.143 144.334Z" fill="#263238"/>
<path d="M587.405 196.191C587.405 196.191 587.177 196.191 586.723 196.077C586.269 195.964 585.588 195.85 584.793 195.51C583.204 194.943 580.82 193.581 578.89 191.085C577.868 189.836 576.96 188.361 576.392 186.546C575.711 184.844 575.37 182.801 575.37 180.759C575.37 178.716 575.597 176.447 576.165 174.291C576.506 173.156 576.846 172.135 577.3 171C577.755 169.866 578.209 168.844 578.549 167.71C578.89 166.575 578.776 165.44 578.549 164.419C578.209 163.284 577.755 162.263 577.3 161.355C576.846 160.334 576.279 159.313 575.938 158.292C575.597 157.27 575.484 156.136 575.711 155.001C576.165 152.845 577.414 151.256 578.209 149.668C579.003 148.079 579.23 146.377 579.23 144.789C579.117 141.725 577.755 139.455 576.733 138.094C575.597 136.732 574.803 136.278 574.803 136.165C574.803 136.165 575.711 136.619 576.96 137.867C578.095 139.115 579.571 141.498 579.685 144.675C579.798 146.264 579.457 148.079 578.663 149.781C577.868 151.483 576.619 153.072 576.279 155.001C575.825 156.93 576.846 158.972 577.868 161.015C578.322 162.036 578.89 163.057 579.23 164.192C579.571 165.327 579.571 166.688 579.23 167.823C578.89 168.958 578.322 170.093 577.982 171.114C577.528 172.135 577.187 173.27 576.96 174.291C576.392 176.447 576.052 178.603 576.165 180.645C576.165 184.73 577.527 188.361 579.458 190.744C581.388 193.241 583.545 194.489 585.134 195.17C586.496 196.077 587.518 196.191 587.405 196.191Z" fill="#455A64"/>
<path d="M586.269 139.001C586.269 139.001 585.702 139.115 584.566 139.228C583.431 139.342 581.842 139.455 579.912 139.115C577.982 138.774 575.598 137.867 574.008 135.484C573.213 134.349 572.986 132.987 572.419 131.626C571.965 130.378 571.056 129.243 569.808 128.449C567.31 126.86 564.358 126.633 561.86 126.406C559.249 126.066 556.865 125.612 555.276 124.364C553.573 123.229 552.778 121.64 552.551 120.619C552.437 120.052 552.438 119.598 552.438 119.371C552.438 119.031 552.551 118.917 552.551 118.917C552.665 118.917 552.437 119.484 552.778 120.619C553.005 121.64 553.913 123.002 555.503 124.137C557.092 125.271 559.363 125.725 561.974 125.952C564.472 126.293 567.537 126.406 570.148 128.108C571.51 128.903 572.532 130.264 572.986 131.626C573.44 132.987 573.781 134.349 574.462 135.37C575.825 137.526 578.095 138.434 580.025 138.888C581.955 139.228 583.545 139.228 584.566 139.228C585.702 138.888 586.269 138.888 586.269 139.001Z" fill="#455A64"/>
<path d="M583.544 129.697C583.544 129.697 583.09 129.924 582.182 129.924C581.274 129.924 580.025 129.81 578.549 129.13C577.868 128.789 577.073 128.335 576.392 127.654C575.711 126.974 575.143 126.179 574.575 125.272C573.554 123.569 572.532 121.414 570.488 120.506C568.445 119.598 566.061 119.825 564.131 119.938C562.087 120.165 560.271 120.165 558.681 119.938C557.092 119.711 555.957 119.031 555.275 118.463C554.935 118.123 554.708 117.896 554.594 117.669C554.481 117.442 554.367 117.329 554.481 117.329C554.481 117.329 554.821 117.669 555.502 118.236C556.184 118.804 557.319 119.258 558.795 119.485C560.271 119.711 562.087 119.598 564.131 119.371C566.174 119.258 568.445 118.917 570.829 119.938C571.964 120.392 572.872 121.3 573.554 122.208C574.235 123.116 574.689 124.137 575.257 124.931C575.711 125.839 576.278 126.633 576.846 127.201C577.414 127.768 578.095 128.335 578.776 128.676C580.138 129.357 581.387 129.583 582.182 129.583C582.977 129.697 583.544 129.697 583.544 129.697Z" fill="#455A64"/>
<path d="M590.811 193.808C590.697 193.808 591.151 193.013 591.492 191.652C591.946 190.29 592.287 188.134 592.287 185.524C592.173 182.914 591.605 179.851 589.902 176.901C589.108 175.425 587.859 174.064 586.837 172.475C586.383 171.681 585.929 170.773 585.702 169.752C585.475 168.731 585.588 167.709 585.929 166.688C586.61 164.759 587.745 163.057 587.972 161.242C588.313 159.426 587.405 157.837 586.497 156.362C586.042 155.568 585.588 154.887 585.248 154.093C584.907 153.299 584.68 152.504 584.567 151.71C584.339 150.121 584.566 148.646 584.68 147.398C585.021 144.788 584.794 142.632 584.112 141.384C583.545 140.023 582.75 139.682 582.75 139.569C582.75 139.569 582.75 139.569 582.864 139.682C582.977 139.682 583.091 139.796 583.204 139.909C583.545 140.136 583.885 140.59 584.226 141.271C584.907 142.632 585.248 144.788 585.021 147.398C584.907 148.76 584.794 150.121 584.907 151.597C585.021 153.072 585.815 154.547 586.724 156.022C587.178 156.816 587.632 157.497 587.972 158.405C588.313 159.313 588.427 160.334 588.313 161.242C588.086 163.171 586.837 164.873 586.269 166.802C585.929 167.709 585.815 168.617 586.042 169.525C586.269 170.433 586.61 171.227 587.064 172.021C588.086 173.61 589.335 174.972 590.129 176.447C591.832 179.51 592.514 182.688 592.514 185.411C592.514 188.021 592.059 190.177 591.605 191.538C591.378 192.219 591.151 192.786 590.924 193.127C590.924 193.581 590.811 193.808 590.811 193.808Z" fill="#455A64"/>
<path d="M544.603 405.203C544.603 405.203 536.996 332.809 536.542 306.03C536.088 279.251 548.577 252.812 548.577 252.812L597.508 250.77C597.508 250.77 607.158 277.889 607.385 289.35C607.726 311.477 601.482 333.376 602.163 350.964L603.752 405.203" fill="#263238"/>
<path d="M605.455 316.129C605.455 316.129 605.228 316.356 604.661 316.696C604.547 316.81 604.32 316.923 604.206 317.037C604.093 317.15 603.866 317.377 603.752 317.49C603.412 317.831 602.958 318.171 602.617 318.739C601.028 320.668 599.892 324.072 598.757 328.384C598.189 330.54 597.508 332.922 596.259 335.305C595.919 335.873 595.578 336.44 595.124 337.007C594.897 337.234 594.67 337.575 594.443 337.802L593.648 338.596C592.626 339.617 591.377 340.411 590.015 340.979C587.29 342.227 584.225 342.794 581.387 344.156C578.549 345.518 576.392 348.241 575.143 351.305C573.78 354.368 572.986 357.659 571.737 360.609C570.602 363.559 569.126 366.51 566.628 368.325C564.244 370.254 561.179 370.708 558.567 370.822C555.956 370.935 553.459 370.935 551.301 371.275C549.144 371.616 547.214 372.297 545.852 373.318C544.49 374.339 543.695 375.701 543.354 376.949C543.014 378.084 543.014 379.105 543.127 379.786C543.241 380.467 543.468 380.694 543.354 380.694C543.354 380.694 543.127 380.353 543.014 379.786C542.787 379.105 542.787 378.084 543.127 376.949C543.468 375.701 544.263 374.339 545.738 373.204C547.101 372.07 549.144 371.275 551.301 370.935C553.572 370.595 555.956 370.595 558.567 370.481C561.179 370.254 564.017 369.8 566.287 367.985C568.558 366.283 570.034 363.446 571.169 360.496C572.304 357.546 573.099 354.255 574.575 351.191C575.937 348.014 578.208 345.177 581.16 343.816C584.112 342.34 587.177 341.773 589.902 340.638C591.264 340.071 592.513 339.39 593.421 338.369L594.102 337.688C594.329 337.461 594.556 337.121 594.67 336.894C595.124 336.44 595.351 335.759 595.692 335.192C596.94 332.922 597.622 330.54 598.189 328.384C599.325 324.072 600.573 320.554 602.276 318.625C602.617 318.058 603.071 317.717 603.412 317.377C603.639 317.263 603.752 317.037 603.866 316.923C603.979 316.81 604.206 316.696 604.32 316.583C605.115 316.242 605.342 316.129 605.455 316.129Z" fill="#FAFAFA"/>
<path d="M605.682 282.655C605.682 282.655 605.682 282.996 605.795 283.677C605.795 284.357 605.682 285.265 605.455 286.4C604.887 288.783 603.184 291.96 599.892 294.91C598.302 296.385 596.372 297.86 594.215 299.109C592.058 300.357 589.56 301.605 587.176 303.08C584.679 304.442 582.181 306.03 579.91 308.186C577.64 310.229 575.937 312.952 574.461 315.902C572.871 318.739 571.509 321.689 569.693 324.299C568.784 325.547 567.763 326.682 566.627 327.703C565.492 328.724 564.243 329.519 562.881 330.199C560.27 331.561 557.659 332.355 555.274 333.15C552.89 333.944 550.62 334.511 548.576 335.419C546.646 336.213 544.83 337.121 543.467 338.142C542.105 339.164 540.97 340.185 540.288 341.093C538.813 342.908 538.472 344.27 538.358 344.27C538.358 344.27 538.472 343.929 538.699 343.362C538.926 342.795 539.38 341.887 540.175 340.979C540.856 339.958 541.991 338.937 543.354 337.915C544.716 336.894 546.533 335.873 548.463 335.079C550.506 334.171 552.777 333.49 555.161 332.809C557.545 332.015 560.156 331.221 562.654 329.859C563.903 329.178 565.151 328.384 566.287 327.476C567.422 326.455 568.444 325.434 569.239 324.186C571.055 321.689 572.417 318.739 573.893 315.902C575.483 312.952 577.186 310.229 579.456 308.073C581.727 305.917 584.338 304.328 586.836 302.967C589.333 301.605 591.717 300.357 593.988 299.109C596.145 297.86 598.075 296.499 599.665 295.024C602.843 292.187 604.66 289.01 605.228 286.74C605.795 284.017 605.568 282.655 605.682 282.655Z" fill="#FAFAFA"/>
<path d="M536.77 309.775C536.77 309.775 536.77 309.661 536.656 309.548C536.656 309.434 536.542 309.207 536.429 308.867C536.315 308.3 536.202 307.278 536.543 306.144C537.224 303.874 539.721 300.924 543.695 299.562C545.738 298.881 548.009 298.428 550.393 297.86C552.777 297.179 555.275 296.385 557.205 294.343C558.113 293.321 558.908 292.187 559.589 290.939C560.27 289.69 560.724 288.329 561.292 286.854C562.314 284.017 563.109 280.953 564.925 278.116C566.628 275.28 569.466 273.351 572.304 272.329C575.143 271.308 578.094 270.854 580.819 270.173C583.544 269.606 586.042 268.812 588.199 267.677C590.356 266.429 592.059 264.84 593.194 263.138C595.692 259.734 596.259 256.217 596.373 253.947C596.373 251.564 596.032 250.316 596.146 250.316C596.146 250.316 596.6 251.564 596.6 253.947C596.6 256.33 596.032 259.848 593.534 263.365C592.286 265.067 590.583 266.769 588.426 268.017C586.269 269.266 583.657 270.06 580.933 270.627C578.208 271.308 575.37 271.762 572.531 272.783C569.693 273.804 567.082 275.62 565.379 278.343C563.676 281.067 562.881 284.13 561.86 286.967C561.292 288.442 560.838 289.804 560.157 291.165C559.476 292.527 558.567 293.662 557.659 294.683C555.616 296.726 553.004 297.633 550.62 298.201C548.236 298.768 545.965 299.222 543.922 299.903C539.948 301.264 537.451 303.988 536.77 306.144C536.429 307.278 536.429 308.186 536.543 308.753C536.656 309.548 536.77 309.775 536.77 309.775Z" fill="#FAFAFA"/>
<path d="M601.481 371.049C601.481 371.049 601.481 371.276 601.595 371.73C601.595 372.183 601.595 372.864 601.368 373.772C600.914 375.474 599.665 377.857 597.054 379.899C595.805 380.921 594.329 381.828 592.512 382.623C590.809 383.417 588.879 383.984 586.836 384.552C584.792 385.119 582.749 385.8 580.705 386.821C578.662 387.729 576.732 389.091 575.142 390.906C573.439 392.608 572.077 394.537 570.488 396.239C568.898 397.941 567.082 399.303 565.265 400.324C561.519 402.367 557.659 403.047 554.48 403.161C551.301 403.161 548.69 402.48 547.1 401.913C546.306 401.572 545.625 401.345 545.17 401.118C544.716 400.892 544.489 400.778 544.489 400.778C544.489 400.778 544.716 400.892 545.17 401.005C545.625 401.232 546.192 401.459 547.1 401.686C548.803 402.253 551.301 402.821 554.48 402.707C557.659 402.594 561.405 401.913 565.038 399.87C566.855 398.849 568.558 397.487 570.147 395.899C571.736 394.197 573.099 392.381 574.802 390.566C576.505 388.75 578.435 387.275 580.592 386.367C582.635 385.346 584.792 384.779 586.836 384.098C588.879 383.53 590.696 382.963 592.512 382.169C594.215 381.488 595.691 380.58 596.94 379.672C599.438 377.743 600.8 375.474 601.254 373.772C601.595 372.07 601.368 371.049 601.481 371.049Z" fill="#FAFAFA"/>
<path d="M595.919 220.701L586.496 220.928C585.928 224.105 584.339 226.261 584.339 226.261C576.392 212.531 570.261 194.149 568.785 186.773C569.012 185.979 569.239 185.184 569.58 184.277C569.92 183.255 569.58 181.213 569.466 180.078C569.239 178.49 568.785 176.22 568.558 175.199C568.104 172.022 567.65 171.568 566.514 171.908C565.038 172.362 567.082 180.646 565.947 180.873C565.266 180.986 564.471 178.149 564.244 175.766C564.017 173.384 562.995 166.235 562.2 165.781C561.065 165.1 560.043 166.235 560.384 168.504C560.724 170.887 561.065 177.809 559.816 177.922C558.567 178.036 557.546 166.121 557.546 166.121C557.546 166.121 557.773 163.512 556.297 163.625C553.685 163.739 555.729 176.22 555.956 177.468C556.07 178.263 554.821 178.49 554.707 177.582C554.594 176.674 553.913 165.668 551.301 165.781C549.258 165.894 552.891 176.107 551.755 178.49C550.62 180.873 549.826 170.433 547.896 170.547C547.214 170.547 546.647 170.774 548.009 176.674C548.69 179.851 550.734 185.752 552.55 190.518C555.616 206.857 568.899 259.394 589.902 249.749C601.595 244.416 606.363 220.587 606.363 220.587L595.919 220.701Z" fill="#B78876"/>
<path d="M555.615 178.376C555.615 178.376 555.729 178.376 555.842 178.376C555.956 178.376 556.296 178.149 556.296 177.695C556.296 177.014 556.183 175.993 555.956 174.631C555.842 173.269 555.388 171.681 555.388 169.752C555.388 168.844 555.388 167.823 555.502 166.688C555.502 166.121 555.502 165.553 555.615 165.1C555.729 164.532 556.069 163.965 556.41 164.078C556.864 164.078 557.091 164.419 557.205 164.873C557.318 165.327 557.432 165.894 557.318 166.348C557.545 169.298 557.886 172.475 558.567 175.766C558.681 176.22 558.794 176.56 558.908 177.014C559.021 177.241 559.021 177.468 559.135 177.695C559.248 177.808 559.248 177.922 559.362 178.035C559.475 178.149 559.589 178.262 559.816 178.376C560.27 178.376 560.383 178.035 560.497 177.808C560.611 177.581 560.611 177.354 560.724 177.127C560.838 176.674 560.838 176.22 560.951 175.766C561.065 173.95 561.065 172.021 560.838 170.092C560.838 169.071 560.497 168.163 560.724 167.256C560.838 166.802 560.951 166.348 561.292 166.234C561.405 166.121 561.632 166.121 561.746 166.121C561.859 166.121 561.973 166.234 561.973 166.234C562.086 166.348 562.086 166.234 562.086 166.348C562.427 167.142 562.654 168.163 562.881 169.185C563.108 170.206 563.222 171.227 563.449 172.248C563.562 173.269 563.789 174.291 563.903 175.425C564.016 176.447 564.13 177.581 564.471 178.603C564.584 179.17 564.811 179.624 565.038 180.191C565.152 180.418 565.265 180.759 565.492 180.985C565.606 181.099 565.833 181.326 566.174 181.212C566.514 181.099 566.628 180.872 566.628 180.759C566.855 180.078 566.741 179.51 566.741 178.943C566.741 178.376 566.628 177.808 566.628 177.241C566.514 176.333 566.401 175.312 566.401 174.404C566.401 173.95 566.401 173.496 566.401 173.043C566.401 172.816 566.514 172.589 566.514 172.475C566.514 172.362 566.628 172.362 566.628 172.362H566.741C567.536 172.021 567.763 173.043 567.99 173.95C568.217 174.858 568.331 175.766 568.444 176.674C568.785 178.489 569.125 180.191 569.352 181.893C569.466 182.688 569.466 183.595 569.239 184.39C569.012 185.184 568.671 185.978 568.444 186.772V186.886V186.999C569.806 193.127 571.736 198.573 573.553 203.453C575.369 208.332 577.186 212.53 578.775 215.934C580.365 219.339 581.727 221.948 582.749 223.764C583.203 224.672 583.657 225.239 583.884 225.806C584.111 226.26 584.338 226.487 584.338 226.487C584.338 226.487 584.225 226.26 583.998 225.806C583.771 225.239 583.316 224.558 582.862 223.764C581.954 221.948 580.592 219.225 579.002 215.821C577.413 212.417 575.71 208.218 574.007 203.339C572.304 198.46 570.374 193.013 569.012 186.999V187.113C569.239 186.319 569.579 185.524 569.806 184.73C570.147 183.822 570.033 182.914 569.92 182.007C569.693 180.191 569.352 178.489 569.012 176.674C568.785 175.766 568.785 174.858 568.558 173.95C568.444 173.496 568.331 173.043 568.104 172.589C567.99 172.362 567.763 172.135 567.422 171.908C567.082 171.794 566.741 171.794 566.514 171.908H566.287C566.173 171.908 566.06 172.021 566.06 172.021C565.946 172.135 565.833 172.248 565.719 172.475C565.606 172.702 565.606 173.043 565.492 173.269C565.492 173.723 565.492 174.291 565.492 174.745C565.492 175.652 565.606 176.674 565.719 177.581C565.719 178.149 565.833 178.716 565.833 179.283C565.833 179.851 565.833 180.418 565.719 180.759C565.719 180.872 565.606 180.872 565.719 180.872C565.719 180.872 565.719 180.985 565.719 180.872C565.719 180.872 565.719 180.872 565.606 180.759C565.492 180.645 565.379 180.418 565.265 180.191C565.038 179.737 564.925 179.17 564.811 178.716C564.584 177.695 564.357 176.674 564.243 175.539C564.13 174.518 564.016 173.383 563.789 172.362C563.676 171.34 563.449 170.319 563.222 169.298C562.995 168.277 562.881 167.256 562.313 166.234C562.313 166.121 562.086 165.894 561.973 165.78C561.859 165.667 561.746 165.667 561.519 165.553C561.178 165.44 560.838 165.553 560.611 165.667C560.043 166.007 559.929 166.575 559.816 167.142C559.702 167.709 559.702 168.163 559.816 168.731C559.929 169.185 559.929 169.638 559.929 170.206C560.043 172.135 560.156 173.95 560.043 175.766C560.043 176.22 559.929 176.674 559.929 177.127C559.929 177.354 559.816 177.581 559.702 177.695C559.702 177.808 559.589 177.808 559.589 177.922C559.589 178.035 559.475 177.922 559.475 178.035C559.589 177.922 559.475 178.035 559.475 177.922C559.475 177.922 559.362 177.808 559.362 177.695C559.248 177.468 559.248 177.354 559.135 177.127C559.021 176.674 558.908 176.333 558.794 175.879C558.113 172.589 557.772 169.411 557.545 166.461C557.545 165.894 557.545 165.327 557.318 164.759C557.205 164.532 557.091 164.192 556.864 163.965C556.637 163.738 556.296 163.624 556.069 163.624H556.183C555.729 163.511 555.388 163.851 555.161 164.078C554.934 164.305 554.934 164.646 554.821 164.986C554.707 165.553 554.707 166.121 554.707 166.688C554.707 167.823 554.707 168.844 554.707 169.752C554.707 171.681 555.161 173.269 555.388 174.631C555.615 175.993 555.729 177.014 555.842 177.695C555.956 178.035 555.615 178.262 555.502 178.262C555.615 178.376 555.615 178.376 555.615 178.376Z" fill="#A36957"/>
<path d="M481.594 236.246C481.594 236.246 478.415 236.132 475.009 237.04C469.106 238.629 459.002 244.756 458.661 252.245H466.041C466.041 252.245 461.954 260.982 463.089 260.188C466.268 258.032 472.512 251.791 472.512 251.791L481.594 236.246Z" fill="#B78876"/>
<path d="M581.955 104.393C581.841 104.393 581.16 98.3787 580.479 90.7761C579.797 83.2871 579.457 77.1597 579.57 77.1597C579.684 77.1597 580.365 83.1736 581.046 90.7761C581.614 98.3787 582.068 104.393 581.955 104.393Z" fill="#263238"/>
<path d="M614.197 77.6134C614.311 77.7269 609.315 84.8755 603.071 93.7262C596.827 102.577 591.605 109.612 591.491 109.499C591.378 109.385 596.373 102.237 602.617 93.3858C608.861 84.5351 613.97 77.4999 614.197 77.6134Z" fill="#263238"/>
<path d="M627.593 110.293C627.593 110.407 621.803 111.768 614.651 113.243C607.498 114.718 601.595 115.74 601.595 115.626C601.595 115.513 607.385 114.151 614.537 112.676C621.689 111.201 627.48 110.066 627.593 110.293Z" fill="#263238"/>
<path d="M241.477 266.089L201.288 472.378L196.065 499.384L463.996 498.136C476.03 498.023 486.702 487.357 490.562 471.584L538.131 276.869C541.083 264.841 534.612 252.359 525.529 252.359L254.306 252.699C248.289 252.472 242.953 258.032 241.477 266.089Z" fill="#3D6DCC"/>
<g opacity="0.5">
<path opacity="0.5" d="M241.354 265.788L201.165 472.078L195.942 499.084L463.873 497.836C475.907 497.722 486.579 487.056 490.439 471.284L538.008 276.568C540.96 264.54 534.489 252.058 525.406 252.058L254.183 252.399C248.166 252.172 242.83 257.732 241.354 265.788Z" fill="#3D6DCC"/>
</g>
<path d="M438.339 458.421L409.956 229.891C408.821 220.473 401.328 213.552 392.473 213.552L330.258 213.778C325.604 213.778 321.289 215.707 317.997 219.225L288.479 250.656L115.46 251.564C104.901 251.564 96.7271 261.663 98.203 272.897L124.542 484.179C125.677 493.483 133.17 500.519 141.912 500.519L443.448 499.951C477.052 500.632 480.231 490.76 480.231 490.76C441.745 499.044 438.339 458.421 438.339 458.421Z" fill="#638AF2"/>
<g opacity="0.5">
<path opacity="0.5" d="M308.234 412.693L298.13 423.586L219.794 353.235L229.898 342.228L308.234 412.693Z" fill="white"/>
<path opacity="0.5" d="M293.815 339.845L305.055 349.944L234.212 426.083L222.973 415.984L293.815 339.845Z" fill="white"/>
</g>
<path d="M481.367 117.783C480.686 117.442 480.118 116.762 480.118 115.967L479.664 105.415C479.664 104.734 479.891 104.166 480.459 103.713C481.026 103.259 481.594 103.145 482.275 103.259C483.978 103.713 485.794 103.259 487.384 102.237C488.86 101.33 489.768 99.8545 489.995 98.3794C490.222 96.9043 489.768 95.2022 488.746 93.8406C487.611 92.3655 485.908 91.3443 484.319 91.1173C480.913 90.7769 477.166 93.3867 476.258 96.7908C475.917 97.9256 474.782 98.6064 473.647 98.266C472.512 97.9255 471.83 96.7908 472.171 95.6561C473.647 90.2095 479.323 86.2381 484.773 86.8054C487.611 87.1458 490.336 88.7344 492.152 91.1173C493.855 93.3867 494.65 96.2235 494.196 98.9468C493.742 101.557 492.152 104.053 489.768 105.642C488.065 106.776 486.022 107.457 483.978 107.571L484.319 115.74C484.319 116.875 483.41 117.896 482.275 117.896C481.935 117.896 481.707 117.896 481.367 117.783Z" fill="#3D6DCC"/>
<path d="M484.546 122.095C484.659 123.003 483.864 123.91 482.956 123.91C482.048 124.024 481.14 123.23 481.14 122.322C481.026 121.414 481.821 120.506 482.729 120.506C483.637 120.506 484.432 121.074 484.546 122.095Z" fill="#3D6DCC"/>
<path d="M444.924 102.918C444.924 102.918 444.924 102.691 445.037 102.237C445.037 101.783 445.151 101.102 445.264 100.194C445.264 99.2867 445.491 98.2655 445.832 96.9038C445.946 96.223 446.059 95.5422 446.286 94.8614C446.513 94.1805 446.74 93.3862 446.967 92.5919C448.103 89.4148 449.806 85.5568 452.644 81.8122C455.482 78.0677 459.456 74.3232 464.564 71.4864C467.062 70.0113 470.014 68.9901 472.966 67.9688C476.031 67.288 479.323 66.6072 482.616 66.7207C484.319 66.6072 486.022 66.8341 487.725 67.0611C488.633 67.1745 489.428 67.4015 490.336 67.5149C491.244 67.6284 492.039 67.8554 492.947 68.1958C496.466 69.1035 499.872 70.6921 503.051 72.8481C509.522 76.933 515.085 83.6278 518.037 91.6842C519.513 95.7691 520.308 100.194 520.308 104.62C520.421 109.159 519.513 113.697 517.924 117.896L517.356 119.144L517.242 119.371L517.356 119.484C520.194 126.066 523.032 132.42 525.757 138.661L526.211 138.094C520.308 135.824 514.631 133.668 509.182 131.512L508.955 131.399L508.841 131.512C504.073 136.051 498.51 139.115 492.833 140.817C487.157 142.406 481.367 142.519 476.145 141.611C470.922 140.703 466.154 138.661 462.18 136.051C458.207 133.441 455.028 130.378 452.644 127.087C450.26 123.91 448.67 120.506 447.421 117.555C446.4 114.492 445.719 111.882 445.378 109.613C445.264 108.478 445.151 107.57 445.037 106.662C445.037 105.868 445.037 105.074 445.037 104.506C445.037 103.939 445.037 103.485 445.037 103.145C444.924 103.031 444.924 102.918 444.924 102.918C444.924 102.918 444.924 103.031 444.924 103.372C444.924 103.712 444.924 104.166 444.924 104.733C444.924 105.301 444.924 106.095 444.924 106.889C445.037 107.797 445.151 108.705 445.264 109.839C445.491 112.109 446.173 114.832 447.194 117.896C448.33 120.846 449.919 124.25 452.417 127.541C454.914 130.832 458.093 134.009 462.067 136.619C466.04 139.228 470.809 141.384 476.145 142.292C481.48 143.313 487.27 143.2 493.174 141.611C498.964 140.023 504.754 136.845 509.522 132.193L509.182 132.307C514.631 134.463 520.308 136.619 526.211 138.888L527.119 139.228L526.779 138.321C524.054 132.08 521.329 125.612 518.491 119.144V119.484L519.059 118.123C520.648 113.697 521.556 109.045 521.443 104.506C521.443 99.9675 520.648 95.4287 519.172 91.2303C516.107 82.947 510.431 76.2522 503.846 72.0538C500.553 70.0113 497.034 68.3092 493.515 67.4015C492.606 67.0611 491.698 66.9476 490.903 66.7207C489.995 66.6072 489.087 66.3802 488.292 66.2668C486.476 66.1533 484.773 65.9264 483.07 65.9264C479.664 65.8129 476.372 66.4937 473.193 67.288C470.127 68.1958 467.176 69.3305 464.678 70.8056C459.456 73.7558 455.482 77.5004 452.644 81.3584C449.806 85.2164 448.103 89.0744 447.081 92.365C446.854 93.1593 446.627 93.9536 446.4 94.6344C446.173 95.3152 446.059 96.1095 445.946 96.6769C445.719 97.9251 445.491 99.0598 445.491 99.9675C445.378 100.875 445.378 101.556 445.378 102.01C444.924 102.691 444.924 102.918 444.924 102.918Z" fill="#263238"/>
</svg>
