<svg width="444" height="331" viewBox="0 0 444 331" fill="none" xmlns="http://www.w3.org/2000/svg">
<path d="M444 290.883H0V291.105H444V290.883Z" fill="#EBEBEB"/>
<path d="M60.8462 299.34H46.585V299.562H60.8462V299.34Z" fill="#EBEBEB"/>
<path d="M199.507 296.933H151.973V297.155H199.507V296.933Z" fill="#EBEBEB"/>
<path d="M93.9234 307.593H61.7334V307.815H93.9234V307.593Z" fill="#EBEBEB"/>
<path d="M375.029 296.817H336.677V297.039H375.029V296.817Z" fill="#EBEBEB"/>
<path d="M388.562 296.817H382.941V297.039H388.562V296.817Z" fill="#EBEBEB"/>
<path d="M329.35 302.343H281.496V302.565H329.35V302.343Z" fill="#EBEBEB"/>
<path d="M210.456 251.264H38.9923C37.649 251.261 36.3616 250.726 35.4126 249.775C34.4637 248.824 33.9307 247.535 33.9307 246.191V5.07237C33.9424 3.73635 34.4805 2.45889 35.4282 1.51748C36.3759 0.576061 37.6567 0.0467223 38.9923 0.0444336H210.456C211.801 0.0444336 213.091 0.578841 214.042 1.53009C214.992 2.48134 215.527 3.77152 215.527 5.11679V246.191C215.527 247.537 214.992 248.827 214.042 249.778C213.091 250.729 211.801 251.264 210.456 251.264ZM38.9923 0.2221C37.7079 0.224453 36.477 0.736499 35.5696 1.64585C34.6623 2.55519 34.1527 3.78754 34.1527 5.07237V246.191C34.1527 247.476 34.6623 248.709 35.5696 249.618C36.477 250.527 37.7079 251.039 38.9923 251.042H210.456C211.741 251.039 212.973 250.527 213.882 249.618C214.791 248.709 215.302 247.477 215.305 246.191V5.07237C215.302 3.78672 214.791 2.5544 213.882 1.6453C212.973 0.736211 211.741 0.224448 210.456 0.2221H38.9923Z" fill="#EBEBEB"/>
<path d="M402.539 251.264H231.067C229.723 251.261 228.434 250.726 227.484 249.775C226.533 248.825 225.998 247.536 225.996 246.191V5.07237C226.01 3.73554 226.55 2.45809 227.499 1.51692C228.448 0.57575 229.73 0.0466973 231.067 0.0444336H402.539C403.873 0.0490569 405.152 0.579429 406.098 1.52059C407.043 2.46176 407.58 3.73788 407.592 5.07237V246.191C407.592 247.534 407.06 248.821 406.113 249.772C405.166 250.723 403.881 251.259 402.539 251.264ZM231.067 0.2221C229.781 0.224448 228.55 0.736211 227.641 1.6453C226.732 2.5544 226.22 3.78672 226.218 5.07237V246.191C226.22 247.477 226.732 248.709 227.641 249.618C228.55 250.527 229.781 251.039 231.067 251.042H402.539C403.824 251.039 405.056 250.527 405.965 249.618C406.874 248.709 407.385 247.477 407.388 246.191V5.07237C407.385 3.78672 406.874 2.5544 405.965 1.6453C405.056 0.736211 403.824 0.224448 402.539 0.2221H231.067Z" fill="#EBEBEB"/>
<path d="M351.959 216.619H346.062V290.874H351.959V216.619Z" fill="#F5F5F5"/>
<path d="M354.525 216.619H349.393V290.874H354.525V216.619Z" fill="#F0F0F0"/>
<path d="M214.426 216.619H208.529V290.874H214.426V216.619Z" fill="#F5F5F5"/>
<path d="M216.992 216.619H211.859V290.874H216.992V216.619Z" fill="#F0F0F0"/>
<path d="M374.309 216.619H368.413V290.874H374.309V216.619Z" fill="#F5F5F5"/>
<path d="M376.876 216.619H371.743V290.874H376.876V216.619Z" fill="#F0F0F0"/>
<path d="M236.776 216.619H230.88V290.874H236.776V216.619Z" fill="#F5F5F5"/>
<path d="M208.538 218.031L376.876 218.031V215.215L208.538 215.215V218.031Z" fill="#F0F0F0"/>
<path d="M208.529 218.031H234.21V215.215H208.529V218.031Z" fill="#E6E6E6"/>
<path d="M239.343 216.619H234.21V290.874H239.343V216.619Z" fill="#F0F0F0"/>
<path d="M292.721 161.134H276.799V215.215H292.721V161.134Z" fill="#EBEBEB"/>
<path d="M335.895 215.215H283.041L275.058 151.913H327.911L335.895 215.215Z" fill="#E0E0E0"/>
<path d="M339.003 215.215H284.409L276.426 151.913H331.02L339.003 215.215Z" fill="#F0F0F0"/>
<path d="M308.376 215.215H297.782L300.766 151.913H311.36L308.376 215.215Z" fill="#FAFAFA"/>
<path d="M320.515 215.215H310.09L313.074 151.913H323.499L320.515 215.215Z" fill="#FAFAFA"/>
<path d="M382.684 15.5991H245.372V123.078H382.684V15.5991Z" fill="#E6E6E6"/>
<path d="M386.804 15.5991H247.299V123.078H386.804V15.5991Z" fill="#F0F0F0"/>
<path d="M382.684 123.078H245.372V126.676H382.684V123.078Z" fill="#E6E6E6"/>
<path d="M388.997 123.078H249.492V126.676H388.997V123.078Z" fill="#F0F0F0"/>
<path d="M381.041 117.304V21.3644L253.071 21.3644V117.304L381.041 117.304Z" fill="#FAFAFA"/>
<path d="M323.099 117.304L332.334 21.3643H348.318L339.083 117.304H323.099Z" fill="white"/>
<path d="M282.766 117.304L292.001 21.3643H307.985L298.75 117.304H282.766Z" fill="white"/>
<path d="M255.744 84.7909C255.627 84.7886 255.517 84.7408 255.435 84.6577C255.354 84.5747 255.309 84.463 255.309 84.3467V25.1219C255.309 25.0041 255.355 24.8911 255.439 24.8078C255.522 24.7245 255.635 24.6777 255.753 24.6777C255.87 24.6777 255.983 24.7245 256.067 24.8078C256.15 24.8911 256.197 25.0041 256.197 25.1219V84.3467C256.197 84.4058 256.185 84.4643 256.162 84.5188C256.139 84.5733 256.106 84.6226 256.063 84.664C256.021 84.7054 255.971 84.7379 255.916 84.7597C255.861 84.7815 255.803 84.7921 255.744 84.7909Z" fill="#F0F0F0"/>
<path d="M342.511 117.304L351.746 21.3643H357.98L348.745 117.304H342.511Z" fill="white"/>
<path d="M381.041 117.313V21.3732H380.313V117.313H381.041Z" fill="#E6E6E6"/>
<path opacity="0.5" d="M388.171 31.8289H250.86L250.327 23.6118H387.639L388.171 31.8289Z" fill="#E0E0E0"/>
<path opacity="0.5" d="M388.171 45.3403H250.86L250.327 37.1233H387.639L388.171 45.3403Z" fill="#E0E0E0"/>
<path opacity="0.5" d="M388.171 58.8518H250.86L250.327 50.6259H387.639L388.171 58.8518Z" fill="#E0E0E0"/>
<path opacity="0.5" d="M388.171 72.3544H250.86L250.327 64.1373H387.639L388.171 72.3544Z" fill="#E0E0E0"/>
<path opacity="0.5" d="M388.171 85.8658H250.86L250.327 77.6488H387.639L388.171 85.8658Z" fill="#E0E0E0"/>
<path opacity="0.5" d="M388.171 99.3773H250.86L250.327 91.1603H387.639L388.171 99.3773Z" fill="#E0E0E0"/>
<path opacity="0.5" d="M388.171 38.589H250.86L250.327 30.363H387.639L388.171 38.589Z" fill="#E0E0E0"/>
<path opacity="0.5" d="M388.171 52.0916H250.86L250.327 43.8745H387.639L388.171 52.0916Z" fill="#E0E0E0"/>
<path opacity="0.5" d="M388.171 65.603H250.86L250.327 57.386H387.639L388.171 65.603Z" fill="#E0E0E0"/>
<path opacity="0.5" d="M388.171 79.1145H250.86L250.327 70.8975H387.639L388.171 79.1145Z" fill="#E0E0E0"/>
<path opacity="0.5" d="M388.171 92.6261H250.86L250.327 84.4001H387.639L388.171 92.6261Z" fill="#E0E0E0"/>
<path opacity="0.5" d="M388.171 106.129H250.86L250.327 97.9116H387.639L388.171 106.129Z" fill="#E0E0E0"/>
<path d="M88.0895 68.9432H106.729C109.092 68.9432 111.009 67.0262 111.009 64.6615V57.5016C111.009 55.1368 109.092 53.2198 106.729 53.2198H88.0895C85.7256 53.2198 83.8093 55.1368 83.8093 57.5016V64.6615C83.8093 67.0262 85.7256 68.9432 88.0895 68.9432Z" fill="#F5F5F5"/>
<path d="M88.0895 53.2109H106.729C109.092 53.2109 111.009 51.2939 111.009 48.9292V41.7693C111.009 39.4045 109.092 37.4875 106.729 37.4875H88.0895C85.7256 37.4875 83.8093 39.4045 83.8093 41.7693V48.9292C83.8093 51.2939 85.7256 53.2109 88.0895 53.2109Z" fill="#F5F5F5"/>
<path d="M94.1814 37.4786H100.637C101.456 37.4786 102.12 36.8144 102.12 35.9951V33.5167C102.12 32.6974 101.456 32.0332 100.637 32.0332H94.1814C93.3624 32.0332 92.6984 32.6974 92.6984 33.5167V35.9951C92.6984 36.8144 93.3624 37.4786 94.1814 37.4786Z" fill="#E0E0E0"/>
<path d="M88.0895 84.6577H106.729C109.092 84.6577 111.009 82.7407 111.009 80.376V73.216C111.009 70.8513 109.092 68.9343 106.729 68.9343H88.0895C85.7256 68.9343 83.8093 70.8513 83.8093 73.216V80.376C83.8093 82.7407 85.7256 84.6577 88.0895 84.6577Z" fill="#F5F5F5"/>
<path d="M186.941 73.7756C186.941 73.7756 186.053 84.7021 151.519 84.7021C116.985 84.7021 116.088 73.7756 116.088 73.7756H186.941Z" fill="#F0F0F0"/>
<path d="M81.0215 86.8696H53.6533V280.729H81.0215V86.8696Z" fill="#F0F0F0"/>
<path d="M193.86 280.729H58.9014V290.874H193.86V280.729Z" fill="#F0F0F0"/>
<path d="M81.0211 280.729H199.116L199.116 86.8696L81.0211 86.8696L81.0211 280.729Z" fill="#F5F5F5"/>
<path d="M91.7746 201.508H188.354V155.76H91.7746V201.508Z" fill="#F0F0F0"/>
<path d="M91.7746 257.464H188.354V211.715H91.7746V257.464Z" fill="#F0F0F0"/>
<path d="M91.7746 273.96H188.354V266.987H91.7746V273.96Z" fill="#F0F0F0"/>
<path d="M164.608 159.384H115.52C114.503 159.382 113.529 158.977 112.81 158.257C112.091 157.538 111.686 156.563 111.684 155.546C111.688 154.531 112.094 153.558 112.813 152.841C113.532 152.124 114.505 151.72 115.52 151.718H164.608C165.624 151.72 166.597 152.124 167.315 152.841C168.034 153.558 168.44 154.531 168.445 155.546C168.442 156.563 168.037 157.538 167.318 158.257C166.599 158.977 165.625 159.382 164.608 159.384Z" fill="#F5F5F5"/>
<path d="M91.7746 145.553H188.354V99.8037L91.7746 99.8037V145.553Z" fill="#F0F0F0"/>
<path d="M164.608 103.437H115.52C114.503 103.435 113.529 103.03 112.81 102.31C112.091 101.591 111.686 100.616 111.684 99.5994C111.686 98.5824 112.091 97.6076 112.81 96.8884C113.529 96.1693 114.503 95.7642 115.52 95.7618H164.608C165.625 95.7642 166.599 96.1693 167.318 96.8884C168.037 97.6076 168.442 98.5824 168.445 99.5994C168.442 100.616 168.037 101.591 167.318 102.31C166.599 103.03 165.625 103.435 164.608 103.437Z" fill="#F5F5F5"/>
<path d="M164.608 215.34H115.52C114.503 215.337 113.529 214.932 112.81 214.213C112.091 213.494 111.686 212.519 111.684 211.502C111.686 210.485 112.091 209.51 112.81 208.791C113.529 208.072 114.503 207.667 115.52 207.665H164.608C165.625 207.667 166.599 208.072 167.318 208.791C168.037 209.51 168.442 210.485 168.445 211.502C168.442 212.519 168.037 213.494 167.318 214.213C166.599 214.932 165.625 215.337 164.608 215.34Z" fill="#F5F5F5"/>
<path d="M202.757 84.6666H81.0127V86.8786H202.757V84.6666Z" fill="#F0F0F0"/>
<path d="M49.8349 86.8696H81.0215V84.6577H49.8349V86.8696Z" fill="#E6E6E6"/>
<path d="M222 331C317.089 331 394.174 326.498 394.174 320.944C394.174 315.39 317.089 310.888 222 310.888C126.91 310.888 49.8252 315.39 49.8252 320.944C49.8252 326.498 126.91 331 222 331Z" fill="#F5F5F5"/>
<path d="M392.55 232.884H51.4511L45.1641 226.923H398.837L392.55 232.884Z" fill="#407BFF"/>
<path opacity="0.5" d="M392.55 232.884H51.4511L45.1641 226.923H398.837L392.55 232.884Z" fill="white"/>
<path d="M363.299 236.091H80.7018L75.4893 232.884H368.512L363.299 236.091Z" fill="#407BFF"/>
<path opacity="0.5" d="M363.299 236.091H80.7018L75.4893 232.884H368.512L363.299 236.091Z" fill="black"/>
<path d="M78.4644 320.944H74.4062L86.9892 236.091H96.0379L78.4644 320.944Z" fill="#407BFF"/>
<path opacity="0.5" d="M78.4644 320.944H74.4062L86.9892 236.091H96.0379L78.4644 320.944Z" fill="black"/>
<path d="M100.433 320.944H96.3838L108.967 236.091H118.015L100.433 320.944Z" fill="#407BFF"/>
<path opacity="0.5" d="M100.433 320.944H96.3838L108.967 236.091H118.015L100.433 320.944Z" fill="black"/>
<path d="M365.536 320.944H369.595L357.012 236.091H347.963L365.536 320.944Z" fill="#407BFF"/>
<path opacity="0.5" d="M365.536 320.944H369.595L357.012 236.091H347.963L365.536 320.944Z" fill="black"/>
<path d="M343.568 320.944H347.617L335.034 236.091H325.985L343.568 320.944Z" fill="#407BFF"/>
<path opacity="0.5" d="M343.568 320.944H347.617L335.034 236.091H325.985L343.568 320.944Z" fill="black"/>
<path d="M199.161 35.7019L210.625 36.4747C211.07 36.5022 211.498 36.6508 211.865 36.9044C212.231 37.1581 212.521 37.5071 212.703 37.9138L213.911 40.5788C214.173 41.1542 214.647 41.6061 215.234 41.8402C216.672 42.4314 218.066 43.1231 219.407 43.91C219.943 44.2248 220.577 44.3263 221.183 44.1943L224.06 43.5192C224.494 43.4191 224.946 43.4381 225.37 43.5741C225.794 43.7102 226.173 43.9582 226.467 44.292L234.033 52.9443C234.326 53.2809 234.523 53.6911 234.601 54.1308C234.679 54.5706 234.636 55.0233 234.477 55.4405L233.429 58.1943C233.208 58.7873 233.224 59.4427 233.473 60.0243C234.074 61.4682 234.572 62.9524 234.965 64.4659C235.117 65.0791 235.502 65.6084 236.04 65.9406L238.544 67.4951C238.923 67.7289 239.23 68.0618 239.434 68.458C239.637 68.8541 239.729 69.2983 239.698 69.7426L238.934 81.2198C238.906 81.6643 238.755 82.0923 238.5 82.4572C238.245 82.8222 237.894 83.1101 237.487 83.2896L234.823 84.4977C234.251 84.765 233.801 85.2375 233.562 85.8213C232.978 87.2613 232.289 88.6567 231.502 89.9965C231.185 90.531 231.083 91.1663 231.218 91.7731L231.884 94.6425C231.987 95.076 231.969 95.5296 231.833 95.9539C231.697 96.3782 231.447 96.7572 231.111 97.0498L222.462 104.618C222.127 104.912 221.719 105.109 221.281 105.187C220.842 105.265 220.391 105.222 219.976 105.063L217.214 104.014C216.629 103.783 215.978 103.783 215.394 104.014C213.949 104.612 212.466 105.111 210.954 105.507C210.342 105.662 209.814 106.047 209.479 106.582L207.925 109.087C207.69 109.466 207.355 109.774 206.958 109.977C206.56 110.18 206.115 110.272 205.67 110.242L194.206 109.478C193.762 109.448 193.334 109.299 192.968 109.045C192.602 108.792 192.312 108.444 192.128 108.038L190.92 105.373C190.658 104.798 190.184 104.346 189.597 104.112C188.159 103.521 186.765 102.829 185.424 102.042C184.889 101.727 184.254 101.625 183.648 101.758L180.779 102.433C180.346 102.535 179.893 102.517 179.469 102.381C179.045 102.245 178.666 101.996 178.373 101.66L170.798 93.0079C170.506 92.6704 170.311 92.2603 170.233 91.8209C170.155 91.3816 170.197 90.9292 170.354 90.5117L171.402 87.7579C171.623 87.168 171.607 86.5152 171.358 85.9368C170.759 84.4923 170.261 83.0082 169.866 81.4952C169.714 80.882 169.328 80.3527 168.791 80.0206L166.287 78.466C165.908 78.2322 165.6 77.8993 165.397 77.5032C165.193 77.107 165.102 76.6628 165.133 76.2185L165.896 64.7413C165.928 64.2964 166.079 63.8682 166.333 63.5022C166.588 63.1362 166.937 62.8461 167.344 62.6626L170.008 61.4634C170.583 61.2013 171.035 60.7271 171.269 60.1398C171.86 58.6984 172.551 57.3003 173.338 55.9558C173.655 55.4212 173.759 54.7871 173.631 54.1791L172.956 51.3098C172.854 50.8762 172.872 50.4229 173.008 49.9988C173.144 49.5747 173.393 49.1956 173.729 48.9024L182.378 41.3339C182.712 41.0395 183.12 40.8418 183.558 40.762C183.996 40.6822 184.448 40.7233 184.864 40.8808L187.626 41.929C188.21 42.1647 188.862 42.1647 189.446 41.929C190.889 41.3272 192.373 40.8285 193.886 40.4367C194.494 40.2795 195.02 39.8989 195.36 39.3707L196.914 36.8656C197.149 36.4869 197.482 36.1788 197.877 35.9739C198.273 35.7691 198.716 35.675 199.161 35.7019ZM180.735 71.5637C180.448 75.8573 181.439 80.1397 183.585 83.8692C185.731 87.5988 188.934 90.608 192.79 92.5162C196.645 94.4244 200.98 95.146 205.245 94.5896C209.511 94.0331 213.516 92.2237 216.753 89.3902C219.991 86.5567 222.315 82.8264 223.433 78.6711C224.551 74.5158 224.412 70.1221 223.034 66.0458C221.655 61.9696 219.1 58.3938 215.689 55.7707C212.279 53.1477 208.168 51.5953 203.876 51.3098C198.123 50.9295 192.455 52.849 188.116 56.6466C183.777 60.4442 181.122 65.8094 180.735 71.5637Z" fill="#407BFF"/>
<path d="M244.6 84.1868L248.534 82.8543C248.742 82.7859 248.965 82.7746 249.179 82.8215C249.393 82.8683 249.59 82.9717 249.751 83.1208L250.399 83.7427C250.626 83.9463 250.92 84.0601 251.225 84.0625C251.765 84.062 252.305 84.0976 252.841 84.1691C252.996 84.1943 253.154 84.1884 253.306 84.1518C253.459 84.1152 253.602 84.0486 253.729 83.9559L254.457 83.4317C254.636 83.3056 254.847 83.2301 255.065 83.2129C255.284 83.1957 255.503 83.2375 255.7 83.334L259.421 85.1818C259.617 85.2779 259.783 85.4253 259.902 85.6083C260.021 85.7913 260.088 86.003 260.096 86.2211V87.1094C260.107 87.4168 260.234 87.7085 260.451 87.9267C260.834 88.3071 261.19 88.7137 261.517 89.1437C261.702 89.3857 261.971 89.5503 262.271 89.6056L263.159 89.7478C263.375 89.7838 263.577 89.8782 263.743 90.0207C263.909 90.1632 264.032 90.3483 264.101 90.5561L265.433 94.4914C265.505 94.6985 265.519 94.9214 265.474 95.136C265.429 95.3505 265.325 95.5485 265.175 95.7085L264.554 96.3569C264.349 96.5833 264.235 96.8776 264.234 97.1831C264.234 97.7238 264.198 98.2639 264.127 98.7998C264.101 98.9541 264.106 99.1119 264.141 99.2643C264.176 99.4167 264.241 99.5608 264.332 99.6882L264.855 100.417C264.985 100.593 265.063 100.801 265.082 101.019C265.101 101.237 265.059 101.456 264.962 101.651L263.115 105.382C263.019 105.578 262.872 105.744 262.689 105.863C262.506 105.982 262.294 106.049 262.076 106.057H261.188C260.883 106.067 260.593 106.194 260.38 106.413C259.993 106.789 259.587 107.145 259.163 107.479C258.921 107.665 258.757 107.934 258.702 108.234L258.56 109.122C258.524 109.338 258.429 109.54 258.287 109.706C258.144 109.872 257.959 109.996 257.751 110.064L253.818 111.396C253.61 111.468 253.387 111.481 253.172 111.434C252.958 111.387 252.76 111.281 252.601 111.13L251.944 110.517C251.721 110.306 251.425 110.192 251.118 110.197C250.581 110.197 250.044 110.162 249.511 110.09C249.357 110.064 249.199 110.068 249.046 110.104C248.894 110.139 248.75 110.204 248.623 110.295L247.895 110.819C247.717 110.948 247.507 111.026 247.288 111.045C247.069 111.064 246.849 111.023 246.651 110.926L242.931 109.078C242.734 108.981 242.567 108.832 242.448 108.647C242.329 108.463 242.262 108.249 242.256 108.03V107.141C242.242 106.837 242.115 106.549 241.901 106.333C241.52 105.95 241.164 105.544 240.835 105.116C240.746 104.993 240.633 104.889 240.504 104.81C240.374 104.73 240.23 104.677 240.08 104.654L239.192 104.512C238.977 104.473 238.775 104.377 238.608 104.235C238.442 104.093 238.315 103.91 238.242 103.703L236.91 99.7592C236.842 99.5525 236.83 99.3311 236.877 99.1185C236.924 98.9058 237.027 98.7098 237.176 98.5511L237.798 97.9026C238.004 97.6731 238.118 97.3758 238.118 97.0676C238.118 96.5269 238.153 95.9868 238.224 95.4508C238.273 95.1382 238.197 94.8189 238.011 94.5625L237.496 93.8341C237.367 93.6579 237.288 93.4495 237.27 93.2317C237.251 93.0138 237.292 92.7951 237.39 92.5993L239.237 88.8683C239.332 88.6722 239.479 88.5062 239.662 88.3886C239.846 88.2711 240.058 88.2065 240.276 88.2021H241.164C241.471 88.1904 241.762 88.0635 241.981 87.8467C242.363 87.4657 242.769 87.1096 243.197 86.7807C243.439 86.5948 243.604 86.3258 243.659 86.0257L243.801 85.1373C243.835 84.921 243.927 84.7181 244.068 84.5505C244.209 84.383 244.393 84.2572 244.6 84.1868ZM246.953 98.56C247.236 99.391 247.758 100.12 248.455 100.654C249.151 101.188 249.99 101.504 250.866 101.561C251.741 101.619 252.614 101.416 253.374 100.977C254.134 100.539 254.748 99.8848 255.137 99.0979C255.526 98.3111 255.673 97.4266 255.56 96.5562C255.446 95.6857 255.078 94.8683 254.501 94.2072C253.923 93.5461 253.163 93.0709 252.316 92.8417C251.469 92.6124 250.573 92.6394 249.742 92.9191C249.188 93.1054 248.676 93.3993 248.236 93.7839C247.796 94.1685 247.436 94.6363 247.177 95.1604C246.918 95.6844 246.765 96.2545 246.726 96.8379C246.688 97.4213 246.765 98.0065 246.953 98.56Z" fill="#407BFF"/>
<path opacity="0.5" d="M244.6 84.1868L248.534 82.8543C248.742 82.7859 248.965 82.7746 249.179 82.8215C249.393 82.8683 249.59 82.9717 249.751 83.1208L250.399 83.7427C250.626 83.9463 250.92 84.0601 251.225 84.0625C251.765 84.062 252.305 84.0976 252.841 84.1691C252.996 84.1943 253.154 84.1884 253.306 84.1518C253.459 84.1152 253.602 84.0486 253.729 83.9559L254.457 83.4317C254.636 83.3056 254.847 83.2301 255.065 83.2129C255.284 83.1957 255.503 83.2375 255.7 83.334L259.421 85.1818C259.617 85.2779 259.783 85.4253 259.902 85.6083C260.021 85.7913 260.088 86.003 260.096 86.2211V87.1094C260.107 87.4168 260.234 87.7085 260.451 87.9267C260.834 88.3071 261.19 88.7137 261.517 89.1437C261.702 89.3857 261.971 89.5503 262.271 89.6056L263.159 89.7478C263.375 89.7838 263.577 89.8782 263.743 90.0207C263.909 90.1632 264.032 90.3483 264.101 90.5561L265.433 94.4914C265.505 94.6985 265.519 94.9214 265.474 95.136C265.429 95.3505 265.325 95.5485 265.175 95.7085L264.554 96.3569C264.349 96.5833 264.235 96.8776 264.234 97.1831C264.234 97.7238 264.198 98.2639 264.127 98.7998C264.101 98.9541 264.106 99.1119 264.141 99.2643C264.176 99.4167 264.241 99.5608 264.332 99.6882L264.855 100.417C264.985 100.593 265.063 100.801 265.082 101.019C265.101 101.237 265.059 101.456 264.962 101.651L263.115 105.382C263.019 105.578 262.872 105.744 262.689 105.863C262.506 105.982 262.294 106.049 262.076 106.057H261.188C260.883 106.067 260.593 106.194 260.38 106.413C259.993 106.789 259.587 107.145 259.163 107.479C258.921 107.665 258.757 107.934 258.702 108.234L258.56 109.122C258.524 109.338 258.429 109.54 258.287 109.706C258.144 109.872 257.959 109.996 257.751 110.064L253.818 111.396C253.61 111.468 253.387 111.481 253.172 111.434C252.958 111.387 252.76 111.281 252.601 111.13L251.944 110.517C251.721 110.306 251.425 110.192 251.118 110.197C250.581 110.197 250.044 110.162 249.511 110.09C249.357 110.064 249.199 110.068 249.046 110.104C248.894 110.139 248.75 110.204 248.623 110.295L247.895 110.819C247.717 110.948 247.507 111.026 247.288 111.045C247.069 111.064 246.849 111.023 246.651 110.926L242.931 109.078C242.734 108.981 242.567 108.832 242.448 108.647C242.329 108.463 242.262 108.249 242.256 108.03V107.141C242.242 106.837 242.115 106.549 241.901 106.333C241.52 105.95 241.164 105.544 240.835 105.116C240.746 104.993 240.633 104.889 240.504 104.81C240.374 104.73 240.23 104.677 240.08 104.654L239.192 104.512C238.977 104.473 238.775 104.377 238.608 104.235C238.442 104.093 238.315 103.91 238.242 103.703L236.91 99.7592C236.842 99.5525 236.83 99.3311 236.877 99.1185C236.924 98.9058 237.027 98.7098 237.176 98.5511L237.798 97.9026C238.004 97.6731 238.118 97.3758 238.118 97.0676C238.118 96.5269 238.153 95.9868 238.224 95.4508C238.273 95.1382 238.197 94.8189 238.011 94.5625L237.496 93.8341C237.367 93.6579 237.288 93.4495 237.27 93.2317C237.251 93.0138 237.292 92.7951 237.39 92.5993L239.237 88.8683C239.332 88.6722 239.479 88.5062 239.662 88.3886C239.846 88.2711 240.058 88.2065 240.276 88.2021H241.164C241.471 88.1904 241.762 88.0635 241.981 87.8467C242.363 87.4657 242.769 87.1096 243.197 86.7807C243.439 86.5948 243.604 86.3258 243.659 86.0257L243.801 85.1373C243.835 84.921 243.927 84.7181 244.068 84.5505C244.209 84.383 244.393 84.2572 244.6 84.1868ZM246.953 98.56C247.236 99.391 247.758 100.12 248.455 100.654C249.151 101.188 249.99 101.504 250.866 101.561C251.741 101.619 252.614 101.416 253.374 100.977C254.134 100.539 254.748 99.8848 255.137 99.0979C255.526 98.3111 255.673 97.4266 255.56 96.5562C255.446 95.6857 255.078 94.8683 254.501 94.2072C253.923 93.5461 253.163 93.0709 252.316 92.8417C251.469 92.6124 250.573 92.6394 249.742 92.9191C249.188 93.1054 248.676 93.3993 248.236 93.7839C247.796 94.1685 247.436 94.6363 247.177 95.1604C246.918 95.6844 246.765 96.2545 246.726 96.8379C246.688 97.4213 246.765 98.0065 246.953 98.56Z" fill="white"/>
<path d="M221.911 126.844L226.795 118.379C226.976 118.064 227.071 117.707 227.072 117.344C227.073 116.981 226.979 116.623 226.8 116.308C226.62 115.992 226.362 115.728 226.05 115.543C225.737 115.358 225.382 115.258 225.019 115.252H215.251C214.887 115.255 214.53 115.354 214.216 115.538C213.902 115.723 213.643 115.987 213.463 116.303C213.283 116.62 213.189 116.978 213.191 117.343C213.194 117.707 213.291 118.064 213.475 118.379L218.359 126.844C218.546 127.147 218.807 127.398 219.118 127.571C219.429 127.745 219.779 127.836 220.135 127.836C220.491 127.836 220.841 127.745 221.152 127.571C221.463 127.398 221.724 127.147 221.911 126.844Z" fill="#407BFF"/>
<path d="M61.8844 223.388H181.596C182.007 223.389 182.414 223.308 182.793 223.148C183.171 222.989 183.514 222.754 183.8 222.459C184.086 222.163 184.31 221.813 184.457 221.43C184.605 221.046 184.674 220.636 184.659 220.225L181.826 134.608C181.788 133.761 181.427 132.961 180.818 132.371C180.209 131.782 179.397 131.448 178.55 131.437H58.8474C58.4352 131.434 58.0268 131.515 57.6468 131.675C57.2669 131.835 56.9233 132.07 56.6369 132.367C56.3504 132.663 56.1271 133.015 55.9805 133.4C55.8339 133.785 55.767 134.196 55.7838 134.608L58.6076 220.225C58.6419 221.073 59.0017 221.875 59.612 222.464C60.2224 223.053 61.0363 223.384 61.8844 223.388Z" fill="#407BFF"/>
<path d="M62.8615 223.388H182.573C182.984 223.389 183.391 223.308 183.77 223.148C184.148 222.988 184.491 222.754 184.777 222.459C185.063 222.163 185.287 221.813 185.434 221.43C185.582 221.046 185.651 220.636 185.636 220.225L182.804 134.608C182.765 133.761 182.404 132.961 181.795 132.371C181.186 131.782 180.375 131.447 179.527 131.437H59.8246C59.4128 131.436 59.0049 131.517 58.6255 131.678C58.2462 131.838 57.9031 132.073 57.6169 132.369C57.3307 132.666 57.1074 133.017 56.9603 133.401C56.8132 133.786 56.7454 134.197 56.761 134.608L59.5937 220.225C59.6279 221.072 59.9864 221.872 60.5949 222.461C61.2033 223.05 62.015 223.382 62.8615 223.388Z" fill="#407BFF"/>
<g opacity="0.6">
<path opacity="0.6" d="M62.8615 223.388H182.573C182.984 223.389 183.391 223.308 183.77 223.148C184.148 222.988 184.491 222.754 184.777 222.459C185.063 222.163 185.287 221.813 185.434 221.43C185.582 221.046 185.651 220.636 185.636 220.225L182.804 134.608C182.765 133.761 182.404 132.961 181.795 132.371C181.186 131.782 180.375 131.447 179.527 131.437H59.8246C59.4128 131.436 59.0049 131.517 58.6255 131.678C58.2462 131.838 57.9031 132.073 57.6169 132.369C57.3307 132.666 57.1074 133.017 56.9603 133.401C56.8132 133.786 56.7454 134.197 56.761 134.608L59.5937 220.225C59.6279 221.072 59.9864 221.872 60.5949 222.461C61.2033 223.05 62.015 223.382 62.8615 223.388Z" fill="#263238"/>
</g>
<path d="M64.4063 223.237H208.982C209.693 223.237 210.389 223.436 210.992 223.813C211.595 224.19 212.08 224.729 212.392 225.369C212.471 225.536 212.507 225.721 212.496 225.906C212.485 226.091 212.427 226.27 212.327 226.426C212.228 226.583 212.09 226.711 211.928 226.8C211.765 226.888 211.582 226.934 211.397 226.932H61.991C61.805 226.935 61.6213 226.891 61.4573 226.803C61.2933 226.715 61.1545 226.587 61.054 226.43C60.9535 226.274 60.8946 226.094 60.883 225.908C60.8714 225.722 60.9073 225.537 60.9875 225.369C61.3004 224.729 61.7868 224.189 62.3913 223.812C62.9958 223.435 63.694 223.236 64.4063 223.237Z" fill="#407BFF"/>
<path opacity="0.6" d="M208.981 223.237H93.6124C92.9001 223.236 92.2019 223.435 91.5974 223.812C90.9929 224.189 90.5065 224.729 90.1936 225.369C90.1134 225.537 90.0774 225.722 90.0891 225.908C90.1007 226.094 90.1595 226.274 90.26 226.43C90.3605 226.587 90.4994 226.715 90.6633 226.803C90.8273 226.891 91.011 226.935 91.197 226.932H211.397C211.582 226.934 211.765 226.888 211.927 226.8C212.09 226.711 212.228 226.583 212.327 226.426C212.427 226.27 212.485 226.091 212.496 225.906C212.507 225.721 212.471 225.536 212.391 225.369C212.08 224.729 211.595 224.19 210.992 223.813C210.389 223.436 209.692 223.237 208.981 223.237Z" fill="#263238"/>
<path opacity="0.3" d="M140.02 225.582H170.034C170.39 225.584 170.732 225.728 170.983 225.981C171.234 226.234 171.375 226.576 171.375 226.932H138.67C138.67 226.574 138.812 226.231 139.065 225.978C139.318 225.724 139.662 225.582 140.02 225.582Z" fill="white"/>
<path opacity="0.9" d="M182.777 217.125L180.113 137.709C180.097 137.379 179.956 137.067 179.718 136.838C179.48 136.608 179.164 136.478 178.834 136.474H60.8098C60.647 136.472 60.4856 136.504 60.3358 136.568C60.186 136.632 60.051 136.726 59.9393 136.844C59.8275 136.963 59.7415 137.103 59.6865 137.257C59.6316 137.41 59.6089 137.573 59.6199 137.735L62.2839 217.152C62.2954 217.482 62.4339 217.795 62.6706 218.025C62.9072 218.255 63.2237 218.385 63.5537 218.387H181.658C181.814 218.378 181.967 218.338 182.108 218.269C182.249 218.201 182.375 218.106 182.479 217.988C182.583 217.871 182.663 217.735 182.714 217.586C182.765 217.438 182.786 217.282 182.777 217.125Z" fill="white"/>
<path d="M85.4782 218.36H69.2012L87.9646 136.474H104.242L85.4782 218.36Z" fill="white"/>
<path d="M95.8501 218.36H89.9893L108.753 136.474H114.614L95.8501 218.36Z" fill="white"/>
<path d="M155.728 218.36H149.867L168.631 136.474H174.483L155.728 218.36Z" fill="white"/>
<path opacity="0.4" d="M118.832 134.093C118.854 134.334 118.964 134.557 119.141 134.721C119.318 134.885 119.55 134.978 119.791 134.981C120.027 134.981 120.252 134.888 120.419 134.721C120.586 134.555 120.679 134.329 120.679 134.093C120.661 133.851 120.552 133.625 120.374 133.46C120.196 133.295 119.963 133.204 119.72 133.205C119.485 133.205 119.259 133.298 119.092 133.465C118.926 133.632 118.832 133.858 118.832 134.093Z" fill="white"/>
<path d="M156.944 125.352C158.516 127.875 160.212 130.549 161.908 133.125C163.604 135.701 165.345 138.277 167.121 140.8C170.567 145.812 174.294 150.626 178.283 155.218C180.157 157.361 182.191 159.359 184.366 161.196L185.13 161.8C185.296 161.943 185.471 162.077 185.654 162.2C186.114 162.502 186.591 162.778 187.083 163.026C188.282 163.609 189.523 164.102 190.795 164.501C192.136 164.954 193.548 165.389 194.986 165.718C196.425 166.046 197.908 166.428 199.426 166.739C202.401 167.37 205.509 167.947 208.502 168.463V174.681C206.797 174.93 205.198 175.054 203.538 175.169C201.877 175.285 200.234 175.329 198.565 175.338C195.156 175.35 191.753 175.079 188.389 174.53C186.567 174.213 184.771 173.762 183.016 173.18C182.034 172.842 181.078 172.433 180.157 171.954C179.668 171.723 179.153 171.394 178.656 171.065L177.511 170.266C174.684 168.188 172.04 165.873 169.607 163.346C165.026 158.562 160.785 153.462 156.918 148.084C154.994 145.449 153.141 142.784 151.359 140.089C149.583 137.353 147.807 134.671 146.155 131.757L156.944 125.352Z" fill="#FFC3BD"/>
<path d="M142 127.075C141.112 134.875 159.697 153.512 159.697 153.512L172.271 143.012C168.587 136.774 164.508 130.778 160.062 125.059C152.913 116.202 142.968 118.254 142 127.075Z" fill="#407BFF"/>
<path opacity="0.3" d="M152.158 132.61C147.194 127.28 144.823 125.903 141.964 128.026C142.346 136.261 159.724 153.494 159.724 153.494C160.861 144.655 156.358 138.97 152.158 132.61Z" fill="black"/>
<path d="M171.251 139.414L172.574 143.252L158.508 154.8L155.729 151.904L171.251 139.414Z" fill="#407BFF"/>
<path opacity="0.3" d="M171.251 139.414L172.574 143.252L158.508 154.8L155.729 151.904L171.251 139.414Z" fill="#263238"/>
<path d="M207.836 168.338L217.604 170.017L212.232 178.598C210.953 178.803 205.856 176.04 203.601 172.611L207.836 168.338Z" fill="#FFC3BD"/>
<path d="M223.598 175.809L219.7 180.233L212.223 178.554L217.586 170.008L223.598 175.809Z" fill="#FFC3BD"/>
<path d="M152.114 119.605C152.114 119.605 162.77 144.673 155.098 191.364H110.698C110.156 184.55 113.282 151.3 105.601 119.178C110.489 118.229 115.433 117.603 120.404 117.304C126.688 116.939 132.989 116.939 139.274 117.304C143.607 117.738 147.9 118.508 152.114 119.605Z" fill="#407BFF"/>
<path opacity="0.3" d="M115.52 127.075C116.408 132.405 115.218 145.002 110.689 159.624C110.342 147.083 108.883 134.597 106.329 122.314V122.252C109.224 122.012 114.641 122.154 115.52 127.075Z" fill="black"/>
<path d="M121.531 96.046C122.934 102.122 124.506 113.253 120.403 117.304C120.403 117.304 122.179 122.332 133.457 122.332C145.889 122.332 139.273 117.304 139.273 117.304C132.445 115.687 132.445 110.659 133.457 105.942L121.531 96.046Z" fill="#FFC3BD"/>
<path d="M134.221 122.802L136.885 125.618C136.966 125.702 137.019 125.807 137.038 125.922C137.057 126.036 137.041 126.153 136.991 126.258L135.659 129.039C135.616 129.133 135.548 129.214 135.462 129.272C135.376 129.33 135.275 129.363 135.171 129.367L133.155 129.465C133.059 129.469 132.964 129.448 132.878 129.404C132.793 129.361 132.72 129.296 132.667 129.216L130.802 126.551C130.727 126.451 130.687 126.33 130.687 126.205C130.687 126.08 130.727 125.958 130.802 125.858L133.359 122.829C133.41 122.764 133.474 122.711 133.547 122.674C133.621 122.636 133.702 122.616 133.784 122.613C133.866 122.611 133.948 122.626 134.023 122.659C134.099 122.692 134.166 122.741 134.221 122.802Z" fill="white"/>
<path d="M133.785 122.332C132.504 124.394 131.762 126.747 131.627 129.172C131.627 129.172 117.215 124.242 117.872 117.028C119.152 116.408 120.384 115.692 121.558 114.887C121.558 114.887 122.028 119.445 133.785 122.332Z" fill="#263238"/>
<path d="M133.786 122.332C135.068 124.288 135.991 126.456 136.512 128.737C136.512 128.737 143.19 124.162 141.29 117.028L137.365 116.184C137.365 116.184 138.191 120.786 133.786 122.332Z" fill="#263238"/>
<path d="M135.419 129.065C136.307 132.015 143.003 153.885 143.172 159.117C143.176 159.162 143.176 159.206 143.172 159.251C142.55 162.067 139.762 167.006 138.625 168.942C138.581 169.019 138.517 169.082 138.44 169.123C138.362 169.165 138.274 169.184 138.187 169.179C138.099 169.173 138.014 169.143 137.942 169.092C137.871 169.041 137.815 168.97 137.781 168.889C137 166.979 135.117 162.404 133.874 159.73C133.851 159.68 133.836 159.626 133.83 159.57C133.244 150.021 133.084 135.168 132.791 129.234C132.787 129.17 132.797 129.106 132.819 129.046C132.841 128.985 132.875 128.93 132.919 128.884C132.963 128.837 133.016 128.8 133.075 128.775C133.134 128.749 133.197 128.736 133.261 128.737H134.975C135.074 128.738 135.171 128.77 135.251 128.829C135.33 128.888 135.389 128.971 135.419 129.065Z" fill="white"/>
<path opacity="0.2" d="M126.397 100.079L133.457 105.933C133.201 107.033 133.044 108.154 132.986 109.282C130.384 108.909 126.77 106.075 126.371 103.366C126.175 102.278 126.184 101.164 126.397 100.079Z" fill="black"/>
<path d="M138.918 77.9864C140.597 79.2389 143.465 84.5333 139.806 85.9191C136.148 87.3049 134.807 74.9127 138.918 77.9864Z" fill="#263238"/>
<path d="M119.346 88.7617C121.025 96.8544 121.602 101.66 126.335 105.382C127.86 106.611 129.692 107.399 131.633 107.661C133.574 107.923 135.549 107.649 137.345 106.868C139.141 106.088 140.69 104.831 141.823 103.233C142.957 101.636 143.632 99.7586 143.775 97.8049C144.468 90.2986 141.591 78.3328 133.119 75.9698C131.299 75.4119 129.365 75.3423 127.509 75.768C125.654 76.1938 123.943 77.0999 122.548 78.3955C121.153 79.6911 120.123 81.3308 119.561 83.1502C118.999 84.9696 118.925 86.9047 119.346 88.7617Z" fill="#FFC3BD"/>
<path d="M120.403 94.8557L123.796 92.5904L124.018 90.6184C124.329 87.759 123.795 84.871 122.481 82.3125C122.481 82.3125 138.972 82.9254 141.014 77.7643C143.056 72.6031 137.249 68.7211 137.249 68.7211C137.249 68.7211 131.415 72.0701 127.481 72.3366C123.547 72.6031 111.497 67.6817 111.497 77.8708C106.169 79.5143 106.346 88.282 120.377 94.8557" fill="#263238"/>
<path d="M112.092 78.2706C112.092 78.2706 109.907 76.5383 111.532 71.2439C109.534 72.2388 108.575 77.6488 112.092 78.2706Z" fill="#263238"/>
<path d="M116.958 98.1514C118.302 99.7579 120.208 100.791 122.286 101.038C125.039 101.332 125.838 98.791 124.648 96.4547C123.547 94.3583 120.795 91.6755 118.255 92.4661C115.715 93.2567 115.316 96.1527 116.958 98.1514Z" fill="#FFC3BD"/>
<path d="M158.845 218.36H130.474C127.925 202.956 125.874 191.364 125.874 191.364H155.098C155.098 191.364 156.741 202.761 158.845 218.36Z" fill="#263238"/>
<path d="M111.781 218.36C111.142 202.956 110.662 191.364 110.662 191.364H139.309C139.309 191.364 139.451 203.098 139.513 218.36H111.781Z" fill="#263238"/>
<path d="M132.071 89.6768C132.169 90.343 132.595 90.8405 133.031 90.7961C133.466 90.7517 133.741 90.1654 133.643 89.508C133.546 88.8506 133.119 88.3443 132.684 88.3887C132.249 88.4331 131.974 89.0105 132.071 89.6768Z" fill="#263238"/>
<path d="M139.593 88.8772C139.691 89.5435 140.117 90.0409 140.552 89.9876C140.987 89.9343 141.262 89.3658 141.165 88.7084C141.067 88.0511 140.641 87.5447 140.206 87.5891C139.771 87.6336 139.495 88.1843 139.593 88.8772Z" fill="#263238"/>
<path d="M137.249 89.4458C138.339 91.3918 139.683 93.1842 141.245 94.7758C140.233 96.0017 138.155 95.7174 138.155 95.7174L137.249 89.4458Z" fill="#ED847E"/>
<path d="M135.1 97.7605C135.557 97.8092 136.019 97.8092 136.476 97.7605C136.502 97.7583 136.527 97.751 136.55 97.7391C136.572 97.7271 136.593 97.7108 136.609 97.6909C136.626 97.6711 136.638 97.6482 136.646 97.6236C136.653 97.5989 136.656 97.573 136.654 97.5473C136.647 97.4947 136.62 97.4467 136.579 97.4135C136.537 97.3804 136.484 97.3646 136.432 97.3697C135.595 97.4761 134.745 97.3889 133.948 97.1147C133.15 96.8406 132.426 96.3868 131.832 95.7884C131.815 95.7686 131.794 95.7523 131.771 95.7404C131.748 95.7286 131.723 95.7214 131.697 95.7194C131.671 95.7173 131.644 95.7204 131.62 95.7284C131.595 95.7365 131.572 95.7493 131.552 95.7662C131.532 95.7831 131.516 95.8038 131.504 95.827C131.492 95.8502 131.485 95.8756 131.483 95.9015C131.481 95.9275 131.484 95.9537 131.492 95.9785C131.5 96.0033 131.513 96.0262 131.53 96.0461C132.478 97.0246 133.744 97.6326 135.1 97.7605Z" fill="#263238"/>
<path d="M129.355 87.5092C129.431 87.5186 129.508 87.505 129.576 87.4701C129.644 87.4353 129.7 87.3808 129.737 87.3137C129.965 86.8843 130.294 86.5172 130.697 86.2447C131.099 85.9721 131.562 85.8024 132.045 85.7503C132.15 85.7434 132.247 85.6958 132.317 85.6177C132.387 85.5397 132.423 85.4373 132.418 85.3327C132.416 85.2814 132.404 85.231 132.382 85.1845C132.36 85.1379 132.329 85.0961 132.292 85.0614C132.254 85.0268 132.209 85 132.161 84.9825C132.113 84.965 132.061 84.9573 132.01 84.9597C131.394 85.0208 130.803 85.2316 130.288 85.5738C129.772 85.916 129.348 86.3792 129.053 86.9229C129.026 86.9681 129.009 87.0183 129.002 87.0703C128.996 87.1224 128.999 87.1753 129.013 87.2259C129.027 87.2764 129.052 87.3237 129.084 87.3647C129.117 87.4057 129.158 87.4398 129.204 87.4648C129.249 87.4926 129.301 87.508 129.355 87.5092Z" fill="#263238"/>
<path d="M142.408 85.9191C142.502 85.9263 142.596 85.9012 142.675 85.848C142.759 85.7888 142.817 85.6994 142.836 85.5984C142.856 85.4975 142.836 85.3928 142.781 85.3061C142.444 84.7722 141.986 84.3247 141.445 83.9992C140.904 83.6738 140.294 83.4794 139.664 83.4318C139.561 83.4317 139.462 83.4713 139.388 83.5425C139.313 83.6137 139.269 83.7108 139.265 83.8138C139.265 83.9183 139.306 84.0186 139.379 84.0933C139.452 84.168 139.551 84.2112 139.655 84.2135C140.157 84.2607 140.64 84.4231 141.069 84.6882C141.497 84.9532 141.858 85.3137 142.124 85.7414C142.157 85.7891 142.199 85.8295 142.247 85.86C142.296 85.8906 142.351 85.9107 142.408 85.9191Z" fill="#263238"/>
<path d="M114.081 131.659L112.11 135.07C111.447 136.255 110.798 137.439 110.165 138.624C108.886 140.992 107.661 143.379 106.489 145.784C105.334 148.191 104.233 150.607 103.247 153.041C102.777 154.249 102.297 155.466 101.889 156.683L101.258 158.504L100.734 160.281L100.601 160.734L100.53 160.965C100.53 161.045 100.53 160.965 100.53 161.018C100.53 161.072 100.53 161.116 100.468 161.214C100.432 161.562 100.432 161.914 100.468 162.262C100.579 163.318 100.8 164.36 101.125 165.371C101.905 167.804 102.854 170.178 103.967 172.478C106.213 177.301 108.948 182.169 111.639 186.922L106.728 190.76C104.633 188.654 102.75 186.513 100.903 184.257C99.0561 182.001 97.3511 179.655 95.6728 177.15C93.9633 174.592 92.4778 171.89 91.2328 169.075C90.5232 167.47 89.9758 165.798 89.5989 164.083C89.3781 163.046 89.265 161.99 89.2615 160.93C89.2543 160.293 89.3018 159.657 89.4035 159.028L89.4746 158.567L89.5367 158.282L89.6522 157.705C90.2275 154.694 91.0078 151.726 91.9876 148.822C92.9289 145.961 94.03 143.207 95.2022 140.489C96.3743 137.771 97.6619 135.159 99.0383 132.547C99.731 131.259 100.432 129.98 101.17 128.701C101.907 127.422 102.635 126.214 103.514 124.854L114.081 131.659Z" fill="#FFC3BD"/>
<path d="M105.61 119.178C97.7954 120.324 89.7412 147.542 89.7412 147.542L106.56 156.861C106.56 156.861 113.371 143.909 116.621 134.298C120.022 124.224 113.984 117.952 105.61 119.178Z" fill="#407BFF"/>
<path d="M90.0873 143.705L89.377 147.702L106.657 157.207L108.957 153.921L90.0873 143.705Z" fill="#407BFF"/>
<path opacity="0.3" d="M90.0873 143.705L89.377 147.702L106.657 157.207L108.957 153.921L90.0873 143.705Z" fill="#263238"/>
<path d="M109.402 185.074L117.66 183.635L113.424 193.203C113.424 193.203 105.876 193.158 106.223 189.267L109.402 185.074Z" fill="#FFC3BD"/>
<path d="M123.831 188.441L119.942 196.17L113.424 193.203L117.66 183.635L123.831 188.441Z" fill="#FFC3BD"/>
<path d="M382.115 223.388H262.403C261.992 223.389 261.585 223.308 261.206 223.148C260.828 222.989 260.485 222.754 260.199 222.459C259.913 222.163 259.689 221.814 259.542 221.43C259.394 221.046 259.325 220.636 259.34 220.226L262.172 134.608C262.211 133.761 262.572 132.961 263.181 132.371C263.79 131.782 264.602 131.448 265.449 131.437H385.152C385.564 131.434 385.972 131.515 386.352 131.675C386.732 131.835 387.076 132.07 387.362 132.367C387.649 132.663 387.872 133.015 388.018 133.4C388.165 133.785 388.232 134.196 388.215 134.608L385.391 220.226C385.357 221.073 384.997 221.875 384.387 222.464C383.777 223.053 382.963 223.384 382.115 223.388Z" fill="#407BFF"/>
<path opacity="0.6" d="M382.115 223.388H262.403C261.992 223.389 261.585 223.308 261.206 223.148C260.828 222.989 260.485 222.754 260.199 222.459C259.913 222.163 259.689 221.814 259.542 221.43C259.394 221.046 259.325 220.636 259.34 220.226L262.172 134.608C262.211 133.761 262.572 132.961 263.181 132.371C263.79 131.782 264.602 131.448 265.449 131.437H385.152C385.564 131.434 385.972 131.515 386.352 131.675C386.732 131.835 387.076 132.07 387.362 132.367C387.649 132.663 387.872 133.015 388.018 133.4C388.165 133.785 388.232 134.196 388.215 134.608L385.391 220.226C385.357 221.073 384.997 221.875 384.387 222.464C383.777 223.053 382.963 223.384 382.115 223.388Z" fill="#263238"/>
<path d="M381.138 223.388H261.427C261.016 223.389 260.609 223.308 260.23 223.148C259.851 222.988 259.508 222.754 259.222 222.459C258.936 222.163 258.713 221.813 258.565 221.43C258.418 221.046 258.349 220.636 258.363 220.225L261.196 134.608C261.234 133.761 261.595 132.961 262.204 132.371C262.814 131.782 263.625 131.447 264.473 131.437H384.175C384.587 131.436 384.995 131.517 385.374 131.678C385.753 131.838 386.097 132.073 386.383 132.369C386.669 132.666 386.892 133.017 387.039 133.401C387.186 133.786 387.254 134.197 387.239 134.608L384.406 220.225C384.372 221.072 384.013 221.872 383.405 222.461C382.796 223.05 381.985 223.382 381.138 223.388Z" fill="#407BFF"/>
<path d="M379.593 223.237H235.018C234.307 223.237 233.61 223.436 233.007 223.813C232.404 224.19 231.919 224.729 231.608 225.369C231.528 225.536 231.492 225.721 231.503 225.906C231.514 226.091 231.572 226.27 231.672 226.426C231.771 226.583 231.909 226.711 232.072 226.8C232.234 226.888 232.417 226.934 232.602 226.932H382.008C382.194 226.935 382.378 226.891 382.542 226.803C382.706 226.715 382.845 226.587 382.945 226.43C383.046 226.274 383.105 226.094 383.116 225.908C383.128 225.722 383.092 225.537 383.012 225.369C382.699 224.729 382.212 224.189 381.608 223.812C381.003 223.435 380.305 223.236 379.593 223.237Z" fill="#407BFF"/>
<path opacity="0.6" d="M379.593 223.237H357.393C356.68 223.236 355.982 223.435 355.378 223.812C354.773 224.189 354.287 224.729 353.974 225.369C353.894 225.537 353.858 225.722 353.869 225.908C353.881 226.094 353.94 226.274 354.04 226.43C354.141 226.587 354.28 226.715 354.444 226.803C354.608 226.891 354.791 226.935 354.977 226.932H381.964C382.15 226.935 382.333 226.891 382.497 226.803C382.661 226.715 382.8 226.587 382.901 226.43C383.001 226.274 383.06 226.094 383.072 225.908C383.083 225.722 383.047 225.537 382.967 225.369C382.658 224.735 382.178 224.201 381.582 223.824C380.986 223.448 380.297 223.244 379.593 223.237Z" fill="#263238"/>
<path opacity="0.2" d="M303.98 225.582H273.966C273.609 225.584 273.268 225.728 273.017 225.981C272.766 226.234 272.625 226.576 272.625 226.932H305.33C305.33 226.574 305.188 226.231 304.935 225.978C304.682 225.724 304.338 225.582 303.98 225.582Z" fill="black"/>
<path opacity="0.9" d="M261.223 217.125L263.887 137.709C263.902 137.379 264.043 137.067 264.281 136.838C264.519 136.608 264.835 136.478 265.165 136.474H383.269C383.43 136.472 383.589 136.504 383.737 136.566C383.885 136.628 384.018 136.72 384.13 136.835C384.241 136.951 384.328 137.088 384.384 137.238C384.441 137.388 384.466 137.548 384.459 137.709L381.795 217.125C381.784 217.455 381.645 217.768 381.408 217.998C381.172 218.228 380.855 218.358 380.525 218.36H262.421C262.26 218.361 262.101 218.33 261.953 218.268C261.804 218.206 261.67 218.114 261.558 217.999C261.446 217.884 261.358 217.747 261.301 217.596C261.243 217.446 261.217 217.286 261.223 217.125Z" fill="white"/>
<path d="M345.183 218.36H328.906L347.67 136.474H363.947L345.183 218.36Z" fill="white"/>
<path d="M274.507 218.36H268.646L287.41 136.474H293.262L274.507 218.36Z" fill="white"/>
<path d="M358.53 218.36H352.669L371.432 136.474H377.293L358.53 218.36Z" fill="white"/>
<path opacity="0.4" d="M325.167 134.093C325.145 134.334 325.035 134.557 324.858 134.721C324.681 134.885 324.45 134.978 324.208 134.981C323.973 134.981 323.747 134.888 323.58 134.721C323.414 134.555 323.32 134.329 323.32 134.093C323.338 133.851 323.447 133.625 323.625 133.46C323.803 133.295 324.037 133.204 324.279 133.205C324.515 133.205 324.741 133.298 324.907 133.465C325.074 133.632 325.167 133.858 325.167 134.093Z" fill="black"/>
<path d="M316.536 96.046C315.142 102.122 313.561 113.253 317.672 117.304C317.672 117.304 315.896 122.332 304.619 122.332C292.187 122.332 298.802 117.304 298.802 117.304C305.631 115.687 305.631 110.659 304.61 105.942L316.536 96.046Z" fill="#B55B52"/>
<path d="M334.607 124.908C335.495 126.267 336.223 127.457 336.952 128.754C337.68 130.051 338.399 131.313 339.092 132.601C340.459 135.195 341.756 137.833 342.928 140.542C344.1 143.252 345.201 146.015 346.134 148.875C347.116 151.779 347.9 154.747 348.478 157.758L348.593 158.336L348.647 158.62L348.726 159.082C348.819 159.711 348.867 160.347 348.869 160.983C348.856 162.042 348.743 163.098 348.531 164.136C348.151 165.851 347.601 167.524 346.888 169.129C345.647 171.945 344.161 174.647 342.448 177.204C340.797 179.682 339.056 182.027 337.209 184.31C335.378 186.574 333.433 188.744 331.384 190.813L326.482 186.975C329.146 182.223 331.908 177.355 334.154 172.531C335.264 170.232 336.211 167.857 336.987 165.424C337.313 164.414 337.533 163.372 337.644 162.315C337.684 161.967 337.684 161.615 337.644 161.267C337.644 161.169 337.644 161.081 337.573 161.072V161.018L337.511 160.787L337.378 160.334L336.845 158.558L336.223 156.737C335.806 155.52 335.335 154.303 334.856 153.094C333.87 150.66 332.769 148.244 331.624 145.837C330.478 143.429 329.217 141.049 327.947 138.677C327.32 137.492 326.672 136.308 326.003 135.124L324.031 131.721L334.607 124.908Z" fill="#B65B52"/>
<path d="M332.467 119.178C340.281 120.324 348.327 147.542 348.327 147.542L331.517 156.861C331.517 156.861 324.697 143.954 321.456 134.297C318.046 124.224 324.12 117.952 332.467 119.178Z" fill="#263238"/>
<path opacity="0.3" d="M327.378 134.093L326.108 145.73C327.378 148.528 328.621 151.06 329.589 153.059C329.953 148.395 329.945 140.809 327.378 134.093Z" fill="black"/>
<path d="M347.98 143.705L348.7 147.702L331.419 157.207L329.119 153.921L347.98 143.705Z" fill="#407BFF"/>
<path opacity="0.3" d="M347.98 143.705L348.7 147.702L331.419 157.207L329.119 153.921L347.98 143.705Z" fill="#263238"/>
<path d="M328.675 185.074L320.408 183.635L324.653 193.203C324.653 193.203 332.192 193.158 331.846 189.267L328.675 185.074Z" fill="#B55B52"/>
<path d="M314.245 188.441L318.126 196.17L324.652 193.203L320.408 183.635L314.245 188.441Z" fill="#B55B52"/>
<path d="M285.935 119.605C285.935 119.605 275.279 144.673 282.961 191.364H327.361C327.902 184.55 324.768 151.3 332.458 119.178C327.576 118.231 322.637 117.605 317.673 117.304C311.388 116.939 305.087 116.939 298.803 117.304C294.461 117.737 290.159 118.506 285.935 119.605Z" fill="#263238"/>
<path opacity="0.3" d="M281.185 141.049C280.54 146.667 280.21 152.317 280.199 157.971C286.238 154.036 288.387 145.011 289.239 138.473L281.185 141.049Z" fill="black"/>
<path d="M291.956 131.766C290.26 134.679 288.546 137.362 286.752 140.098C284.959 142.834 283.12 145.49 281.193 148.093C277.323 153.471 273.08 158.571 268.495 163.355C266.063 165.88 263.422 168.195 260.601 170.275L259.446 171.074C258.949 171.376 258.434 171.705 257.954 171.963C257.029 172.44 256.071 172.85 255.086 173.188C253.331 173.771 251.535 174.222 249.714 174.539C246.35 175.089 242.946 175.359 239.537 175.347C237.877 175.347 236.216 175.347 234.573 175.178C232.931 175.009 231.306 174.938 229.601 174.69V168.471C232.593 167.956 235.701 167.379 238.667 166.748C240.159 166.437 241.642 166.1 243.107 165.726C244.572 165.353 245.966 164.963 247.298 164.509C248.571 164.113 249.812 163.62 251.01 163.035C251.502 162.787 251.98 162.511 252.44 162.209C252.662 162.075 252.795 161.933 252.973 161.809L253.736 161.205C255.907 159.364 257.941 157.365 259.819 155.226C263.803 150.63 267.53 145.817 270.981 140.809C272.757 138.286 274.471 135.71 276.194 133.134C277.917 130.558 279.577 127.884 281.158 125.361L291.956 131.766Z" fill="#B65B52"/>
<path d="M296.068 127.075C296.956 134.875 279.569 153.796 279.569 153.796L265.813 143.03C269.494 136.791 273.569 130.795 278.015 125.077C285.154 116.202 295.082 118.254 296.068 127.075Z" fill="#263238"/>
<path d="M266.826 139.414L265.503 143.252L279.56 154.8L282.348 151.904L266.826 139.414Z" fill="#407BFF"/>
<path opacity="0.3" d="M266.826 139.414L265.503 143.252L279.56 154.8L282.348 151.904L266.826 139.414Z" fill="#263238"/>
<path d="M229.601 168.498L219.7 168.64L223.687 177.914C224.913 178.314 230.383 176.369 233.136 173.331L229.601 168.498Z" fill="#B55B52"/>
<path d="M212.871 173.446L218.279 180.233L223.687 177.906L219.7 168.64L212.871 173.446Z" fill="#B55B52"/>
<path d="M296.014 88.8772C295.917 89.5435 295.49 90.0409 295.055 89.9876C294.62 89.9343 294.345 89.3658 294.434 88.7084C294.522 88.0511 294.966 87.5447 295.402 87.5891C295.837 87.6336 296.112 88.1843 296.014 88.8772Z" fill="#263238"/>
<path d="M296.201 89.4458C295.11 91.3935 293.763 93.1861 292.196 94.7758C293.217 96.0017 295.295 95.7174 295.295 95.7174L296.201 89.4458Z" fill="#A02724"/>
<path d="M295.073 94.3494C293.59 94.3494 292.249 92.2085 292.009 89.4725C291.783 87.9515 292.152 86.4018 293.04 85.1463C293.192 84.9627 293.381 84.8137 293.596 84.7095C293.81 84.6053 294.044 84.5483 294.283 84.5422C295.766 84.5422 297.107 86.6742 297.346 89.4103C297.582 90.9319 297.219 92.4857 296.334 93.7453C296.18 93.9272 295.99 94.075 295.776 94.179C295.562 94.2831 295.329 94.3411 295.091 94.3494H295.073ZM294.274 84.9864C294.103 84.996 293.935 85.0413 293.782 85.1193C293.629 85.1973 293.494 85.3063 293.386 85.4395C292.592 86.6104 292.275 88.04 292.498 89.4369C292.711 91.8621 293.91 93.8786 295.162 93.8786C295.334 93.8673 295.502 93.8205 295.654 93.741C295.807 93.6614 295.942 93.551 296.05 93.4166C296.848 92.251 297.166 90.8223 296.938 89.428C296.68 87.0296 295.482 84.9864 294.274 84.9864Z" fill="#263238"/>
<path d="M298.368 85.9191C298.46 85.9264 298.551 85.9012 298.626 85.848C298.669 85.8201 298.706 85.7839 298.735 85.7415C298.765 85.6992 298.785 85.6514 298.796 85.6011C298.807 85.5507 298.807 85.4987 298.798 85.4481C298.789 85.3975 298.769 85.3493 298.741 85.3061C298.404 84.7722 297.946 84.3247 297.405 83.9992C296.864 83.6738 296.254 83.4794 295.624 83.4318C295.521 83.4317 295.422 83.4713 295.348 83.5425C295.273 83.6137 295.229 83.7108 295.225 83.8138C295.225 83.9182 295.265 84.0186 295.339 84.0933C295.412 84.168 295.511 84.2112 295.615 84.2135C296.117 84.2607 296.6 84.4231 297.029 84.6882C297.457 84.9532 297.818 85.3137 298.084 85.7414C298.117 85.7891 298.159 85.8295 298.208 85.86C298.256 85.8906 298.311 85.9107 298.368 85.9191Z" fill="#263238"/>
<path d="M318.729 88.7617C317.042 96.8544 316.474 101.66 311.732 105.382C310.207 106.608 308.375 107.394 306.436 107.655C304.497 107.915 302.523 107.641 300.728 106.861C298.934 106.08 297.386 104.825 296.253 103.228C295.12 101.632 294.445 99.757 294.3 97.8049C293.608 90.2985 296.476 78.3327 304.956 75.9698C306.776 75.4147 308.71 75.3472 310.564 75.774C312.418 76.2008 314.127 77.107 315.522 78.4019C316.916 79.6968 317.946 81.3352 318.509 83.1532C319.072 84.9712 319.148 86.9051 318.729 88.7617Z" fill="#B55B52"/>
<path d="M329.759 218.36C330.175 209.297 329.384 200.218 327.406 191.364H298.759C300.983 200.188 302.084 209.259 302.036 218.36H329.759Z" fill="#407BFF"/>
<path opacity="0.3" d="M329.759 218.36C330.175 209.297 329.384 200.218 327.406 191.364H298.759C300.983 200.188 302.084 209.259 302.036 218.36H329.759Z" fill="white"/>
<path d="M301.183 91.1958C299.602 90.4052 297.631 82.508 298.173 79.7009C298.714 76.8937 305.081 73.8734 311.342 75.0105C317.602 76.1475 320.293 78.3417 321.509 84.0448C322.761 89.961 318.197 99.8126 315.942 100.577C314.605 101.05 313.182 101.233 311.769 101.114C310.355 100.995 308.984 100.575 307.745 99.8837C305.73 98.6489 304.682 89.5702 301.183 91.1958Z" fill="#263238"/>
<path d="M299.522 82.5346C296.467 82.7122 293.554 77.8442 296.36 73.5003C297.166 72.2621 298.312 71.2827 299.66 70.6792C301.008 70.0758 302.502 69.874 303.962 70.098C303.962 70.098 302.683 72.5942 306.945 72.0701C311.208 71.5459 319.146 72.7363 321.917 75.7211C325.345 79.3988 323.276 86.6298 318.116 84.8531C312.957 83.0764 299.522 82.5346 299.522 82.5346Z" fill="#263238"/>
<path d="M298.705 82.6589C298.066 82.6285 297.441 82.4622 296.871 82.1712C296.302 81.8801 295.801 81.471 295.401 80.9711C294.604 80.0166 294.086 78.8592 293.908 77.6279C293.729 76.3966 293.896 75.1398 294.389 73.9977C294.4 73.9703 294.417 73.9453 294.437 73.9242C294.458 73.9032 294.483 73.8864 294.51 73.8748C294.537 73.8633 294.566 73.8572 294.596 73.8569C294.625 73.8567 294.655 73.8623 294.682 73.8733C294.71 73.8844 294.735 73.9008 294.756 73.9215C294.777 73.9423 294.793 73.9669 294.805 73.9942C294.817 74.0214 294.823 74.0506 294.823 74.0802C294.823 74.1097 294.818 74.1391 294.806 74.1665C294.338 75.2305 294.177 76.4047 294.342 77.5556C294.506 78.7066 294.99 79.7883 295.739 80.6779C296.15 81.229 296.704 81.6563 297.342 81.9133C297.979 82.1702 298.675 82.2468 299.353 82.1348C299.409 82.1235 299.468 82.1337 299.517 82.1632C299.566 82.1928 299.603 82.2397 299.619 82.2947C299.633 82.3524 299.624 82.4131 299.595 82.4644C299.565 82.5156 299.516 82.5535 299.46 82.5701C299.213 82.6302 298.959 82.66 298.705 82.6589Z" fill="#263238"/>
<path d="M306.2 90.1742C306.33 92.2727 305.653 94.3414 304.308 95.9573C302.532 98.0626 300.161 96.7923 299.442 94.2605C298.794 91.9775 298.945 88.14 301.333 86.9585C303.722 85.777 306.013 87.607 306.2 90.1742Z" fill="#B55B52"/>
<path d="M279.231 218.36H311.066C312.606 209.448 312.985 200.373 312.194 191.364H282.979C282.979 191.364 281.336 202.761 279.231 218.36Z" fill="#407BFF"/>
<path opacity="0.3" d="M279.231 218.36H311.066C312.606 209.448 312.985 200.373 312.194 191.364H282.979C282.979 191.364 281.336 202.761 279.231 218.36Z" fill="white"/>
</svg>
